%
M48
M72
T01C0.0236
T02C0.0400
%
T01
X7406Y13206
X10706Y5206
X11706Y4706
T02
X1106Y1706
X1106Y2706
X1106Y3706
X1106Y4706
X1106Y5706
X1106Y6706
X1106Y7706
X1106Y8706
X1106Y9706
X1106Y10706
X1106Y11706
X1106Y12706
X1106Y13706
X1106Y14706
X1106Y15706
X1106Y16706
X1106Y17706
X1106Y18706
X1106Y19706
X1106Y20706
X2106Y20706
X2106Y19706
X2106Y18706
X2106Y17706
X2106Y16706
X2106Y15706
X2106Y14706
X2106Y13706
X2106Y12706
X2106Y11706
X2106Y10706
X2106Y9706
X2106Y8706
X2106Y7706
X2106Y6706
X2106Y5706
X2106Y4706
X2106Y3706
X2106Y2706
X2106Y1706
X9206Y2706
X10206Y2706
X11206Y2706
X12206Y2706
X13206Y2706
X14206Y2706
X15206Y2706
X16206Y2706
X16206Y11706
X15206Y11706
X14206Y11706
X13206Y11706
X12206Y11706
X11206Y11706
X10206Y11706
X9206Y11706
X9206Y14706
X10206Y14706
X11206Y14706
X12206Y14706
X13206Y14706
X14206Y14706
X15206Y14706
X16206Y14706
X16206Y23706
X15206Y23706
X14206Y23706
X13206Y23706
X12206Y23706
X11206Y23706
X10206Y23706
X9206Y23706
M30
