G75*
G70*
%OFA0B0*%
%FSLAX24Y24*%
%IPPOS*%
%LPD*%
%AMOC8*
5,1,8,0,0,1.08239X$1,22.5*
%
%ADD10OC8,0.0720*%
%ADD11R,0.0720X0.0720*%
%ADD12C,0.0500*%
%ADD13C,0.0671*%
D10*
X001106Y001706D03*
X001106Y002706D03*
X001106Y003706D03*
X001106Y004706D03*
X001106Y005706D03*
X001106Y006706D03*
X001106Y007706D03*
X001106Y008706D03*
X001106Y009706D03*
X001106Y010706D03*
X001106Y011706D03*
X001106Y012706D03*
X001106Y013706D03*
X001106Y014706D03*
X001106Y015706D03*
X001106Y016706D03*
X001106Y017706D03*
X001106Y018706D03*
X001106Y019706D03*
X001106Y020706D03*
X002106Y020706D03*
X002106Y019706D03*
X002106Y018706D03*
X002106Y017706D03*
X002106Y016706D03*
X002106Y015706D03*
X002106Y014706D03*
X002106Y013706D03*
X002106Y012706D03*
X002106Y011706D03*
X002106Y010706D03*
X002106Y009706D03*
X002106Y008706D03*
X002106Y007706D03*
X002106Y006706D03*
X002106Y005706D03*
X002106Y004706D03*
X002106Y003706D03*
X002106Y002706D03*
X002106Y001706D03*
X009206Y002706D03*
X010206Y002706D03*
X011206Y002706D03*
X012206Y002706D03*
X013206Y002706D03*
X014206Y002706D03*
X015206Y002706D03*
X015206Y011706D03*
X014206Y011706D03*
X013206Y011706D03*
X012206Y011706D03*
X011206Y011706D03*
X010206Y011706D03*
X009206Y011706D03*
X009206Y014706D03*
X010206Y014706D03*
X011206Y014706D03*
X012206Y014706D03*
X013206Y014706D03*
X014206Y014706D03*
X015206Y014706D03*
X015206Y023706D03*
X014206Y023706D03*
X013206Y023706D03*
X012206Y023706D03*
X011206Y023706D03*
X010206Y023706D03*
X009206Y023706D03*
D11*
X016206Y023706D03*
X016206Y014706D03*
X016206Y011706D03*
X016206Y002706D03*
D12*
X018350Y000706D02*
X018352Y000743D01*
X018358Y000780D01*
X018367Y000816D01*
X018381Y000851D01*
X018398Y000884D01*
X018418Y000915D01*
X018441Y000944D01*
X018468Y000971D01*
X018497Y000994D01*
X018528Y001014D01*
X018561Y001031D01*
X018596Y001045D01*
X018632Y001054D01*
X018669Y001060D01*
X018706Y001062D01*
X018743Y001060D01*
X018780Y001054D01*
X018816Y001045D01*
X018851Y001031D01*
X018884Y001014D01*
X018915Y000994D01*
X018944Y000971D01*
X018971Y000944D01*
X018994Y000915D01*
X019014Y000884D01*
X019031Y000851D01*
X019045Y000816D01*
X019054Y000780D01*
X019060Y000743D01*
X019062Y000706D01*
X019060Y000669D01*
X019054Y000632D01*
X019045Y000596D01*
X019031Y000561D01*
X019014Y000528D01*
X018994Y000497D01*
X018971Y000468D01*
X018944Y000441D01*
X018915Y000418D01*
X018884Y000398D01*
X018851Y000381D01*
X018816Y000367D01*
X018780Y000358D01*
X018743Y000352D01*
X018706Y000350D01*
X018669Y000352D01*
X018632Y000358D01*
X018596Y000367D01*
X018561Y000381D01*
X018528Y000398D01*
X018497Y000418D01*
X018468Y000441D01*
X018441Y000468D01*
X018418Y000497D01*
X018398Y000528D01*
X018381Y000561D01*
X018367Y000596D01*
X018358Y000632D01*
X018352Y000669D01*
X018350Y000706D01*
X000350Y000706D02*
X000352Y000743D01*
X000358Y000780D01*
X000367Y000816D01*
X000381Y000851D01*
X000398Y000884D01*
X000418Y000915D01*
X000441Y000944D01*
X000468Y000971D01*
X000497Y000994D01*
X000528Y001014D01*
X000561Y001031D01*
X000596Y001045D01*
X000632Y001054D01*
X000669Y001060D01*
X000706Y001062D01*
X000743Y001060D01*
X000780Y001054D01*
X000816Y001045D01*
X000851Y001031D01*
X000884Y001014D01*
X000915Y000994D01*
X000944Y000971D01*
X000971Y000944D01*
X000994Y000915D01*
X001014Y000884D01*
X001031Y000851D01*
X001045Y000816D01*
X001054Y000780D01*
X001060Y000743D01*
X001062Y000706D01*
X001060Y000669D01*
X001054Y000632D01*
X001045Y000596D01*
X001031Y000561D01*
X001014Y000528D01*
X000994Y000497D01*
X000971Y000468D01*
X000944Y000441D01*
X000915Y000418D01*
X000884Y000398D01*
X000851Y000381D01*
X000816Y000367D01*
X000780Y000358D01*
X000743Y000352D01*
X000706Y000350D01*
X000669Y000352D01*
X000632Y000358D01*
X000596Y000367D01*
X000561Y000381D01*
X000528Y000398D01*
X000497Y000418D01*
X000468Y000441D01*
X000441Y000468D01*
X000418Y000497D01*
X000398Y000528D01*
X000381Y000561D01*
X000367Y000596D01*
X000358Y000632D01*
X000352Y000669D01*
X000350Y000706D01*
X000350Y025306D02*
X000352Y025343D01*
X000358Y025380D01*
X000367Y025416D01*
X000381Y025451D01*
X000398Y025484D01*
X000418Y025515D01*
X000441Y025544D01*
X000468Y025571D01*
X000497Y025594D01*
X000528Y025614D01*
X000561Y025631D01*
X000596Y025645D01*
X000632Y025654D01*
X000669Y025660D01*
X000706Y025662D01*
X000743Y025660D01*
X000780Y025654D01*
X000816Y025645D01*
X000851Y025631D01*
X000884Y025614D01*
X000915Y025594D01*
X000944Y025571D01*
X000971Y025544D01*
X000994Y025515D01*
X001014Y025484D01*
X001031Y025451D01*
X001045Y025416D01*
X001054Y025380D01*
X001060Y025343D01*
X001062Y025306D01*
X001060Y025269D01*
X001054Y025232D01*
X001045Y025196D01*
X001031Y025161D01*
X001014Y025128D01*
X000994Y025097D01*
X000971Y025068D01*
X000944Y025041D01*
X000915Y025018D01*
X000884Y024998D01*
X000851Y024981D01*
X000816Y024967D01*
X000780Y024958D01*
X000743Y024952D01*
X000706Y024950D01*
X000669Y024952D01*
X000632Y024958D01*
X000596Y024967D01*
X000561Y024981D01*
X000528Y024998D01*
X000497Y025018D01*
X000468Y025041D01*
X000441Y025068D01*
X000418Y025097D01*
X000398Y025128D01*
X000381Y025161D01*
X000367Y025196D01*
X000358Y025232D01*
X000352Y025269D01*
X000350Y025306D01*
X018350Y025306D02*
X018352Y025343D01*
X018358Y025380D01*
X018367Y025416D01*
X018381Y025451D01*
X018398Y025484D01*
X018418Y025515D01*
X018441Y025544D01*
X018468Y025571D01*
X018497Y025594D01*
X018528Y025614D01*
X018561Y025631D01*
X018596Y025645D01*
X018632Y025654D01*
X018669Y025660D01*
X018706Y025662D01*
X018743Y025660D01*
X018780Y025654D01*
X018816Y025645D01*
X018851Y025631D01*
X018884Y025614D01*
X018915Y025594D01*
X018944Y025571D01*
X018971Y025544D01*
X018994Y025515D01*
X019014Y025484D01*
X019031Y025451D01*
X019045Y025416D01*
X019054Y025380D01*
X019060Y025343D01*
X019062Y025306D01*
X019060Y025269D01*
X019054Y025232D01*
X019045Y025196D01*
X019031Y025161D01*
X019014Y025128D01*
X018994Y025097D01*
X018971Y025068D01*
X018944Y025041D01*
X018915Y025018D01*
X018884Y024998D01*
X018851Y024981D01*
X018816Y024967D01*
X018780Y024958D01*
X018743Y024952D01*
X018706Y024950D01*
X018669Y024952D01*
X018632Y024958D01*
X018596Y024967D01*
X018561Y024981D01*
X018528Y024998D01*
X018497Y025018D01*
X018468Y025041D01*
X018441Y025068D01*
X018418Y025097D01*
X018398Y025128D01*
X018381Y025161D01*
X018367Y025196D01*
X018358Y025232D01*
X018352Y025269D01*
X018350Y025306D01*
D13*
X000706Y000706D03*
X018706Y000706D03*
X018706Y025306D03*
X000706Y025306D03*
M02*
