G75*
G70*
%OFA0B0*%
%FSLAX24Y24*%
%IPPOS*%
%LPD*%
%AMOC8*
5,1,8,0,0,1.08239X$1,22.5*
%
%ADD10OC8,0.0720*%
%ADD11R,0.0720X0.0720*%
D10*
X001106Y001706D03*
X001106Y002706D03*
X001106Y003706D03*
X001106Y004706D03*
X001106Y005706D03*
X001106Y006706D03*
X001106Y007706D03*
X001106Y008706D03*
X001106Y009706D03*
X001106Y010706D03*
X001106Y011706D03*
X001106Y012706D03*
X001106Y013706D03*
X001106Y014706D03*
X001106Y015706D03*
X001106Y016706D03*
X001106Y017706D03*
X001106Y018706D03*
X001106Y019706D03*
X001106Y020706D03*
X002106Y020706D03*
X002106Y019706D03*
X002106Y018706D03*
X002106Y017706D03*
X002106Y016706D03*
X002106Y015706D03*
X002106Y014706D03*
X002106Y013706D03*
X002106Y012706D03*
X002106Y011706D03*
X002106Y010706D03*
X002106Y009706D03*
X002106Y008706D03*
X002106Y007706D03*
X002106Y006706D03*
X002106Y005706D03*
X002106Y004706D03*
X002106Y003706D03*
X002106Y002706D03*
X002106Y001706D03*
X009206Y002706D03*
X010206Y002706D03*
X011206Y002706D03*
X012206Y002706D03*
X013206Y002706D03*
X014206Y002706D03*
X015206Y002706D03*
X015206Y011706D03*
X014206Y011706D03*
X013206Y011706D03*
X012206Y011706D03*
X011206Y011706D03*
X010206Y011706D03*
X009206Y011706D03*
X009206Y014706D03*
X010206Y014706D03*
X011206Y014706D03*
X012206Y014706D03*
X013206Y014706D03*
X014206Y014706D03*
X015206Y014706D03*
X015206Y023706D03*
X014206Y023706D03*
X013206Y023706D03*
X012206Y023706D03*
X011206Y023706D03*
X010206Y023706D03*
X009206Y023706D03*
D11*
X016206Y023706D03*
X016206Y014706D03*
X016206Y011706D03*
X016206Y002706D03*
M02*
