G75*
G70*
%OFA0B0*%
%FSLAX24Y24*%
%IPPOS*%
%LPD*%
%AMOC8*
5,1,8,0,0,1.08239X$1,22.5*
%
%ADD10OC8,0.0640*%
%ADD11R,0.0640X0.0640*%
%ADD12C,0.0436*%
%ADD13C,0.0160*%
%ADD14C,0.0100*%
%ADD15C,0.0400*%
D10*
X001106Y001706D03*
X001106Y002706D03*
X001106Y003706D03*
X001106Y004706D03*
X001106Y005706D03*
X001106Y006706D03*
X001106Y007706D03*
X001106Y008706D03*
X001106Y009706D03*
X001106Y010706D03*
X001106Y011706D03*
X001106Y012706D03*
X001106Y013706D03*
X001106Y014706D03*
X001106Y015706D03*
X001106Y016706D03*
X001106Y017706D03*
X001106Y018706D03*
X001106Y019706D03*
X001106Y020706D03*
X002106Y020706D03*
X002106Y019706D03*
X002106Y018706D03*
X002106Y017706D03*
X002106Y016706D03*
X002106Y015706D03*
X002106Y014706D03*
X002106Y013706D03*
X002106Y012706D03*
X002106Y011706D03*
X002106Y010706D03*
X002106Y009706D03*
X002106Y008706D03*
X002106Y007706D03*
X002106Y006706D03*
X002106Y005706D03*
X002106Y004706D03*
X002106Y003706D03*
X002106Y002706D03*
X002106Y001706D03*
X009206Y002706D03*
X010206Y002706D03*
X011206Y002706D03*
X012206Y002706D03*
X013206Y002706D03*
X014206Y002706D03*
X015206Y002706D03*
X015206Y011706D03*
X014206Y011706D03*
X013206Y011706D03*
X012206Y011706D03*
X011206Y011706D03*
X010206Y011706D03*
X009206Y011706D03*
X009206Y014706D03*
X010206Y014706D03*
X011206Y014706D03*
X012206Y014706D03*
X013206Y014706D03*
X014206Y014706D03*
X015206Y014706D03*
X015206Y023706D03*
X014206Y023706D03*
X013206Y023706D03*
X012206Y023706D03*
X011206Y023706D03*
X010206Y023706D03*
X009206Y023706D03*
D11*
X016206Y023706D03*
X016206Y014706D03*
X016206Y011706D03*
X016206Y002706D03*
D12*
X011706Y004706D03*
X010706Y005206D03*
X007406Y013206D03*
D13*
X009206Y011706D02*
X009206Y014706D01*
X009706Y014206D02*
X009706Y003206D01*
X010206Y002706D01*
X009206Y001706D01*
X003106Y001706D01*
X002106Y002706D01*
X002106Y001706D02*
X003206Y000606D01*
X018106Y000606D01*
X018906Y001406D01*
X018906Y024806D01*
X018106Y025606D01*
X009106Y025606D01*
X009206Y025506D01*
X009206Y023706D01*
X009106Y025606D02*
X001006Y025606D01*
X000406Y025006D01*
X000406Y016706D01*
X001106Y016706D01*
X000406Y016706D02*
X000406Y011706D01*
X001106Y011706D01*
X000406Y011706D02*
X000406Y006606D01*
X000506Y006706D01*
X001106Y006706D01*
X000406Y006606D02*
X000406Y003406D01*
X001106Y002706D01*
X001106Y003706D02*
X001206Y003706D01*
X001706Y004206D01*
X002706Y004206D01*
X009206Y002706D02*
X009206Y011706D01*
X009706Y014206D02*
X010206Y014706D01*
X010706Y014206D02*
X011206Y014706D01*
X010706Y014206D02*
X010706Y005206D01*
X010706Y003206D01*
X011206Y002706D01*
X011706Y003206D02*
X012206Y002706D01*
X011706Y003206D02*
X011706Y004706D01*
X011706Y014206D01*
X012206Y014706D01*
D14*
X000416Y025593D02*
X000416Y000416D01*
X018967Y000416D01*
X018967Y025593D01*
X000416Y025593D01*
X000446Y025593D02*
X000446Y000416D01*
X000416Y000446D02*
X018967Y000446D01*
X018926Y000416D02*
X018926Y025593D01*
X018967Y025526D02*
X000416Y025526D01*
X000416Y025406D02*
X018967Y025406D01*
X018967Y025286D02*
X000416Y025286D01*
X000416Y025166D02*
X018967Y025166D01*
X018967Y025046D02*
X000416Y025046D01*
X000416Y024926D02*
X018967Y024926D01*
X018967Y024806D02*
X000416Y024806D01*
X000416Y024686D02*
X018967Y024686D01*
X018967Y024566D02*
X000416Y024566D01*
X000416Y024446D02*
X018967Y024446D01*
X018967Y024326D02*
X000416Y024326D01*
X000416Y024206D02*
X009957Y024206D01*
X009987Y024236D02*
X009676Y023926D01*
X009676Y023656D01*
X009656Y023636D01*
X009656Y023656D01*
X009257Y023656D01*
X009256Y023656D02*
X009256Y023256D01*
X009277Y023256D01*
X009137Y023116D01*
X007425Y023116D01*
X007274Y023054D01*
X007059Y022839D01*
X006996Y022688D01*
X006996Y013335D01*
X006978Y013292D01*
X006978Y013121D01*
X006996Y013078D01*
X006996Y004616D01*
X002636Y004616D01*
X002636Y004926D01*
X002356Y005206D01*
X002636Y005487D01*
X002636Y005926D01*
X002356Y006206D01*
X006996Y006206D01*
X006996Y006086D02*
X002476Y006086D01*
X002486Y006076D02*
X002486Y006337D01*
X002476Y006326D02*
X006996Y006326D01*
X006996Y006446D02*
X002596Y006446D01*
X002606Y006457D02*
X002606Y005956D01*
X002596Y005966D02*
X006996Y005966D01*
X006996Y005846D02*
X002636Y005846D01*
X002636Y005726D02*
X006996Y005726D01*
X006996Y005606D02*
X002636Y005606D01*
X002636Y005486D02*
X006996Y005486D01*
X006996Y005366D02*
X002516Y005366D01*
X002486Y005337D02*
X002486Y005076D01*
X002436Y005126D02*
X006996Y005126D01*
X006996Y005006D02*
X002556Y005006D01*
X002606Y004956D02*
X002606Y005457D01*
X002396Y005246D02*
X006996Y005246D01*
X006996Y004886D02*
X002636Y004886D01*
X002636Y004766D02*
X006996Y004766D01*
X006996Y004646D02*
X002636Y004646D01*
X002726Y004616D02*
X002726Y025593D01*
X002606Y025593D02*
X002606Y020956D01*
X002596Y020966D02*
X006996Y020966D01*
X006996Y020846D02*
X002636Y020846D01*
X002636Y020926D02*
X002326Y021236D01*
X001887Y021236D01*
X001606Y020956D01*
X001326Y021236D01*
X000887Y021236D01*
X000576Y020926D01*
X000576Y020487D01*
X000857Y020206D01*
X000576Y019926D01*
X000576Y019487D01*
X000857Y019206D01*
X000576Y018926D01*
X000576Y018487D01*
X000857Y018206D01*
X000416Y018206D01*
X000416Y018086D02*
X000737Y018086D01*
X000686Y018036D02*
X000686Y018377D01*
X000737Y018326D02*
X000416Y018326D01*
X000416Y018446D02*
X000617Y018446D01*
X000576Y018566D02*
X000416Y018566D01*
X000416Y018686D02*
X000576Y018686D01*
X000576Y018806D02*
X000416Y018806D01*
X000416Y018926D02*
X000577Y018926D01*
X000686Y019036D02*
X000686Y019377D01*
X000657Y019406D02*
X000416Y019406D01*
X000416Y019286D02*
X000777Y019286D01*
X000806Y019257D02*
X000806Y019156D01*
X000817Y019166D02*
X000416Y019166D01*
X000416Y019046D02*
X000697Y019046D01*
X000576Y019526D02*
X000416Y019526D01*
X000416Y019646D02*
X000576Y019646D01*
X000576Y019766D02*
X000416Y019766D01*
X000416Y019886D02*
X000576Y019886D01*
X000657Y020006D02*
X000416Y020006D01*
X000416Y020126D02*
X000777Y020126D01*
X000806Y020156D02*
X000806Y020257D01*
X000817Y020246D02*
X000416Y020246D01*
X000416Y020366D02*
X000697Y020366D01*
X000686Y020377D02*
X000686Y020036D01*
X000577Y020486D02*
X000416Y020486D01*
X000416Y020606D02*
X000576Y020606D01*
X000576Y020726D02*
X000416Y020726D01*
X000416Y020846D02*
X000576Y020846D01*
X000617Y020966D02*
X000416Y020966D01*
X000416Y021086D02*
X000737Y021086D01*
X000686Y021036D02*
X000686Y025593D01*
X000566Y025593D02*
X000566Y000416D01*
X000686Y000416D02*
X000686Y001377D01*
X000657Y001406D02*
X000416Y001406D01*
X000416Y001286D02*
X000777Y001286D01*
X000806Y001257D02*
X000806Y000416D01*
X000926Y000416D02*
X000926Y001176D01*
X000887Y001176D02*
X001326Y001176D01*
X001636Y001487D01*
X001636Y001926D01*
X001326Y002236D01*
X000887Y002236D01*
X000576Y001926D01*
X000576Y001487D01*
X000887Y001176D01*
X001046Y001176D02*
X001046Y000416D01*
X001166Y000416D02*
X001166Y001176D01*
X001286Y001176D02*
X001286Y000416D01*
X001406Y000416D02*
X001406Y001257D01*
X001436Y001286D02*
X001890Y001286D01*
X001886Y001290D02*
X001886Y000416D01*
X001766Y000416D02*
X001766Y001410D01*
X001770Y001406D02*
X001556Y001406D01*
X001526Y001377D02*
X001526Y000416D01*
X001646Y000416D02*
X001646Y002417D01*
X001697Y002366D02*
X001403Y002366D01*
X001406Y002370D02*
X001406Y002156D01*
X001436Y002126D02*
X001890Y002126D01*
X001886Y002123D02*
X001886Y002177D01*
X001887Y002176D02*
X002226Y002176D01*
X002246Y002156D01*
X002156Y002156D01*
X002156Y001757D01*
X002056Y001757D01*
X002056Y001756D02*
X002056Y001656D01*
X002156Y001656D01*
X002156Y001256D01*
X002293Y001256D01*
X002556Y001520D01*
X002556Y001656D01*
X002157Y001656D01*
X002157Y001756D01*
X002556Y001756D01*
X002556Y001846D01*
X002942Y001461D01*
X003049Y001416D01*
X009264Y001416D01*
X009371Y001461D01*
X009452Y001542D01*
X010087Y002176D01*
X010426Y002176D01*
X010706Y002457D01*
X010987Y002176D01*
X011426Y002176D01*
X011706Y002457D01*
X011987Y002176D01*
X012426Y002176D01*
X012706Y002457D01*
X012987Y002176D01*
X013426Y002176D01*
X013706Y002457D01*
X013987Y002176D01*
X014426Y002176D01*
X014706Y002457D01*
X014987Y002176D01*
X015426Y002176D01*
X015676Y002427D01*
X015676Y002300D01*
X015800Y002176D01*
X016613Y002176D01*
X016736Y002300D01*
X016736Y003113D01*
X016613Y003236D01*
X015800Y003236D01*
X015676Y003113D01*
X015676Y002986D01*
X015426Y003236D01*
X014987Y003236D01*
X014706Y002956D01*
X014426Y003236D01*
X013987Y003236D01*
X013706Y002956D01*
X013426Y003236D01*
X012987Y003236D01*
X012706Y002956D01*
X012426Y003236D01*
X012087Y003236D01*
X011996Y003327D01*
X011996Y004391D01*
X012069Y004464D01*
X012135Y004621D01*
X012135Y004792D01*
X012069Y004949D01*
X011996Y005022D01*
X011996Y011176D01*
X012426Y011176D01*
X012706Y011457D01*
X012987Y011176D01*
X013426Y011176D01*
X013706Y011457D01*
X013987Y011176D01*
X014426Y011176D01*
X014706Y011457D01*
X014987Y011176D01*
X015426Y011176D01*
X015676Y011427D01*
X015676Y011300D01*
X015800Y011176D01*
X016613Y011176D01*
X016736Y011300D01*
X016736Y012113D01*
X016613Y012236D01*
X015800Y012236D01*
X015676Y012113D01*
X015676Y011986D01*
X015426Y012236D01*
X014987Y012236D01*
X014706Y011956D01*
X014426Y012236D01*
X013987Y012236D01*
X013706Y011956D01*
X013426Y012236D01*
X012987Y012236D01*
X012706Y011956D01*
X012426Y012236D01*
X011996Y012236D01*
X011996Y014086D01*
X012087Y014176D01*
X012426Y014176D01*
X012706Y014457D01*
X012987Y014176D01*
X013426Y014176D01*
X013706Y014457D01*
X013987Y014176D01*
X014426Y014176D01*
X014706Y014457D01*
X014987Y014176D01*
X015426Y014176D01*
X015676Y014427D01*
X015676Y014300D01*
X015800Y014176D01*
X016613Y014176D01*
X016736Y014300D01*
X016736Y015113D01*
X016613Y015236D01*
X015800Y015236D01*
X015676Y015113D01*
X015676Y014986D01*
X015426Y015236D01*
X014987Y015236D01*
X014706Y014956D01*
X014426Y015236D01*
X013987Y015236D01*
X013706Y014956D01*
X013426Y015236D01*
X012987Y015236D01*
X012706Y014956D01*
X012426Y015236D01*
X011987Y015236D01*
X011706Y014956D01*
X011426Y015236D01*
X010987Y015236D01*
X010706Y014956D01*
X010426Y015236D01*
X009987Y015236D01*
X009676Y014926D01*
X009676Y014587D01*
X009656Y014567D01*
X009656Y014656D01*
X009257Y014656D01*
X009256Y014656D02*
X009256Y014256D01*
X009393Y014256D01*
X009428Y014291D01*
X009416Y014264D01*
X009416Y012133D01*
X009393Y012156D01*
X009256Y012156D01*
X009256Y011757D01*
X009156Y011757D01*
X009156Y011756D02*
X009156Y011656D01*
X009256Y011656D01*
X009256Y011256D01*
X009393Y011256D01*
X009416Y011280D01*
X009416Y003149D01*
X009428Y003122D01*
X009393Y003156D01*
X009256Y003156D01*
X009256Y002757D01*
X009156Y002757D01*
X009156Y002756D02*
X009156Y002656D01*
X009256Y002656D01*
X009256Y002256D01*
X009346Y002256D01*
X009086Y001996D01*
X003227Y001996D01*
X002636Y002587D01*
X002636Y002926D01*
X002356Y003206D01*
X009416Y003206D01*
X009326Y003156D02*
X009326Y011256D01*
X009416Y011246D02*
X007816Y011246D01*
X007816Y011126D02*
X009416Y011126D01*
X009416Y011006D02*
X007816Y011006D01*
X007816Y010886D02*
X009416Y010886D01*
X009416Y010766D02*
X007816Y010766D01*
X007816Y010646D02*
X009416Y010646D01*
X009416Y010526D02*
X007816Y010526D01*
X007816Y010406D02*
X009416Y010406D01*
X009416Y010286D02*
X007816Y010286D01*
X007816Y010166D02*
X009416Y010166D01*
X009416Y010046D02*
X007816Y010046D01*
X007816Y009926D02*
X009416Y009926D01*
X009416Y009806D02*
X007816Y009806D01*
X007816Y009686D02*
X009416Y009686D01*
X009416Y009566D02*
X007816Y009566D01*
X007816Y009446D02*
X009416Y009446D01*
X009416Y009326D02*
X007816Y009326D01*
X007816Y009206D02*
X009416Y009206D01*
X009416Y009086D02*
X007816Y009086D01*
X007816Y008966D02*
X009416Y008966D01*
X009416Y008846D02*
X007816Y008846D01*
X007816Y008726D02*
X009416Y008726D01*
X009416Y008606D02*
X007816Y008606D01*
X007816Y008486D02*
X009416Y008486D01*
X009416Y008366D02*
X007816Y008366D01*
X007816Y008246D02*
X009416Y008246D01*
X009416Y008126D02*
X007816Y008126D01*
X007816Y008006D02*
X009416Y008006D01*
X009416Y007886D02*
X007816Y007886D01*
X007816Y007766D02*
X009416Y007766D01*
X009416Y007646D02*
X007816Y007646D01*
X007816Y007526D02*
X009416Y007526D01*
X009416Y007406D02*
X007816Y007406D01*
X007816Y007286D02*
X009416Y007286D01*
X009416Y007166D02*
X007816Y007166D01*
X007816Y007046D02*
X009416Y007046D01*
X009416Y006926D02*
X007816Y006926D01*
X007816Y006806D02*
X009416Y006806D01*
X009416Y006686D02*
X007816Y006686D01*
X007816Y006566D02*
X009416Y006566D01*
X009416Y006446D02*
X007816Y006446D01*
X007816Y006326D02*
X009416Y006326D01*
X009416Y006206D02*
X007816Y006206D01*
X007816Y006086D02*
X009416Y006086D01*
X009416Y005966D02*
X007816Y005966D01*
X007816Y005846D02*
X009416Y005846D01*
X009416Y005726D02*
X007816Y005726D01*
X007816Y005606D02*
X009416Y005606D01*
X009416Y005486D02*
X007816Y005486D01*
X007816Y005366D02*
X009416Y005366D01*
X009416Y005246D02*
X007816Y005246D01*
X007816Y005126D02*
X009416Y005126D01*
X009416Y005006D02*
X007816Y005006D01*
X007816Y004886D02*
X009416Y004886D01*
X009416Y004766D02*
X007816Y004766D01*
X007816Y004646D02*
X009416Y004646D01*
X009416Y004526D02*
X007816Y004526D01*
X007816Y004406D02*
X009416Y004406D01*
X009416Y004286D02*
X007816Y004286D01*
X007816Y004166D02*
X009416Y004166D01*
X009416Y004046D02*
X007784Y004046D01*
X007766Y004004D02*
X007766Y001996D01*
X007646Y001996D02*
X007646Y003867D01*
X007639Y003859D02*
X007754Y003974D01*
X007816Y004125D01*
X007816Y013078D01*
X007835Y013121D01*
X007835Y013292D01*
X007816Y013335D01*
X007816Y022296D01*
X009388Y022296D01*
X009539Y022359D01*
X009654Y022474D01*
X009654Y022474D01*
X010356Y023176D01*
X010426Y023176D01*
X010706Y023457D01*
X010987Y023176D01*
X011426Y023176D01*
X011706Y023457D01*
X011987Y023176D01*
X012426Y023176D01*
X012706Y023457D01*
X012987Y023176D01*
X013426Y023176D01*
X013706Y023457D01*
X013987Y023176D01*
X014426Y023176D01*
X014706Y023457D01*
X014987Y023176D01*
X015426Y023176D01*
X015676Y023427D01*
X015676Y023300D01*
X015800Y023176D01*
X016613Y023176D01*
X016736Y023300D01*
X016736Y024113D01*
X016613Y024236D01*
X015800Y024236D01*
X015676Y024113D01*
X015676Y023986D01*
X015426Y024236D01*
X014987Y024236D01*
X014706Y023956D01*
X014426Y024236D01*
X013987Y024236D01*
X013706Y023956D01*
X013426Y024236D01*
X012987Y024236D01*
X012706Y023956D01*
X012426Y024236D01*
X011987Y024236D01*
X011706Y023956D01*
X011426Y024236D01*
X010987Y024236D01*
X010706Y023956D01*
X010426Y024236D01*
X009987Y024236D01*
X010046Y024236D02*
X010046Y025593D01*
X009926Y025593D02*
X009926Y024176D01*
X009837Y024086D02*
X009463Y024086D01*
X009446Y024103D02*
X009446Y025593D01*
X009326Y025593D02*
X009326Y024156D01*
X009393Y024156D02*
X009256Y024156D01*
X009256Y023757D01*
X009156Y023757D01*
X009156Y023756D02*
X009156Y023656D01*
X009256Y023656D01*
X009257Y023656D02*
X009257Y023756D01*
X009656Y023756D01*
X009656Y023893D01*
X009393Y024156D01*
X009256Y024086D02*
X009156Y024086D01*
X009156Y024156D02*
X009020Y024156D01*
X008756Y023893D01*
X008756Y023756D01*
X009156Y023756D01*
X009156Y023757D02*
X009156Y024156D01*
X009086Y024156D02*
X009086Y025593D01*
X008966Y025593D02*
X008966Y024103D01*
X008950Y024086D02*
X000416Y024086D01*
X000416Y023966D02*
X008830Y023966D01*
X008846Y023983D02*
X008846Y025593D01*
X008726Y025593D02*
X008726Y023116D01*
X008606Y023116D02*
X008606Y025593D01*
X008486Y025593D02*
X008486Y023116D01*
X008366Y023116D02*
X008366Y025593D01*
X008246Y025593D02*
X008246Y023116D01*
X008126Y023116D02*
X008126Y025593D01*
X008006Y025593D02*
X008006Y023116D01*
X007886Y023116D02*
X007886Y025593D01*
X007766Y025593D02*
X007766Y023116D01*
X007646Y023116D02*
X007646Y025593D01*
X007526Y025593D02*
X007526Y023116D01*
X007406Y023109D02*
X007406Y025593D01*
X007286Y025593D02*
X007286Y023059D01*
X007227Y023006D02*
X000416Y023006D01*
X000416Y022886D02*
X007107Y022886D01*
X007166Y022946D02*
X007166Y025593D01*
X007046Y025593D02*
X007046Y022809D01*
X007029Y022766D02*
X000416Y022766D01*
X000416Y022646D02*
X006996Y022646D01*
X006996Y022526D02*
X000416Y022526D01*
X000416Y022406D02*
X006996Y022406D01*
X006996Y022286D02*
X000416Y022286D01*
X000416Y022166D02*
X006996Y022166D01*
X006996Y022046D02*
X000416Y022046D01*
X000416Y021926D02*
X006996Y021926D01*
X006996Y021806D02*
X000416Y021806D01*
X000416Y021686D02*
X006996Y021686D01*
X006996Y021566D02*
X000416Y021566D01*
X000416Y021446D02*
X006996Y021446D01*
X006996Y021326D02*
X000416Y021326D01*
X000416Y021206D02*
X000857Y021206D01*
X000806Y021156D02*
X000806Y025593D01*
X000926Y025593D02*
X000926Y021236D01*
X001046Y021236D02*
X001046Y025593D01*
X001166Y025593D02*
X001166Y021236D01*
X001286Y021236D02*
X001286Y025593D01*
X001406Y025593D02*
X001406Y021156D01*
X001356Y021206D02*
X001857Y021206D01*
X001886Y021236D02*
X001886Y025593D01*
X001766Y025593D02*
X001766Y021116D01*
X001737Y021086D02*
X001476Y021086D01*
X001526Y021036D02*
X001526Y025593D01*
X001646Y025593D02*
X001646Y020996D01*
X001617Y020966D02*
X001596Y020966D01*
X002006Y021236D02*
X002006Y025593D01*
X002126Y025593D02*
X002126Y021236D01*
X002246Y021236D02*
X002246Y025593D01*
X002366Y025593D02*
X002366Y021196D01*
X002356Y021206D02*
X006996Y021206D01*
X006996Y021086D02*
X002476Y021086D01*
X002486Y021076D02*
X002486Y025593D01*
X002846Y025593D02*
X002846Y004616D01*
X002966Y004616D02*
X002966Y025593D01*
X003086Y025593D02*
X003086Y004616D01*
X003206Y004616D02*
X003206Y025593D01*
X003326Y025593D02*
X003326Y004616D01*
X003446Y004616D02*
X003446Y025593D01*
X003566Y025593D02*
X003566Y004616D01*
X003686Y004616D02*
X003686Y025593D01*
X003806Y025593D02*
X003806Y004616D01*
X003926Y004616D02*
X003926Y025593D01*
X004046Y025593D02*
X004046Y004616D01*
X004166Y004616D02*
X004166Y025593D01*
X004286Y025593D02*
X004286Y004616D01*
X004406Y004616D02*
X004406Y025593D01*
X004526Y025593D02*
X004526Y004616D01*
X004646Y004616D02*
X004646Y025593D01*
X004766Y025593D02*
X004766Y004616D01*
X004886Y004616D02*
X004886Y025593D01*
X005006Y025593D02*
X005006Y004616D01*
X005126Y004616D02*
X005126Y025593D01*
X005246Y025593D02*
X005246Y004616D01*
X005366Y004616D02*
X005366Y025593D01*
X005486Y025593D02*
X005486Y004616D01*
X005606Y004616D02*
X005606Y025593D01*
X005726Y025593D02*
X005726Y004616D01*
X005846Y004616D02*
X005846Y025593D01*
X005966Y025593D02*
X005966Y004616D01*
X006086Y004616D02*
X006086Y025593D01*
X006206Y025593D02*
X006206Y004616D01*
X006326Y004616D02*
X006326Y025593D01*
X006446Y025593D02*
X006446Y004616D01*
X006566Y004616D02*
X006566Y025593D01*
X006686Y025593D02*
X006686Y004616D01*
X006806Y004616D02*
X006806Y025593D01*
X006926Y025593D02*
X006926Y004616D01*
X006926Y003796D02*
X006926Y001996D01*
X006806Y001996D02*
X006806Y003796D01*
X006686Y003796D02*
X006686Y001996D01*
X006566Y001996D02*
X006566Y003796D01*
X006446Y003796D02*
X006446Y001996D01*
X006326Y001996D02*
X006326Y003796D01*
X006206Y003796D02*
X006206Y001996D01*
X006086Y001996D02*
X006086Y003796D01*
X005966Y003796D02*
X005966Y001996D01*
X005846Y001996D02*
X005846Y003796D01*
X005726Y003796D02*
X005726Y001996D01*
X005606Y001996D02*
X005606Y003796D01*
X005486Y003796D02*
X005486Y001996D01*
X005366Y001996D02*
X005366Y003796D01*
X005246Y003796D02*
X005246Y001996D01*
X005126Y001996D02*
X005126Y003796D01*
X005006Y003796D02*
X005006Y001996D01*
X004886Y001996D02*
X004886Y003796D01*
X004766Y003796D02*
X004766Y001996D01*
X004646Y001996D02*
X004646Y003796D01*
X004526Y003796D02*
X004526Y001996D01*
X004406Y001996D02*
X004406Y003796D01*
X004286Y003796D02*
X004286Y001996D01*
X004166Y001996D02*
X004166Y003796D01*
X004046Y003796D02*
X004046Y001996D01*
X003926Y001996D02*
X003926Y003796D01*
X003806Y003796D02*
X003806Y001996D01*
X003686Y001996D02*
X003686Y003796D01*
X003566Y003796D02*
X003566Y001996D01*
X003446Y001996D02*
X003446Y003796D01*
X003326Y003796D02*
X003326Y001996D01*
X003217Y002006D02*
X009096Y002006D01*
X009086Y001997D02*
X009086Y002256D01*
X009020Y002256D02*
X009156Y002256D01*
X009156Y002656D01*
X008756Y002656D01*
X008756Y002520D01*
X009020Y002256D01*
X008966Y002310D02*
X008966Y001996D01*
X008846Y001996D02*
X008846Y002430D01*
X008790Y002486D02*
X002737Y002486D01*
X002726Y002497D02*
X002726Y003796D01*
X002636Y003796D02*
X002636Y003487D01*
X002356Y003206D01*
X002366Y003196D02*
X002366Y003217D01*
X002476Y003326D02*
X009416Y003326D01*
X009416Y003446D02*
X002596Y003446D01*
X002606Y003457D02*
X002606Y002956D01*
X002596Y002966D02*
X008830Y002966D01*
X008846Y002983D02*
X008846Y011430D01*
X008790Y011486D02*
X007816Y011486D01*
X007816Y011366D02*
X008910Y011366D01*
X008966Y011310D02*
X008966Y003103D01*
X008950Y003086D02*
X002476Y003086D01*
X002486Y003076D02*
X002486Y003337D01*
X002636Y003566D02*
X009416Y003566D01*
X009416Y003686D02*
X002636Y003686D01*
X002636Y003796D02*
X007488Y003796D01*
X007639Y003859D01*
X007706Y003926D02*
X009416Y003926D01*
X009416Y003806D02*
X007512Y003806D01*
X007526Y003812D02*
X007526Y001996D01*
X007406Y001996D02*
X007406Y003796D01*
X007286Y003796D02*
X007286Y001996D01*
X007166Y001996D02*
X007166Y003796D01*
X007046Y003796D02*
X007046Y001996D01*
X007046Y001416D02*
X007046Y000416D01*
X006926Y000416D02*
X006926Y001416D01*
X006806Y001416D02*
X006806Y000416D01*
X006686Y000416D02*
X006686Y001416D01*
X006566Y001416D02*
X006566Y000416D01*
X006446Y000416D02*
X006446Y001416D01*
X006326Y001416D02*
X006326Y000416D01*
X006206Y000416D02*
X006206Y001416D01*
X006086Y001416D02*
X006086Y000416D01*
X005966Y000416D02*
X005966Y001416D01*
X005846Y001416D02*
X005846Y000416D01*
X005726Y000416D02*
X005726Y001416D01*
X005606Y001416D02*
X005606Y000416D01*
X005486Y000416D02*
X005486Y001416D01*
X005366Y001416D02*
X005366Y000416D01*
X005246Y000416D02*
X005246Y001416D01*
X005126Y001416D02*
X005126Y000416D01*
X005006Y000416D02*
X005006Y001416D01*
X004886Y001416D02*
X004886Y000416D01*
X004766Y000416D02*
X004766Y001416D01*
X004646Y001416D02*
X004646Y000416D01*
X004526Y000416D02*
X004526Y001416D01*
X004406Y001416D02*
X004406Y000416D01*
X004286Y000416D02*
X004286Y001416D01*
X004166Y001416D02*
X004166Y000416D01*
X004046Y000416D02*
X004046Y001416D01*
X003926Y001416D02*
X003926Y000416D01*
X003806Y000416D02*
X003806Y001416D01*
X003686Y001416D02*
X003686Y000416D01*
X003566Y000416D02*
X003566Y001416D01*
X003446Y001416D02*
X003446Y000416D01*
X003326Y000416D02*
X003326Y001416D01*
X003206Y001416D02*
X003206Y000416D01*
X003086Y000416D02*
X003086Y001416D01*
X002966Y001451D02*
X002966Y000416D01*
X002846Y000416D02*
X002846Y001556D01*
X002876Y001526D02*
X002556Y001526D01*
X002486Y001450D02*
X002486Y000416D01*
X002366Y000416D02*
X002366Y001330D01*
X002323Y001286D02*
X018967Y001286D01*
X018967Y001166D02*
X000416Y001166D01*
X000416Y001046D02*
X018967Y001046D01*
X018967Y000926D02*
X000416Y000926D01*
X000416Y000806D02*
X018967Y000806D01*
X018967Y000686D02*
X000416Y000686D01*
X000416Y000566D02*
X018967Y000566D01*
X018806Y000416D02*
X018806Y025593D01*
X018686Y025593D02*
X018686Y000416D01*
X018566Y000416D02*
X018566Y025593D01*
X018446Y025593D02*
X018446Y000416D01*
X018326Y000416D02*
X018326Y025593D01*
X018206Y025593D02*
X018206Y000416D01*
X018086Y000416D02*
X018086Y025593D01*
X017966Y025593D02*
X017966Y000416D01*
X017846Y000416D02*
X017846Y025593D01*
X017726Y025593D02*
X017726Y000416D01*
X017606Y000416D02*
X017606Y025593D01*
X017486Y025593D02*
X017486Y000416D01*
X017366Y000416D02*
X017366Y025593D01*
X017246Y025593D02*
X017246Y000416D01*
X017126Y000416D02*
X017126Y025593D01*
X017006Y025593D02*
X017006Y000416D01*
X016886Y000416D02*
X016886Y025593D01*
X016766Y025593D02*
X016766Y000416D01*
X016646Y000416D02*
X016646Y002210D01*
X016683Y002246D02*
X018967Y002246D01*
X018967Y002126D02*
X010037Y002126D01*
X010046Y002136D02*
X010046Y000416D01*
X009926Y000416D02*
X009926Y002016D01*
X009917Y002006D02*
X018967Y002006D01*
X018967Y001886D02*
X009797Y001886D01*
X009806Y001896D02*
X009806Y000416D01*
X009686Y000416D02*
X009686Y001776D01*
X009677Y001766D02*
X018967Y001766D01*
X018967Y001646D02*
X009557Y001646D01*
X009566Y001656D02*
X009566Y000416D01*
X009446Y000416D02*
X009446Y001536D01*
X009437Y001526D02*
X018967Y001526D01*
X018967Y001406D02*
X002443Y001406D01*
X002246Y001256D02*
X002246Y000416D01*
X002126Y000416D02*
X002126Y001656D01*
X002156Y001646D02*
X002056Y001646D01*
X002056Y001656D02*
X002056Y001256D01*
X001920Y001256D01*
X001656Y001520D01*
X001656Y001656D01*
X002056Y001656D01*
X002006Y001656D02*
X002006Y001756D01*
X002056Y001756D02*
X001656Y001756D01*
X001656Y001893D01*
X001920Y002156D01*
X002056Y002156D01*
X002056Y001757D01*
X002056Y001766D02*
X002156Y001766D01*
X002126Y001757D02*
X002126Y002176D01*
X002156Y002126D02*
X002056Y002126D01*
X002006Y002156D02*
X002006Y002176D01*
X001887Y002176D02*
X001576Y002487D01*
X001576Y002926D01*
X001857Y003206D01*
X001356Y003206D01*
X001326Y003176D02*
X001606Y003457D01*
X001857Y003206D01*
X001766Y003116D02*
X001766Y003297D01*
X001737Y003326D02*
X001476Y003326D01*
X001526Y003377D02*
X001526Y002923D01*
X001556Y002893D02*
X001293Y003156D01*
X001156Y003156D01*
X001156Y002757D01*
X001056Y002757D01*
X001056Y002756D02*
X001056Y002656D01*
X000656Y002656D01*
X000656Y002520D01*
X000920Y002256D01*
X001056Y002256D01*
X001056Y002656D01*
X001156Y002656D01*
X001156Y002256D01*
X001293Y002256D01*
X001556Y002520D01*
X001556Y002656D01*
X001157Y002656D01*
X001157Y002756D01*
X001556Y002756D01*
X001556Y002893D01*
X001556Y002846D02*
X001576Y002846D01*
X001526Y002756D02*
X001526Y002656D01*
X001556Y002606D02*
X001576Y002606D01*
X001577Y002486D02*
X001523Y002486D01*
X001526Y002490D02*
X001526Y002036D01*
X001556Y002006D02*
X001770Y002006D01*
X001766Y002003D02*
X001766Y002297D01*
X001817Y002246D02*
X000416Y002246D01*
X000416Y002126D02*
X000777Y002126D01*
X000806Y002156D02*
X000806Y002370D01*
X000810Y002366D02*
X000416Y002366D01*
X000416Y002486D02*
X000690Y002486D01*
X000686Y002490D02*
X000686Y002036D01*
X000657Y002006D02*
X000416Y002006D01*
X000416Y001886D02*
X000576Y001886D01*
X000576Y001766D02*
X000416Y001766D01*
X000416Y001646D02*
X000576Y001646D01*
X000576Y001526D02*
X000416Y001526D01*
X000926Y002236D02*
X000926Y002256D01*
X001046Y002256D02*
X001046Y002236D01*
X001166Y002236D02*
X001166Y002256D01*
X001156Y002366D02*
X001056Y002366D01*
X001056Y002486D02*
X001156Y002486D01*
X001156Y002606D02*
X001056Y002606D01*
X001046Y002656D02*
X001046Y002756D01*
X001056Y002756D02*
X000656Y002756D01*
X000656Y002893D01*
X000920Y003156D01*
X001056Y003156D01*
X001056Y002757D01*
X001056Y002726D02*
X000416Y002726D01*
X000416Y002606D02*
X000656Y002606D01*
X000686Y002656D02*
X000686Y002756D01*
X000656Y002846D02*
X000416Y002846D01*
X000416Y002966D02*
X000730Y002966D01*
X000686Y002923D02*
X000686Y003377D01*
X000737Y003326D02*
X000416Y003326D01*
X000416Y003206D02*
X000857Y003206D01*
X000887Y003176D02*
X001326Y003176D01*
X001286Y003176D02*
X001286Y003156D01*
X001363Y003086D02*
X001737Y003086D01*
X001646Y002996D02*
X001646Y003417D01*
X001617Y003446D02*
X001596Y003446D01*
X001406Y003257D02*
X001406Y003043D01*
X001483Y002966D02*
X001617Y002966D01*
X001576Y002726D02*
X001157Y002726D01*
X001166Y002756D02*
X001166Y002656D01*
X001286Y002656D02*
X001286Y002756D01*
X001406Y002756D02*
X001406Y002656D01*
X001156Y002846D02*
X001056Y002846D01*
X001056Y002966D02*
X001156Y002966D01*
X001156Y003086D02*
X001056Y003086D01*
X001046Y003156D02*
X001046Y003176D01*
X000926Y003176D02*
X000926Y003156D01*
X000887Y003176D02*
X000576Y003487D01*
X000576Y003926D01*
X000857Y004206D01*
X000576Y004487D01*
X000576Y004926D01*
X000857Y005206D01*
X000576Y005487D01*
X000576Y005926D01*
X000887Y006236D01*
X001326Y006236D01*
X001606Y005956D01*
X001857Y006206D01*
X001356Y006206D01*
X001406Y006156D02*
X001406Y006370D01*
X001363Y006326D02*
X001737Y006326D01*
X001766Y006297D02*
X001766Y006116D01*
X001737Y006086D02*
X001476Y006086D01*
X001526Y006036D02*
X001526Y006490D01*
X001556Y006520D02*
X001556Y006656D01*
X001157Y006656D01*
X001157Y006756D01*
X001556Y006756D01*
X001556Y006893D01*
X001293Y007156D01*
X001156Y007156D01*
X001156Y006757D01*
X001056Y006757D01*
X001056Y006756D02*
X001056Y006656D01*
X000656Y006656D01*
X000656Y006520D01*
X000920Y006256D01*
X001056Y006256D01*
X001056Y006656D01*
X001156Y006656D01*
X001156Y006256D01*
X001293Y006256D01*
X001556Y006520D01*
X001576Y006487D02*
X001857Y006206D01*
X001646Y005996D02*
X001646Y006417D01*
X001617Y006446D02*
X001483Y006446D01*
X001576Y006487D02*
X001576Y006926D01*
X001857Y007206D01*
X001606Y007457D01*
X001326Y007176D01*
X000887Y007176D01*
X000576Y007487D01*
X000576Y007926D01*
X000857Y008206D01*
X000576Y008487D01*
X000576Y008926D01*
X000857Y009206D01*
X000416Y009206D01*
X000416Y009086D02*
X000737Y009086D01*
X000686Y009036D02*
X000686Y009377D01*
X000737Y009326D02*
X000416Y009326D01*
X000416Y009446D02*
X000617Y009446D01*
X000576Y009487D02*
X000857Y009206D01*
X000806Y009156D02*
X000806Y009257D01*
X000617Y008966D02*
X000416Y008966D01*
X000416Y008846D02*
X000576Y008846D01*
X000576Y008726D02*
X000416Y008726D01*
X000416Y008606D02*
X000576Y008606D01*
X000577Y008486D02*
X000416Y008486D01*
X000416Y008366D02*
X000697Y008366D01*
X000686Y008377D02*
X000686Y008036D01*
X000657Y008006D02*
X000416Y008006D01*
X000416Y007886D02*
X000576Y007886D01*
X000576Y007766D02*
X000416Y007766D01*
X000416Y007646D02*
X000576Y007646D01*
X000576Y007526D02*
X000416Y007526D01*
X000416Y007406D02*
X000657Y007406D01*
X000686Y007377D02*
X000686Y006923D01*
X000690Y006926D02*
X000416Y006926D01*
X000416Y006806D02*
X000656Y006806D01*
X000656Y006756D02*
X000656Y006893D01*
X000920Y007156D01*
X001056Y007156D01*
X001056Y006757D01*
X001056Y006756D02*
X000656Y006756D01*
X000686Y006756D02*
X000686Y006656D01*
X000656Y006566D02*
X000416Y006566D01*
X000416Y006446D02*
X000730Y006446D01*
X000686Y006490D02*
X000686Y006036D01*
X000737Y006086D02*
X000416Y006086D01*
X000416Y005966D02*
X000617Y005966D01*
X000576Y005846D02*
X000416Y005846D01*
X000416Y005726D02*
X000576Y005726D01*
X000576Y005606D02*
X000416Y005606D01*
X000416Y005486D02*
X000577Y005486D01*
X000686Y005377D02*
X000686Y005036D01*
X000657Y005006D02*
X000416Y005006D01*
X000416Y004886D02*
X000576Y004886D01*
X000576Y004766D02*
X000416Y004766D01*
X000416Y004646D02*
X000576Y004646D01*
X000576Y004526D02*
X000416Y004526D01*
X000416Y004406D02*
X000657Y004406D01*
X000686Y004377D02*
X000686Y004036D01*
X000697Y004046D02*
X000416Y004046D01*
X000416Y003926D02*
X000577Y003926D01*
X000576Y003806D02*
X000416Y003806D01*
X000416Y003686D02*
X000576Y003686D01*
X000576Y003566D02*
X000416Y003566D01*
X000416Y003446D02*
X000617Y003446D01*
X000806Y003257D02*
X000806Y003043D01*
X000850Y003086D02*
X000416Y003086D01*
X000806Y002756D02*
X000806Y002656D01*
X000926Y002656D02*
X000926Y002756D01*
X001166Y003156D02*
X001166Y003176D01*
X000806Y004156D02*
X000806Y004257D01*
X000777Y004286D02*
X000416Y004286D01*
X000416Y004166D02*
X000817Y004166D01*
X000777Y005126D02*
X000416Y005126D01*
X000416Y005246D02*
X000817Y005246D01*
X000806Y005257D02*
X000806Y005156D01*
X000697Y005366D02*
X000416Y005366D01*
X000416Y006206D02*
X000857Y006206D01*
X000806Y006156D02*
X000806Y006370D01*
X000850Y006326D02*
X000416Y006326D01*
X000416Y006686D02*
X001056Y006686D01*
X001046Y006656D02*
X001046Y006756D01*
X001056Y006806D02*
X001156Y006806D01*
X001166Y006756D02*
X001166Y006656D01*
X001157Y006686D02*
X001576Y006686D01*
X001526Y006656D02*
X001526Y006756D01*
X001556Y006806D02*
X001576Y006806D01*
X001577Y006926D02*
X001523Y006926D01*
X001526Y006923D02*
X001526Y007377D01*
X001556Y007406D02*
X001657Y007406D01*
X001646Y007417D02*
X001646Y006996D01*
X001697Y007046D02*
X001403Y007046D01*
X001406Y007043D02*
X001406Y007257D01*
X001436Y007286D02*
X001777Y007286D01*
X001766Y007297D02*
X001766Y007116D01*
X001817Y007166D02*
X000416Y007166D01*
X000416Y007046D02*
X000810Y007046D01*
X000806Y007043D02*
X000806Y007257D01*
X000777Y007286D02*
X000416Y007286D01*
X000926Y007176D02*
X000926Y007156D01*
X001046Y007156D02*
X001046Y007176D01*
X001166Y007176D02*
X001166Y007156D01*
X001156Y007046D02*
X001056Y007046D01*
X001056Y006926D02*
X001156Y006926D01*
X001286Y006756D02*
X001286Y006656D01*
X001406Y006656D02*
X001406Y006756D01*
X001556Y006566D02*
X001576Y006566D01*
X001286Y006256D02*
X001286Y006236D01*
X001166Y006236D02*
X001166Y006256D01*
X001156Y006326D02*
X001056Y006326D01*
X001046Y006256D02*
X001046Y006236D01*
X000926Y006236D02*
X000926Y006256D01*
X001056Y006446D02*
X001156Y006446D01*
X001156Y006566D02*
X001056Y006566D01*
X000926Y006656D02*
X000926Y006756D01*
X000806Y006756D02*
X000806Y006656D01*
X001286Y007156D02*
X001286Y007176D01*
X001606Y007956D02*
X001356Y008206D01*
X001606Y008457D01*
X001857Y008206D01*
X001606Y007956D01*
X001646Y007996D02*
X001646Y008417D01*
X001697Y008366D02*
X001516Y008366D01*
X001526Y008377D02*
X001526Y008036D01*
X001556Y008006D02*
X001657Y008006D01*
X001766Y008116D02*
X001766Y008297D01*
X001817Y008246D02*
X001396Y008246D01*
X001406Y008257D02*
X001406Y008156D01*
X001436Y008126D02*
X001777Y008126D01*
X002356Y008206D02*
X002636Y008487D01*
X002636Y008926D01*
X002356Y009206D01*
X002636Y009487D01*
X002636Y009926D01*
X002356Y010206D01*
X002636Y010487D01*
X002636Y010926D01*
X002356Y011206D01*
X002636Y011487D01*
X002636Y011926D01*
X002356Y012206D01*
X006996Y012206D01*
X006996Y012086D02*
X002476Y012086D01*
X002486Y012076D02*
X002486Y012337D01*
X002476Y012326D02*
X006996Y012326D01*
X006996Y012446D02*
X002596Y012446D01*
X002606Y012457D02*
X002606Y011956D01*
X002596Y011966D02*
X006996Y011966D01*
X006996Y011846D02*
X002636Y011846D01*
X002636Y011726D02*
X006996Y011726D01*
X006996Y011606D02*
X002636Y011606D01*
X002636Y011486D02*
X006996Y011486D01*
X006996Y011366D02*
X002516Y011366D01*
X002486Y011337D02*
X002486Y011076D01*
X002436Y011126D02*
X006996Y011126D01*
X006996Y011006D02*
X002556Y011006D01*
X002606Y010956D02*
X002606Y011457D01*
X002396Y011246D02*
X006996Y011246D01*
X006996Y010886D02*
X002636Y010886D01*
X002636Y010766D02*
X006996Y010766D01*
X006996Y010646D02*
X002636Y010646D01*
X002636Y010526D02*
X006996Y010526D01*
X006996Y010406D02*
X002556Y010406D01*
X002606Y010457D02*
X002606Y009956D01*
X002636Y009926D02*
X006996Y009926D01*
X006996Y009806D02*
X002636Y009806D01*
X002636Y009686D02*
X006996Y009686D01*
X006996Y009566D02*
X002636Y009566D01*
X002606Y009457D02*
X002606Y008956D01*
X002596Y008966D02*
X006996Y008966D01*
X006996Y008846D02*
X002636Y008846D01*
X002636Y008726D02*
X006996Y008726D01*
X006996Y008606D02*
X002636Y008606D01*
X002636Y008486D02*
X006996Y008486D01*
X006996Y008366D02*
X002516Y008366D01*
X002486Y008337D02*
X002486Y008076D01*
X002436Y008126D02*
X006996Y008126D01*
X006996Y008006D02*
X002556Y008006D01*
X002606Y007956D02*
X002606Y008457D01*
X002396Y008246D02*
X006996Y008246D01*
X006996Y007886D02*
X002636Y007886D01*
X002636Y007926D02*
X002356Y008206D01*
X002366Y008196D02*
X002366Y008217D01*
X002636Y007926D02*
X002636Y007487D01*
X002356Y007206D01*
X002636Y006926D01*
X002636Y006487D01*
X002356Y006206D01*
X002366Y006196D02*
X002366Y006217D01*
X002636Y006566D02*
X006996Y006566D01*
X006996Y006686D02*
X002636Y006686D01*
X002636Y006806D02*
X006996Y006806D01*
X006996Y006926D02*
X002636Y006926D01*
X002606Y006956D02*
X002606Y007457D01*
X002556Y007406D02*
X006996Y007406D01*
X006996Y007286D02*
X002436Y007286D01*
X002486Y007337D02*
X002486Y007076D01*
X002516Y007046D02*
X006996Y007046D01*
X006996Y007166D02*
X002396Y007166D01*
X002366Y007196D02*
X002366Y007217D01*
X002636Y007526D02*
X006996Y007526D01*
X006996Y007646D02*
X002636Y007646D01*
X002636Y007766D02*
X006996Y007766D01*
X006996Y009086D02*
X002476Y009086D01*
X002486Y009076D02*
X002486Y009337D01*
X002476Y009326D02*
X006996Y009326D01*
X006996Y009206D02*
X002356Y009206D01*
X002366Y009196D02*
X002366Y009217D01*
X002596Y009446D02*
X006996Y009446D01*
X006996Y010046D02*
X002516Y010046D01*
X002486Y010076D02*
X002486Y010337D01*
X002436Y010286D02*
X006996Y010286D01*
X006996Y010166D02*
X002396Y010166D01*
X002366Y010196D02*
X002366Y010217D01*
X001857Y010206D02*
X001606Y009956D01*
X001356Y010206D01*
X001606Y010457D01*
X001857Y010206D01*
X001817Y010166D02*
X001396Y010166D01*
X001406Y010156D02*
X001406Y010257D01*
X001436Y010286D02*
X001777Y010286D01*
X001766Y010297D02*
X001766Y010116D01*
X001697Y010046D02*
X001516Y010046D01*
X001526Y010036D02*
X001526Y010377D01*
X001556Y010406D02*
X001657Y010406D01*
X001646Y010417D02*
X001646Y009996D01*
X001606Y009457D02*
X001857Y009206D01*
X001606Y008956D01*
X001356Y009206D01*
X001857Y009206D01*
X001766Y009116D02*
X001766Y009297D01*
X001737Y009326D02*
X001476Y009326D01*
X001526Y009377D02*
X001526Y009036D01*
X001476Y009086D02*
X001737Y009086D01*
X001646Y008996D02*
X001646Y009417D01*
X001617Y009446D02*
X001596Y009446D01*
X001606Y009457D02*
X001356Y009206D01*
X001406Y009156D02*
X001406Y009257D01*
X001596Y008966D02*
X001617Y008966D01*
X000817Y008246D02*
X000416Y008246D01*
X000416Y008126D02*
X000777Y008126D01*
X000806Y008156D02*
X000806Y008257D01*
X000576Y009487D02*
X000576Y009926D01*
X000857Y010206D01*
X000576Y010487D01*
X000576Y010926D01*
X000887Y011236D01*
X001326Y011236D01*
X001606Y010956D01*
X001857Y011206D01*
X001576Y011487D01*
X001576Y011926D01*
X001857Y012206D01*
X001356Y012206D01*
X001326Y012176D02*
X001606Y012457D01*
X001857Y012206D01*
X001766Y012116D02*
X001766Y012297D01*
X001737Y012326D02*
X001476Y012326D01*
X001526Y012377D02*
X001526Y011923D01*
X001556Y011893D02*
X001293Y012156D01*
X001156Y012156D01*
X001156Y011757D01*
X001056Y011757D01*
X001056Y011756D02*
X001056Y011656D01*
X000656Y011656D01*
X000656Y011520D01*
X000920Y011256D01*
X001056Y011256D01*
X001056Y011656D01*
X001156Y011656D01*
X001156Y011256D01*
X001293Y011256D01*
X001556Y011520D01*
X001556Y011656D01*
X001157Y011656D01*
X001157Y011756D01*
X001556Y011756D01*
X001556Y011893D01*
X001556Y011846D02*
X001576Y011846D01*
X001526Y011756D02*
X001526Y011656D01*
X001556Y011606D02*
X001576Y011606D01*
X001577Y011486D02*
X001523Y011486D01*
X001526Y011490D02*
X001526Y011036D01*
X001556Y011006D02*
X001657Y011006D01*
X001646Y010996D02*
X001646Y011417D01*
X001697Y011366D02*
X001403Y011366D01*
X001406Y011370D02*
X001406Y011156D01*
X001436Y011126D02*
X001777Y011126D01*
X001766Y011116D02*
X001766Y011297D01*
X001817Y011246D02*
X000416Y011246D01*
X000416Y011126D02*
X000777Y011126D01*
X000806Y011156D02*
X000806Y011370D01*
X000810Y011366D02*
X000416Y011366D01*
X000416Y011486D02*
X000690Y011486D01*
X000686Y011490D02*
X000686Y011036D01*
X000657Y011006D02*
X000416Y011006D01*
X000416Y010886D02*
X000576Y010886D01*
X000576Y010766D02*
X000416Y010766D01*
X000416Y010646D02*
X000576Y010646D01*
X000576Y010526D02*
X000416Y010526D01*
X000416Y010406D02*
X000657Y010406D01*
X000686Y010377D02*
X000686Y010036D01*
X000697Y010046D02*
X000416Y010046D01*
X000416Y009926D02*
X000577Y009926D01*
X000576Y009806D02*
X000416Y009806D01*
X000416Y009686D02*
X000576Y009686D01*
X000576Y009566D02*
X000416Y009566D01*
X000416Y010166D02*
X000817Y010166D01*
X000806Y010156D02*
X000806Y010257D01*
X000777Y010286D02*
X000416Y010286D01*
X000926Y011236D02*
X000926Y011256D01*
X001046Y011256D02*
X001046Y011236D01*
X001166Y011236D02*
X001166Y011256D01*
X001156Y011366D02*
X001056Y011366D01*
X001056Y011486D02*
X001156Y011486D01*
X001156Y011606D02*
X001056Y011606D01*
X001046Y011656D02*
X001046Y011756D01*
X001056Y011756D02*
X000656Y011756D01*
X000656Y011893D01*
X000920Y012156D01*
X001056Y012156D01*
X001056Y011757D01*
X001056Y011726D02*
X000416Y011726D01*
X000416Y011606D02*
X000656Y011606D01*
X000686Y011656D02*
X000686Y011756D01*
X000656Y011846D02*
X000416Y011846D01*
X000416Y011966D02*
X000730Y011966D01*
X000686Y011923D02*
X000686Y012377D01*
X000737Y012326D02*
X000416Y012326D01*
X000416Y012206D02*
X000857Y012206D01*
X000887Y012176D02*
X001326Y012176D01*
X001286Y012176D02*
X001286Y012156D01*
X001363Y012086D02*
X001737Y012086D01*
X001646Y011996D02*
X001646Y012417D01*
X001617Y012446D02*
X001596Y012446D01*
X001406Y012257D02*
X001406Y012043D01*
X001483Y011966D02*
X001617Y011966D01*
X001576Y011726D02*
X001157Y011726D01*
X001166Y011756D02*
X001166Y011656D01*
X001286Y011656D02*
X001286Y011756D01*
X001406Y011756D02*
X001406Y011656D01*
X001286Y011256D02*
X001286Y011236D01*
X000926Y011656D02*
X000926Y011756D01*
X000806Y011756D02*
X000806Y011656D01*
X001056Y011846D02*
X001156Y011846D01*
X001156Y011966D02*
X001056Y011966D01*
X001056Y012086D02*
X001156Y012086D01*
X001166Y012156D02*
X001166Y012176D01*
X001046Y012176D02*
X001046Y012156D01*
X000926Y012156D02*
X000926Y012176D01*
X000887Y012176D02*
X000576Y012487D01*
X000576Y012926D01*
X000857Y013206D01*
X000576Y013487D01*
X000576Y013926D01*
X000857Y014206D01*
X000576Y014487D01*
X000576Y014926D01*
X000857Y015206D01*
X000416Y015206D01*
X000416Y015086D02*
X000737Y015086D01*
X000686Y015036D02*
X000686Y015377D01*
X000737Y015326D02*
X000416Y015326D01*
X000416Y015446D02*
X000617Y015446D01*
X000576Y015487D02*
X000857Y015206D01*
X000806Y015156D02*
X000806Y015257D01*
X000617Y014966D02*
X000416Y014966D01*
X000416Y014846D02*
X000576Y014846D01*
X000576Y014726D02*
X000416Y014726D01*
X000416Y014606D02*
X000576Y014606D01*
X000577Y014486D02*
X000416Y014486D01*
X000416Y014366D02*
X000697Y014366D01*
X000686Y014377D02*
X000686Y014036D01*
X000657Y014006D02*
X000416Y014006D01*
X000416Y013886D02*
X000576Y013886D01*
X000576Y013766D02*
X000416Y013766D01*
X000416Y013646D02*
X000576Y013646D01*
X000576Y013526D02*
X000416Y013526D01*
X000416Y013406D02*
X000657Y013406D01*
X000686Y013377D02*
X000686Y013036D01*
X000697Y013046D02*
X000416Y013046D01*
X000416Y012926D02*
X000577Y012926D01*
X000576Y012806D02*
X000416Y012806D01*
X000416Y012686D02*
X000576Y012686D01*
X000576Y012566D02*
X000416Y012566D01*
X000416Y012446D02*
X000617Y012446D01*
X000806Y012257D02*
X000806Y012043D01*
X000850Y012086D02*
X000416Y012086D01*
X000416Y013166D02*
X000817Y013166D01*
X000806Y013156D02*
X000806Y013257D01*
X000777Y013286D02*
X000416Y013286D01*
X000416Y014126D02*
X000777Y014126D01*
X000806Y014156D02*
X000806Y014257D01*
X000817Y014246D02*
X000416Y014246D01*
X001356Y014206D02*
X001606Y013956D01*
X001857Y014206D01*
X001606Y014457D01*
X001356Y014206D01*
X001396Y014246D02*
X001817Y014246D01*
X001766Y014297D02*
X001766Y014116D01*
X001777Y014126D02*
X001436Y014126D01*
X001406Y014156D02*
X001406Y014257D01*
X001516Y014366D02*
X001697Y014366D01*
X001646Y014417D02*
X001646Y013996D01*
X001657Y014006D02*
X001556Y014006D01*
X001526Y014036D02*
X001526Y014377D01*
X001606Y014956D02*
X001356Y015206D01*
X001857Y015206D01*
X001606Y014956D01*
X001596Y014966D02*
X001617Y014966D01*
X001646Y014996D02*
X001646Y015417D01*
X001617Y015446D02*
X001596Y015446D01*
X001606Y015457D02*
X001857Y015206D01*
X001766Y015116D02*
X001766Y015297D01*
X001737Y015326D02*
X001476Y015326D01*
X001526Y015377D02*
X001526Y015036D01*
X001476Y015086D02*
X001737Y015086D01*
X001406Y015156D02*
X001406Y015257D01*
X001356Y015206D02*
X001606Y015457D01*
X001606Y015956D02*
X001326Y016236D01*
X000887Y016236D01*
X000576Y015926D01*
X000576Y015487D01*
X000576Y015566D02*
X000416Y015566D01*
X000416Y015686D02*
X000576Y015686D01*
X000576Y015806D02*
X000416Y015806D01*
X000416Y015926D02*
X000577Y015926D01*
X000686Y016036D02*
X000686Y016490D01*
X000656Y016520D02*
X000920Y016256D01*
X001056Y016256D01*
X001056Y016656D01*
X000656Y016656D01*
X000656Y016520D01*
X000656Y016526D02*
X000416Y016526D01*
X000416Y016406D02*
X000770Y016406D01*
X000806Y016370D02*
X000806Y016156D01*
X000817Y016166D02*
X000416Y016166D01*
X000416Y016046D02*
X000697Y016046D01*
X000926Y016236D02*
X000926Y016256D01*
X000890Y016286D02*
X000416Y016286D01*
X000416Y016646D02*
X000656Y016646D01*
X000686Y016656D02*
X000686Y016756D01*
X000656Y016756D02*
X001056Y016756D01*
X001056Y016656D01*
X001156Y016656D01*
X001156Y016256D01*
X001293Y016256D01*
X001556Y016520D01*
X001556Y016656D01*
X001157Y016656D01*
X001157Y016756D01*
X001556Y016756D01*
X001556Y016893D01*
X001293Y017156D01*
X001156Y017156D01*
X001156Y016757D01*
X001056Y016757D01*
X001056Y017156D01*
X000920Y017156D01*
X000656Y016893D01*
X000656Y016756D01*
X000656Y016766D02*
X000416Y016766D01*
X000416Y016886D02*
X000656Y016886D01*
X000686Y016923D02*
X000686Y017377D01*
X000697Y017366D02*
X000416Y017366D01*
X000416Y017246D02*
X000817Y017246D01*
X000806Y017257D02*
X000806Y017043D01*
X000770Y017006D02*
X000416Y017006D01*
X000416Y017126D02*
X000890Y017126D01*
X000926Y017156D02*
X000926Y017176D01*
X000887Y017176D02*
X001326Y017176D01*
X001606Y017457D01*
X001857Y017206D01*
X001576Y016926D01*
X001576Y016487D01*
X001857Y016206D01*
X001606Y015956D01*
X001646Y015996D02*
X001646Y016417D01*
X001657Y016406D02*
X001443Y016406D01*
X001406Y016370D02*
X001406Y016156D01*
X001396Y016166D02*
X001817Y016166D01*
X001766Y016116D02*
X001766Y016297D01*
X001777Y016286D02*
X001323Y016286D01*
X001286Y016256D02*
X001286Y016236D01*
X001166Y016236D02*
X001166Y016256D01*
X001156Y016286D02*
X001056Y016286D01*
X001046Y016256D02*
X001046Y016236D01*
X001056Y016406D02*
X001156Y016406D01*
X001156Y016526D02*
X001056Y016526D01*
X001056Y016646D02*
X001156Y016646D01*
X001166Y016656D02*
X001166Y016756D01*
X001156Y016766D02*
X001056Y016766D01*
X001046Y016756D02*
X001046Y016656D01*
X000926Y016656D02*
X000926Y016756D01*
X000806Y016756D02*
X000806Y016656D01*
X001056Y016886D02*
X001156Y016886D01*
X001156Y017006D02*
X001056Y017006D01*
X001056Y017126D02*
X001156Y017126D01*
X001166Y017156D02*
X001166Y017176D01*
X001046Y017176D02*
X001046Y017156D01*
X000887Y017176D02*
X000576Y017487D01*
X000576Y017926D01*
X000857Y018206D01*
X000806Y018156D02*
X000806Y018257D01*
X000617Y017966D02*
X000416Y017966D01*
X000416Y017846D02*
X000576Y017846D01*
X000576Y017726D02*
X000416Y017726D01*
X000416Y017606D02*
X000576Y017606D01*
X000577Y017486D02*
X000416Y017486D01*
X001286Y017176D02*
X001286Y017156D01*
X001323Y017126D02*
X001777Y017126D01*
X001766Y017116D02*
X001766Y017297D01*
X001817Y017246D02*
X001396Y017246D01*
X001406Y017257D02*
X001406Y017043D01*
X001443Y017006D02*
X001657Y017006D01*
X001646Y016996D02*
X001646Y017417D01*
X001697Y017366D02*
X001516Y017366D01*
X001526Y017377D02*
X001526Y016923D01*
X001556Y016886D02*
X001576Y016886D01*
X001576Y016766D02*
X001556Y016766D01*
X001526Y016756D02*
X001526Y016656D01*
X001556Y016646D02*
X001576Y016646D01*
X001576Y016526D02*
X001556Y016526D01*
X001526Y016490D02*
X001526Y016036D01*
X001516Y016046D02*
X001697Y016046D01*
X001406Y016656D02*
X001406Y016756D01*
X001286Y016756D02*
X001286Y016656D01*
X001606Y017956D02*
X001356Y018206D01*
X001857Y018206D01*
X001606Y017956D01*
X001596Y017966D02*
X001617Y017966D01*
X001646Y017996D02*
X001646Y018417D01*
X001617Y018446D02*
X001596Y018446D01*
X001606Y018457D02*
X001857Y018206D01*
X001766Y018116D02*
X001766Y018297D01*
X001737Y018326D02*
X001476Y018326D01*
X001526Y018377D02*
X001526Y018036D01*
X001476Y018086D02*
X001737Y018086D01*
X001406Y018156D02*
X001406Y018257D01*
X001356Y018206D02*
X001606Y018457D01*
X001606Y018956D02*
X001356Y019206D01*
X001606Y019457D01*
X001857Y019206D01*
X001606Y018956D01*
X001646Y018996D02*
X001646Y019417D01*
X001657Y019406D02*
X001556Y019406D01*
X001526Y019377D02*
X001526Y019036D01*
X001516Y019046D02*
X001697Y019046D01*
X001766Y019116D02*
X001766Y019297D01*
X001777Y019286D02*
X001436Y019286D01*
X001406Y019257D02*
X001406Y019156D01*
X001396Y019166D02*
X001817Y019166D01*
X002356Y019206D02*
X002636Y019487D01*
X002636Y019926D01*
X002356Y020206D01*
X002636Y020487D01*
X002636Y020926D01*
X002636Y020726D02*
X006996Y020726D01*
X006996Y020606D02*
X002636Y020606D01*
X002636Y020486D02*
X006996Y020486D01*
X006996Y020366D02*
X002516Y020366D01*
X002486Y020337D02*
X002486Y020076D01*
X002436Y020126D02*
X006996Y020126D01*
X006996Y020006D02*
X002556Y020006D01*
X002606Y019956D02*
X002606Y020457D01*
X002396Y020246D02*
X006996Y020246D01*
X006996Y019886D02*
X002636Y019886D01*
X002636Y019766D02*
X006996Y019766D01*
X006996Y019646D02*
X002636Y019646D01*
X002636Y019526D02*
X006996Y019526D01*
X006996Y019406D02*
X002556Y019406D01*
X002606Y019457D02*
X002606Y018956D01*
X002636Y018926D02*
X006996Y018926D01*
X006996Y018806D02*
X002636Y018806D01*
X002636Y018686D02*
X006996Y018686D01*
X006996Y018566D02*
X002636Y018566D01*
X002636Y018487D02*
X002636Y018926D01*
X002356Y019206D01*
X002366Y019196D02*
X002366Y019217D01*
X002396Y019166D02*
X006996Y019166D01*
X006996Y019046D02*
X002516Y019046D01*
X002486Y019076D02*
X002486Y019337D01*
X002436Y019286D02*
X006996Y019286D01*
X007816Y019286D02*
X018967Y019286D01*
X018967Y019166D02*
X007816Y019166D01*
X007816Y019046D02*
X018967Y019046D01*
X018967Y018926D02*
X007816Y018926D01*
X007816Y018806D02*
X018967Y018806D01*
X018967Y018686D02*
X007816Y018686D01*
X007816Y018566D02*
X018967Y018566D01*
X018967Y018446D02*
X007816Y018446D01*
X007816Y018326D02*
X018967Y018326D01*
X018967Y018206D02*
X007816Y018206D01*
X007816Y018086D02*
X018967Y018086D01*
X018967Y017966D02*
X007816Y017966D01*
X007816Y017846D02*
X018967Y017846D01*
X018967Y017726D02*
X007816Y017726D01*
X007816Y017606D02*
X018967Y017606D01*
X018967Y017486D02*
X007816Y017486D01*
X007816Y017366D02*
X018967Y017366D01*
X018967Y017246D02*
X007816Y017246D01*
X007816Y017126D02*
X018967Y017126D01*
X018967Y017006D02*
X007816Y017006D01*
X007816Y016886D02*
X018967Y016886D01*
X018967Y016766D02*
X007816Y016766D01*
X007816Y016646D02*
X018967Y016646D01*
X018967Y016526D02*
X007816Y016526D01*
X007816Y016406D02*
X018967Y016406D01*
X018967Y016286D02*
X007816Y016286D01*
X007816Y016166D02*
X018967Y016166D01*
X018967Y016046D02*
X007816Y016046D01*
X007816Y015926D02*
X018967Y015926D01*
X018967Y015806D02*
X007816Y015806D01*
X007816Y015686D02*
X018967Y015686D01*
X018967Y015566D02*
X007816Y015566D01*
X007816Y015446D02*
X018967Y015446D01*
X018967Y015326D02*
X007816Y015326D01*
X007816Y015206D02*
X009957Y015206D01*
X009926Y015176D02*
X009926Y022747D01*
X009946Y022766D02*
X018967Y022766D01*
X018967Y022646D02*
X009826Y022646D01*
X009806Y022627D02*
X009806Y015056D01*
X009837Y015086D02*
X009463Y015086D01*
X009446Y015103D02*
X009446Y022321D01*
X009326Y022296D02*
X009326Y015156D01*
X009393Y015156D02*
X009256Y015156D01*
X009256Y014757D01*
X009156Y014757D01*
X009156Y014756D02*
X009156Y014656D01*
X009256Y014656D01*
X009257Y014656D02*
X009257Y014756D01*
X009656Y014756D01*
X009656Y014893D01*
X009393Y015156D01*
X009256Y015086D02*
X009156Y015086D01*
X009156Y015156D02*
X009020Y015156D01*
X008756Y014893D01*
X008756Y014756D01*
X009156Y014756D01*
X009156Y014757D02*
X009156Y015156D01*
X009086Y015156D02*
X009086Y022296D01*
X008966Y022296D02*
X008966Y015103D01*
X008950Y015086D02*
X007816Y015086D01*
X007816Y014966D02*
X008830Y014966D01*
X008846Y014983D02*
X008846Y022296D01*
X008726Y022296D02*
X008726Y001996D01*
X008606Y001996D02*
X008606Y022296D01*
X008486Y022296D02*
X008486Y001996D01*
X008366Y001996D02*
X008366Y022296D01*
X008246Y022296D02*
X008246Y001996D01*
X008126Y001996D02*
X008126Y022296D01*
X008006Y022296D02*
X008006Y001996D01*
X007886Y001996D02*
X007886Y022296D01*
X007816Y022286D02*
X018967Y022286D01*
X018967Y022166D02*
X007816Y022166D01*
X007816Y022046D02*
X018967Y022046D01*
X018967Y021926D02*
X007816Y021926D01*
X007816Y021806D02*
X018967Y021806D01*
X018967Y021686D02*
X007816Y021686D01*
X007816Y021566D02*
X018967Y021566D01*
X018967Y021446D02*
X007816Y021446D01*
X007816Y021326D02*
X018967Y021326D01*
X018967Y021206D02*
X007816Y021206D01*
X007816Y021086D02*
X018967Y021086D01*
X018967Y020966D02*
X007816Y020966D01*
X007816Y020846D02*
X018967Y020846D01*
X018967Y020726D02*
X007816Y020726D01*
X007816Y020606D02*
X018967Y020606D01*
X018967Y020486D02*
X007816Y020486D01*
X007816Y020366D02*
X018967Y020366D01*
X018967Y020246D02*
X007816Y020246D01*
X007816Y020126D02*
X018967Y020126D01*
X018967Y020006D02*
X007816Y020006D01*
X007816Y019886D02*
X018967Y019886D01*
X018967Y019766D02*
X007816Y019766D01*
X007816Y019646D02*
X018967Y019646D01*
X018967Y019526D02*
X007816Y019526D01*
X007816Y019406D02*
X018967Y019406D01*
X018967Y022406D02*
X009586Y022406D01*
X009566Y022387D02*
X009566Y014983D01*
X009583Y014966D02*
X009717Y014966D01*
X009686Y014936D02*
X009686Y022507D01*
X009706Y022526D02*
X018967Y022526D01*
X018967Y022886D02*
X010066Y022886D01*
X010046Y022867D02*
X010046Y015236D01*
X010166Y015236D02*
X010166Y022987D01*
X010186Y023006D02*
X018967Y023006D01*
X018967Y023126D02*
X010306Y023126D01*
X010286Y023107D02*
X010286Y015236D01*
X010406Y015236D02*
X010406Y023176D01*
X010496Y023246D02*
X010917Y023246D01*
X010886Y023277D02*
X010886Y015136D01*
X010837Y015086D02*
X010576Y015086D01*
X010526Y015136D02*
X010526Y023277D01*
X010616Y023366D02*
X010797Y023366D01*
X010766Y023397D02*
X010766Y015016D01*
X010717Y014966D02*
X010696Y014966D01*
X010646Y015016D02*
X010646Y023397D01*
X011006Y023176D02*
X011006Y015236D01*
X010957Y015206D02*
X010456Y015206D01*
X011126Y015236D02*
X011126Y023176D01*
X011246Y023176D02*
X011246Y015236D01*
X011366Y015236D02*
X011366Y023176D01*
X011486Y023237D02*
X011486Y015176D01*
X011456Y015206D02*
X011957Y015206D01*
X011966Y015216D02*
X011966Y023197D01*
X011917Y023246D02*
X011496Y023246D01*
X011606Y023357D02*
X011606Y015056D01*
X011576Y015086D02*
X011837Y015086D01*
X011846Y015096D02*
X011846Y023317D01*
X011797Y023366D02*
X011616Y023366D01*
X011726Y023437D02*
X011726Y014976D01*
X011717Y014966D02*
X011696Y014966D01*
X012086Y015236D02*
X012086Y023176D01*
X012206Y023176D02*
X012206Y015236D01*
X012326Y015236D02*
X012326Y023176D01*
X012446Y023197D02*
X012446Y015216D01*
X012456Y015206D02*
X012957Y015206D01*
X012926Y015176D02*
X012926Y023237D01*
X012917Y023246D02*
X012496Y023246D01*
X012566Y023317D02*
X012566Y015096D01*
X012576Y015086D02*
X012837Y015086D01*
X012806Y015056D02*
X012806Y023357D01*
X012797Y023366D02*
X012616Y023366D01*
X012686Y023437D02*
X012686Y014976D01*
X012696Y014966D02*
X012717Y014966D01*
X013046Y015236D02*
X013046Y023176D01*
X013166Y023176D02*
X013166Y015236D01*
X013286Y015236D02*
X013286Y023176D01*
X013406Y023176D02*
X013406Y015236D01*
X013456Y015206D02*
X013957Y015206D01*
X014006Y015236D02*
X014006Y023176D01*
X013917Y023246D02*
X013496Y023246D01*
X013526Y023277D02*
X013526Y015136D01*
X013576Y015086D02*
X013837Y015086D01*
X013886Y015136D02*
X013886Y023277D01*
X013797Y023366D02*
X013616Y023366D01*
X013646Y023397D02*
X013646Y015016D01*
X013696Y014966D02*
X013717Y014966D01*
X013766Y015016D02*
X013766Y023397D01*
X014126Y023176D02*
X014126Y015236D01*
X014246Y015236D02*
X014246Y023176D01*
X014366Y023176D02*
X014366Y015236D01*
X014456Y015206D02*
X014957Y015206D01*
X014966Y015216D02*
X014966Y023197D01*
X014917Y023246D02*
X014496Y023246D01*
X014486Y023237D02*
X014486Y015176D01*
X014576Y015086D02*
X014837Y015086D01*
X014846Y015096D02*
X014846Y023317D01*
X014797Y023366D02*
X014616Y023366D01*
X014606Y023357D02*
X014606Y015056D01*
X014696Y014966D02*
X014717Y014966D01*
X014726Y014976D02*
X014726Y023437D01*
X015086Y023176D02*
X015086Y015236D01*
X015206Y015236D02*
X015206Y023176D01*
X015326Y023176D02*
X015326Y015236D01*
X015446Y015216D02*
X015446Y023197D01*
X015496Y023246D02*
X015730Y023246D01*
X015686Y023290D02*
X015686Y015123D01*
X015676Y015086D02*
X015576Y015086D01*
X015566Y015096D02*
X015566Y023317D01*
X015616Y023366D02*
X015676Y023366D01*
X015806Y023176D02*
X015806Y015236D01*
X015770Y015206D02*
X015456Y015206D01*
X015926Y015236D02*
X015926Y023176D01*
X016046Y023176D02*
X016046Y015236D01*
X016166Y015236D02*
X016166Y023176D01*
X016286Y023176D02*
X016286Y015236D01*
X016406Y015236D02*
X016406Y023176D01*
X016526Y023176D02*
X016526Y015236D01*
X016643Y015206D02*
X018967Y015206D01*
X018967Y015086D02*
X016736Y015086D01*
X016736Y014966D02*
X018967Y014966D01*
X018967Y014846D02*
X016736Y014846D01*
X016736Y014726D02*
X018967Y014726D01*
X018967Y014606D02*
X016736Y014606D01*
X016736Y014486D02*
X018967Y014486D01*
X018967Y014366D02*
X016736Y014366D01*
X016683Y014246D02*
X018967Y014246D01*
X018967Y014126D02*
X012037Y014126D01*
X012086Y014176D02*
X012086Y012236D01*
X012206Y012236D02*
X012206Y014176D01*
X012326Y014176D02*
X012326Y012236D01*
X012446Y012216D02*
X012446Y014197D01*
X012496Y014246D02*
X012917Y014246D01*
X012926Y014237D02*
X012926Y012176D01*
X012957Y012206D02*
X012456Y012206D01*
X012566Y012096D02*
X012566Y014317D01*
X012616Y014366D02*
X012797Y014366D01*
X012806Y014357D02*
X012806Y012056D01*
X012837Y012086D02*
X012576Y012086D01*
X012686Y011976D02*
X012686Y014437D01*
X013046Y014176D02*
X013046Y012236D01*
X013166Y012236D02*
X013166Y014176D01*
X013286Y014176D02*
X013286Y012236D01*
X013406Y012236D02*
X013406Y014176D01*
X013496Y014246D02*
X013917Y014246D01*
X013886Y014277D02*
X013886Y012136D01*
X013837Y012086D02*
X013576Y012086D01*
X013526Y012136D02*
X013526Y014277D01*
X013616Y014366D02*
X013797Y014366D01*
X013766Y014397D02*
X013766Y012016D01*
X013717Y011966D02*
X013696Y011966D01*
X013646Y012016D02*
X013646Y014397D01*
X014006Y014176D02*
X014006Y012236D01*
X013957Y012206D02*
X013456Y012206D01*
X014126Y012236D02*
X014126Y014176D01*
X014246Y014176D02*
X014246Y012236D01*
X014366Y012236D02*
X014366Y014176D01*
X014486Y014237D02*
X014486Y012176D01*
X014456Y012206D02*
X014957Y012206D01*
X014966Y012216D02*
X014966Y014197D01*
X014917Y014246D02*
X014496Y014246D01*
X014606Y014357D02*
X014606Y012056D01*
X014576Y012086D02*
X014837Y012086D01*
X014846Y012096D02*
X014846Y014317D01*
X014797Y014366D02*
X014616Y014366D01*
X014726Y014437D02*
X014726Y011976D01*
X014717Y011966D02*
X014696Y011966D01*
X015086Y012236D02*
X015086Y014176D01*
X015206Y014176D02*
X015206Y012236D01*
X015326Y012236D02*
X015326Y014176D01*
X015446Y014197D02*
X015446Y012216D01*
X015456Y012206D02*
X015770Y012206D01*
X015806Y012236D02*
X015806Y014176D01*
X015730Y014246D02*
X015496Y014246D01*
X015566Y014317D02*
X015566Y012096D01*
X015576Y012086D02*
X015676Y012086D01*
X015686Y012123D02*
X015686Y014290D01*
X015676Y014366D02*
X015616Y014366D01*
X015926Y014176D02*
X015926Y012236D01*
X016046Y012236D02*
X016046Y014176D01*
X016166Y014176D02*
X016166Y012236D01*
X016286Y012236D02*
X016286Y014176D01*
X016406Y014176D02*
X016406Y012236D01*
X016526Y012236D02*
X016526Y014176D01*
X016646Y014210D02*
X016646Y012203D01*
X016643Y012206D02*
X018967Y012206D01*
X018967Y012086D02*
X016736Y012086D01*
X016736Y011966D02*
X018967Y011966D01*
X018967Y011846D02*
X016736Y011846D01*
X016736Y011726D02*
X018967Y011726D01*
X018967Y011606D02*
X016736Y011606D01*
X016736Y011486D02*
X018967Y011486D01*
X018967Y011366D02*
X016736Y011366D01*
X016683Y011246D02*
X018967Y011246D01*
X018967Y011126D02*
X011996Y011126D01*
X012086Y011176D02*
X012086Y004908D01*
X012095Y004886D02*
X018967Y004886D01*
X018967Y004766D02*
X012135Y004766D01*
X012135Y004646D02*
X018967Y004646D01*
X018967Y004526D02*
X012095Y004526D01*
X012086Y004505D02*
X012086Y003237D01*
X012206Y003236D02*
X012206Y011176D01*
X012326Y011176D02*
X012326Y003236D01*
X012446Y003216D02*
X012446Y011197D01*
X012496Y011246D02*
X012917Y011246D01*
X012926Y011237D02*
X012926Y003176D01*
X012957Y003206D02*
X012456Y003206D01*
X012566Y003096D02*
X012566Y011317D01*
X012616Y011366D02*
X012797Y011366D01*
X012806Y011357D02*
X012806Y003056D01*
X012837Y003086D02*
X012576Y003086D01*
X012686Y002976D02*
X012686Y011437D01*
X013046Y011176D02*
X013046Y003236D01*
X013166Y003236D02*
X013166Y011176D01*
X013286Y011176D02*
X013286Y003236D01*
X013406Y003236D02*
X013406Y011176D01*
X013496Y011246D02*
X013917Y011246D01*
X013886Y011277D02*
X013886Y003136D01*
X013837Y003086D02*
X013576Y003086D01*
X013526Y003136D02*
X013526Y011277D01*
X013616Y011366D02*
X013797Y011366D01*
X013766Y011397D02*
X013766Y003016D01*
X013717Y002966D02*
X013696Y002966D01*
X013646Y003016D02*
X013646Y011397D01*
X014006Y011176D02*
X014006Y003236D01*
X013957Y003206D02*
X013456Y003206D01*
X014126Y003236D02*
X014126Y011176D01*
X014246Y011176D02*
X014246Y003236D01*
X014366Y003236D02*
X014366Y011176D01*
X014486Y011237D02*
X014486Y003176D01*
X014456Y003206D02*
X014957Y003206D01*
X014966Y003216D02*
X014966Y011197D01*
X014917Y011246D02*
X014496Y011246D01*
X014606Y011357D02*
X014606Y003056D01*
X014576Y003086D02*
X014837Y003086D01*
X014846Y003096D02*
X014846Y011317D01*
X014797Y011366D02*
X014616Y011366D01*
X014726Y011437D02*
X014726Y002976D01*
X014717Y002966D02*
X014696Y002966D01*
X015086Y003236D02*
X015086Y011176D01*
X015206Y011176D02*
X015206Y003236D01*
X015326Y003236D02*
X015326Y011176D01*
X015446Y011197D02*
X015446Y003216D01*
X015456Y003206D02*
X015770Y003206D01*
X015806Y003236D02*
X015806Y011176D01*
X015730Y011246D02*
X015496Y011246D01*
X015566Y011317D02*
X015566Y003096D01*
X015576Y003086D02*
X015676Y003086D01*
X015686Y003123D02*
X015686Y011290D01*
X015676Y011366D02*
X015616Y011366D01*
X015926Y011176D02*
X015926Y003236D01*
X016046Y003236D02*
X016046Y011176D01*
X016166Y011176D02*
X016166Y003236D01*
X016286Y003236D02*
X016286Y011176D01*
X016406Y011176D02*
X016406Y003236D01*
X016526Y003236D02*
X016526Y011176D01*
X016646Y011210D02*
X016646Y003203D01*
X016643Y003206D02*
X018967Y003206D01*
X018967Y003086D02*
X016736Y003086D01*
X016736Y002966D02*
X018967Y002966D01*
X018967Y002846D02*
X016736Y002846D01*
X016736Y002726D02*
X018967Y002726D01*
X018967Y002606D02*
X016736Y002606D01*
X016736Y002486D02*
X018967Y002486D01*
X018967Y002366D02*
X016736Y002366D01*
X016526Y002176D02*
X016526Y000416D01*
X016406Y000416D02*
X016406Y002176D01*
X016286Y002176D02*
X016286Y000416D01*
X016166Y000416D02*
X016166Y002176D01*
X016046Y002176D02*
X016046Y000416D01*
X015926Y000416D02*
X015926Y002176D01*
X015806Y002176D02*
X015806Y000416D01*
X015686Y000416D02*
X015686Y002290D01*
X015730Y002246D02*
X015496Y002246D01*
X015446Y002197D02*
X015446Y000416D01*
X015326Y000416D02*
X015326Y002176D01*
X015206Y002176D02*
X015206Y000416D01*
X015086Y000416D02*
X015086Y002176D01*
X014966Y002197D02*
X014966Y000416D01*
X014846Y000416D02*
X014846Y002317D01*
X014797Y002366D02*
X014616Y002366D01*
X014606Y002357D02*
X014606Y000416D01*
X014486Y000416D02*
X014486Y002237D01*
X014496Y002246D02*
X014917Y002246D01*
X014726Y002437D02*
X014726Y000416D01*
X014366Y000416D02*
X014366Y002176D01*
X014246Y002176D02*
X014246Y000416D01*
X014126Y000416D02*
X014126Y002176D01*
X014006Y002176D02*
X014006Y000416D01*
X013886Y000416D02*
X013886Y002277D01*
X013917Y002246D02*
X013496Y002246D01*
X013526Y002277D02*
X013526Y000416D01*
X013406Y000416D02*
X013406Y002176D01*
X013286Y002176D02*
X013286Y000416D01*
X013166Y000416D02*
X013166Y002176D01*
X013046Y002176D02*
X013046Y000416D01*
X012926Y000416D02*
X012926Y002237D01*
X012917Y002246D02*
X012496Y002246D01*
X012446Y002197D02*
X012446Y000416D01*
X012326Y000416D02*
X012326Y002176D01*
X012206Y002176D02*
X012206Y000416D01*
X012086Y000416D02*
X012086Y002176D01*
X011966Y002197D02*
X011966Y000416D01*
X011846Y000416D02*
X011846Y002317D01*
X011797Y002366D02*
X011616Y002366D01*
X011606Y002357D02*
X011606Y000416D01*
X011486Y000416D02*
X011486Y002237D01*
X011496Y002246D02*
X011917Y002246D01*
X011726Y002437D02*
X011726Y000416D01*
X011366Y000416D02*
X011366Y002176D01*
X011246Y002176D02*
X011246Y000416D01*
X011126Y000416D02*
X011126Y002176D01*
X011006Y002176D02*
X011006Y000416D01*
X010886Y000416D02*
X010886Y002277D01*
X010917Y002246D02*
X010496Y002246D01*
X010526Y002277D02*
X010526Y000416D01*
X010406Y000416D02*
X010406Y002176D01*
X010286Y002176D02*
X010286Y000416D01*
X010166Y000416D02*
X010166Y002176D01*
X010616Y002366D02*
X010797Y002366D01*
X010766Y002397D02*
X010766Y000416D01*
X010646Y000416D02*
X010646Y002397D01*
X010416Y003236D02*
X010087Y003236D01*
X009996Y003327D01*
X009996Y011176D01*
X010416Y011176D01*
X010416Y005522D01*
X010344Y005449D01*
X010278Y005292D01*
X010278Y005121D01*
X010344Y004964D01*
X010416Y004891D01*
X010416Y003236D01*
X010406Y003236D02*
X010406Y004901D01*
X010416Y004886D02*
X009996Y004886D01*
X009996Y004766D02*
X010416Y004766D01*
X010416Y004646D02*
X009996Y004646D01*
X009996Y004526D02*
X010416Y004526D01*
X010416Y004406D02*
X009996Y004406D01*
X009996Y004286D02*
X010416Y004286D01*
X010416Y004166D02*
X009996Y004166D01*
X009996Y004046D02*
X010416Y004046D01*
X010416Y003926D02*
X009996Y003926D01*
X009996Y003806D02*
X010416Y003806D01*
X010416Y003686D02*
X009996Y003686D01*
X009996Y003566D02*
X010416Y003566D01*
X010416Y003446D02*
X009996Y003446D01*
X009997Y003326D02*
X010416Y003326D01*
X010286Y003236D02*
X010286Y005102D01*
X010278Y005126D02*
X009996Y005126D01*
X009996Y005006D02*
X010326Y005006D01*
X010278Y005246D02*
X009996Y005246D01*
X009996Y005366D02*
X010309Y005366D01*
X010286Y005311D02*
X010286Y011176D01*
X010166Y011176D02*
X010166Y003236D01*
X010046Y003277D02*
X010046Y011176D01*
X009996Y011126D02*
X010416Y011126D01*
X010406Y011176D02*
X010406Y005512D01*
X010381Y005486D02*
X009996Y005486D01*
X009996Y005606D02*
X010416Y005606D01*
X010416Y005726D02*
X009996Y005726D01*
X009996Y005846D02*
X010416Y005846D01*
X010416Y005966D02*
X009996Y005966D01*
X009996Y006086D02*
X010416Y006086D01*
X010416Y006206D02*
X009996Y006206D01*
X009996Y006326D02*
X010416Y006326D01*
X010416Y006446D02*
X009996Y006446D01*
X009996Y006566D02*
X010416Y006566D01*
X010416Y006686D02*
X009996Y006686D01*
X009996Y006806D02*
X010416Y006806D01*
X010416Y006926D02*
X009996Y006926D01*
X009996Y007046D02*
X010416Y007046D01*
X010416Y007166D02*
X009996Y007166D01*
X009996Y007286D02*
X010416Y007286D01*
X010416Y007406D02*
X009996Y007406D01*
X009996Y007526D02*
X010416Y007526D01*
X010416Y007646D02*
X009996Y007646D01*
X009996Y007766D02*
X010416Y007766D01*
X010416Y007886D02*
X009996Y007886D01*
X009996Y008006D02*
X010416Y008006D01*
X010416Y008126D02*
X009996Y008126D01*
X009996Y008246D02*
X010416Y008246D01*
X010416Y008366D02*
X009996Y008366D01*
X009996Y008486D02*
X010416Y008486D01*
X010416Y008606D02*
X009996Y008606D01*
X009996Y008726D02*
X010416Y008726D01*
X010416Y008846D02*
X009996Y008846D01*
X009996Y008966D02*
X010416Y008966D01*
X010416Y009086D02*
X009996Y009086D01*
X009996Y009206D02*
X010416Y009206D01*
X010416Y009326D02*
X009996Y009326D01*
X009996Y009446D02*
X010416Y009446D01*
X010416Y009566D02*
X009996Y009566D01*
X009996Y009686D02*
X010416Y009686D01*
X010416Y009806D02*
X009996Y009806D01*
X009996Y009926D02*
X010416Y009926D01*
X010416Y010046D02*
X009996Y010046D01*
X009996Y010166D02*
X010416Y010166D01*
X010416Y010286D02*
X009996Y010286D01*
X009996Y010406D02*
X010416Y010406D01*
X010416Y010526D02*
X009996Y010526D01*
X009996Y010646D02*
X010416Y010646D01*
X010416Y010766D02*
X009996Y010766D01*
X009996Y010886D02*
X010416Y010886D01*
X010416Y011006D02*
X009996Y011006D01*
X009256Y011366D02*
X009156Y011366D01*
X009156Y011256D02*
X009156Y011656D01*
X008756Y011656D01*
X008756Y011520D01*
X009020Y011256D01*
X009156Y011256D01*
X009086Y011256D02*
X009086Y003156D01*
X009020Y003156D02*
X008756Y002893D01*
X008756Y002756D01*
X009156Y002756D01*
X009156Y002757D02*
X009156Y003156D01*
X009020Y003156D01*
X009156Y003086D02*
X009256Y003086D01*
X009256Y002966D02*
X009156Y002966D01*
X009156Y002846D02*
X009256Y002846D01*
X009206Y002757D02*
X009206Y011656D01*
X009156Y011606D02*
X009256Y011606D01*
X009256Y011486D02*
X009156Y011486D01*
X009086Y011656D02*
X009086Y011756D01*
X009156Y011756D02*
X008756Y011756D01*
X008756Y011893D01*
X009020Y012156D01*
X009156Y012156D01*
X009156Y011757D01*
X009156Y011726D02*
X007816Y011726D01*
X007816Y011606D02*
X008756Y011606D01*
X008846Y011656D02*
X008846Y011756D01*
X008966Y011756D02*
X008966Y011656D01*
X009206Y011757D02*
X009206Y014656D01*
X009156Y014656D02*
X009156Y014256D01*
X009020Y014256D01*
X008756Y014520D01*
X008756Y014656D01*
X009156Y014656D01*
X009156Y014606D02*
X009256Y014606D01*
X009326Y014656D02*
X009326Y014756D01*
X009257Y014726D02*
X009676Y014726D01*
X009566Y014756D02*
X009566Y014656D01*
X009656Y014606D02*
X009676Y014606D01*
X009446Y014656D02*
X009446Y014756D01*
X009256Y014846D02*
X009156Y014846D01*
X009206Y014757D02*
X009206Y022296D01*
X009086Y023116D02*
X009086Y023256D01*
X009020Y023256D02*
X009156Y023256D01*
X009156Y023656D01*
X008756Y023656D01*
X008756Y023520D01*
X009020Y023256D01*
X008966Y023310D02*
X008966Y023116D01*
X008846Y023116D02*
X008846Y023430D01*
X008790Y023486D02*
X000416Y023486D01*
X000416Y023366D02*
X008910Y023366D01*
X008756Y023606D02*
X000416Y023606D01*
X000416Y023726D02*
X009156Y023726D01*
X009206Y023757D02*
X009206Y025593D01*
X009566Y025593D02*
X009566Y023983D01*
X009583Y023966D02*
X009717Y023966D01*
X009686Y023936D02*
X009686Y025593D01*
X009806Y025593D02*
X009806Y024056D01*
X009676Y023846D02*
X009656Y023846D01*
X009676Y023726D02*
X009257Y023726D01*
X009326Y023756D02*
X009326Y023656D01*
X009256Y023606D02*
X009156Y023606D01*
X009206Y023656D02*
X009206Y023186D01*
X009147Y023126D02*
X000416Y023126D01*
X000416Y023246D02*
X009267Y023246D01*
X009256Y023366D02*
X009156Y023366D01*
X009156Y023486D02*
X009256Y023486D01*
X009086Y023656D02*
X009086Y023756D01*
X009156Y023846D02*
X009256Y023846D01*
X009256Y023966D02*
X009156Y023966D01*
X008966Y023756D02*
X008966Y023656D01*
X008846Y023656D02*
X008846Y023756D01*
X008756Y023846D02*
X000416Y023846D01*
X001606Y020457D02*
X001857Y020206D01*
X001606Y019956D01*
X001356Y020206D01*
X001606Y020457D01*
X001646Y020417D02*
X001646Y019996D01*
X001657Y020006D02*
X001556Y020006D01*
X001526Y020036D02*
X001526Y020377D01*
X001516Y020366D02*
X001697Y020366D01*
X001766Y020297D02*
X001766Y020116D01*
X001777Y020126D02*
X001436Y020126D01*
X001406Y020156D02*
X001406Y020257D01*
X001396Y020246D02*
X001817Y020246D01*
X002366Y020217D02*
X002366Y020196D01*
X002636Y018487D02*
X002356Y018206D01*
X006996Y018206D01*
X006996Y018086D02*
X002476Y018086D01*
X002486Y018076D02*
X002486Y018337D01*
X002476Y018326D02*
X006996Y018326D01*
X006996Y018446D02*
X002596Y018446D01*
X002606Y018457D02*
X002606Y017956D01*
X002596Y017966D02*
X006996Y017966D01*
X006996Y017846D02*
X002636Y017846D01*
X002636Y017926D02*
X002356Y018206D01*
X002366Y018196D02*
X002366Y018217D01*
X002636Y017926D02*
X002636Y017487D01*
X002356Y017206D01*
X002636Y016926D01*
X002636Y016487D01*
X002356Y016206D01*
X002636Y015926D01*
X002636Y015487D01*
X002356Y015206D01*
X006996Y015206D01*
X006996Y015086D02*
X002476Y015086D01*
X002486Y015076D02*
X002486Y015337D01*
X002476Y015326D02*
X006996Y015326D01*
X006996Y015446D02*
X002596Y015446D01*
X002606Y015457D02*
X002606Y014956D01*
X002596Y014966D02*
X006996Y014966D01*
X006996Y014846D02*
X002636Y014846D01*
X002636Y014926D02*
X002356Y015206D01*
X002366Y015196D02*
X002366Y015217D01*
X002636Y014926D02*
X002636Y014487D01*
X002356Y014206D01*
X002636Y013926D01*
X002636Y013487D01*
X002356Y013206D01*
X002636Y012926D01*
X002636Y012487D01*
X002356Y012206D01*
X002366Y012196D02*
X002366Y012217D01*
X002636Y012566D02*
X006996Y012566D01*
X006996Y012686D02*
X002636Y012686D01*
X002636Y012806D02*
X006996Y012806D01*
X006996Y012926D02*
X002636Y012926D01*
X002606Y012956D02*
X002606Y013457D01*
X002556Y013406D02*
X006996Y013406D01*
X006996Y013526D02*
X002636Y013526D01*
X002636Y013646D02*
X006996Y013646D01*
X006996Y013766D02*
X002636Y013766D01*
X002636Y013886D02*
X006996Y013886D01*
X006996Y014006D02*
X002556Y014006D01*
X002606Y013956D02*
X002606Y014457D01*
X002636Y014486D02*
X006996Y014486D01*
X006996Y014366D02*
X002516Y014366D01*
X002486Y014337D02*
X002486Y014076D01*
X002436Y014126D02*
X006996Y014126D01*
X006996Y014246D02*
X002396Y014246D01*
X002366Y014217D02*
X002366Y014196D01*
X002636Y014606D02*
X006996Y014606D01*
X006996Y014726D02*
X002636Y014726D01*
X002636Y015566D02*
X006996Y015566D01*
X006996Y015686D02*
X002636Y015686D01*
X002636Y015806D02*
X006996Y015806D01*
X006996Y015926D02*
X002636Y015926D01*
X002606Y015956D02*
X002606Y016457D01*
X002556Y016406D02*
X006996Y016406D01*
X006996Y016286D02*
X002436Y016286D01*
X002486Y016337D02*
X002486Y016076D01*
X002516Y016046D02*
X006996Y016046D01*
X006996Y016166D02*
X002396Y016166D01*
X002366Y016196D02*
X002366Y016217D01*
X002636Y016526D02*
X006996Y016526D01*
X006996Y016646D02*
X002636Y016646D01*
X002636Y016766D02*
X006996Y016766D01*
X006996Y016886D02*
X002636Y016886D01*
X002606Y016956D02*
X002606Y017457D01*
X002636Y017486D02*
X006996Y017486D01*
X006996Y017366D02*
X002516Y017366D01*
X002486Y017337D02*
X002486Y017076D01*
X002436Y017126D02*
X006996Y017126D01*
X006996Y017006D02*
X002556Y017006D01*
X002366Y017196D02*
X002366Y017217D01*
X002396Y017246D02*
X006996Y017246D01*
X006996Y017606D02*
X002636Y017606D01*
X002636Y017726D02*
X006996Y017726D01*
X007816Y014846D02*
X008756Y014846D01*
X008846Y014756D02*
X008846Y014656D01*
X008756Y014606D02*
X007816Y014606D01*
X007816Y014486D02*
X008790Y014486D01*
X008846Y014430D02*
X008846Y011983D01*
X008830Y011966D02*
X007816Y011966D01*
X007816Y011846D02*
X008756Y011846D01*
X008950Y012086D02*
X007816Y012086D01*
X007816Y012206D02*
X009416Y012206D01*
X009326Y012156D02*
X009326Y014256D01*
X009416Y014246D02*
X007816Y014246D01*
X007816Y014126D02*
X009416Y014126D01*
X009416Y014006D02*
X007816Y014006D01*
X007816Y013886D02*
X009416Y013886D01*
X009416Y013766D02*
X007816Y013766D01*
X007816Y013646D02*
X009416Y013646D01*
X009416Y013526D02*
X007816Y013526D01*
X007816Y013406D02*
X009416Y013406D01*
X009416Y013286D02*
X007835Y013286D01*
X007835Y013166D02*
X009416Y013166D01*
X009416Y013046D02*
X007816Y013046D01*
X007816Y012926D02*
X009416Y012926D01*
X009416Y012806D02*
X007816Y012806D01*
X007816Y012686D02*
X009416Y012686D01*
X009416Y012566D02*
X007816Y012566D01*
X007816Y012446D02*
X009416Y012446D01*
X009416Y012326D02*
X007816Y012326D01*
X006996Y013046D02*
X002516Y013046D01*
X002486Y013076D02*
X002486Y013337D01*
X002436Y013286D02*
X006978Y013286D01*
X006978Y013166D02*
X002396Y013166D01*
X002366Y013196D02*
X002366Y013217D01*
X001857Y013206D02*
X001606Y012956D01*
X001356Y013206D01*
X001606Y013457D01*
X001857Y013206D01*
X001817Y013166D02*
X001396Y013166D01*
X001406Y013156D02*
X001406Y013257D01*
X001436Y013286D02*
X001777Y013286D01*
X001766Y013297D02*
X001766Y013116D01*
X001697Y013046D02*
X001516Y013046D01*
X001526Y013036D02*
X001526Y013377D01*
X001556Y013406D02*
X001657Y013406D01*
X001646Y013417D02*
X001646Y012996D01*
X002366Y011217D02*
X002366Y011196D01*
X001617Y005966D02*
X001596Y005966D01*
X001606Y005457D02*
X001356Y005206D01*
X001606Y004956D01*
X001857Y005206D01*
X001606Y005457D01*
X001646Y005417D02*
X001646Y004996D01*
X001657Y005006D02*
X001556Y005006D01*
X001526Y005036D02*
X001526Y005377D01*
X001516Y005366D02*
X001697Y005366D01*
X001766Y005297D02*
X001766Y005116D01*
X001777Y005126D02*
X001436Y005126D01*
X001406Y005156D02*
X001406Y005257D01*
X001396Y005246D02*
X001817Y005246D01*
X002366Y005217D02*
X002366Y005196D01*
X002846Y003796D02*
X002846Y002377D01*
X002857Y002366D02*
X008910Y002366D01*
X008756Y002606D02*
X002636Y002606D01*
X002636Y002726D02*
X009156Y002726D01*
X009086Y002756D02*
X009086Y002656D01*
X009156Y002606D02*
X009256Y002606D01*
X009206Y002656D02*
X009206Y002117D01*
X009216Y002126D02*
X003097Y002126D01*
X003086Y002137D02*
X003086Y003796D01*
X002966Y003796D02*
X002966Y002257D01*
X002977Y002246D02*
X009336Y002246D01*
X009326Y002237D02*
X009326Y002256D01*
X009256Y002366D02*
X009156Y002366D01*
X009156Y002486D02*
X009256Y002486D01*
X008966Y002656D02*
X008966Y002756D01*
X008846Y002756D02*
X008846Y002656D01*
X008756Y002846D02*
X002636Y002846D01*
X002156Y002006D02*
X002056Y002006D01*
X002056Y001886D02*
X002156Y001886D01*
X002246Y001756D02*
X002246Y001656D01*
X002366Y001656D02*
X002366Y001756D01*
X002486Y001756D02*
X002486Y001656D01*
X002556Y001646D02*
X002756Y001646D01*
X002726Y001676D02*
X002726Y000416D01*
X002606Y000416D02*
X002606Y001796D01*
X002636Y001766D02*
X002556Y001766D01*
X002156Y001526D02*
X002056Y001526D01*
X002056Y001406D02*
X002156Y001406D01*
X002156Y001286D02*
X002056Y001286D01*
X002006Y001256D02*
X002006Y000416D01*
X001656Y001526D02*
X001636Y001526D01*
X001636Y001646D02*
X001656Y001646D01*
X001766Y001656D02*
X001766Y001756D01*
X001656Y001766D02*
X001636Y001766D01*
X001636Y001886D02*
X001656Y001886D01*
X001886Y001756D02*
X001886Y001656D01*
X001286Y002236D02*
X001286Y002256D01*
X003206Y002017D02*
X003206Y003796D01*
X007166Y001416D02*
X007166Y000416D01*
X007286Y000416D02*
X007286Y001416D01*
X007406Y001416D02*
X007406Y000416D01*
X007526Y000416D02*
X007526Y001416D01*
X007646Y001416D02*
X007646Y000416D01*
X007766Y000416D02*
X007766Y001416D01*
X007886Y001416D02*
X007886Y000416D01*
X008006Y000416D02*
X008006Y001416D01*
X008126Y001416D02*
X008126Y000416D01*
X008246Y000416D02*
X008246Y001416D01*
X008366Y001416D02*
X008366Y000416D01*
X008486Y000416D02*
X008486Y001416D01*
X008606Y001416D02*
X008606Y000416D01*
X008726Y000416D02*
X008726Y001416D01*
X008846Y001416D02*
X008846Y000416D01*
X008966Y000416D02*
X008966Y001416D01*
X009086Y001416D02*
X009086Y000416D01*
X009206Y000416D02*
X009206Y001416D01*
X009326Y001442D02*
X009326Y000416D01*
X011087Y003236D02*
X010996Y003327D01*
X010996Y004891D01*
X011069Y004964D01*
X011135Y005121D01*
X011135Y005292D01*
X011069Y005449D01*
X010996Y005522D01*
X010996Y011176D01*
X011416Y011176D01*
X011416Y005022D01*
X011344Y004949D01*
X011278Y004792D01*
X011278Y004621D01*
X011344Y004464D01*
X011416Y004391D01*
X011416Y003236D01*
X011087Y003236D01*
X011126Y003236D02*
X011126Y005102D01*
X011135Y005126D02*
X011416Y005126D01*
X011401Y005006D02*
X011087Y005006D01*
X011006Y004901D02*
X011006Y003317D01*
X010997Y003326D02*
X011416Y003326D01*
X011366Y003236D02*
X011366Y004441D01*
X011401Y004406D02*
X010996Y004406D01*
X010996Y004286D02*
X011416Y004286D01*
X011416Y004166D02*
X010996Y004166D01*
X010996Y004046D02*
X011416Y004046D01*
X011416Y003926D02*
X010996Y003926D01*
X010996Y003806D02*
X011416Y003806D01*
X011416Y003686D02*
X010996Y003686D01*
X010996Y003566D02*
X011416Y003566D01*
X011416Y003446D02*
X010996Y003446D01*
X011246Y003236D02*
X011246Y011176D01*
X011126Y011176D02*
X011126Y005311D01*
X011104Y005366D02*
X011416Y005366D01*
X011416Y005246D02*
X011135Y005246D01*
X011032Y005486D02*
X011416Y005486D01*
X011416Y005606D02*
X010996Y005606D01*
X011006Y005512D02*
X011006Y011176D01*
X010996Y011126D02*
X011416Y011126D01*
X011366Y011176D02*
X011366Y004972D01*
X011318Y004886D02*
X010996Y004886D01*
X010996Y004766D02*
X011278Y004766D01*
X011278Y004646D02*
X010996Y004646D01*
X010996Y004526D02*
X011318Y004526D01*
X012012Y004406D02*
X018967Y004406D01*
X018967Y004286D02*
X011996Y004286D01*
X011996Y004166D02*
X018967Y004166D01*
X018967Y004046D02*
X011996Y004046D01*
X011996Y003926D02*
X018967Y003926D01*
X018967Y003806D02*
X011996Y003806D01*
X011996Y003686D02*
X018967Y003686D01*
X018967Y003566D02*
X011996Y003566D01*
X011996Y003446D02*
X018967Y003446D01*
X018967Y003326D02*
X011997Y003326D01*
X012616Y002366D02*
X012797Y002366D01*
X012806Y002357D02*
X012806Y000416D01*
X012686Y000416D02*
X012686Y002437D01*
X012566Y002317D02*
X012566Y000416D01*
X013646Y000416D02*
X013646Y002397D01*
X013616Y002366D02*
X013797Y002366D01*
X013766Y002397D02*
X013766Y000416D01*
X015566Y000416D02*
X015566Y002317D01*
X015616Y002366D02*
X015676Y002366D01*
X012717Y002966D02*
X012696Y002966D01*
X012012Y005006D02*
X018967Y005006D01*
X018967Y005126D02*
X011996Y005126D01*
X011996Y005246D02*
X018967Y005246D01*
X018967Y005366D02*
X011996Y005366D01*
X011996Y005486D02*
X018967Y005486D01*
X018967Y005606D02*
X011996Y005606D01*
X011996Y005726D02*
X018967Y005726D01*
X018967Y005846D02*
X011996Y005846D01*
X011996Y005966D02*
X018967Y005966D01*
X018967Y006086D02*
X011996Y006086D01*
X011996Y006206D02*
X018967Y006206D01*
X018967Y006326D02*
X011996Y006326D01*
X011996Y006446D02*
X018967Y006446D01*
X018967Y006566D02*
X011996Y006566D01*
X011996Y006686D02*
X018967Y006686D01*
X018967Y006806D02*
X011996Y006806D01*
X011996Y006926D02*
X018967Y006926D01*
X018967Y007046D02*
X011996Y007046D01*
X011996Y007166D02*
X018967Y007166D01*
X018967Y007286D02*
X011996Y007286D01*
X011996Y007406D02*
X018967Y007406D01*
X018967Y007526D02*
X011996Y007526D01*
X011996Y007646D02*
X018967Y007646D01*
X018967Y007766D02*
X011996Y007766D01*
X011996Y007886D02*
X018967Y007886D01*
X018967Y008006D02*
X011996Y008006D01*
X011996Y008126D02*
X018967Y008126D01*
X018967Y008246D02*
X011996Y008246D01*
X011996Y008366D02*
X018967Y008366D01*
X018967Y008486D02*
X011996Y008486D01*
X011996Y008606D02*
X018967Y008606D01*
X018967Y008726D02*
X011996Y008726D01*
X011996Y008846D02*
X018967Y008846D01*
X018967Y008966D02*
X011996Y008966D01*
X011996Y009086D02*
X018967Y009086D01*
X018967Y009206D02*
X011996Y009206D01*
X011996Y009326D02*
X018967Y009326D01*
X018967Y009446D02*
X011996Y009446D01*
X011996Y009566D02*
X018967Y009566D01*
X018967Y009686D02*
X011996Y009686D01*
X011996Y009806D02*
X018967Y009806D01*
X018967Y009926D02*
X011996Y009926D01*
X011996Y010046D02*
X018967Y010046D01*
X018967Y010166D02*
X011996Y010166D01*
X011996Y010286D02*
X018967Y010286D01*
X018967Y010406D02*
X011996Y010406D01*
X011996Y010526D02*
X018967Y010526D01*
X018967Y010646D02*
X011996Y010646D01*
X011996Y010766D02*
X018967Y010766D01*
X018967Y010886D02*
X011996Y010886D01*
X011996Y011006D02*
X018967Y011006D01*
X018967Y012326D02*
X011996Y012326D01*
X011996Y012446D02*
X018967Y012446D01*
X018967Y012566D02*
X011996Y012566D01*
X011996Y012686D02*
X018967Y012686D01*
X018967Y012806D02*
X011996Y012806D01*
X011996Y012926D02*
X018967Y012926D01*
X018967Y013046D02*
X011996Y013046D01*
X011996Y013166D02*
X018967Y013166D01*
X018967Y013286D02*
X011996Y013286D01*
X011996Y013406D02*
X018967Y013406D01*
X018967Y013526D02*
X011996Y013526D01*
X011996Y013646D02*
X018967Y013646D01*
X018967Y013766D02*
X011996Y013766D01*
X011996Y013886D02*
X018967Y013886D01*
X018967Y014006D02*
X011996Y014006D01*
X011416Y014006D02*
X010996Y014006D01*
X010996Y014086D02*
X011087Y014176D01*
X011416Y014176D01*
X011416Y012236D01*
X010996Y012236D01*
X010996Y014086D01*
X011006Y014096D02*
X011006Y012236D01*
X010996Y012326D02*
X011416Y012326D01*
X011366Y012236D02*
X011366Y014176D01*
X011416Y014126D02*
X011037Y014126D01*
X011126Y014176D02*
X011126Y012236D01*
X011246Y012236D02*
X011246Y014176D01*
X011416Y013886D02*
X010996Y013886D01*
X010996Y013766D02*
X011416Y013766D01*
X011416Y013646D02*
X010996Y013646D01*
X010996Y013526D02*
X011416Y013526D01*
X011416Y013406D02*
X010996Y013406D01*
X010996Y013286D02*
X011416Y013286D01*
X011416Y013166D02*
X010996Y013166D01*
X010996Y013046D02*
X011416Y013046D01*
X011416Y012926D02*
X010996Y012926D01*
X010996Y012806D02*
X011416Y012806D01*
X011416Y012686D02*
X010996Y012686D01*
X010996Y012566D02*
X011416Y012566D01*
X011416Y012446D02*
X010996Y012446D01*
X010416Y012446D02*
X009996Y012446D01*
X009996Y012326D02*
X010416Y012326D01*
X010416Y012236D02*
X009996Y012236D01*
X009996Y014086D01*
X010087Y014176D01*
X010416Y014176D01*
X010416Y012236D01*
X010406Y012236D02*
X010406Y014176D01*
X010416Y014126D02*
X010037Y014126D01*
X010046Y014136D02*
X010046Y012236D01*
X010166Y012236D02*
X010166Y014176D01*
X010286Y014176D02*
X010286Y012236D01*
X010416Y012566D02*
X009996Y012566D01*
X009996Y012686D02*
X010416Y012686D01*
X010416Y012806D02*
X009996Y012806D01*
X009996Y012926D02*
X010416Y012926D01*
X010416Y013046D02*
X009996Y013046D01*
X009996Y013166D02*
X010416Y013166D01*
X010416Y013286D02*
X009996Y013286D01*
X009996Y013406D02*
X010416Y013406D01*
X010416Y013526D02*
X009996Y013526D01*
X009996Y013646D02*
X010416Y013646D01*
X010416Y013766D02*
X009996Y013766D01*
X009996Y013886D02*
X010416Y013886D01*
X010416Y014006D02*
X009996Y014006D01*
X009256Y014366D02*
X009156Y014366D01*
X009156Y014486D02*
X009256Y014486D01*
X009086Y014656D02*
X009086Y014756D01*
X009156Y014726D02*
X007816Y014726D01*
X007816Y014366D02*
X008910Y014366D01*
X008966Y014310D02*
X008966Y012103D01*
X009086Y012156D02*
X009086Y014256D01*
X008966Y014656D02*
X008966Y014756D01*
X009156Y014966D02*
X009256Y014966D01*
X009656Y014846D02*
X009676Y014846D01*
X009256Y012086D02*
X009156Y012086D01*
X009156Y011966D02*
X009256Y011966D01*
X009256Y011846D02*
X009156Y011846D01*
X010996Y011006D02*
X011416Y011006D01*
X011416Y010886D02*
X010996Y010886D01*
X010996Y010766D02*
X011416Y010766D01*
X011416Y010646D02*
X010996Y010646D01*
X010996Y010526D02*
X011416Y010526D01*
X011416Y010406D02*
X010996Y010406D01*
X010996Y010286D02*
X011416Y010286D01*
X011416Y010166D02*
X010996Y010166D01*
X010996Y010046D02*
X011416Y010046D01*
X011416Y009926D02*
X010996Y009926D01*
X010996Y009806D02*
X011416Y009806D01*
X011416Y009686D02*
X010996Y009686D01*
X010996Y009566D02*
X011416Y009566D01*
X011416Y009446D02*
X010996Y009446D01*
X010996Y009326D02*
X011416Y009326D01*
X011416Y009206D02*
X010996Y009206D01*
X010996Y009086D02*
X011416Y009086D01*
X011416Y008966D02*
X010996Y008966D01*
X010996Y008846D02*
X011416Y008846D01*
X011416Y008726D02*
X010996Y008726D01*
X010996Y008606D02*
X011416Y008606D01*
X011416Y008486D02*
X010996Y008486D01*
X010996Y008366D02*
X011416Y008366D01*
X011416Y008246D02*
X010996Y008246D01*
X010996Y008126D02*
X011416Y008126D01*
X011416Y008006D02*
X010996Y008006D01*
X010996Y007886D02*
X011416Y007886D01*
X011416Y007766D02*
X010996Y007766D01*
X010996Y007646D02*
X011416Y007646D01*
X011416Y007526D02*
X010996Y007526D01*
X010996Y007406D02*
X011416Y007406D01*
X011416Y007286D02*
X010996Y007286D01*
X010996Y007166D02*
X011416Y007166D01*
X011416Y007046D02*
X010996Y007046D01*
X010996Y006926D02*
X011416Y006926D01*
X011416Y006806D02*
X010996Y006806D01*
X010996Y006686D02*
X011416Y006686D01*
X011416Y006566D02*
X010996Y006566D01*
X010996Y006446D02*
X011416Y006446D01*
X011416Y006326D02*
X010996Y006326D01*
X010996Y006206D02*
X011416Y006206D01*
X011416Y006086D02*
X010996Y006086D01*
X010996Y005966D02*
X011416Y005966D01*
X011416Y005846D02*
X010996Y005846D01*
X010996Y005726D02*
X011416Y005726D01*
X012696Y011966D02*
X012717Y011966D01*
X016646Y015203D02*
X016646Y023210D01*
X016683Y023246D02*
X018967Y023246D01*
X018967Y023366D02*
X016736Y023366D01*
X016736Y023486D02*
X018967Y023486D01*
X018967Y023606D02*
X016736Y023606D01*
X016736Y023726D02*
X018967Y023726D01*
X018967Y023846D02*
X016736Y023846D01*
X016736Y023966D02*
X018967Y023966D01*
X018967Y024086D02*
X016736Y024086D01*
X016646Y024203D02*
X016646Y025593D01*
X016526Y025593D02*
X016526Y024236D01*
X016406Y024236D02*
X016406Y025593D01*
X016286Y025593D02*
X016286Y024236D01*
X016166Y024236D02*
X016166Y025593D01*
X016046Y025593D02*
X016046Y024236D01*
X015926Y024236D02*
X015926Y025593D01*
X015806Y025593D02*
X015806Y024236D01*
X015770Y024206D02*
X015456Y024206D01*
X015446Y024216D02*
X015446Y025593D01*
X015326Y025593D02*
X015326Y024236D01*
X015206Y024236D02*
X015206Y025593D01*
X015086Y025593D02*
X015086Y024236D01*
X014966Y024216D02*
X014966Y025593D01*
X014846Y025593D02*
X014846Y024096D01*
X014837Y024086D02*
X014576Y024086D01*
X014606Y024056D02*
X014606Y025593D01*
X014486Y025593D02*
X014486Y024176D01*
X014456Y024206D02*
X014957Y024206D01*
X014726Y023976D02*
X014726Y025593D01*
X014366Y025593D02*
X014366Y024236D01*
X014246Y024236D02*
X014246Y025593D01*
X014126Y025593D02*
X014126Y024236D01*
X014006Y024236D02*
X014006Y025593D01*
X013886Y025593D02*
X013886Y024136D01*
X013837Y024086D02*
X013576Y024086D01*
X013526Y024136D02*
X013526Y025593D01*
X013406Y025593D02*
X013406Y024236D01*
X013456Y024206D02*
X013957Y024206D01*
X013766Y024016D02*
X013766Y025593D01*
X013646Y025593D02*
X013646Y024016D01*
X013696Y023966D02*
X013717Y023966D01*
X013286Y024236D02*
X013286Y025593D01*
X013166Y025593D02*
X013166Y024236D01*
X013046Y024236D02*
X013046Y025593D01*
X012926Y025593D02*
X012926Y024176D01*
X012957Y024206D02*
X012456Y024206D01*
X012446Y024216D02*
X012446Y025593D01*
X012326Y025593D02*
X012326Y024236D01*
X012206Y024236D02*
X012206Y025593D01*
X012086Y025593D02*
X012086Y024236D01*
X011966Y024216D02*
X011966Y025593D01*
X011846Y025593D02*
X011846Y024096D01*
X011837Y024086D02*
X011576Y024086D01*
X011606Y024056D02*
X011606Y025593D01*
X011486Y025593D02*
X011486Y024176D01*
X011456Y024206D02*
X011957Y024206D01*
X011726Y023976D02*
X011726Y025593D01*
X011366Y025593D02*
X011366Y024236D01*
X011246Y024236D02*
X011246Y025593D01*
X011126Y025593D02*
X011126Y024236D01*
X011006Y024236D02*
X011006Y025593D01*
X010886Y025593D02*
X010886Y024136D01*
X010837Y024086D02*
X010576Y024086D01*
X010526Y024136D02*
X010526Y025593D01*
X010406Y025593D02*
X010406Y024236D01*
X010456Y024206D02*
X010957Y024206D01*
X010766Y024016D02*
X010766Y025593D01*
X010646Y025593D02*
X010646Y024016D01*
X010696Y023966D02*
X010717Y023966D01*
X010286Y024236D02*
X010286Y025593D01*
X010166Y025593D02*
X010166Y024236D01*
X009566Y023756D02*
X009566Y023656D01*
X009446Y023656D02*
X009446Y023756D01*
X011696Y023966D02*
X011717Y023966D01*
X012566Y024096D02*
X012566Y025593D01*
X012686Y025593D02*
X012686Y023976D01*
X012696Y023966D02*
X012717Y023966D01*
X012806Y024056D02*
X012806Y025593D01*
X012837Y024086D02*
X012576Y024086D01*
X014696Y023966D02*
X014717Y023966D01*
X015566Y024096D02*
X015566Y025593D01*
X015686Y025593D02*
X015686Y024123D01*
X015676Y024086D02*
X015576Y024086D01*
X016643Y024206D02*
X018967Y024206D01*
D15*
X010206Y023706D02*
X010206Y023606D01*
X009306Y022706D01*
X007506Y022706D01*
X007406Y022606D01*
X007406Y013206D01*
X007406Y004206D01*
X002706Y004206D01*
M02*
