G75*
G70*
%OFA0B0*%
%FSLAX24Y24*%
%IPPOS*%
%LPD*%
%AMOC8*
5,1,8,0,0,1.08239X$1,22.5*
%
%ADD10C,0.0000*%
%ADD11C,0.0060*%
%ADD12C,0.0050*%
%ADD13C,0.0110*%
%ADD14C,0.0080*%
%ADD15R,0.0020X0.0040*%
%ADD16R,0.0020X0.0180*%
%ADD17R,0.0020X0.0160*%
%ADD18R,0.0020X0.0080*%
%ADD19R,0.0020X0.0240*%
%ADD20R,0.0020X0.0220*%
%ADD21R,0.0020X0.0460*%
%ADD22R,0.0020X0.0280*%
%ADD23R,0.0020X0.0440*%
%ADD24R,0.0020X0.0260*%
%ADD25R,0.0020X0.0500*%
%ADD26R,0.0020X0.0360*%
%ADD27R,0.0020X0.0300*%
%ADD28R,0.0020X0.0320*%
%ADD29R,0.0020X0.0520*%
%ADD30R,0.0020X0.0420*%
%ADD31R,0.0020X0.0340*%
%ADD32R,0.0020X0.0540*%
%ADD33R,0.0020X0.0200*%
%ADD34R,0.0020X0.0140*%
%ADD35R,0.0020X0.0120*%
%ADD36R,0.0020X0.0060*%
%ADD37R,0.0020X0.0480*%
%ADD38R,0.0020X0.1600*%
%ADD39R,0.0020X0.0100*%
%ADD40R,0.0320X0.0010*%
%ADD41R,0.0340X0.0010*%
%ADD42R,0.0120X0.0010*%
%ADD43R,0.0420X0.0010*%
%ADD44R,0.0560X0.0010*%
%ADD45R,0.0680X0.0010*%
%ADD46R,0.0780X0.0010*%
%ADD47R,0.0880X0.0010*%
%ADD48R,0.0960X0.0010*%
%ADD49R,0.1020X0.0010*%
%ADD50R,0.1100X0.0010*%
%ADD51R,0.1160X0.0010*%
%ADD52R,0.1220X0.0010*%
%ADD53R,0.1290X0.0010*%
%ADD54R,0.1360X0.0010*%
%ADD55R,0.1410X0.0010*%
%ADD56R,0.1450X0.0010*%
%ADD57R,0.1500X0.0010*%
%ADD58R,0.1530X0.0010*%
%ADD59R,0.1570X0.0010*%
%ADD60R,0.1630X0.0010*%
%ADD61R,0.1670X0.0010*%
%ADD62R,0.1710X0.0010*%
%ADD63R,0.1750X0.0010*%
%ADD64R,0.1790X0.0010*%
%ADD65R,0.1820X0.0010*%
%ADD66R,0.1860X0.0010*%
%ADD67R,0.1890X0.0010*%
%ADD68R,0.1930X0.0010*%
%ADD69R,0.1950X0.0010*%
%ADD70R,0.1990X0.0010*%
%ADD71R,0.2030X0.0010*%
%ADD72R,0.2050X0.0010*%
%ADD73R,0.2090X0.0010*%
%ADD74R,0.2120X0.0010*%
%ADD75R,0.0910X0.0010*%
%ADD76R,0.0860X0.0010*%
%ADD77R,0.0790X0.0010*%
%ADD78R,0.0760X0.0010*%
%ADD79R,0.0770X0.0010*%
%ADD80R,0.0740X0.0010*%
%ADD81R,0.0710X0.0010*%
%ADD82R,0.0720X0.0010*%
%ADD83R,0.0690X0.0010*%
%ADD84R,0.0670X0.0010*%
%ADD85R,0.0650X0.0010*%
%ADD86R,0.0630X0.0010*%
%ADD87R,0.0610X0.0010*%
%ADD88R,0.0050X0.0010*%
%ADD89R,0.0620X0.0010*%
%ADD90R,0.0600X0.0010*%
%ADD91R,0.0090X0.0010*%
%ADD92R,0.0080X0.0010*%
%ADD93R,0.0110X0.0010*%
%ADD94R,0.0590X0.0010*%
%ADD95R,0.0580X0.0010*%
%ADD96R,0.0150X0.0010*%
%ADD97R,0.0140X0.0010*%
%ADD98R,0.0570X0.0010*%
%ADD99R,0.0180X0.0010*%
%ADD100R,0.0190X0.0010*%
%ADD101R,0.0200X0.0010*%
%ADD102R,0.0550X0.0010*%
%ADD103R,0.0210X0.0010*%
%ADD104R,0.0220X0.0010*%
%ADD105R,0.0540X0.0010*%
%ADD106R,0.0230X0.0010*%
%ADD107R,0.0240X0.0010*%
%ADD108R,0.0250X0.0010*%
%ADD109R,0.0260X0.0010*%
%ADD110R,0.0530X0.0010*%
%ADD111R,0.0280X0.0010*%
%ADD112R,0.0270X0.0010*%
%ADD113R,0.0520X0.0010*%
%ADD114R,0.0290X0.0010*%
%ADD115R,0.0310X0.0010*%
%ADD116R,0.0300X0.0010*%
%ADD117R,0.0510X0.0010*%
%ADD118R,0.0500X0.0010*%
%ADD119R,0.0330X0.0010*%
%ADD120R,0.0350X0.0010*%
%ADD121R,0.0490X0.0010*%
%ADD122R,0.0360X0.0010*%
%ADD123R,0.0370X0.0010*%
%ADD124R,0.0480X0.0010*%
%ADD125R,0.0470X0.0010*%
%ADD126R,0.0460X0.0010*%
%ADD127R,0.0450X0.0010*%
%ADD128R,0.0440X0.0010*%
%ADD129R,0.0430X0.0010*%
%ADD130R,0.0410X0.0010*%
%ADD131R,0.0750X0.0010*%
%ADD132R,0.0640X0.0010*%
%ADD133R,0.0730X0.0010*%
%ADD134R,0.0700X0.0010*%
%ADD135R,0.0400X0.0010*%
%ADD136R,0.0830X0.0010*%
%ADD137R,0.0870X0.0010*%
%ADD138R,0.0390X0.0010*%
%ADD139R,0.0660X0.0010*%
%ADD140R,0.0990X0.0010*%
%ADD141R,0.1010X0.0010*%
%ADD142R,0.1040X0.0010*%
%ADD143R,0.1070X0.0010*%
%ADD144R,0.1130X0.0010*%
%ADD145R,0.0380X0.0010*%
%ADD146R,0.1190X0.0010*%
%ADD147R,0.0170X0.0010*%
%ADD148R,0.1250X0.0010*%
%ADD149R,0.1270X0.0010*%
%ADD150R,0.0160X0.0010*%
%ADD151R,0.1310X0.0010*%
%ADD152R,0.1330X0.0010*%
%ADD153R,0.1350X0.0010*%
%ADD154R,0.1370X0.0010*%
%ADD155R,0.1390X0.0010*%
%ADD156R,0.1430X0.0010*%
%ADD157R,0.1470X0.0010*%
%ADD158R,0.1480X0.0010*%
%ADD159R,0.1510X0.0010*%
%ADD160R,0.0030X0.0010*%
%ADD161R,0.1540X0.0010*%
%ADD162R,0.1550X0.0010*%
%ADD163R,0.1590X0.0010*%
%ADD164R,0.1600X0.0010*%
%ADD165R,0.1610X0.0010*%
%ADD166R,0.1640X0.0010*%
%ADD167R,0.1660X0.0010*%
%ADD168R,0.1680X0.0010*%
%ADD169R,0.1690X0.0010*%
%ADD170R,0.1700X0.0010*%
%ADD171R,0.1720X0.0010*%
%ADD172R,0.1230X0.0010*%
%ADD173R,0.0020X0.0010*%
%ADD174R,0.0130X0.0010*%
%ADD175R,0.0100X0.0010*%
%ADD176R,0.0040X0.0010*%
%ADD177R,0.0010X0.0010*%
%ADD178R,0.0070X0.0010*%
%ADD179R,0.0060X0.0010*%
%ADD180R,0.1340X0.0010*%
%ADD181R,0.1920X0.0010*%
%ADD182R,0.1910X0.0010*%
%ADD183R,0.1900X0.0010*%
%ADD184R,0.1880X0.0010*%
%ADD185R,0.1050X0.0010*%
%ADD186R,0.1210X0.0010*%
%ADD187R,0.1580X0.0010*%
%ADD188R,0.1730X0.0010*%
%ADD189R,0.1810X0.0010*%
%ADD190R,0.1870X0.0010*%
%ADD191R,0.1960X0.0010*%
%ADD192R,0.2130X0.0010*%
%ADD193R,0.2170X0.0010*%
%ADD194R,0.2190X0.0010*%
%ADD195R,0.2210X0.0010*%
%ADD196R,0.1080X0.0010*%
%ADD197R,0.1000X0.0010*%
%ADD198R,0.0940X0.0010*%
%ADD199R,0.0800X0.0010*%
%ADD200R,0.0810X0.0010*%
%ADD201R,0.1170X0.0010*%
%ADD202R,0.1280X0.0010*%
%ADD203R,0.1560X0.0010*%
%ADD204R,0.1520X0.0010*%
%ADD205R,0.1460X0.0010*%
%ADD206R,0.1440X0.0010*%
%ADD207R,0.0820X0.0010*%
%ADD208R,0.0930X0.0010*%
%ADD209R,0.2110X0.0010*%
%ADD210R,0.2080X0.0010*%
%ADD211R,0.2020X0.0010*%
%ADD212R,0.1850X0.0010*%
%ADD213R,0.1780X0.0010*%
%ADD214R,0.1740X0.0010*%
%ADD215R,0.1650X0.0010*%
%ADD216R,0.1490X0.0010*%
%ADD217R,0.1380X0.0010*%
D10*
X000206Y000206D02*
X000206Y025803D01*
X019177Y025803D01*
X019177Y000206D01*
X000206Y000206D01*
D11*
X000856Y001206D02*
X000606Y001456D01*
X000606Y001956D01*
X000856Y002206D01*
X000606Y002456D01*
X000606Y002956D01*
X000856Y003206D01*
X000606Y003456D01*
X000606Y003956D01*
X000856Y004206D01*
X000606Y004456D01*
X000606Y004956D01*
X000856Y005206D01*
X000606Y005456D01*
X000606Y005956D01*
X000856Y006206D01*
X000606Y006456D01*
X000606Y006956D01*
X000856Y007206D01*
X000606Y007456D01*
X000606Y007956D01*
X000856Y008206D01*
X000606Y008456D01*
X000606Y008956D01*
X000856Y009206D01*
X000606Y009456D01*
X000606Y009956D01*
X000856Y010206D01*
X000606Y010456D01*
X000606Y010956D01*
X000856Y011206D01*
X000606Y011456D01*
X000606Y011956D01*
X000856Y012206D01*
X000606Y012456D01*
X000606Y012956D01*
X000856Y013206D01*
X000606Y013456D01*
X000606Y013956D01*
X000856Y014206D01*
X000606Y014456D01*
X000606Y014956D01*
X000856Y015206D01*
X000606Y015456D01*
X000606Y015956D01*
X000856Y016206D01*
X000606Y016456D01*
X000606Y016956D01*
X000856Y017206D01*
X000606Y017456D01*
X000606Y017956D01*
X000856Y018206D01*
X000606Y018456D01*
X000606Y018956D01*
X000856Y019206D01*
X000606Y019456D01*
X000606Y019956D01*
X000856Y020206D01*
X000606Y020206D02*
X000606Y020906D01*
X000606Y021006D01*
X000806Y021206D01*
X000706Y021206D01*
X000606Y021106D01*
X000606Y021006D01*
X000606Y020906D02*
X000906Y021206D01*
X000806Y021206D01*
X000706Y021206D02*
X000606Y021206D01*
X000606Y021106D01*
X000906Y021206D02*
X001606Y021206D01*
X001606Y020206D01*
X000606Y020206D01*
X001336Y021323D02*
X001336Y021663D01*
X001507Y021663D01*
X001563Y021607D01*
X001563Y021493D01*
X001507Y021436D01*
X001336Y021436D01*
X001606Y021206D02*
X002356Y021206D01*
X002606Y020956D01*
X002606Y020456D01*
X002356Y020206D01*
X002606Y019956D01*
X002606Y019456D01*
X002356Y019206D01*
X002606Y018956D01*
X002606Y018456D01*
X002356Y018206D01*
X002606Y017956D01*
X002606Y017456D01*
X002356Y017206D01*
X002606Y016956D01*
X002606Y016456D01*
X002356Y016206D01*
X002606Y015956D01*
X002606Y015456D01*
X002356Y015206D01*
X002606Y014956D01*
X002606Y014456D01*
X002356Y014206D01*
X002606Y013956D01*
X002606Y013456D01*
X002356Y013206D01*
X002606Y012956D01*
X002606Y012456D01*
X002356Y012206D01*
X002606Y011956D01*
X002606Y011456D01*
X002356Y011206D01*
X002606Y010956D01*
X002606Y010456D01*
X002356Y010206D01*
X002606Y009956D01*
X002606Y009456D01*
X002356Y009206D01*
X002606Y008956D01*
X002606Y008456D01*
X002356Y008206D01*
X002606Y007956D01*
X002606Y007456D01*
X002356Y007206D01*
X002606Y006956D01*
X002606Y006456D01*
X002356Y006206D01*
X002606Y005956D01*
X002606Y005456D01*
X002356Y005206D01*
X002606Y004956D01*
X002606Y004456D01*
X002356Y004206D01*
X002606Y003956D01*
X002606Y003456D01*
X002356Y003206D01*
X002606Y002956D01*
X002606Y002456D01*
X002356Y002206D01*
X002606Y001956D01*
X002606Y001456D01*
X002356Y001206D01*
X000856Y001206D01*
X004090Y021323D02*
X004146Y021323D01*
X004203Y021380D01*
X004203Y021663D01*
X004033Y021663D01*
X003976Y021607D01*
X003976Y021493D01*
X004033Y021436D01*
X004203Y021436D01*
X004344Y021493D02*
X004344Y021607D01*
X004401Y021663D01*
X004515Y021663D01*
X004571Y021607D01*
X004571Y021550D01*
X004344Y021550D01*
X004344Y021493D02*
X004401Y021436D01*
X004515Y021436D01*
X004713Y021436D02*
X004713Y021663D01*
X004883Y021663D01*
X004940Y021607D01*
X004940Y021436D01*
X005138Y021493D02*
X005138Y021720D01*
X005194Y021663D02*
X005081Y021663D01*
X005138Y021493D02*
X005194Y021436D01*
X005327Y021436D02*
X005497Y021436D01*
X005553Y021493D01*
X005497Y021550D01*
X005383Y021550D01*
X005327Y021607D01*
X005383Y021663D01*
X005553Y021663D01*
X005695Y021493D02*
X005752Y021493D01*
X005752Y021436D01*
X005695Y021436D01*
X005695Y021493D01*
X005879Y021493D02*
X005879Y021607D01*
X005936Y021663D01*
X006106Y021663D01*
X006247Y021607D02*
X006247Y021493D01*
X006304Y021436D01*
X006417Y021436D01*
X006474Y021493D01*
X006474Y021607D01*
X006417Y021663D01*
X006304Y021663D01*
X006247Y021607D01*
X006106Y021436D02*
X005936Y021436D01*
X005879Y021493D01*
X006616Y021436D02*
X006616Y021663D01*
X006672Y021663D01*
X006729Y021607D01*
X006786Y021663D01*
X006843Y021607D01*
X006843Y021436D01*
X006729Y021436D02*
X006729Y021607D01*
X003835Y021607D02*
X003835Y021436D01*
X003664Y021436D01*
X003608Y021493D01*
X003664Y021550D01*
X003835Y021550D01*
X003835Y021607D02*
X003778Y021663D01*
X003664Y021663D01*
X003466Y021607D02*
X003466Y021436D01*
X003466Y021607D02*
X003410Y021663D01*
X003239Y021663D01*
X003239Y021436D01*
X003103Y021663D02*
X003046Y021663D01*
X002933Y021550D01*
X002933Y021663D02*
X002933Y021436D01*
X002791Y021550D02*
X002791Y021607D01*
X002734Y021663D01*
X002621Y021663D01*
X002564Y021607D01*
X002564Y021493D01*
X002621Y021436D01*
X002734Y021436D01*
X002791Y021550D02*
X002564Y021550D01*
X002432Y021663D02*
X002319Y021663D01*
X002375Y021720D02*
X002375Y021493D01*
X002432Y021436D01*
X002187Y021436D02*
X002130Y021493D01*
X002130Y021720D01*
X002073Y021663D02*
X002187Y021663D01*
X001932Y021607D02*
X001932Y021436D01*
X001762Y021436D01*
X001705Y021493D01*
X001762Y021550D01*
X001932Y021550D01*
X001932Y021607D02*
X001875Y021663D01*
X001762Y021663D01*
D12*
X000812Y021331D02*
X000631Y021331D01*
X000722Y021331D02*
X000722Y021602D01*
X000631Y021512D01*
X002769Y020882D02*
X002769Y020611D01*
X002769Y020702D02*
X002904Y020702D01*
X002949Y020747D01*
X002949Y020837D01*
X002904Y020882D01*
X002769Y020882D01*
X003064Y020837D02*
X003064Y020657D01*
X003109Y020611D01*
X003199Y020611D01*
X003244Y020657D01*
X003358Y020657D02*
X003358Y020611D01*
X003358Y020657D02*
X003538Y020837D01*
X003538Y020882D01*
X003358Y020882D01*
X003244Y020837D02*
X003199Y020882D01*
X003109Y020882D01*
X003064Y020837D01*
X003653Y020611D02*
X003833Y020882D01*
X003948Y020882D02*
X003948Y020611D01*
X003948Y020702D02*
X004083Y020702D01*
X004128Y020747D01*
X004128Y020837D01*
X004083Y020882D01*
X003948Y020882D01*
X004242Y020837D02*
X004242Y020657D01*
X004287Y020611D01*
X004377Y020611D01*
X004422Y020657D01*
X004537Y020657D02*
X004582Y020611D01*
X004672Y020611D01*
X004717Y020657D01*
X004717Y020702D01*
X004672Y020747D01*
X004537Y020747D01*
X004537Y020657D01*
X004537Y020747D02*
X004627Y020837D01*
X004717Y020882D01*
X004422Y020837D02*
X004377Y020882D01*
X004287Y020882D01*
X004242Y020837D01*
X004287Y019882D02*
X004242Y019837D01*
X004242Y019657D01*
X004287Y019611D01*
X004377Y019611D01*
X004422Y019657D01*
X004537Y019747D02*
X004717Y019747D01*
X004672Y019882D02*
X004672Y019611D01*
X004537Y019747D02*
X004672Y019882D01*
X004422Y019837D02*
X004377Y019882D01*
X004287Y019882D01*
X004128Y019837D02*
X004128Y019747D01*
X004083Y019702D01*
X003948Y019702D01*
X003948Y019611D02*
X003948Y019882D01*
X004083Y019882D01*
X004128Y019837D01*
X003833Y019882D02*
X003653Y019611D01*
X003538Y019657D02*
X003493Y019611D01*
X003403Y019611D01*
X003358Y019657D01*
X003358Y019747D02*
X003448Y019792D01*
X003493Y019792D01*
X003538Y019747D01*
X003538Y019657D01*
X003358Y019747D02*
X003358Y019882D01*
X003538Y019882D01*
X003244Y019837D02*
X003199Y019882D01*
X003109Y019882D01*
X003064Y019837D01*
X003064Y019657D01*
X003109Y019611D01*
X003199Y019611D01*
X003244Y019657D01*
X002949Y019747D02*
X002949Y019837D01*
X002904Y019882D01*
X002769Y019882D01*
X002769Y019611D01*
X002769Y019702D02*
X002904Y019702D01*
X002949Y019747D01*
X002904Y018782D02*
X002949Y018737D01*
X002949Y018647D01*
X002904Y018602D01*
X002769Y018602D01*
X002769Y018511D02*
X002769Y018782D01*
X002904Y018782D01*
X003064Y018737D02*
X003064Y018557D01*
X003109Y018511D01*
X003199Y018511D01*
X003244Y018557D01*
X003358Y018557D02*
X003403Y018511D01*
X003493Y018511D01*
X003538Y018557D01*
X003538Y018602D01*
X003493Y018647D01*
X003448Y018647D01*
X003493Y018647D02*
X003538Y018692D01*
X003538Y018737D01*
X003493Y018782D01*
X003403Y018782D01*
X003358Y018737D01*
X003244Y018737D02*
X003199Y018782D01*
X003109Y018782D01*
X003064Y018737D01*
X003653Y018511D02*
X003833Y018782D01*
X003948Y018782D02*
X003948Y018511D01*
X003948Y018602D02*
X004083Y018602D01*
X004128Y018647D01*
X004128Y018737D01*
X004083Y018782D01*
X003948Y018782D01*
X004242Y018737D02*
X004242Y018557D01*
X004287Y018511D01*
X004377Y018511D01*
X004422Y018557D01*
X004537Y018511D02*
X004717Y018692D01*
X004717Y018737D01*
X004672Y018782D01*
X004582Y018782D01*
X004537Y018737D01*
X004422Y018737D02*
X004377Y018782D01*
X004287Y018782D01*
X004242Y018737D01*
X004537Y018511D02*
X004717Y018511D01*
X004672Y017882D02*
X004582Y017882D01*
X004537Y017837D01*
X004537Y017657D01*
X004717Y017837D01*
X004717Y017657D01*
X004672Y017611D01*
X004582Y017611D01*
X004537Y017657D01*
X004422Y017657D02*
X004377Y017611D01*
X004287Y017611D01*
X004242Y017657D01*
X004242Y017837D01*
X004287Y017882D01*
X004377Y017882D01*
X004422Y017837D01*
X004128Y017837D02*
X004128Y017747D01*
X004083Y017702D01*
X003948Y017702D01*
X003948Y017611D02*
X003948Y017882D01*
X004083Y017882D01*
X004128Y017837D01*
X003833Y017882D02*
X003653Y017611D01*
X003538Y017611D02*
X003358Y017611D01*
X003448Y017611D02*
X003448Y017882D01*
X003358Y017792D01*
X003244Y017837D02*
X003199Y017882D01*
X003109Y017882D01*
X003064Y017837D01*
X003064Y017657D01*
X003109Y017611D01*
X003199Y017611D01*
X003244Y017657D01*
X002949Y017747D02*
X002904Y017702D01*
X002769Y017702D01*
X002769Y017611D02*
X002769Y017882D01*
X002904Y017882D01*
X002949Y017837D01*
X002949Y017747D01*
X002983Y016882D02*
X002893Y016882D01*
X002848Y016837D01*
X002848Y016657D01*
X002893Y016611D01*
X002983Y016611D01*
X003028Y016657D01*
X003028Y016747D01*
X002938Y016747D01*
X003028Y016837D02*
X002983Y016882D01*
X003142Y016882D02*
X003142Y016611D01*
X003322Y016611D02*
X003142Y016882D01*
X003322Y016882D02*
X003322Y016611D01*
X003437Y016611D02*
X003572Y016611D01*
X003617Y016657D01*
X003617Y016837D01*
X003572Y016882D01*
X003437Y016882D01*
X003437Y016611D01*
X003421Y015802D02*
X003601Y015802D01*
X003601Y015757D01*
X003421Y015577D01*
X003421Y015531D01*
X003306Y015577D02*
X003261Y015531D01*
X003126Y015531D01*
X003126Y015802D01*
X003261Y015802D01*
X003306Y015757D01*
X003306Y015712D01*
X003261Y015667D01*
X003126Y015667D01*
X003012Y015667D02*
X002967Y015622D01*
X002831Y015622D01*
X002831Y015531D02*
X002831Y015802D01*
X002967Y015802D01*
X003012Y015757D01*
X003012Y015667D01*
X003261Y015667D02*
X003306Y015622D01*
X003306Y015577D01*
X003715Y015531D02*
X003896Y015802D01*
X004010Y015802D02*
X004145Y015802D01*
X004190Y015757D01*
X004190Y015667D01*
X004145Y015622D01*
X004010Y015622D01*
X004010Y015531D02*
X004010Y015802D01*
X004305Y015802D02*
X004305Y015531D01*
X004440Y015531D01*
X004485Y015577D01*
X004485Y015622D01*
X004440Y015667D01*
X004305Y015667D01*
X004305Y015802D02*
X004440Y015802D01*
X004485Y015757D01*
X004485Y015712D01*
X004440Y015667D01*
X004599Y015667D02*
X004599Y015577D01*
X004644Y015531D01*
X004735Y015531D01*
X004780Y015577D01*
X004780Y015622D01*
X004735Y015667D01*
X004599Y015667D01*
X004689Y015757D01*
X004780Y015802D01*
X004735Y014802D02*
X004599Y014667D01*
X004780Y014667D01*
X004735Y014802D02*
X004735Y014531D01*
X004485Y014577D02*
X004440Y014531D01*
X004305Y014531D01*
X004305Y014802D01*
X004440Y014802D01*
X004485Y014757D01*
X004485Y014712D01*
X004440Y014667D01*
X004305Y014667D01*
X004190Y014667D02*
X004145Y014622D01*
X004010Y014622D01*
X004010Y014531D02*
X004010Y014802D01*
X004145Y014802D01*
X004190Y014757D01*
X004190Y014667D01*
X004440Y014667D02*
X004485Y014622D01*
X004485Y014577D01*
X003896Y014802D02*
X003715Y014531D01*
X003601Y014577D02*
X003556Y014531D01*
X003466Y014531D01*
X003421Y014577D01*
X003421Y014667D02*
X003511Y014712D01*
X003556Y014712D01*
X003601Y014667D01*
X003601Y014577D01*
X003421Y014667D02*
X003421Y014802D01*
X003601Y014802D01*
X003306Y014757D02*
X003306Y014712D01*
X003261Y014667D01*
X003126Y014667D01*
X003012Y014667D02*
X002967Y014622D01*
X002831Y014622D01*
X002831Y014531D02*
X002831Y014802D01*
X002967Y014802D01*
X003012Y014757D01*
X003012Y014667D01*
X003126Y014802D02*
X003126Y014531D01*
X003261Y014531D01*
X003306Y014577D01*
X003306Y014622D01*
X003261Y014667D01*
X003306Y014757D02*
X003261Y014802D01*
X003126Y014802D01*
X003126Y013802D02*
X003261Y013802D01*
X003306Y013757D01*
X003306Y013712D01*
X003261Y013667D01*
X003126Y013667D01*
X003012Y013667D02*
X002967Y013622D01*
X002831Y013622D01*
X002831Y013531D02*
X002831Y013802D01*
X002967Y013802D01*
X003012Y013757D01*
X003012Y013667D01*
X003126Y013802D02*
X003126Y013531D01*
X003261Y013531D01*
X003306Y013577D01*
X003306Y013622D01*
X003261Y013667D01*
X003421Y013757D02*
X003466Y013802D01*
X003556Y013802D01*
X003601Y013757D01*
X003601Y013712D01*
X003556Y013667D01*
X003601Y013622D01*
X003601Y013577D01*
X003556Y013531D01*
X003466Y013531D01*
X003421Y013577D01*
X003511Y013667D02*
X003556Y013667D01*
X003715Y013531D02*
X003896Y013802D01*
X004010Y013802D02*
X004145Y013802D01*
X004190Y013757D01*
X004190Y013667D01*
X004145Y013622D01*
X004010Y013622D01*
X004010Y013531D02*
X004010Y013802D01*
X004305Y013802D02*
X004305Y013531D01*
X004440Y013531D01*
X004485Y013577D01*
X004485Y013622D01*
X004440Y013667D01*
X004305Y013667D01*
X004305Y013802D02*
X004440Y013802D01*
X004485Y013757D01*
X004485Y013712D01*
X004440Y013667D01*
X004599Y013757D02*
X004644Y013802D01*
X004735Y013802D01*
X004780Y013757D01*
X004780Y013712D01*
X004599Y013531D01*
X004780Y013531D01*
X004735Y012902D02*
X004644Y012902D01*
X004599Y012857D01*
X004599Y012677D01*
X004780Y012857D01*
X004780Y012677D01*
X004735Y012631D01*
X004644Y012631D01*
X004599Y012677D01*
X004485Y012677D02*
X004440Y012631D01*
X004305Y012631D01*
X004305Y012902D01*
X004440Y012902D01*
X004485Y012857D01*
X004485Y012812D01*
X004440Y012767D01*
X004305Y012767D01*
X004190Y012767D02*
X004145Y012722D01*
X004010Y012722D01*
X004010Y012631D02*
X004010Y012902D01*
X004145Y012902D01*
X004190Y012857D01*
X004190Y012767D01*
X004440Y012767D02*
X004485Y012722D01*
X004485Y012677D01*
X004735Y012902D02*
X004780Y012857D01*
X003896Y012902D02*
X003715Y012631D01*
X003601Y012631D02*
X003421Y012631D01*
X003511Y012631D02*
X003511Y012902D01*
X003421Y012812D01*
X003306Y012812D02*
X003261Y012767D01*
X003126Y012767D01*
X003012Y012767D02*
X002967Y012722D01*
X002831Y012722D01*
X002831Y012631D02*
X002831Y012902D01*
X002967Y012902D01*
X003012Y012857D01*
X003012Y012767D01*
X003126Y012902D02*
X003126Y012631D01*
X003261Y012631D01*
X003306Y012677D01*
X003306Y012722D01*
X003261Y012767D01*
X003306Y012812D02*
X003306Y012857D01*
X003261Y012902D01*
X003126Y012902D01*
X003142Y011882D02*
X003322Y011611D01*
X003322Y011882D01*
X003437Y011882D02*
X003572Y011882D01*
X003617Y011837D01*
X003617Y011657D01*
X003572Y011611D01*
X003437Y011611D01*
X003437Y011882D01*
X003142Y011882D02*
X003142Y011611D01*
X003028Y011657D02*
X003028Y011747D01*
X002938Y011747D01*
X003028Y011837D02*
X002983Y011882D01*
X002893Y011882D01*
X002848Y011837D01*
X002848Y011657D01*
X002893Y011611D01*
X002983Y011611D01*
X003028Y011657D01*
X002967Y010802D02*
X002831Y010802D01*
X002831Y010531D01*
X002831Y010622D02*
X002967Y010622D01*
X003012Y010667D01*
X003012Y010757D01*
X002967Y010802D01*
X003126Y010712D02*
X003126Y010531D01*
X003126Y010667D02*
X003306Y010667D01*
X003306Y010712D02*
X003306Y010531D01*
X003421Y010531D02*
X003421Y010577D01*
X003601Y010757D01*
X003601Y010802D01*
X003421Y010802D01*
X003306Y010712D02*
X003216Y010802D01*
X003126Y010712D01*
X003715Y010531D02*
X003896Y010802D01*
X004010Y010802D02*
X004145Y010802D01*
X004190Y010757D01*
X004190Y010667D01*
X004145Y010622D01*
X004010Y010622D01*
X004010Y010531D02*
X004010Y010802D01*
X004305Y010712D02*
X004305Y010531D01*
X004305Y010667D02*
X004485Y010667D01*
X004485Y010712D02*
X004485Y010531D01*
X004599Y010577D02*
X004644Y010531D01*
X004735Y010531D01*
X004780Y010577D01*
X004780Y010622D01*
X004735Y010667D01*
X004599Y010667D01*
X004599Y010577D01*
X004599Y010667D02*
X004689Y010757D01*
X004780Y010802D01*
X004485Y010712D02*
X004395Y010802D01*
X004305Y010712D01*
X004395Y009802D02*
X004485Y009712D01*
X004485Y009531D01*
X004485Y009667D02*
X004305Y009667D01*
X004305Y009712D02*
X004395Y009802D01*
X004305Y009712D02*
X004305Y009531D01*
X004190Y009667D02*
X004145Y009622D01*
X004010Y009622D01*
X004010Y009531D02*
X004010Y009802D01*
X004145Y009802D01*
X004190Y009757D01*
X004190Y009667D01*
X003896Y009802D02*
X003715Y009531D01*
X003601Y009577D02*
X003601Y009667D01*
X003556Y009712D01*
X003511Y009712D01*
X003421Y009667D01*
X003421Y009802D01*
X003601Y009802D01*
X003601Y009577D02*
X003556Y009531D01*
X003466Y009531D01*
X003421Y009577D01*
X003306Y009531D02*
X003306Y009712D01*
X003216Y009802D01*
X003126Y009712D01*
X003126Y009531D01*
X003126Y009667D02*
X003306Y009667D01*
X003012Y009667D02*
X002967Y009622D01*
X002831Y009622D01*
X002831Y009531D02*
X002831Y009802D01*
X002967Y009802D01*
X003012Y009757D01*
X003012Y009667D01*
X002967Y008802D02*
X002831Y008802D01*
X002831Y008531D01*
X002831Y008622D02*
X002967Y008622D01*
X003012Y008667D01*
X003012Y008757D01*
X002967Y008802D01*
X003126Y008712D02*
X003126Y008531D01*
X003126Y008667D02*
X003306Y008667D01*
X003306Y008712D02*
X003306Y008531D01*
X003421Y008577D02*
X003466Y008531D01*
X003556Y008531D01*
X003601Y008577D01*
X003601Y008622D01*
X003556Y008667D01*
X003511Y008667D01*
X003556Y008667D02*
X003601Y008712D01*
X003601Y008757D01*
X003556Y008802D01*
X003466Y008802D01*
X003421Y008757D01*
X003306Y008712D02*
X003216Y008802D01*
X003126Y008712D01*
X003715Y008531D02*
X003896Y008802D01*
X004010Y008802D02*
X004145Y008802D01*
X004190Y008757D01*
X004190Y008667D01*
X004145Y008622D01*
X004010Y008622D01*
X004010Y008531D02*
X004010Y008802D01*
X004305Y008712D02*
X004305Y008531D01*
X004305Y008667D02*
X004485Y008667D01*
X004485Y008712D02*
X004485Y008531D01*
X004599Y008531D02*
X004780Y008712D01*
X004780Y008757D01*
X004735Y008802D01*
X004644Y008802D01*
X004599Y008757D01*
X004485Y008712D02*
X004395Y008802D01*
X004305Y008712D01*
X004599Y008531D02*
X004780Y008531D01*
X004735Y007902D02*
X004644Y007902D01*
X004599Y007857D01*
X004599Y007677D01*
X004780Y007857D01*
X004780Y007677D01*
X004735Y007631D01*
X004644Y007631D01*
X004599Y007677D01*
X004485Y007631D02*
X004485Y007812D01*
X004395Y007902D01*
X004305Y007812D01*
X004305Y007631D01*
X004305Y007767D02*
X004485Y007767D01*
X004735Y007902D02*
X004780Y007857D01*
X004190Y007857D02*
X004190Y007767D01*
X004145Y007722D01*
X004010Y007722D01*
X004010Y007631D02*
X004010Y007902D01*
X004145Y007902D01*
X004190Y007857D01*
X003896Y007902D02*
X003715Y007631D01*
X003601Y007631D02*
X003421Y007631D01*
X003511Y007631D02*
X003511Y007902D01*
X003421Y007812D01*
X003306Y007812D02*
X003306Y007631D01*
X003306Y007767D02*
X003126Y007767D01*
X003126Y007812D02*
X003126Y007631D01*
X003012Y007767D02*
X003012Y007857D01*
X002967Y007902D01*
X002831Y007902D01*
X002831Y007631D01*
X002831Y007722D02*
X002967Y007722D01*
X003012Y007767D01*
X003126Y007812D02*
X003216Y007902D01*
X003306Y007812D01*
X003322Y006882D02*
X003322Y006611D01*
X003142Y006882D01*
X003142Y006611D01*
X003028Y006657D02*
X003028Y006747D01*
X002938Y006747D01*
X003028Y006837D02*
X002983Y006882D01*
X002893Y006882D01*
X002848Y006837D01*
X002848Y006657D01*
X002893Y006611D01*
X002983Y006611D01*
X003028Y006657D01*
X003437Y006611D02*
X003572Y006611D01*
X003617Y006657D01*
X003617Y006837D01*
X003572Y006882D01*
X003437Y006882D01*
X003437Y006611D01*
X003493Y005882D02*
X003358Y005882D01*
X003358Y005611D01*
X003493Y005611D01*
X003538Y005657D01*
X003538Y005837D01*
X003493Y005882D01*
X003244Y005882D02*
X003064Y005611D01*
X002949Y005611D02*
X002859Y005702D01*
X002904Y005702D02*
X002769Y005702D01*
X002769Y005611D02*
X002769Y005882D01*
X002904Y005882D01*
X002949Y005837D01*
X002949Y005747D01*
X002904Y005702D01*
X003064Y005882D02*
X003244Y005611D01*
X003653Y005611D02*
X003833Y005882D01*
X003948Y005882D02*
X004128Y005882D01*
X004038Y005882D02*
X004038Y005611D01*
X004242Y005611D02*
X004422Y005882D01*
X004537Y005882D02*
X004537Y005611D01*
X004672Y005611D01*
X004717Y005657D01*
X004717Y005837D01*
X004672Y005882D01*
X004537Y005882D01*
X004422Y005611D02*
X004242Y005882D01*
X004287Y004882D02*
X004242Y004837D01*
X004242Y004657D01*
X004287Y004611D01*
X004377Y004611D01*
X004422Y004657D01*
X004537Y004611D02*
X004537Y004882D01*
X004422Y004837D02*
X004377Y004882D01*
X004287Y004882D01*
X004128Y004837D02*
X004083Y004882D01*
X003993Y004882D01*
X003948Y004837D01*
X003948Y004792D01*
X003993Y004747D01*
X004083Y004747D01*
X004128Y004702D01*
X004128Y004657D01*
X004083Y004611D01*
X003993Y004611D01*
X003948Y004657D01*
X003833Y004882D02*
X003653Y004611D01*
X003538Y004611D02*
X003538Y004792D01*
X003448Y004882D01*
X003358Y004792D01*
X003358Y004611D01*
X003244Y004657D02*
X003244Y004837D01*
X003199Y004882D01*
X003064Y004882D01*
X003064Y004611D01*
X003199Y004611D01*
X003244Y004657D01*
X003358Y004747D02*
X003538Y004747D01*
X002949Y004702D02*
X002949Y004657D01*
X002904Y004611D01*
X002814Y004611D01*
X002769Y004657D01*
X002814Y004747D02*
X002904Y004747D01*
X002949Y004702D01*
X002949Y004837D02*
X002904Y004882D01*
X002814Y004882D01*
X002769Y004837D01*
X002769Y004792D01*
X002814Y004747D01*
X002893Y003882D02*
X002983Y003882D01*
X003028Y003837D01*
X003028Y003792D01*
X002983Y003747D01*
X003028Y003702D01*
X003028Y003657D01*
X002983Y003611D01*
X002893Y003611D01*
X002848Y003657D01*
X002938Y003747D02*
X002983Y003747D01*
X002848Y003837D02*
X002893Y003882D01*
X003142Y003882D02*
X003142Y003702D01*
X003232Y003611D01*
X003322Y003702D01*
X003322Y003882D01*
X003437Y003837D02*
X003482Y003882D01*
X003572Y003882D01*
X003617Y003837D01*
X003617Y003792D01*
X003572Y003747D01*
X003617Y003702D01*
X003617Y003657D01*
X003572Y003611D01*
X003482Y003611D01*
X003437Y003657D01*
X003527Y003747D02*
X003572Y003747D01*
X003572Y002882D02*
X003482Y002882D01*
X003437Y002837D01*
X003437Y002657D01*
X003617Y002837D01*
X003617Y002657D01*
X003572Y002611D01*
X003482Y002611D01*
X003437Y002657D01*
X003322Y002702D02*
X003322Y002882D01*
X003142Y002882D02*
X003142Y002702D01*
X003232Y002611D01*
X003322Y002702D01*
X003572Y002882D02*
X003617Y002837D01*
X003028Y002882D02*
X002848Y002882D01*
X002848Y002747D01*
X002938Y002792D01*
X002983Y002792D01*
X003028Y002747D01*
X003028Y002657D01*
X002983Y002611D01*
X002893Y002611D01*
X002848Y002657D01*
X002893Y001782D02*
X002848Y001737D01*
X002848Y001557D01*
X002893Y001511D01*
X002983Y001511D01*
X003028Y001557D01*
X003028Y001647D01*
X002938Y001647D01*
X003028Y001737D02*
X002983Y001782D01*
X002893Y001782D01*
X003142Y001782D02*
X003142Y001511D01*
X003322Y001511D02*
X003142Y001782D01*
X003322Y001782D02*
X003322Y001511D01*
X003437Y001511D02*
X003572Y001511D01*
X003617Y001557D01*
X003617Y001737D01*
X003572Y001782D01*
X003437Y001782D01*
X003437Y001511D01*
X001806Y000781D02*
X001626Y000781D01*
X001716Y000781D02*
X001716Y001052D01*
X001626Y000962D01*
X001512Y001052D02*
X001422Y001052D01*
X001467Y001052D02*
X001467Y000827D01*
X001422Y000781D01*
X001377Y000781D01*
X001331Y000827D01*
X004537Y004611D02*
X004717Y004611D01*
X004735Y009531D02*
X004735Y009802D01*
X004599Y009667D01*
X004780Y009667D01*
X004717Y017837D02*
X004672Y017882D01*
X011031Y017896D02*
X011212Y017896D01*
X011302Y017806D01*
X011212Y017716D01*
X011031Y017716D01*
X011031Y017601D02*
X011122Y017511D01*
X011212Y017511D01*
X011302Y017601D01*
X011167Y017716D02*
X011167Y017896D01*
X011257Y018010D02*
X011302Y018055D01*
X011302Y018190D01*
X011031Y018190D01*
X011031Y018055D01*
X011077Y018010D01*
X011257Y018010D01*
X011257Y018305D02*
X011302Y018350D01*
X011302Y018440D01*
X011257Y018485D01*
X011212Y018485D01*
X011167Y018440D01*
X011167Y018350D01*
X011122Y018305D01*
X011077Y018305D01*
X011031Y018350D01*
X011031Y018440D01*
X011077Y018485D01*
X011031Y018591D02*
X011122Y018681D01*
X011212Y018681D01*
X011302Y018591D01*
X012031Y018591D02*
X012122Y018681D01*
X012212Y018681D01*
X012302Y018591D01*
X012257Y018485D02*
X012212Y018485D01*
X012167Y018440D01*
X012167Y018350D01*
X012122Y018305D01*
X012077Y018305D01*
X012031Y018350D01*
X012031Y018440D01*
X012077Y018485D01*
X012257Y018485D02*
X012302Y018440D01*
X012302Y018350D01*
X012257Y018305D01*
X012257Y018190D02*
X012077Y018190D01*
X012031Y018145D01*
X012031Y018055D01*
X012077Y018010D01*
X012031Y017896D02*
X012031Y017716D01*
X012031Y017601D02*
X012122Y017511D01*
X012212Y017511D01*
X012302Y017601D01*
X012302Y017896D02*
X012031Y017896D01*
X012257Y018010D02*
X012302Y018055D01*
X012302Y018145D01*
X012257Y018190D01*
X013031Y018190D02*
X013031Y018055D01*
X013077Y018010D01*
X013122Y018010D01*
X013167Y018055D01*
X013167Y018190D01*
X013167Y018305D02*
X013122Y018350D01*
X013122Y018485D01*
X013031Y018485D02*
X013302Y018485D01*
X013302Y018350D01*
X013257Y018305D01*
X013167Y018305D01*
X013302Y018190D02*
X013031Y018190D01*
X013167Y018055D02*
X013212Y018010D01*
X013257Y018010D01*
X013302Y018055D01*
X013302Y018190D01*
X013167Y017896D02*
X013167Y017761D01*
X013122Y017716D01*
X013077Y017716D01*
X013031Y017761D01*
X013031Y017851D01*
X013077Y017896D01*
X013167Y017896D01*
X013257Y017806D01*
X013302Y017716D01*
X013302Y017601D02*
X013212Y017511D01*
X013122Y017511D01*
X013031Y017601D01*
X013031Y018591D02*
X013122Y018681D01*
X013212Y018681D01*
X013302Y018591D01*
X014031Y018591D02*
X014122Y018681D01*
X014212Y018681D01*
X014302Y018591D01*
X014302Y018485D02*
X014302Y018350D01*
X014257Y018305D01*
X014167Y018305D01*
X014122Y018350D01*
X014122Y018485D01*
X014031Y018485D02*
X014302Y018485D01*
X014302Y018190D02*
X014031Y018190D01*
X014031Y018055D01*
X014077Y018010D01*
X014122Y018010D01*
X014167Y018055D01*
X014167Y018190D01*
X014167Y018055D02*
X014212Y018010D01*
X014257Y018010D01*
X014302Y018055D01*
X014302Y018190D01*
X014302Y017896D02*
X014302Y017716D01*
X014257Y017716D01*
X014077Y017896D01*
X014031Y017896D01*
X014031Y017601D02*
X014122Y017511D01*
X014212Y017511D01*
X014302Y017601D01*
X015031Y017601D02*
X015122Y017511D01*
X015212Y017511D01*
X015302Y017601D01*
X015257Y017716D02*
X015077Y017896D01*
X015031Y017851D01*
X015031Y017761D01*
X015077Y017716D01*
X015257Y017716D01*
X015302Y017761D01*
X015302Y017851D01*
X015257Y017896D01*
X015077Y017896D01*
X015077Y018010D02*
X015031Y018055D01*
X015031Y018145D01*
X015077Y018190D01*
X015257Y018190D01*
X015302Y018145D01*
X015302Y018055D01*
X015257Y018010D01*
X015257Y018305D02*
X015167Y018305D01*
X015122Y018350D01*
X015122Y018485D01*
X015031Y018485D02*
X015302Y018485D01*
X015302Y018350D01*
X015257Y018305D01*
X015302Y018591D02*
X015212Y018681D01*
X015122Y018681D01*
X015031Y018591D01*
X015122Y019711D02*
X015212Y019711D01*
X015302Y019801D01*
X015257Y019916D02*
X015212Y019916D01*
X015167Y019961D01*
X015122Y019916D01*
X015077Y019916D01*
X015031Y019961D01*
X015031Y020051D01*
X015077Y020096D01*
X015077Y020210D02*
X015031Y020255D01*
X015031Y020345D01*
X015077Y020390D01*
X015257Y020390D01*
X015302Y020345D01*
X015302Y020255D01*
X015257Y020210D01*
X015257Y020096D02*
X015302Y020051D01*
X015302Y019961D01*
X015257Y019916D01*
X015167Y019961D02*
X015167Y020006D01*
X015031Y019801D02*
X015122Y019711D01*
X015167Y020505D02*
X015122Y020550D01*
X015122Y020685D01*
X015031Y020685D02*
X015302Y020685D01*
X015302Y020550D01*
X015257Y020505D01*
X015167Y020505D01*
X015302Y020791D02*
X015212Y020881D01*
X015122Y020881D01*
X015031Y020791D01*
X014302Y020791D02*
X014212Y020881D01*
X014122Y020881D01*
X014031Y020791D01*
X014031Y020685D02*
X014302Y020685D01*
X014302Y020550D01*
X014257Y020505D01*
X014167Y020505D01*
X014122Y020550D01*
X014122Y020685D01*
X014077Y020390D02*
X014031Y020345D01*
X014031Y020255D01*
X014077Y020210D01*
X014167Y020096D02*
X014167Y019916D01*
X014302Y019961D02*
X014031Y019961D01*
X014031Y019801D02*
X014122Y019711D01*
X014212Y019711D01*
X014302Y019801D01*
X014302Y019961D02*
X014167Y020096D01*
X014257Y020210D02*
X014302Y020255D01*
X014302Y020345D01*
X014257Y020390D01*
X014077Y020390D01*
X013302Y020345D02*
X013302Y020255D01*
X013257Y020210D01*
X013302Y020096D02*
X013167Y020096D01*
X013212Y020006D01*
X013212Y019961D01*
X013167Y019916D01*
X013077Y019916D01*
X013031Y019961D01*
X013031Y020051D01*
X013077Y020096D01*
X013077Y020210D02*
X013031Y020255D01*
X013031Y020345D01*
X013077Y020390D01*
X013257Y020390D01*
X013302Y020345D01*
X013257Y020505D02*
X013167Y020505D01*
X013122Y020550D01*
X013122Y020685D01*
X013031Y020685D02*
X013302Y020685D01*
X013302Y020550D01*
X013257Y020505D01*
X013302Y020791D02*
X013212Y020881D01*
X013122Y020881D01*
X013031Y020791D01*
X013302Y020096D02*
X013302Y019916D01*
X013302Y019801D02*
X013212Y019711D01*
X013122Y019711D01*
X013031Y019801D01*
X012302Y019801D02*
X012212Y019711D01*
X012122Y019711D01*
X012031Y019801D01*
X012077Y019916D02*
X012031Y019961D01*
X012031Y020051D01*
X012077Y020096D01*
X012167Y020096D01*
X012167Y019961D01*
X012122Y019916D01*
X012077Y019916D01*
X012257Y020006D02*
X012167Y020096D01*
X012257Y020006D02*
X012302Y019916D01*
X012257Y020210D02*
X012302Y020255D01*
X012302Y020345D01*
X012257Y020390D01*
X012077Y020390D01*
X012031Y020345D01*
X012031Y020255D01*
X012077Y020210D01*
X012167Y020505D02*
X012122Y020550D01*
X012122Y020685D01*
X012031Y020685D02*
X012302Y020685D01*
X012302Y020550D01*
X012257Y020505D01*
X012167Y020505D01*
X012302Y020791D02*
X012212Y020881D01*
X012122Y020881D01*
X012031Y020791D01*
X011302Y020791D02*
X011212Y020881D01*
X011122Y020881D01*
X011031Y020791D01*
X011031Y020685D02*
X011302Y020685D01*
X011302Y020550D01*
X011257Y020505D01*
X011167Y020505D01*
X011122Y020550D01*
X011122Y020685D01*
X011077Y020390D02*
X011031Y020345D01*
X011031Y020255D01*
X011077Y020210D01*
X011077Y020096D02*
X011031Y020096D01*
X011077Y020096D02*
X011257Y019916D01*
X011302Y019916D01*
X011302Y020096D01*
X011257Y020210D02*
X011302Y020255D01*
X011302Y020345D01*
X011257Y020390D01*
X011077Y020390D01*
X011031Y019801D02*
X011122Y019711D01*
X011212Y019711D01*
X011302Y019801D01*
X016031Y019801D02*
X016122Y019711D01*
X016212Y019711D01*
X016302Y019801D01*
X016257Y019916D02*
X016302Y019961D01*
X016302Y020051D01*
X016257Y020096D01*
X016257Y020210D02*
X016302Y020255D01*
X016302Y020345D01*
X016257Y020390D01*
X016077Y020390D01*
X016031Y020345D01*
X016031Y020255D01*
X016077Y020210D01*
X016031Y020096D02*
X016212Y019916D01*
X016257Y019916D01*
X016031Y019916D02*
X016031Y020096D01*
X016167Y020505D02*
X016122Y020550D01*
X016122Y020685D01*
X016031Y020685D02*
X016302Y020685D01*
X016302Y020550D01*
X016257Y020505D01*
X016167Y020505D01*
X016302Y020791D02*
X016212Y020881D01*
X016122Y020881D01*
X016031Y020791D01*
X017256Y018831D02*
X017256Y018781D01*
X016302Y018591D02*
X016212Y018681D01*
X016122Y018681D01*
X016031Y018591D01*
X016031Y018485D02*
X016302Y018485D01*
X016302Y018350D01*
X016257Y018305D01*
X016167Y018305D01*
X016122Y018350D01*
X016122Y018485D01*
X016077Y018190D02*
X016031Y018145D01*
X016031Y018055D01*
X016077Y018010D01*
X016031Y017896D02*
X016031Y017716D01*
X016031Y017806D02*
X016302Y017806D01*
X016212Y017896D01*
X016257Y018010D02*
X016302Y018055D01*
X016302Y018145D01*
X016257Y018190D01*
X016077Y018190D01*
X016031Y017601D02*
X016122Y017511D01*
X016212Y017511D01*
X016302Y017601D01*
X017256Y017531D02*
X017256Y017481D01*
X018106Y017631D02*
X018106Y017706D01*
X016212Y008681D02*
X016302Y008591D01*
X016302Y008485D02*
X016031Y008485D01*
X016122Y008485D02*
X016122Y008350D01*
X016167Y008305D01*
X016257Y008305D01*
X016302Y008350D01*
X016302Y008485D01*
X016212Y008681D02*
X016122Y008681D01*
X016031Y008591D01*
X016031Y008190D02*
X016212Y008190D01*
X016302Y008100D01*
X016212Y008010D01*
X016031Y008010D01*
X016031Y007896D02*
X016212Y007716D01*
X016257Y007716D01*
X016302Y007761D01*
X016302Y007851D01*
X016257Y007896D01*
X016167Y008010D02*
X016167Y008190D01*
X016031Y007896D02*
X016031Y007716D01*
X016031Y007601D02*
X016122Y007511D01*
X016212Y007511D01*
X016302Y007601D01*
X016212Y006781D02*
X016302Y006691D01*
X016302Y006585D02*
X016302Y006450D01*
X016257Y006405D01*
X016167Y006405D01*
X016122Y006450D01*
X016122Y006585D01*
X016031Y006585D02*
X016302Y006585D01*
X016212Y006781D02*
X016122Y006781D01*
X016031Y006691D01*
X016031Y006290D02*
X016212Y006290D01*
X016302Y006200D01*
X016212Y006110D01*
X016031Y006110D01*
X016031Y005996D02*
X016031Y005816D01*
X016031Y005906D02*
X016302Y005906D01*
X016212Y005996D01*
X016167Y006110D02*
X016167Y006290D01*
X016302Y005701D02*
X016212Y005611D01*
X016122Y005611D01*
X016031Y005701D01*
X015302Y005701D02*
X015212Y005611D01*
X015122Y005611D01*
X015031Y005701D01*
X015077Y005816D02*
X015031Y005861D01*
X015031Y005951D01*
X015077Y005996D01*
X015257Y005816D01*
X015077Y005816D01*
X015257Y005816D02*
X015302Y005861D01*
X015302Y005951D01*
X015257Y005996D01*
X015077Y005996D01*
X015031Y006110D02*
X015212Y006110D01*
X015302Y006200D01*
X015212Y006290D01*
X015031Y006290D01*
X015167Y006290D02*
X015167Y006110D01*
X015167Y006405D02*
X015122Y006450D01*
X015122Y006585D01*
X015031Y006585D02*
X015302Y006585D01*
X015302Y006450D01*
X015257Y006405D01*
X015167Y006405D01*
X015302Y006691D02*
X015212Y006781D01*
X015122Y006781D01*
X015031Y006691D01*
X015122Y007511D02*
X015212Y007511D01*
X015302Y007601D01*
X015257Y007716D02*
X015212Y007716D01*
X015167Y007761D01*
X015122Y007716D01*
X015077Y007716D01*
X015031Y007761D01*
X015031Y007851D01*
X015077Y007896D01*
X015031Y008010D02*
X015212Y008010D01*
X015302Y008100D01*
X015212Y008190D01*
X015031Y008190D01*
X015167Y008190D02*
X015167Y008010D01*
X015257Y007896D02*
X015302Y007851D01*
X015302Y007761D01*
X015257Y007716D01*
X015167Y007761D02*
X015167Y007806D01*
X015031Y007601D02*
X015122Y007511D01*
X015167Y008305D02*
X015122Y008350D01*
X015122Y008485D01*
X015031Y008485D02*
X015302Y008485D01*
X015302Y008350D01*
X015257Y008305D01*
X015167Y008305D01*
X015302Y008591D02*
X015212Y008681D01*
X015122Y008681D01*
X015031Y008591D01*
X014302Y008591D02*
X014212Y008681D01*
X014122Y008681D01*
X014031Y008591D01*
X014031Y008485D02*
X014302Y008485D01*
X014302Y008350D01*
X014257Y008305D01*
X014167Y008305D01*
X014122Y008350D01*
X014122Y008485D01*
X014167Y008190D02*
X014167Y008010D01*
X014212Y008010D02*
X014031Y008010D01*
X014167Y007896D02*
X014167Y007716D01*
X014302Y007761D02*
X014031Y007761D01*
X014031Y007601D02*
X014122Y007511D01*
X014212Y007511D01*
X014302Y007601D01*
X014302Y007761D02*
X014167Y007896D01*
X014212Y008010D02*
X014302Y008100D01*
X014212Y008190D01*
X014031Y008190D01*
X013302Y008100D02*
X013212Y008010D01*
X013031Y008010D01*
X013077Y007896D02*
X013031Y007851D01*
X013031Y007761D01*
X013077Y007716D01*
X013167Y007716D01*
X013212Y007761D01*
X013212Y007806D01*
X013167Y007896D01*
X013302Y007896D01*
X013302Y007716D01*
X013302Y007601D02*
X013212Y007511D01*
X013122Y007511D01*
X013031Y007601D01*
X013167Y008010D02*
X013167Y008190D01*
X013212Y008190D02*
X013031Y008190D01*
X013167Y008305D02*
X013122Y008350D01*
X013122Y008485D01*
X013031Y008485D02*
X013302Y008485D01*
X013302Y008350D01*
X013257Y008305D01*
X013167Y008305D01*
X013212Y008190D02*
X013302Y008100D01*
X013302Y008591D02*
X013212Y008681D01*
X013122Y008681D01*
X013031Y008591D01*
X012302Y008591D02*
X012212Y008681D01*
X012122Y008681D01*
X012031Y008591D01*
X012031Y008485D02*
X012302Y008485D01*
X012302Y008350D01*
X012257Y008305D01*
X012167Y008305D01*
X012122Y008350D01*
X012122Y008485D01*
X012167Y008190D02*
X012167Y008010D01*
X012212Y008010D02*
X012031Y008010D01*
X012077Y007896D02*
X012031Y007851D01*
X012031Y007761D01*
X012077Y007716D01*
X012122Y007716D01*
X012167Y007761D01*
X012167Y007896D01*
X012077Y007896D01*
X012167Y007896D02*
X012257Y007806D01*
X012302Y007716D01*
X012302Y007601D02*
X012212Y007511D01*
X012122Y007511D01*
X012031Y007601D01*
X012212Y008010D02*
X012302Y008100D01*
X012212Y008190D01*
X012031Y008190D01*
X011302Y008100D02*
X011212Y008010D01*
X011031Y008010D01*
X011031Y007896D02*
X011077Y007896D01*
X011257Y007716D01*
X011302Y007716D01*
X011302Y007896D01*
X011167Y008010D02*
X011167Y008190D01*
X011212Y008190D02*
X011302Y008100D01*
X011212Y008190D02*
X011031Y008190D01*
X011167Y008305D02*
X011122Y008350D01*
X011122Y008485D01*
X011031Y008485D02*
X011302Y008485D01*
X011302Y008350D01*
X011257Y008305D01*
X011167Y008305D01*
X011302Y008591D02*
X011212Y008681D01*
X011122Y008681D01*
X011031Y008591D01*
X011031Y007601D02*
X011122Y007511D01*
X011212Y007511D01*
X011302Y007601D01*
X011212Y006681D02*
X011302Y006591D01*
X011257Y006485D02*
X011212Y006485D01*
X011167Y006440D01*
X011167Y006350D01*
X011122Y006305D01*
X011077Y006305D01*
X011031Y006350D01*
X011031Y006440D01*
X011077Y006485D01*
X011031Y006591D02*
X011122Y006681D01*
X011212Y006681D01*
X011257Y006485D02*
X011302Y006440D01*
X011302Y006350D01*
X011257Y006305D01*
X011302Y006190D02*
X011031Y006190D01*
X011031Y006055D01*
X011077Y006010D01*
X011257Y006010D01*
X011302Y006055D01*
X011302Y006190D01*
X011212Y005896D02*
X011302Y005806D01*
X011212Y005716D01*
X011031Y005716D01*
X011031Y005601D02*
X011122Y005511D01*
X011212Y005511D01*
X011302Y005601D01*
X011167Y005716D02*
X011167Y005896D01*
X011212Y005896D02*
X011031Y005896D01*
X012031Y005896D02*
X012031Y005716D01*
X012031Y005601D02*
X012122Y005511D01*
X012212Y005511D01*
X012302Y005601D01*
X012302Y005896D02*
X012031Y005896D01*
X012077Y006010D02*
X012031Y006055D01*
X012031Y006145D01*
X012077Y006190D01*
X012257Y006190D01*
X012302Y006145D01*
X012302Y006055D01*
X012257Y006010D01*
X012257Y006305D02*
X012302Y006350D01*
X012302Y006440D01*
X012257Y006485D01*
X012212Y006485D01*
X012167Y006440D01*
X012167Y006350D01*
X012122Y006305D01*
X012077Y006305D01*
X012031Y006350D01*
X012031Y006440D01*
X012077Y006485D01*
X012031Y006591D02*
X012122Y006681D01*
X012212Y006681D01*
X012302Y006591D01*
X013031Y006591D02*
X013122Y006681D01*
X013212Y006681D01*
X013302Y006591D01*
X013302Y006485D02*
X013302Y006305D01*
X013302Y006395D02*
X013031Y006395D01*
X013031Y006190D02*
X013302Y006010D01*
X013302Y005896D02*
X013031Y005896D01*
X013031Y005761D01*
X013077Y005716D01*
X013257Y005716D01*
X013302Y005761D01*
X013302Y005896D01*
X013302Y006190D02*
X013031Y006010D01*
X013031Y005601D02*
X013122Y005511D01*
X013212Y005511D01*
X013302Y005601D01*
X014031Y005601D02*
X014122Y005511D01*
X014212Y005511D01*
X014302Y005601D01*
X014257Y005716D02*
X014302Y005761D01*
X014302Y005896D01*
X014031Y005896D01*
X014031Y005761D01*
X014077Y005716D01*
X014257Y005716D01*
X014302Y006010D02*
X014031Y006190D01*
X014031Y006305D02*
X014122Y006395D01*
X014122Y006350D02*
X014122Y006485D01*
X014031Y006485D02*
X014302Y006485D01*
X014302Y006350D01*
X014257Y006305D01*
X014167Y006305D01*
X014122Y006350D01*
X014302Y006190D02*
X014031Y006010D01*
X014031Y006591D02*
X014122Y006681D01*
X014212Y006681D01*
X014302Y006591D01*
X017256Y006781D02*
X017256Y006831D01*
X017256Y005531D02*
X017256Y005481D01*
X018106Y005631D02*
X018106Y005706D01*
D13*
X017623Y001055D02*
X017328Y001055D01*
X017230Y000957D01*
X017328Y000858D01*
X017525Y000858D01*
X017623Y000760D01*
X017525Y000661D01*
X017230Y000661D01*
X016979Y000661D02*
X016979Y001055D01*
X016979Y000661D02*
X016684Y000661D01*
X016585Y000760D01*
X016585Y001055D01*
X016334Y000957D02*
X016236Y001055D01*
X015941Y001055D01*
X015941Y001252D02*
X015941Y000661D01*
X016236Y000661D01*
X016334Y000760D01*
X016334Y000957D01*
X015690Y000957D02*
X015690Y000760D01*
X015591Y000661D01*
X015395Y000661D01*
X015296Y000760D01*
X015296Y000957D01*
X015395Y001055D01*
X015591Y001055D01*
X015690Y000957D01*
X015054Y001055D02*
X014956Y001055D01*
X014759Y000858D01*
X014759Y000661D02*
X014759Y001055D01*
X014517Y001055D02*
X014222Y000858D01*
X014517Y000661D01*
X014222Y000661D02*
X014222Y001252D01*
X013891Y001252D02*
X013891Y001350D01*
X013891Y001055D02*
X013891Y000661D01*
X013989Y000661D02*
X013792Y000661D01*
X013541Y000661D02*
X013541Y001252D01*
X013344Y001055D01*
X013148Y001252D01*
X013148Y000661D01*
X013792Y001055D02*
X013891Y001055D01*
X012252Y000957D02*
X012252Y000760D01*
X012154Y000661D01*
X011957Y000661D01*
X011858Y000760D01*
X011858Y000957D01*
X011957Y001055D01*
X012154Y001055D01*
X012252Y000957D01*
X011626Y001055D02*
X011429Y001055D01*
X011527Y001154D02*
X011527Y000760D01*
X011626Y000661D01*
X010533Y000760D02*
X010435Y000661D01*
X010238Y000661D01*
X010140Y000760D01*
X010238Y000957D02*
X010435Y000957D01*
X010533Y000858D01*
X010533Y000760D01*
X010238Y000957D02*
X010140Y001055D01*
X010140Y001154D01*
X010238Y001252D01*
X010435Y001252D01*
X010533Y001154D01*
X009889Y000957D02*
X009495Y000957D01*
X009244Y001252D02*
X009244Y000661D01*
X008851Y000661D02*
X008851Y001252D01*
X009047Y001055D01*
X009244Y001252D01*
X008600Y001154D02*
X008600Y000957D01*
X008501Y000858D01*
X008206Y000858D01*
X008206Y000661D02*
X008206Y001252D01*
X008501Y001252D01*
X008600Y001154D01*
X007955Y001154D02*
X007857Y001252D01*
X007660Y001252D01*
X007561Y001154D01*
X007561Y000760D01*
X007660Y000661D01*
X007857Y000661D01*
X007955Y000760D01*
X008131Y006931D02*
X008131Y007522D01*
X008328Y007325D01*
X008525Y007522D01*
X008525Y006931D01*
X008776Y006931D02*
X008776Y007522D01*
X009071Y007522D01*
X009170Y007424D01*
X009170Y007325D01*
X009071Y007227D01*
X008776Y007227D01*
X009071Y007227D02*
X009170Y007128D01*
X009170Y007030D01*
X009071Y006931D01*
X008776Y006931D01*
X009421Y006931D02*
X009814Y006931D01*
X009617Y006931D02*
X009617Y007522D01*
X009421Y007325D01*
X009421Y018931D02*
X009814Y019325D01*
X009814Y019424D01*
X009716Y019522D01*
X009519Y019522D01*
X009421Y019424D01*
X009170Y019424D02*
X009170Y019325D01*
X009071Y019227D01*
X008776Y019227D01*
X008776Y019522D02*
X008776Y018931D01*
X009071Y018931D01*
X009170Y019030D01*
X009170Y019128D01*
X009071Y019227D01*
X009170Y019424D02*
X009071Y019522D01*
X008776Y019522D01*
X008525Y019522D02*
X008525Y018931D01*
X008131Y018931D02*
X008131Y019522D01*
X008328Y019325D01*
X008525Y019522D01*
X009421Y018931D02*
X009814Y018931D01*
X009344Y024961D02*
X009344Y025552D01*
X009147Y025355D01*
X008951Y025552D01*
X008951Y024961D01*
X008700Y025257D02*
X008601Y025158D01*
X008306Y025158D01*
X008306Y024961D02*
X008306Y025552D01*
X008601Y025552D01*
X008700Y025454D01*
X008700Y025257D01*
X008055Y025454D02*
X007957Y025552D01*
X007760Y025552D01*
X007661Y025454D01*
X007661Y025060D01*
X007760Y024961D01*
X007957Y024961D01*
X008055Y025060D01*
X009595Y025257D02*
X009989Y025257D01*
X010240Y025355D02*
X010338Y025257D01*
X010535Y025257D01*
X010633Y025158D01*
X010633Y025060D01*
X010535Y024961D01*
X010338Y024961D01*
X010240Y025060D01*
X010240Y025355D02*
X010240Y025454D01*
X010338Y025552D01*
X010535Y025552D01*
X010633Y025454D01*
X011529Y025355D02*
X011726Y025355D01*
X011627Y025454D02*
X011627Y025060D01*
X011726Y024961D01*
X011958Y025060D02*
X012057Y024961D01*
X012254Y024961D01*
X012352Y025060D01*
X012352Y025257D01*
X012254Y025355D01*
X012057Y025355D01*
X011958Y025257D01*
X011958Y025060D01*
X013248Y024961D02*
X013248Y025552D01*
X013444Y025355D01*
X013641Y025552D01*
X013641Y024961D01*
X013892Y024961D02*
X014089Y024961D01*
X013991Y024961D02*
X013991Y025355D01*
X013892Y025355D01*
X013991Y025552D02*
X013991Y025650D01*
X014322Y025552D02*
X014322Y024961D01*
X014322Y025158D02*
X014617Y025355D01*
X014859Y025355D02*
X014859Y024961D01*
X014859Y025158D02*
X015056Y025355D01*
X015154Y025355D01*
X015396Y025257D02*
X015396Y025060D01*
X015495Y024961D01*
X015691Y024961D01*
X015790Y025060D01*
X015790Y025257D01*
X015691Y025355D01*
X015495Y025355D01*
X015396Y025257D01*
X016041Y025355D02*
X016336Y025355D01*
X016434Y025257D01*
X016434Y025060D01*
X016336Y024961D01*
X016041Y024961D01*
X016041Y025552D01*
X016685Y025355D02*
X016685Y025060D01*
X016784Y024961D01*
X017079Y024961D01*
X017079Y025355D01*
X017330Y025257D02*
X017428Y025158D01*
X017625Y025158D01*
X017723Y025060D01*
X017625Y024961D01*
X017330Y024961D01*
X017330Y025257D02*
X017428Y025355D01*
X017723Y025355D01*
X014617Y024961D02*
X014322Y025158D01*
D14*
X015706Y024206D02*
X015706Y023206D01*
X016706Y023206D01*
X016706Y024206D01*
X015706Y024206D01*
X008706Y024206D01*
X008706Y023206D01*
X015706Y023206D01*
X015417Y022666D02*
X015417Y022456D01*
X015347Y022386D01*
X015207Y022386D01*
X015137Y022456D01*
X015137Y022666D01*
X015137Y022526D02*
X014996Y022386D01*
X015067Y022206D02*
X014996Y022136D01*
X014996Y021996D01*
X015067Y021926D01*
X015137Y021926D01*
X015207Y021996D01*
X015207Y022136D01*
X015277Y022206D01*
X015347Y022206D01*
X015417Y022136D01*
X015417Y021996D01*
X015347Y021926D01*
X015417Y021746D02*
X015417Y021465D01*
X015417Y021606D02*
X014996Y021606D01*
X014417Y021996D02*
X014417Y022136D01*
X014347Y022206D01*
X014277Y022206D01*
X014207Y022136D01*
X014207Y021996D01*
X014137Y021926D01*
X014067Y021926D01*
X013996Y021996D01*
X013996Y022136D01*
X014067Y022206D01*
X014067Y022386D02*
X013996Y022456D01*
X013996Y022596D01*
X014067Y022666D01*
X014347Y022666D01*
X014417Y022596D01*
X014417Y022456D01*
X014347Y022386D01*
X014417Y021996D02*
X014347Y021926D01*
X013417Y021996D02*
X013417Y022136D01*
X013347Y022206D01*
X013067Y022206D01*
X012996Y022136D01*
X012996Y021996D01*
X013067Y021926D01*
X013137Y021746D02*
X013417Y021465D01*
X013417Y021746D02*
X012996Y021746D01*
X013207Y021676D02*
X012996Y021465D01*
X013347Y021926D02*
X013417Y021996D01*
X013347Y022386D02*
X013417Y022456D01*
X013417Y022596D01*
X013347Y022666D01*
X013277Y022666D01*
X013207Y022596D01*
X013207Y022456D01*
X013137Y022386D01*
X013067Y022386D01*
X012996Y022456D01*
X012996Y022596D01*
X013067Y022666D01*
X012417Y022666D02*
X012277Y022526D01*
X012417Y022386D01*
X011996Y022386D01*
X011996Y022206D02*
X011996Y022066D01*
X011996Y022136D02*
X012417Y022136D01*
X012417Y022206D02*
X012417Y022066D01*
X012347Y021899D02*
X012277Y021899D01*
X012207Y021829D01*
X012207Y021689D01*
X012137Y021619D01*
X012067Y021619D01*
X011996Y021689D01*
X011996Y021829D01*
X012067Y021899D01*
X012347Y021899D02*
X012417Y021829D01*
X012417Y021689D01*
X012347Y021619D01*
X012347Y021439D02*
X012067Y021439D01*
X011996Y021369D01*
X011996Y021229D01*
X012067Y021159D01*
X012347Y021159D01*
X012417Y021229D01*
X012417Y021369D01*
X012347Y021439D01*
X011417Y021536D02*
X011417Y021676D01*
X011347Y021746D01*
X011277Y021746D01*
X011207Y021676D01*
X011207Y021536D01*
X011137Y021465D01*
X011067Y021465D01*
X010996Y021536D01*
X010996Y021676D01*
X011067Y021746D01*
X011067Y021926D02*
X010996Y021996D01*
X010996Y022136D01*
X011067Y022206D01*
X011347Y022206D01*
X011417Y022136D01*
X011417Y021996D01*
X011347Y021926D01*
X011067Y021926D01*
X010996Y022386D02*
X011417Y022386D01*
X011277Y022526D01*
X011417Y022666D01*
X010996Y022666D01*
X010347Y022526D02*
X010067Y022526D01*
X010207Y022666D02*
X010207Y022386D01*
X010347Y022206D02*
X010417Y022136D01*
X010417Y021996D01*
X010347Y021926D01*
X010277Y021926D01*
X010207Y021996D01*
X010137Y021926D01*
X010067Y021926D01*
X009996Y021996D01*
X009996Y022136D01*
X010067Y022206D01*
X010207Y022066D02*
X010207Y021996D01*
X010067Y021746D02*
X010067Y021676D01*
X009996Y021676D01*
X009996Y021746D01*
X010067Y021746D01*
X010067Y021516D02*
X009996Y021445D01*
X009996Y021305D01*
X010067Y021235D01*
X010137Y021235D01*
X010207Y021305D01*
X010207Y021375D01*
X010207Y021305D02*
X010277Y021235D01*
X010347Y021235D01*
X010417Y021305D01*
X010417Y021445D01*
X010347Y021516D01*
X010417Y021055D02*
X010137Y021055D01*
X009996Y020915D01*
X010137Y020775D01*
X010417Y020775D01*
X010996Y021145D02*
X010996Y021285D01*
X010996Y021215D02*
X011417Y021215D01*
X011417Y021285D02*
X011417Y021145D01*
X011347Y021465D02*
X011417Y021536D01*
X011996Y022666D02*
X012417Y022666D01*
X014996Y022666D02*
X015417Y022666D01*
X015996Y022666D02*
X016277Y022666D01*
X016417Y022526D01*
X016277Y022386D01*
X015996Y022386D01*
X015996Y022206D02*
X016417Y022206D01*
X015996Y021926D01*
X016417Y021926D01*
X016207Y022386D02*
X016207Y022666D01*
X017206Y024707D02*
X017268Y024716D01*
X017330Y024722D01*
X017393Y024724D01*
X017455Y024722D01*
X017518Y024717D01*
X017580Y024708D01*
X017641Y024696D01*
X017701Y024679D01*
X017761Y024660D01*
X017819Y024636D01*
X017875Y024610D01*
X017930Y024580D01*
X017983Y024547D01*
X018034Y024511D01*
X018083Y024472D01*
X018130Y024430D01*
X018174Y024385D01*
X018215Y024338D01*
X018253Y024289D01*
X018289Y024237D01*
X018321Y024184D01*
X018350Y024128D01*
X018376Y024071D01*
X018398Y024013D01*
X018417Y023953D01*
X018432Y023893D01*
X018444Y023831D01*
X018452Y023769D01*
X018456Y023707D01*
X017206Y024706D02*
X008256Y024706D01*
X008206Y024706D01*
X008256Y024707D02*
X008194Y024708D01*
X008132Y024705D01*
X008070Y024699D01*
X008008Y024688D01*
X007947Y024674D01*
X007888Y024656D01*
X007829Y024634D01*
X007772Y024609D01*
X007717Y024580D01*
X007663Y024548D01*
X007612Y024512D01*
X007563Y024473D01*
X007517Y024432D01*
X007473Y024387D01*
X007432Y024340D01*
X007394Y024291D01*
X007359Y024239D01*
X007328Y024185D01*
X007300Y024130D01*
X007275Y024072D01*
X007254Y024013D01*
X007237Y023953D01*
X007223Y023893D01*
X007214Y023831D01*
X007208Y023769D01*
X007206Y023706D01*
X007206Y014706D01*
X007706Y015206D02*
X008706Y014206D01*
X015706Y014206D01*
X015706Y015206D01*
X008706Y015206D01*
X008706Y014206D01*
X008206Y013706D02*
X017156Y013706D01*
X017206Y013706D01*
X016706Y014206D02*
X016706Y015206D01*
X015706Y015206D01*
X015996Y015965D02*
X016417Y015965D01*
X016277Y016106D01*
X016417Y016246D01*
X015996Y016246D01*
X015996Y016426D02*
X016417Y016426D01*
X016417Y016706D02*
X015996Y016706D01*
X016137Y016566D01*
X015996Y016426D01*
X016207Y016886D02*
X016137Y016956D01*
X016137Y017166D01*
X015996Y017166D02*
X016417Y017166D01*
X016417Y016956D01*
X016347Y016886D01*
X016207Y016886D01*
X015417Y016860D02*
X014996Y016579D01*
X015417Y016579D01*
X015417Y016399D02*
X015417Y016119D01*
X015417Y016259D02*
X014996Y016259D01*
X014996Y016860D02*
X015417Y016860D01*
X015417Y017026D02*
X015417Y017166D01*
X015417Y017096D02*
X014996Y017096D01*
X014996Y017166D02*
X014996Y017026D01*
X014417Y016956D02*
X014347Y016886D01*
X014207Y016886D01*
X014137Y016956D01*
X014137Y017166D01*
X014137Y017026D02*
X013996Y016886D01*
X013996Y016706D02*
X014417Y016426D01*
X014417Y016706D02*
X013996Y016426D01*
X014417Y016956D02*
X014417Y017166D01*
X013996Y017166D01*
X013407Y017166D02*
X013407Y016886D01*
X013407Y017026D02*
X012986Y017026D01*
X012986Y016706D02*
X013407Y016426D01*
X013407Y016706D02*
X012986Y016426D01*
X012417Y016496D02*
X012417Y016636D01*
X012347Y016706D01*
X012067Y016706D01*
X011996Y016636D01*
X011996Y016496D01*
X012067Y016426D01*
X011996Y016246D02*
X011996Y015965D01*
X011996Y016246D02*
X012417Y016246D01*
X012347Y016426D02*
X012417Y016496D01*
X012347Y016886D02*
X012417Y016956D01*
X012417Y017096D01*
X012347Y017166D01*
X012277Y017166D01*
X012207Y017096D01*
X012207Y016956D01*
X012137Y016886D01*
X012067Y016886D01*
X011996Y016956D01*
X011996Y017096D01*
X012067Y017166D01*
X011417Y017096D02*
X011347Y017166D01*
X011277Y017166D01*
X011207Y017096D01*
X011207Y016956D01*
X011137Y016886D01*
X011067Y016886D01*
X010996Y016956D01*
X010996Y017096D01*
X011067Y017166D01*
X011417Y017096D02*
X011417Y016956D01*
X011347Y016886D01*
X011417Y016706D02*
X011417Y016496D01*
X011347Y016426D01*
X011067Y016426D01*
X010996Y016496D01*
X010996Y016706D01*
X011417Y016706D01*
X011277Y016246D02*
X010996Y016246D01*
X011207Y016246D02*
X011207Y015965D01*
X011277Y015965D02*
X010996Y015965D01*
X011277Y015965D02*
X011417Y016106D01*
X011277Y016246D01*
X010417Y016246D02*
X010137Y016246D01*
X009996Y016106D01*
X010137Y015965D01*
X010417Y015965D01*
X010417Y016426D02*
X010417Y016706D01*
X010207Y016706D01*
X010277Y016566D01*
X010277Y016496D01*
X010207Y016426D01*
X010067Y016426D01*
X009996Y016496D01*
X009996Y016636D01*
X010067Y016706D01*
X010207Y016886D02*
X010207Y017166D01*
X010347Y017026D02*
X010067Y017026D01*
X009417Y016956D02*
X009347Y016886D01*
X009417Y016956D02*
X009417Y017096D01*
X009347Y017166D01*
X009067Y017166D01*
X008996Y017096D01*
X008996Y016956D01*
X009067Y016886D01*
X009207Y016886D01*
X009207Y017026D01*
X009417Y016706D02*
X008996Y016706D01*
X008996Y016426D02*
X009417Y016426D01*
X009417Y016246D02*
X009417Y016036D01*
X009347Y015965D01*
X009067Y015965D01*
X008996Y016036D01*
X008996Y016246D01*
X009417Y016246D01*
X008996Y016426D02*
X009417Y016706D01*
X007206Y014706D02*
X007211Y014642D01*
X007220Y014578D01*
X007233Y014514D01*
X007250Y014452D01*
X007271Y014391D01*
X007295Y014331D01*
X007323Y014273D01*
X007354Y014216D01*
X007389Y014162D01*
X007427Y014110D01*
X007469Y014060D01*
X007513Y014013D01*
X007560Y013969D01*
X007610Y013927D01*
X007662Y013889D01*
X007716Y013854D01*
X007773Y013823D01*
X007831Y013795D01*
X007891Y013771D01*
X007952Y013750D01*
X008014Y013733D01*
X008078Y013720D01*
X008142Y013711D01*
X008206Y013706D01*
X008206Y012706D02*
X008256Y012706D01*
X017206Y012706D01*
X016706Y012206D02*
X015706Y012206D01*
X015706Y011206D01*
X016706Y011206D01*
X016706Y012206D01*
X017206Y012707D02*
X017268Y012716D01*
X017330Y012722D01*
X017393Y012724D01*
X017455Y012722D01*
X017518Y012717D01*
X017580Y012708D01*
X017641Y012696D01*
X017701Y012679D01*
X017761Y012660D01*
X017819Y012636D01*
X017875Y012610D01*
X017930Y012580D01*
X017983Y012547D01*
X018034Y012511D01*
X018083Y012472D01*
X018130Y012430D01*
X018174Y012385D01*
X018215Y012338D01*
X018253Y012289D01*
X018289Y012237D01*
X018321Y012184D01*
X018350Y012128D01*
X018376Y012071D01*
X018398Y012013D01*
X018417Y011953D01*
X018432Y011893D01*
X018444Y011831D01*
X018452Y011769D01*
X018456Y011707D01*
X016706Y014206D02*
X015706Y014206D01*
X015706Y012206D02*
X008706Y012206D01*
X008706Y011206D01*
X015706Y011206D01*
X015417Y010666D02*
X015417Y010456D01*
X015347Y010386D01*
X015207Y010386D01*
X015137Y010456D01*
X015137Y010666D01*
X015137Y010526D02*
X014996Y010386D01*
X015067Y010206D02*
X014996Y010136D01*
X014996Y009996D01*
X015067Y009926D01*
X015137Y009926D01*
X015207Y009996D01*
X015207Y010136D01*
X015277Y010206D01*
X015347Y010206D01*
X015417Y010136D01*
X015417Y009996D01*
X015347Y009926D01*
X015417Y009746D02*
X015417Y009465D01*
X015417Y009606D02*
X014996Y009606D01*
X014417Y009996D02*
X014417Y010136D01*
X014347Y010206D01*
X014277Y010206D01*
X014207Y010136D01*
X014207Y009996D01*
X014137Y009926D01*
X014067Y009926D01*
X013996Y009996D01*
X013996Y010136D01*
X014067Y010206D01*
X014067Y010386D02*
X013996Y010456D01*
X013996Y010596D01*
X014067Y010666D01*
X014347Y010666D01*
X014417Y010596D01*
X014417Y010456D01*
X014347Y010386D01*
X014417Y009996D02*
X014347Y009926D01*
X013417Y009996D02*
X013417Y010136D01*
X013347Y010206D01*
X013067Y010206D01*
X012996Y010136D01*
X012996Y009996D01*
X013067Y009926D01*
X013137Y009746D02*
X013417Y009465D01*
X013417Y009746D02*
X012996Y009746D01*
X013207Y009676D02*
X012996Y009465D01*
X013347Y009926D02*
X013417Y009996D01*
X013347Y010386D02*
X013417Y010456D01*
X013417Y010596D01*
X013347Y010666D01*
X013277Y010666D01*
X013207Y010596D01*
X013207Y010456D01*
X013137Y010386D01*
X013067Y010386D01*
X012996Y010456D01*
X012996Y010596D01*
X013067Y010666D01*
X012417Y010666D02*
X012277Y010526D01*
X012417Y010386D01*
X011996Y010386D01*
X011996Y010206D02*
X011996Y010066D01*
X011996Y010136D02*
X012417Y010136D01*
X012417Y010206D02*
X012417Y010066D01*
X012347Y009899D02*
X012277Y009899D01*
X012207Y009829D01*
X012207Y009689D01*
X012137Y009619D01*
X012067Y009619D01*
X011996Y009689D01*
X011996Y009829D01*
X012067Y009899D01*
X012347Y009899D02*
X012417Y009829D01*
X012417Y009689D01*
X012347Y009619D01*
X012347Y009439D02*
X012067Y009439D01*
X011996Y009369D01*
X011996Y009229D01*
X012067Y009159D01*
X012347Y009159D01*
X012417Y009229D01*
X012417Y009369D01*
X012347Y009439D01*
X011417Y009536D02*
X011417Y009676D01*
X011347Y009746D01*
X011277Y009746D01*
X011207Y009676D01*
X011207Y009536D01*
X011137Y009465D01*
X011067Y009465D01*
X010996Y009536D01*
X010996Y009676D01*
X011067Y009746D01*
X011067Y009926D02*
X010996Y009996D01*
X010996Y010136D01*
X011067Y010206D01*
X011347Y010206D01*
X011417Y010136D01*
X011417Y009996D01*
X011347Y009926D01*
X011067Y009926D01*
X010996Y010386D02*
X011417Y010386D01*
X011277Y010526D01*
X011417Y010666D01*
X010996Y010666D01*
X010347Y010526D02*
X010067Y010526D01*
X010207Y010666D02*
X010207Y010386D01*
X010347Y010206D02*
X010417Y010136D01*
X010417Y009996D01*
X010347Y009926D01*
X010277Y009926D01*
X010207Y009996D01*
X010137Y009926D01*
X010067Y009926D01*
X009996Y009996D01*
X009996Y010136D01*
X010067Y010206D01*
X010207Y010066D02*
X010207Y009996D01*
X010067Y009746D02*
X010067Y009676D01*
X009996Y009676D01*
X009996Y009746D01*
X010067Y009746D01*
X010067Y009516D02*
X009996Y009445D01*
X009996Y009305D01*
X010067Y009235D01*
X010137Y009235D01*
X010207Y009305D01*
X010207Y009375D01*
X010207Y009305D02*
X010277Y009235D01*
X010347Y009235D01*
X010417Y009305D01*
X010417Y009445D01*
X010347Y009516D01*
X010417Y009055D02*
X010137Y009055D01*
X009996Y008915D01*
X010137Y008775D01*
X010417Y008775D01*
X010996Y009145D02*
X010996Y009285D01*
X010996Y009215D02*
X011417Y009215D01*
X011417Y009285D02*
X011417Y009145D01*
X011347Y009465D02*
X011417Y009536D01*
X011996Y010666D02*
X012417Y010666D01*
X014996Y010666D02*
X015417Y010666D01*
X015996Y010666D02*
X016277Y010666D01*
X016417Y010526D01*
X016277Y010386D01*
X015996Y010386D01*
X015996Y010206D02*
X016417Y010206D01*
X015996Y009926D01*
X016417Y009926D01*
X016207Y010386D02*
X016207Y010666D01*
X017157Y013706D02*
X017223Y013700D01*
X017290Y013697D01*
X017357Y013698D01*
X017423Y013703D01*
X017489Y013712D01*
X017555Y013724D01*
X017619Y013741D01*
X017683Y013761D01*
X017745Y013784D01*
X017806Y013812D01*
X017865Y013842D01*
X017923Y013876D01*
X017978Y013914D01*
X018031Y013954D01*
X018082Y013997D01*
X018130Y014044D01*
X018175Y014092D01*
X018217Y014144D01*
X018257Y014198D01*
X018293Y014254D01*
X018326Y014312D01*
X018356Y014371D01*
X018382Y014433D01*
X018404Y014495D01*
X018423Y014559D01*
X018438Y014624D01*
X018449Y014690D01*
X018457Y014756D01*
X016417Y005166D02*
X015996Y005166D01*
X016137Y005166D02*
X016137Y004956D01*
X016207Y004886D01*
X016347Y004886D01*
X016417Y004956D01*
X016417Y005166D01*
X016417Y004706D02*
X015996Y004706D01*
X016137Y004566D01*
X015996Y004426D01*
X016417Y004426D01*
X016417Y004246D02*
X016277Y004106D01*
X016417Y003965D01*
X015996Y003965D01*
X015996Y004246D02*
X016417Y004246D01*
X016706Y003206D02*
X015706Y003206D01*
X015706Y002206D01*
X016706Y002206D01*
X016706Y003206D01*
X017157Y001706D02*
X017223Y001700D01*
X017290Y001697D01*
X017357Y001698D01*
X017423Y001703D01*
X017489Y001712D01*
X017555Y001724D01*
X017619Y001741D01*
X017683Y001761D01*
X017745Y001784D01*
X017806Y001812D01*
X017865Y001842D01*
X017923Y001876D01*
X017978Y001914D01*
X018031Y001954D01*
X018082Y001997D01*
X018130Y002044D01*
X018175Y002092D01*
X018217Y002144D01*
X018257Y002198D01*
X018293Y002254D01*
X018326Y002312D01*
X018356Y002371D01*
X018382Y002433D01*
X018404Y002495D01*
X018423Y002559D01*
X018438Y002624D01*
X018449Y002690D01*
X018457Y002756D01*
X017206Y001706D02*
X017156Y001706D01*
X008206Y001706D01*
X008706Y002206D02*
X007706Y003206D01*
X007206Y002706D02*
X007206Y011706D01*
X007208Y011769D01*
X007214Y011831D01*
X007223Y011893D01*
X007237Y011953D01*
X007254Y012013D01*
X007275Y012072D01*
X007300Y012130D01*
X007328Y012185D01*
X007359Y012239D01*
X007394Y012291D01*
X007432Y012340D01*
X007473Y012387D01*
X007517Y012432D01*
X007563Y012473D01*
X007612Y012512D01*
X007663Y012548D01*
X007717Y012580D01*
X007772Y012609D01*
X007829Y012634D01*
X007888Y012656D01*
X007947Y012674D01*
X008008Y012688D01*
X008070Y012699D01*
X008132Y012705D01*
X008194Y012708D01*
X008256Y012707D01*
X009067Y010666D02*
X008996Y010596D01*
X008996Y010456D01*
X009067Y010386D01*
X009207Y010386D01*
X009207Y010526D01*
X009347Y010386D02*
X009417Y010456D01*
X009417Y010596D01*
X009347Y010666D01*
X009067Y010666D01*
X008996Y010206D02*
X009417Y010206D01*
X008996Y009926D01*
X009417Y009926D01*
X009417Y009746D02*
X009417Y009536D01*
X009347Y009465D01*
X009067Y009465D01*
X008996Y009536D01*
X008996Y009746D01*
X009417Y009746D01*
X009347Y005166D02*
X009067Y005166D01*
X008996Y005096D01*
X008996Y004956D01*
X009067Y004886D01*
X009207Y004886D01*
X009207Y005026D01*
X009347Y004886D02*
X009417Y004956D01*
X009417Y005096D01*
X009347Y005166D01*
X009417Y004706D02*
X008996Y004426D01*
X009417Y004426D01*
X009417Y004246D02*
X009417Y004036D01*
X009347Y003965D01*
X009067Y003965D01*
X008996Y004036D01*
X008996Y004246D01*
X009417Y004246D01*
X009417Y004706D02*
X008996Y004706D01*
X009996Y004636D02*
X010067Y004706D01*
X009996Y004636D02*
X009996Y004496D01*
X010067Y004426D01*
X010207Y004426D01*
X010277Y004496D01*
X010277Y004566D01*
X010207Y004706D01*
X010417Y004706D01*
X010417Y004426D01*
X010417Y004246D02*
X010137Y004246D01*
X009996Y004106D01*
X010137Y003965D01*
X010417Y003965D01*
X010996Y003965D02*
X011277Y003965D01*
X011417Y004106D01*
X011277Y004246D01*
X010996Y004246D01*
X011067Y004426D02*
X010996Y004496D01*
X010996Y004706D01*
X011417Y004706D01*
X011417Y004496D01*
X011347Y004426D01*
X011067Y004426D01*
X011207Y004246D02*
X011207Y003965D01*
X011137Y004886D02*
X011067Y004886D01*
X010996Y004956D01*
X010996Y005096D01*
X011067Y005166D01*
X011207Y005096D02*
X011207Y004956D01*
X011137Y004886D01*
X011347Y004886D02*
X011417Y004956D01*
X011417Y005096D01*
X011347Y005166D01*
X011277Y005166D01*
X011207Y005096D01*
X011996Y005096D02*
X012067Y005166D01*
X011996Y005096D02*
X011996Y004956D01*
X012067Y004886D01*
X012137Y004886D01*
X012207Y004956D01*
X012207Y005096D01*
X012277Y005166D01*
X012347Y005166D01*
X012417Y005096D01*
X012417Y004956D01*
X012347Y004886D01*
X012347Y004706D02*
X012067Y004706D01*
X011996Y004636D01*
X011996Y004496D01*
X012067Y004426D01*
X011996Y004246D02*
X011996Y003965D01*
X011996Y004246D02*
X012417Y004246D01*
X012347Y004426D02*
X012417Y004496D01*
X012417Y004636D01*
X012347Y004706D01*
X012986Y004706D02*
X013407Y004426D01*
X013407Y004706D02*
X012986Y004426D01*
X012986Y005026D02*
X013407Y005026D01*
X013407Y005166D02*
X013407Y004886D01*
X013996Y004886D02*
X014137Y005026D01*
X014137Y004956D02*
X014137Y005166D01*
X013996Y005166D02*
X014417Y005166D01*
X014417Y004956D01*
X014347Y004886D01*
X014207Y004886D01*
X014137Y004956D01*
X013996Y004706D02*
X014417Y004426D01*
X014417Y004706D02*
X013996Y004426D01*
X014996Y004579D02*
X015417Y004579D01*
X015417Y004399D02*
X015417Y004119D01*
X015417Y004259D02*
X014996Y004259D01*
X014996Y004579D02*
X015417Y004860D01*
X014996Y004860D01*
X014996Y005026D02*
X014996Y005166D01*
X014996Y005096D02*
X015417Y005096D01*
X015417Y005166D02*
X015417Y005026D01*
X015706Y003206D02*
X008706Y003206D01*
X008706Y002206D01*
X015706Y002206D01*
X010347Y005026D02*
X010067Y005026D01*
X010207Y005166D02*
X010207Y004886D01*
X007206Y002706D02*
X007211Y002642D01*
X007220Y002578D01*
X007233Y002514D01*
X007250Y002452D01*
X007271Y002391D01*
X007295Y002331D01*
X007323Y002273D01*
X007354Y002216D01*
X007389Y002162D01*
X007427Y002110D01*
X007469Y002060D01*
X007513Y002013D01*
X007560Y001969D01*
X007610Y001927D01*
X007662Y001889D01*
X007716Y001854D01*
X007773Y001823D01*
X007831Y001795D01*
X007891Y001771D01*
X007952Y001750D01*
X008014Y001733D01*
X008078Y001720D01*
X008142Y001711D01*
X008206Y001706D01*
X009067Y021465D02*
X009347Y021465D01*
X009417Y021536D01*
X009417Y021746D01*
X008996Y021746D01*
X008996Y021536D01*
X009067Y021465D01*
X008996Y021926D02*
X009417Y021926D01*
X009417Y022206D02*
X008996Y021926D01*
X008996Y022206D02*
X009417Y022206D01*
X009347Y022386D02*
X009417Y022456D01*
X009417Y022596D01*
X009347Y022666D01*
X009067Y022666D01*
X008996Y022596D01*
X008996Y022456D01*
X009067Y022386D01*
X009207Y022386D01*
X009207Y022526D01*
D15*
X016961Y020926D03*
X016961Y020146D03*
X016961Y019366D03*
X018321Y019766D03*
X018321Y020526D03*
X016961Y008926D03*
X016961Y008146D03*
X016961Y007366D03*
X018321Y007766D03*
X018321Y008526D03*
D16*
X018301Y008536D03*
X017981Y008536D03*
X018301Y007756D03*
X017301Y007376D03*
X016981Y007376D03*
X017241Y006896D03*
X017101Y006536D03*
X016981Y008916D03*
X017101Y018536D03*
X017241Y018896D03*
X017301Y019376D03*
X016981Y019376D03*
X017981Y020536D03*
X018301Y020536D03*
X018301Y019756D03*
X016981Y020916D03*
D17*
X017301Y020926D03*
X017301Y020146D03*
X016981Y020146D03*
X017981Y019766D03*
X017481Y018526D03*
X017221Y018526D03*
X017101Y018246D03*
X017361Y017626D03*
X017481Y017626D03*
X017821Y017306D03*
X017881Y017226D03*
X018161Y017306D03*
X017221Y017206D03*
X017121Y017206D03*
X017101Y017226D03*
X017301Y008926D03*
X017301Y008146D03*
X016981Y008146D03*
X017981Y007766D03*
X017481Y006526D03*
X017221Y006526D03*
X017101Y006246D03*
X017361Y005626D03*
X017481Y005626D03*
X017821Y005306D03*
X017881Y005226D03*
X018161Y005306D03*
X017221Y005206D03*
X017121Y005206D03*
X017101Y005226D03*
D18*
X016981Y006066D03*
X017821Y005746D03*
X017841Y005746D03*
X017861Y005746D03*
X017881Y005746D03*
X017901Y005746D03*
X017921Y005746D03*
X017941Y005746D03*
X017961Y005746D03*
X017981Y005746D03*
X018001Y005746D03*
X018021Y005746D03*
X018041Y005746D03*
X018061Y005746D03*
X018081Y005746D03*
X018041Y005586D03*
X018041Y006726D03*
X018021Y006726D03*
X018001Y006726D03*
X017981Y006726D03*
X017961Y006726D03*
X017941Y006726D03*
X017921Y006726D03*
X017901Y006726D03*
X017881Y006726D03*
X017861Y006726D03*
X017841Y006726D03*
X017821Y006726D03*
X018061Y006726D03*
X018081Y006726D03*
X017961Y007766D03*
X017321Y008146D03*
X017321Y008926D03*
X018041Y017586D03*
X018041Y017746D03*
X018021Y017746D03*
X018001Y017746D03*
X017981Y017746D03*
X017961Y017746D03*
X017941Y017746D03*
X017921Y017746D03*
X017901Y017746D03*
X017881Y017746D03*
X017861Y017746D03*
X017841Y017746D03*
X017821Y017746D03*
X018061Y017746D03*
X018081Y017746D03*
X018081Y018726D03*
X018061Y018726D03*
X018041Y018726D03*
X018021Y018726D03*
X018001Y018726D03*
X017981Y018726D03*
X017961Y018726D03*
X017941Y018726D03*
X017921Y018726D03*
X017901Y018726D03*
X017881Y018726D03*
X017861Y018726D03*
X017841Y018726D03*
X017821Y018726D03*
X017961Y019766D03*
X017321Y020146D03*
X017321Y020926D03*
X016981Y018066D03*
D19*
X017841Y017306D03*
X018141Y017306D03*
X018141Y017666D03*
X018121Y017666D03*
X018281Y019766D03*
X017281Y020146D03*
X017001Y020146D03*
X017001Y020926D03*
X017001Y008926D03*
X017001Y008146D03*
X017281Y008146D03*
X018281Y007766D03*
X018141Y005666D03*
X018121Y005666D03*
X018141Y005306D03*
X017841Y005306D03*
D20*
X018161Y005676D03*
X018001Y006096D03*
X017981Y006096D03*
X017281Y007376D03*
X017001Y007376D03*
X018001Y007756D03*
X018001Y008536D03*
X018281Y008536D03*
X017281Y008916D03*
X018161Y017676D03*
X018001Y018096D03*
X017981Y018096D03*
X017281Y019376D03*
X017001Y019376D03*
X018001Y019756D03*
X018001Y020536D03*
X018281Y020536D03*
X017281Y020916D03*
D21*
X017301Y018756D03*
X017581Y018756D03*
X017001Y018756D03*
X017061Y018076D03*
X017581Y017396D03*
X017581Y006756D03*
X017301Y006756D03*
X017001Y006756D03*
X017061Y006076D03*
X017581Y005396D03*
D22*
X017861Y005306D03*
X018121Y005306D03*
X017001Y006066D03*
X018021Y007766D03*
X018261Y007766D03*
X017261Y008146D03*
X017021Y008146D03*
X017021Y008926D03*
X017861Y017306D03*
X018121Y017306D03*
X017001Y018066D03*
X018021Y019766D03*
X018261Y019766D03*
X017261Y020146D03*
X017021Y020146D03*
X017021Y020926D03*
D23*
X018161Y018766D03*
X017341Y017486D03*
X017001Y017466D03*
X018161Y006766D03*
X017341Y005486D03*
X017001Y005466D03*
D24*
X017021Y007376D03*
X017261Y007376D03*
X018021Y008536D03*
X018261Y008536D03*
X017261Y008916D03*
X017261Y019376D03*
X017021Y019376D03*
X018021Y020536D03*
X018261Y020536D03*
X017261Y020916D03*
D25*
X017261Y018736D03*
X017321Y018736D03*
X017561Y018736D03*
X017021Y018736D03*
X017021Y017436D03*
X017541Y017416D03*
X018101Y018736D03*
X018121Y018736D03*
X018121Y006736D03*
X018101Y006736D03*
X017561Y006736D03*
X017321Y006736D03*
X017261Y006736D03*
X017021Y006736D03*
X017021Y005436D03*
X017541Y005416D03*
D26*
X017601Y005346D03*
X017021Y006066D03*
X017141Y007366D03*
X017161Y007366D03*
X017161Y008146D03*
X017141Y008146D03*
X017121Y008146D03*
X017101Y008146D03*
X017181Y008146D03*
X017181Y008926D03*
X017161Y008926D03*
X017141Y008926D03*
X017121Y008926D03*
X017101Y008926D03*
X018141Y008526D03*
X018161Y008526D03*
X018161Y007766D03*
X018141Y007766D03*
X018121Y007766D03*
X018101Y007766D03*
X018181Y007766D03*
X017601Y017346D03*
X017021Y018066D03*
X017141Y019366D03*
X017161Y019366D03*
X017161Y020146D03*
X017141Y020146D03*
X017121Y020146D03*
X017101Y020146D03*
X017181Y020146D03*
X017181Y020926D03*
X017161Y020926D03*
X017141Y020926D03*
X017121Y020926D03*
X017101Y020926D03*
X018141Y020526D03*
X018161Y020526D03*
X018161Y019766D03*
X018141Y019766D03*
X018121Y019766D03*
X018101Y019766D03*
X018181Y019766D03*
D27*
X018241Y019756D03*
X018041Y019756D03*
X018041Y020536D03*
X018241Y020536D03*
X017241Y020916D03*
X017041Y020916D03*
X017041Y019376D03*
X017241Y019376D03*
X017241Y008916D03*
X017041Y008916D03*
X018041Y008536D03*
X018241Y008536D03*
X018241Y007756D03*
X018041Y007756D03*
X017241Y007376D03*
X017041Y007376D03*
D28*
X017041Y008146D03*
X017061Y008146D03*
X017201Y008146D03*
X017221Y008146D03*
X017241Y008146D03*
X017221Y008926D03*
X017061Y008926D03*
X018061Y008526D03*
X018061Y007766D03*
X018221Y007766D03*
X017241Y006626D03*
X018101Y005306D03*
X018101Y017306D03*
X017241Y018626D03*
X018061Y019766D03*
X018221Y019766D03*
X018061Y020526D03*
X017241Y020146D03*
X017221Y020146D03*
X017201Y020146D03*
X017061Y020146D03*
X017041Y020146D03*
X017061Y020926D03*
X017221Y020926D03*
D29*
X017341Y018726D03*
X017521Y018726D03*
X017541Y018726D03*
X017061Y018726D03*
X017041Y018726D03*
X017041Y017426D03*
X017281Y017406D03*
X017301Y017426D03*
X017521Y017426D03*
X017521Y006726D03*
X017541Y006726D03*
X017341Y006726D03*
X017061Y006726D03*
X017041Y006726D03*
X017041Y005426D03*
X017281Y005406D03*
X017301Y005426D03*
X017521Y005426D03*
D30*
X017041Y006076D03*
X017041Y018076D03*
D31*
X017241Y017316D03*
X017601Y018816D03*
X017221Y019376D03*
X017201Y019376D03*
X017181Y019376D03*
X017121Y019376D03*
X017101Y019376D03*
X017081Y019376D03*
X017061Y019376D03*
X017081Y020156D03*
X017081Y020916D03*
X017201Y020916D03*
X018081Y020536D03*
X018101Y020536D03*
X018121Y020536D03*
X018181Y020536D03*
X018201Y020536D03*
X018221Y020536D03*
X018201Y019756D03*
X018081Y019756D03*
X017201Y008916D03*
X017081Y008916D03*
X017081Y008156D03*
X017081Y007376D03*
X017061Y007376D03*
X017101Y007376D03*
X017121Y007376D03*
X017181Y007376D03*
X017201Y007376D03*
X017221Y007376D03*
X017601Y006816D03*
X018081Y007756D03*
X018201Y007756D03*
X018201Y008536D03*
X018181Y008536D03*
X018221Y008536D03*
X018121Y008536D03*
X018101Y008536D03*
X018081Y008536D03*
X017241Y005316D03*
D32*
X017081Y005416D03*
X017061Y005416D03*
X017501Y005436D03*
X017501Y006716D03*
X017081Y006716D03*
X017081Y017416D03*
X017061Y017416D03*
X017501Y017436D03*
X017501Y018716D03*
X017081Y018716D03*
D33*
X017081Y018206D03*
X017081Y017926D03*
X017081Y006206D03*
X017081Y005926D03*
D34*
X017101Y005896D03*
X017121Y005876D03*
X017141Y005876D03*
X017161Y005876D03*
X017381Y005636D03*
X017441Y005636D03*
X017461Y005636D03*
X017201Y005196D03*
X017181Y005196D03*
X017161Y005196D03*
X017141Y005196D03*
X017881Y005396D03*
X018101Y005596D03*
X017881Y005956D03*
X017581Y006276D03*
X017561Y006276D03*
X017541Y006276D03*
X017521Y006276D03*
X017501Y006276D03*
X017481Y006276D03*
X017461Y006276D03*
X017441Y006276D03*
X017421Y006276D03*
X017401Y006276D03*
X017381Y006276D03*
X017361Y006276D03*
X017341Y006276D03*
X017321Y006276D03*
X017301Y006276D03*
X017281Y006276D03*
X017261Y006276D03*
X017241Y006276D03*
X017221Y006276D03*
X017141Y006256D03*
X017121Y006256D03*
X017121Y006516D03*
X017141Y006516D03*
X017161Y006516D03*
X017181Y006516D03*
X017201Y006516D03*
X017361Y006536D03*
X017381Y006516D03*
X017401Y006516D03*
X017421Y006516D03*
X017441Y006516D03*
X017461Y006516D03*
X017461Y006916D03*
X017441Y006916D03*
X017421Y006916D03*
X017401Y006916D03*
X017381Y006916D03*
X017361Y006916D03*
X017221Y006916D03*
X017201Y006916D03*
X017181Y006916D03*
X017161Y006916D03*
X017141Y006916D03*
X017121Y006916D03*
X017101Y006916D03*
X017141Y017196D03*
X017161Y017196D03*
X017181Y017196D03*
X017201Y017196D03*
X017381Y017636D03*
X017441Y017636D03*
X017461Y017636D03*
X017161Y017876D03*
X017141Y017876D03*
X017121Y017876D03*
X017101Y017896D03*
X017121Y018256D03*
X017141Y018256D03*
X017221Y018276D03*
X017241Y018276D03*
X017261Y018276D03*
X017281Y018276D03*
X017301Y018276D03*
X017321Y018276D03*
X017341Y018276D03*
X017361Y018276D03*
X017381Y018276D03*
X017401Y018276D03*
X017421Y018276D03*
X017441Y018276D03*
X017461Y018276D03*
X017481Y018276D03*
X017501Y018276D03*
X017521Y018276D03*
X017541Y018276D03*
X017561Y018276D03*
X017581Y018276D03*
X017461Y018516D03*
X017441Y018516D03*
X017421Y018516D03*
X017401Y018516D03*
X017381Y018516D03*
X017361Y018536D03*
X017201Y018516D03*
X017181Y018516D03*
X017161Y018516D03*
X017141Y018516D03*
X017121Y018516D03*
X017121Y018916D03*
X017101Y018916D03*
X017141Y018916D03*
X017161Y018916D03*
X017181Y018916D03*
X017201Y018916D03*
X017221Y018916D03*
X017361Y018916D03*
X017381Y018916D03*
X017401Y018916D03*
X017421Y018916D03*
X017441Y018916D03*
X017461Y018916D03*
X017881Y017956D03*
X018101Y017596D03*
X017881Y017396D03*
D35*
X017901Y017406D03*
X017921Y017426D03*
X018061Y017426D03*
X018081Y017186D03*
X017901Y017186D03*
X017821Y017906D03*
X017841Y017926D03*
X017861Y017946D03*
X017901Y017966D03*
X017921Y017986D03*
X017941Y018006D03*
X017961Y018026D03*
X018021Y018026D03*
X018041Y018006D03*
X018121Y017946D03*
X018141Y017926D03*
X018161Y017906D03*
X017601Y017866D03*
X017581Y017866D03*
X017561Y017866D03*
X017541Y017866D03*
X017521Y017866D03*
X017501Y017866D03*
X017481Y017866D03*
X017461Y017866D03*
X017441Y017866D03*
X017421Y017866D03*
X017401Y017866D03*
X017381Y017866D03*
X017361Y017866D03*
X017341Y017866D03*
X017321Y017866D03*
X017301Y017866D03*
X017281Y017866D03*
X017261Y017866D03*
X017241Y017866D03*
X017221Y017866D03*
X017201Y017866D03*
X017181Y017866D03*
X017401Y017646D03*
X017421Y017646D03*
X017601Y018266D03*
X017201Y018266D03*
X017181Y018266D03*
X017161Y018266D03*
X017481Y018926D03*
X018081Y018526D03*
X017481Y006926D03*
X017601Y006266D03*
X017601Y005866D03*
X017581Y005866D03*
X017561Y005866D03*
X017541Y005866D03*
X017521Y005866D03*
X017501Y005866D03*
X017481Y005866D03*
X017461Y005866D03*
X017441Y005866D03*
X017421Y005866D03*
X017401Y005866D03*
X017381Y005866D03*
X017361Y005866D03*
X017341Y005866D03*
X017321Y005866D03*
X017301Y005866D03*
X017281Y005866D03*
X017261Y005866D03*
X017241Y005866D03*
X017221Y005866D03*
X017201Y005866D03*
X017181Y005866D03*
X017401Y005646D03*
X017421Y005646D03*
X017821Y005906D03*
X017841Y005926D03*
X017861Y005946D03*
X017901Y005966D03*
X017921Y005986D03*
X017941Y006006D03*
X017961Y006026D03*
X018021Y006026D03*
X018041Y006006D03*
X018121Y005946D03*
X018141Y005926D03*
X018161Y005906D03*
X018061Y005426D03*
X017921Y005426D03*
X017901Y005406D03*
X017901Y005186D03*
X018081Y005186D03*
X017201Y006266D03*
X017181Y006266D03*
X017161Y006266D03*
X018081Y006526D03*
D36*
X017601Y007376D03*
X017581Y007376D03*
X017561Y007376D03*
X017541Y007376D03*
X017521Y007376D03*
X017501Y007376D03*
X017481Y007376D03*
X017461Y007376D03*
X017441Y007376D03*
X017421Y007376D03*
X017401Y007376D03*
X017381Y007376D03*
X017361Y007376D03*
X017341Y007376D03*
X017321Y007376D03*
X017681Y007756D03*
X017701Y007756D03*
X017721Y007756D03*
X017741Y007756D03*
X017761Y007756D03*
X017781Y007756D03*
X017801Y007756D03*
X017821Y007756D03*
X017841Y007756D03*
X017861Y007756D03*
X017881Y007756D03*
X017901Y007756D03*
X017921Y007756D03*
X017941Y007756D03*
X017601Y008156D03*
X017581Y008156D03*
X017561Y008156D03*
X017541Y008156D03*
X017521Y008156D03*
X017501Y008156D03*
X017481Y008156D03*
X017461Y008156D03*
X017441Y008156D03*
X017421Y008156D03*
X017401Y008156D03*
X017381Y008156D03*
X017361Y008156D03*
X017341Y008156D03*
X017681Y008536D03*
X017701Y008536D03*
X017721Y008536D03*
X017741Y008536D03*
X017761Y008536D03*
X017781Y008536D03*
X017801Y008536D03*
X017821Y008536D03*
X017841Y008536D03*
X017861Y008536D03*
X017881Y008536D03*
X017901Y008536D03*
X017921Y008536D03*
X017941Y008536D03*
X017961Y008536D03*
X017601Y008916D03*
X017581Y008916D03*
X017561Y008916D03*
X017541Y008916D03*
X017521Y008916D03*
X017501Y008916D03*
X017481Y008916D03*
X017461Y008916D03*
X017441Y008916D03*
X017421Y008916D03*
X017401Y008916D03*
X017381Y008916D03*
X017361Y008916D03*
X017341Y008916D03*
X017241Y005536D03*
X017241Y017536D03*
X017321Y019376D03*
X017341Y019376D03*
X017361Y019376D03*
X017381Y019376D03*
X017401Y019376D03*
X017421Y019376D03*
X017441Y019376D03*
X017461Y019376D03*
X017481Y019376D03*
X017501Y019376D03*
X017521Y019376D03*
X017541Y019376D03*
X017561Y019376D03*
X017581Y019376D03*
X017601Y019376D03*
X017681Y019756D03*
X017701Y019756D03*
X017721Y019756D03*
X017741Y019756D03*
X017761Y019756D03*
X017781Y019756D03*
X017801Y019756D03*
X017821Y019756D03*
X017841Y019756D03*
X017861Y019756D03*
X017881Y019756D03*
X017901Y019756D03*
X017921Y019756D03*
X017941Y019756D03*
X017601Y020156D03*
X017581Y020156D03*
X017561Y020156D03*
X017541Y020156D03*
X017521Y020156D03*
X017501Y020156D03*
X017481Y020156D03*
X017461Y020156D03*
X017441Y020156D03*
X017421Y020156D03*
X017401Y020156D03*
X017381Y020156D03*
X017361Y020156D03*
X017341Y020156D03*
X017681Y020536D03*
X017701Y020536D03*
X017721Y020536D03*
X017741Y020536D03*
X017761Y020536D03*
X017781Y020536D03*
X017801Y020536D03*
X017821Y020536D03*
X017841Y020536D03*
X017861Y020536D03*
X017881Y020536D03*
X017901Y020536D03*
X017921Y020536D03*
X017941Y020536D03*
X017961Y020536D03*
X017601Y020916D03*
X017581Y020916D03*
X017561Y020916D03*
X017541Y020916D03*
X017521Y020916D03*
X017501Y020916D03*
X017481Y020916D03*
X017461Y020916D03*
X017441Y020916D03*
X017421Y020916D03*
X017401Y020916D03*
X017381Y020916D03*
X017361Y020916D03*
X017341Y020916D03*
D37*
X017281Y018746D03*
X018141Y018746D03*
X017321Y017446D03*
X017261Y017386D03*
X017561Y017406D03*
X017281Y006746D03*
X018141Y006746D03*
X017561Y005406D03*
X017321Y005446D03*
X017261Y005386D03*
D38*
X017621Y008146D03*
X017641Y008146D03*
X017661Y008146D03*
X017661Y020146D03*
X017641Y020146D03*
X017621Y020146D03*
D39*
X017821Y018936D03*
X017841Y018936D03*
X017861Y018936D03*
X017881Y018936D03*
X017901Y018936D03*
X017921Y018936D03*
X017941Y018936D03*
X017961Y018936D03*
X017981Y018936D03*
X018001Y018936D03*
X018021Y018936D03*
X018041Y018936D03*
X018061Y018936D03*
X018081Y018936D03*
X018061Y018516D03*
X018041Y018516D03*
X018021Y018516D03*
X018001Y018516D03*
X017981Y018516D03*
X017961Y018516D03*
X017941Y018516D03*
X017921Y018516D03*
X017901Y018516D03*
X017881Y018516D03*
X017861Y018516D03*
X017841Y018516D03*
X017821Y018516D03*
X017821Y018336D03*
X017841Y018336D03*
X017861Y018336D03*
X017881Y018336D03*
X017901Y018336D03*
X017921Y018336D03*
X017941Y018336D03*
X017961Y018336D03*
X017981Y018336D03*
X018001Y018336D03*
X018021Y018336D03*
X018041Y018336D03*
X018061Y018336D03*
X018081Y018336D03*
X018101Y018336D03*
X018121Y018336D03*
X018141Y018336D03*
X018161Y018336D03*
X018261Y018336D03*
X018281Y018336D03*
X018301Y018336D03*
X018321Y018336D03*
X018321Y018156D03*
X018301Y018156D03*
X018281Y018156D03*
X018261Y018156D03*
X018241Y018156D03*
X018221Y018156D03*
X018201Y018156D03*
X018181Y018156D03*
X018161Y018156D03*
X018141Y018156D03*
X018121Y018156D03*
X018101Y018156D03*
X018081Y018156D03*
X018061Y018156D03*
X018041Y018156D03*
X018021Y018156D03*
X017961Y018156D03*
X017941Y018156D03*
X017921Y018156D03*
X017901Y018156D03*
X017881Y018156D03*
X017861Y018156D03*
X017841Y018156D03*
X017821Y018156D03*
X018061Y017996D03*
X018081Y017976D03*
X018101Y017956D03*
X018101Y017736D03*
X018081Y017576D03*
X018061Y017576D03*
X018041Y017436D03*
X018021Y017436D03*
X018001Y017436D03*
X017981Y017436D03*
X017961Y017436D03*
X017941Y017436D03*
X018081Y017416D03*
X018061Y017176D03*
X018041Y017176D03*
X018021Y017156D03*
X018001Y017156D03*
X017981Y017156D03*
X017961Y017156D03*
X017941Y017176D03*
X017921Y017176D03*
X017921Y006936D03*
X017901Y006936D03*
X017881Y006936D03*
X017861Y006936D03*
X017841Y006936D03*
X017821Y006936D03*
X017941Y006936D03*
X017961Y006936D03*
X017981Y006936D03*
X018001Y006936D03*
X018021Y006936D03*
X018041Y006936D03*
X018061Y006936D03*
X018081Y006936D03*
X018061Y006516D03*
X018041Y006516D03*
X018021Y006516D03*
X018001Y006516D03*
X017981Y006516D03*
X017961Y006516D03*
X017941Y006516D03*
X017921Y006516D03*
X017901Y006516D03*
X017881Y006516D03*
X017861Y006516D03*
X017841Y006516D03*
X017821Y006516D03*
X017821Y006336D03*
X017841Y006336D03*
X017861Y006336D03*
X017881Y006336D03*
X017901Y006336D03*
X017921Y006336D03*
X017941Y006336D03*
X017961Y006336D03*
X017981Y006336D03*
X018001Y006336D03*
X018021Y006336D03*
X018041Y006336D03*
X018061Y006336D03*
X018081Y006336D03*
X018101Y006336D03*
X018121Y006336D03*
X018141Y006336D03*
X018161Y006336D03*
X018261Y006336D03*
X018281Y006336D03*
X018301Y006336D03*
X018321Y006336D03*
X018321Y006156D03*
X018301Y006156D03*
X018281Y006156D03*
X018261Y006156D03*
X018241Y006156D03*
X018221Y006156D03*
X018201Y006156D03*
X018181Y006156D03*
X018161Y006156D03*
X018141Y006156D03*
X018121Y006156D03*
X018101Y006156D03*
X018081Y006156D03*
X018061Y006156D03*
X018041Y006156D03*
X018021Y006156D03*
X017961Y006156D03*
X017941Y006156D03*
X017921Y006156D03*
X017901Y006156D03*
X017881Y006156D03*
X017861Y006156D03*
X017841Y006156D03*
X017821Y006156D03*
X018061Y005996D03*
X018081Y005976D03*
X018101Y005956D03*
X018101Y005736D03*
X018081Y005576D03*
X018061Y005576D03*
X018041Y005436D03*
X018021Y005436D03*
X018001Y005436D03*
X017981Y005436D03*
X017961Y005436D03*
X017941Y005436D03*
X018081Y005416D03*
X018061Y005176D03*
X018041Y005176D03*
X018021Y005156D03*
X018001Y005156D03*
X017981Y005156D03*
X017961Y005156D03*
X017941Y005176D03*
X017921Y005176D03*
D40*
X004379Y023406D03*
X004379Y023416D03*
X004379Y023426D03*
X004389Y023456D03*
X004389Y023466D03*
X004389Y023476D03*
X004389Y023486D03*
X004389Y023496D03*
X004399Y023556D03*
X004399Y023566D03*
X004399Y023576D03*
X004399Y023586D03*
X004399Y023596D03*
X004399Y023606D03*
X004399Y023856D03*
X004399Y023866D03*
X004399Y023876D03*
X004399Y023886D03*
X004399Y023896D03*
X004399Y023906D03*
X004389Y023966D03*
X004389Y023976D03*
X004389Y023986D03*
X004389Y023996D03*
X004379Y024036D03*
X004379Y024046D03*
X003659Y024186D03*
X003479Y023576D03*
X003479Y023566D03*
X003399Y023186D03*
X003389Y023176D03*
X003099Y023266D03*
X003099Y023556D03*
X002679Y023506D03*
X002669Y023316D03*
X002249Y023266D03*
X001859Y023576D03*
X001859Y023586D03*
X002359Y022396D03*
X002989Y022396D03*
X003169Y022476D03*
X003039Y025036D03*
X000969Y024066D03*
X000969Y024056D03*
X000959Y023996D03*
X000939Y023826D03*
X000939Y023816D03*
X000939Y023806D03*
X000939Y023796D03*
X000939Y023786D03*
X000939Y023776D03*
X000939Y023766D03*
X000939Y023756D03*
X000939Y023746D03*
X000939Y023736D03*
X000939Y023726D03*
X000939Y023716D03*
X000939Y023706D03*
X000939Y023696D03*
X000939Y023686D03*
X000939Y023676D03*
X000939Y023666D03*
X000939Y023656D03*
X000939Y023646D03*
X000939Y023636D03*
X000949Y021676D03*
D41*
X000949Y021686D03*
X000949Y021696D03*
X000949Y021706D03*
X000949Y021716D03*
X000949Y021726D03*
X000949Y021736D03*
X000949Y021746D03*
X000949Y021756D03*
X000949Y021766D03*
X000949Y021776D03*
X000949Y021786D03*
X000949Y021796D03*
X000949Y021806D03*
X000949Y021816D03*
X000949Y021826D03*
X000949Y021836D03*
X000949Y021846D03*
X000949Y021856D03*
X000949Y021866D03*
X000949Y021876D03*
X000949Y021886D03*
X000949Y021896D03*
X000949Y021906D03*
X000949Y021916D03*
X000949Y021926D03*
X000949Y021936D03*
X000949Y021946D03*
X000949Y021956D03*
X000949Y021966D03*
X000949Y021976D03*
X000949Y021986D03*
X000949Y021996D03*
X000949Y022006D03*
X000949Y022016D03*
X000949Y022026D03*
X000949Y022036D03*
X000949Y022046D03*
X000949Y022056D03*
X000949Y022066D03*
X000949Y022076D03*
X000949Y022086D03*
X000949Y022096D03*
X000949Y022106D03*
X000949Y022116D03*
X000949Y022126D03*
X000949Y022136D03*
X000949Y022146D03*
X000949Y022156D03*
X000949Y022166D03*
X000949Y022176D03*
X000949Y022186D03*
X000949Y022196D03*
X000949Y022206D03*
X000949Y022216D03*
X000949Y022226D03*
X000949Y022236D03*
X000949Y022246D03*
X000949Y022256D03*
X000949Y022266D03*
X000949Y022276D03*
X000949Y022286D03*
X000949Y022296D03*
X000949Y022306D03*
X000949Y022316D03*
X000949Y022326D03*
X000949Y022336D03*
X000949Y022346D03*
X000949Y022356D03*
X000949Y022366D03*
X000949Y022376D03*
X000949Y022386D03*
X000949Y022396D03*
X000949Y022406D03*
X000949Y022416D03*
X000949Y022426D03*
X000949Y022436D03*
X000949Y022446D03*
X000949Y022456D03*
X000949Y022466D03*
X000949Y022476D03*
X000949Y022486D03*
X000949Y022496D03*
X000949Y022506D03*
X000949Y022516D03*
X000949Y022526D03*
X000949Y022536D03*
X000949Y022546D03*
X000949Y022556D03*
X000949Y022566D03*
X000949Y022576D03*
X000949Y022586D03*
X000949Y022596D03*
X000949Y022606D03*
X000949Y022616D03*
X000949Y023466D03*
X000949Y023476D03*
X000949Y023486D03*
X000949Y023496D03*
X000949Y023506D03*
X000949Y023516D03*
X001009Y024216D03*
X001009Y024226D03*
X001019Y024246D03*
X001019Y024256D03*
X001019Y024266D03*
X001029Y024276D03*
X001029Y024286D03*
X001029Y024296D03*
X001039Y024316D03*
X001049Y024336D03*
X001049Y024346D03*
X001059Y024366D03*
X001699Y024196D03*
X001879Y023616D03*
X001969Y023156D03*
X002669Y023296D03*
X002669Y023536D03*
X003099Y023546D03*
X003469Y023596D03*
X003469Y023606D03*
X003369Y023156D03*
X004299Y023126D03*
X004309Y023156D03*
X004319Y023186D03*
X004329Y023206D03*
X004329Y023216D03*
X004329Y023226D03*
X004339Y023246D03*
X004339Y023256D03*
X004359Y023326D03*
X004359Y024136D03*
X004349Y024176D03*
X004339Y024206D03*
X004339Y024216D03*
X004329Y024236D03*
X004329Y024246D03*
X004329Y024256D03*
X004319Y024276D03*
X004309Y024296D03*
X004309Y024306D03*
X004299Y024336D03*
X003039Y025026D03*
X002229Y022456D03*
X002339Y022406D03*
D42*
X002569Y022296D03*
X002679Y021836D03*
X003099Y023216D03*
X002979Y023296D03*
X003099Y023396D03*
X003099Y023406D03*
X003099Y023416D03*
X003099Y023426D03*
X002979Y023526D03*
X002749Y023356D03*
X002369Y023296D03*
X002359Y023286D03*
X002249Y023376D03*
X002249Y023426D03*
X002249Y023436D03*
X002359Y023536D03*
X002119Y023526D03*
X002119Y023296D03*
X001319Y023486D03*
X001309Y023456D03*
X001299Y023426D03*
X001769Y024296D03*
X004039Y023446D03*
D43*
X003699Y022946D03*
X003689Y022936D03*
X003679Y022926D03*
X004029Y022656D03*
X004009Y022626D03*
X003999Y022616D03*
X003989Y022606D03*
X003979Y022596D03*
X002679Y021846D03*
X001669Y022926D03*
X001659Y022936D03*
X001349Y022616D03*
X001359Y022606D03*
X000989Y023166D03*
X000989Y023176D03*
X000989Y023186D03*
X001729Y024176D03*
X001309Y024796D03*
X001319Y024806D03*
X001329Y024816D03*
X002219Y024846D03*
X002299Y025026D03*
X002669Y024866D03*
X003039Y024986D03*
X002669Y025616D03*
X003999Y024836D03*
X004009Y024826D03*
X004019Y024816D03*
X004029Y024806D03*
X004039Y024786D03*
X004049Y024776D03*
X002659Y023586D03*
D44*
X002669Y023176D03*
X002669Y022656D03*
X002669Y021856D03*
X001679Y022326D03*
X001059Y022896D03*
X001669Y025126D03*
X003689Y025116D03*
X003679Y022336D03*
D45*
X002679Y021866D03*
X003269Y023806D03*
X003489Y024096D03*
X003499Y025226D03*
X001849Y025226D03*
X001119Y022726D03*
D46*
X002669Y022696D03*
X002679Y021876D03*
X001949Y025266D03*
D47*
X001969Y024076D03*
X002679Y021886D03*
D48*
X002669Y021896D03*
X002669Y022736D03*
D49*
X002669Y021906D03*
D50*
X002679Y021916D03*
X002669Y022786D03*
D51*
X002669Y022806D03*
X002679Y021926D03*
X002669Y025536D03*
D52*
X002669Y025526D03*
X002679Y024376D03*
X002669Y022826D03*
X002679Y021936D03*
D53*
X002674Y021946D03*
X002674Y022856D03*
D54*
X002669Y021956D03*
D55*
X002674Y021966D03*
X002674Y022916D03*
X002664Y024406D03*
D56*
X002674Y024696D03*
X002674Y022936D03*
X002674Y021976D03*
D57*
X002679Y021986D03*
X002669Y022966D03*
X002679Y024616D03*
X002679Y024626D03*
D58*
X002684Y024576D03*
X002684Y024566D03*
X002654Y024426D03*
X002674Y025466D03*
X002674Y022986D03*
X002674Y021996D03*
D59*
X002674Y022006D03*
X002674Y023016D03*
X002684Y024486D03*
X002684Y024496D03*
X002684Y024506D03*
X002674Y025456D03*
D60*
X002674Y023056D03*
X002674Y022016D03*
D61*
X002674Y022026D03*
X002674Y023086D03*
X002674Y023936D03*
D62*
X002674Y023126D03*
X002674Y022036D03*
D63*
X002674Y022046D03*
D64*
X002674Y022056D03*
D65*
X002669Y022066D03*
D66*
X002679Y022076D03*
D67*
X002674Y022086D03*
X002674Y023776D03*
X002674Y023786D03*
X002674Y025376D03*
D68*
X002674Y022096D03*
D69*
X002674Y022106D03*
X002674Y025356D03*
D70*
X002674Y025346D03*
X002674Y023986D03*
X002674Y022116D03*
D71*
X002674Y022126D03*
X002674Y023996D03*
D72*
X002674Y025326D03*
X002674Y022136D03*
D73*
X002674Y022146D03*
X002674Y024006D03*
D74*
X002669Y022156D03*
D75*
X002674Y022726D03*
X002054Y022166D03*
X003294Y022166D03*
X002684Y024336D03*
D76*
X002019Y025286D03*
X002669Y025576D03*
X002009Y022176D03*
X003329Y022176D03*
D77*
X003384Y022186D03*
X001964Y022186D03*
X003394Y025266D03*
X002674Y025586D03*
D78*
X003419Y025256D03*
X001939Y022196D03*
X001159Y022636D03*
X001159Y022646D03*
D79*
X001164Y022626D03*
X003404Y022196D03*
D80*
X003429Y022206D03*
X002669Y022686D03*
X001909Y022206D03*
X001149Y022666D03*
X001889Y024096D03*
D81*
X001134Y022696D03*
X001884Y022216D03*
D82*
X001139Y022686D03*
X002679Y023676D03*
X002689Y024316D03*
X001899Y025246D03*
X003459Y022216D03*
D83*
X003484Y022226D03*
X002074Y023806D03*
X001124Y022716D03*
X001864Y022226D03*
D84*
X001844Y022236D03*
X001114Y022736D03*
X001844Y024116D03*
X001824Y025216D03*
X003054Y024726D03*
X003514Y025216D03*
X003524Y022246D03*
X003504Y022236D03*
D85*
X003544Y022256D03*
X001824Y022246D03*
X001804Y022256D03*
X001104Y022766D03*
X003544Y025206D03*
D86*
X003564Y025196D03*
X003074Y024736D03*
X002344Y024906D03*
X001784Y025196D03*
X001764Y025186D03*
X002674Y023666D03*
X001784Y022266D03*
X001094Y022786D03*
X001094Y022796D03*
X003564Y022266D03*
D87*
X002674Y023866D03*
X002274Y024736D03*
X001734Y025166D03*
X003074Y024746D03*
X003594Y025176D03*
X001764Y022276D03*
X001084Y022816D03*
D88*
X002244Y023356D03*
X001804Y024316D03*
X002614Y022276D03*
X002724Y022276D03*
D89*
X003579Y022276D03*
X001819Y024126D03*
X001749Y025176D03*
X003579Y025186D03*
X001089Y022806D03*
D90*
X001079Y022826D03*
X001079Y022836D03*
X001729Y022296D03*
X001749Y022286D03*
X003599Y022286D03*
X003539Y024116D03*
X003609Y025166D03*
X002339Y024916D03*
X001719Y025156D03*
D91*
X001784Y024306D03*
X002084Y023476D03*
X002074Y023456D03*
X002074Y023446D03*
X002074Y023376D03*
X002074Y023366D03*
X002084Y023356D03*
X002084Y023346D03*
X002414Y023356D03*
X002414Y023366D03*
X002414Y023376D03*
X002424Y023396D03*
X002424Y023406D03*
X002424Y023416D03*
X002424Y023426D03*
X002414Y023456D03*
X002414Y023466D03*
X002404Y023486D03*
X002924Y023446D03*
X002924Y023436D03*
X002924Y023426D03*
X002924Y023416D03*
X002924Y023406D03*
X002924Y023396D03*
X002924Y023386D03*
X002924Y023376D03*
X002924Y023366D03*
X002934Y023356D03*
X002934Y023346D03*
X002934Y023466D03*
X002934Y023476D03*
X003104Y023456D03*
X003264Y023466D03*
X003264Y023476D03*
X003274Y023436D03*
X003274Y023426D03*
X003274Y023416D03*
X003274Y023406D03*
X003274Y023396D03*
X003264Y023366D03*
X003264Y023356D03*
X003254Y023336D03*
X003094Y023676D03*
X003704Y023926D03*
X003044Y025116D03*
X002594Y022286D03*
D92*
X002749Y022286D03*
X003099Y023366D03*
X003269Y023376D03*
X003269Y023386D03*
X003269Y023446D03*
X003269Y023456D03*
X003569Y024306D03*
X002679Y024806D03*
X002419Y023446D03*
X002419Y023436D03*
X002419Y023386D03*
X002249Y023366D03*
X002069Y023386D03*
X002069Y023396D03*
X002069Y023406D03*
X002069Y023416D03*
X002069Y023426D03*
X002069Y023436D03*
X002079Y023466D03*
D93*
X002094Y023326D03*
X002104Y023316D03*
X002114Y023306D03*
X002384Y023306D03*
X002384Y023516D03*
X002374Y023526D03*
X002674Y023856D03*
X002964Y023516D03*
X002954Y023506D03*
X003104Y023436D03*
X003094Y023386D03*
X002964Y023306D03*
X002954Y023316D03*
X003224Y023296D03*
X003234Y023306D03*
X003244Y023506D03*
X003234Y023516D03*
X003224Y023526D03*
X002774Y022296D03*
X002274Y025146D03*
X002674Y025626D03*
D94*
X002334Y024926D03*
X002264Y024746D03*
X001704Y025146D03*
X003084Y024756D03*
X003624Y025156D03*
X002664Y023166D03*
X003614Y022296D03*
X003634Y022306D03*
X001074Y022846D03*
D95*
X001069Y022856D03*
X001069Y022866D03*
X001709Y022306D03*
X002669Y023656D03*
X001799Y024136D03*
X002329Y024936D03*
X003639Y025146D03*
X003649Y022316D03*
D96*
X002544Y022306D03*
X001854Y022866D03*
X002154Y023276D03*
X001654Y023916D03*
X001454Y023726D03*
X001444Y023716D03*
X001434Y023706D03*
X001424Y023686D03*
X001414Y023676D03*
X001404Y023656D03*
X001394Y023646D03*
X001384Y023626D03*
X001304Y023396D03*
X003874Y023746D03*
X003884Y023736D03*
X003894Y023726D03*
X003904Y023706D03*
X003914Y023696D03*
X003924Y023686D03*
X003934Y023666D03*
X003944Y023656D03*
X003954Y023636D03*
D97*
X003959Y023626D03*
X003969Y023616D03*
X003969Y023606D03*
X003979Y023596D03*
X003989Y023576D03*
X003999Y023556D03*
X004009Y023526D03*
X004039Y023396D03*
X003949Y023646D03*
X003929Y023676D03*
X003699Y023916D03*
X003619Y024276D03*
X003049Y025106D03*
X001749Y024286D03*
X001429Y023696D03*
X001409Y023666D03*
X001389Y023636D03*
X001379Y023616D03*
X001369Y023606D03*
X001369Y023596D03*
X001339Y023536D03*
X001299Y023406D03*
X002669Y022616D03*
X002799Y022306D03*
X003489Y022866D03*
X002989Y023286D03*
D98*
X003664Y022326D03*
X001994Y023686D03*
X002254Y024756D03*
X001684Y025136D03*
X003084Y024766D03*
X003664Y025136D03*
X003674Y025126D03*
X001694Y022316D03*
X001064Y022876D03*
X001064Y022886D03*
D99*
X001549Y023146D03*
X001559Y023136D03*
X001569Y023126D03*
X001579Y023116D03*
X001589Y023106D03*
X001599Y023096D03*
X001609Y023086D03*
X001639Y022816D03*
X001649Y022806D03*
X001659Y022796D03*
X002519Y022316D03*
X002829Y022316D03*
X003469Y023366D03*
X003729Y023086D03*
X003719Y023076D03*
X003709Y023066D03*
X003699Y023056D03*
X003769Y023116D03*
X003779Y023126D03*
X003789Y023136D03*
X003799Y023146D03*
X003809Y023156D03*
X003819Y023166D03*
X003829Y023176D03*
X003839Y023186D03*
X004029Y023366D03*
X003829Y023786D03*
X003819Y023796D03*
X003809Y023806D03*
X003799Y023816D03*
X003639Y024256D03*
X003049Y025096D03*
X001729Y024266D03*
X001529Y023806D03*
X001519Y023796D03*
X001509Y023786D03*
X003699Y022806D03*
X003709Y022816D03*
X003719Y022826D03*
D100*
X003684Y022796D03*
X003674Y022786D03*
X003664Y022776D03*
X003654Y022766D03*
X003854Y023196D03*
X003864Y023206D03*
X003874Y023216D03*
X003884Y023226D03*
X003894Y023236D03*
X003904Y023246D03*
X003784Y023826D03*
X002494Y022326D03*
X001704Y022756D03*
X001694Y022766D03*
X001684Y022776D03*
X001674Y022786D03*
X001534Y023156D03*
X001524Y023166D03*
X001514Y023176D03*
X001504Y023186D03*
X001494Y023196D03*
X001484Y023206D03*
X001474Y023216D03*
X001464Y023226D03*
X001454Y023236D03*
X001314Y023366D03*
X001544Y023816D03*
D101*
X001559Y023826D03*
X001659Y023906D03*
X001719Y024256D03*
X002279Y025126D03*
X002669Y024816D03*
X002829Y024906D03*
X003689Y023906D03*
X003769Y023836D03*
X003939Y023276D03*
X003929Y023266D03*
X003919Y023256D03*
X003639Y022756D03*
X003629Y022746D03*
X003619Y022736D03*
X003589Y022716D03*
X003099Y023226D03*
X003099Y023596D03*
X002249Y023226D03*
X001739Y022726D03*
X001729Y022736D03*
X001719Y022746D03*
X001439Y023246D03*
X001429Y023256D03*
X001419Y023266D03*
X001319Y023356D03*
X002849Y022326D03*
D102*
X003694Y022346D03*
X003334Y023816D03*
X003564Y024126D03*
X003094Y024776D03*
X002674Y025606D03*
X002324Y024946D03*
X001654Y025116D03*
X002014Y023816D03*
X002674Y023646D03*
X001664Y022336D03*
X001054Y022906D03*
X001054Y022916D03*
X003704Y025106D03*
D103*
X003654Y024246D03*
X003664Y024236D03*
X003754Y023846D03*
X004024Y023356D03*
X003974Y023306D03*
X003964Y023296D03*
X003954Y023286D03*
X003604Y022726D03*
X003574Y022706D03*
X002474Y022336D03*
X001784Y022696D03*
X001754Y022716D03*
X001824Y022876D03*
X001404Y023276D03*
X001394Y023286D03*
X001364Y023306D03*
X001354Y023316D03*
X001344Y023326D03*
X001334Y023336D03*
X001324Y023346D03*
X001574Y023836D03*
X002244Y023596D03*
X003044Y025086D03*
D104*
X003669Y024226D03*
X003739Y023856D03*
X004019Y023346D03*
X004009Y023336D03*
X003999Y023326D03*
X003989Y023316D03*
X003519Y022876D03*
X003559Y022696D03*
X003549Y022686D03*
X003529Y022676D03*
X003519Y022666D03*
X002869Y022336D03*
X001839Y022656D03*
X001809Y022676D03*
X001799Y022686D03*
X001769Y022706D03*
X001859Y023306D03*
X001849Y023346D03*
X001839Y023356D03*
X001379Y023296D03*
X001589Y023846D03*
X001609Y023856D03*
D105*
X001049Y022936D03*
X001049Y022926D03*
X001639Y022356D03*
X001649Y022346D03*
X002249Y024766D03*
X002319Y024956D03*
X001639Y025106D03*
X001629Y025096D03*
X001609Y025086D03*
X003019Y024916D03*
X003719Y025096D03*
X003729Y025086D03*
X003709Y022356D03*
D106*
X003494Y022646D03*
X003504Y022656D03*
X003474Y022636D03*
X003464Y022626D03*
X003484Y023326D03*
X003494Y023346D03*
X003494Y023356D03*
X003094Y023236D03*
X002244Y023236D03*
X002244Y023586D03*
X001854Y023336D03*
X001854Y023326D03*
X001854Y023316D03*
X001864Y023296D03*
X001864Y023286D03*
X001874Y023276D03*
X001874Y023266D03*
X001824Y022666D03*
X001854Y022646D03*
X001864Y022636D03*
X001884Y022626D03*
X001914Y022606D03*
X002454Y022346D03*
X002704Y024296D03*
X003044Y025076D03*
X002274Y025116D03*
X001704Y024246D03*
X001694Y024236D03*
D107*
X001689Y024226D03*
X001829Y023466D03*
X001829Y023456D03*
X001829Y023446D03*
X001879Y023256D03*
X001889Y023246D03*
X001889Y023236D03*
X001899Y022616D03*
X001929Y022596D03*
X001949Y022586D03*
X002889Y022346D03*
X003409Y022596D03*
X003429Y022606D03*
X003449Y022616D03*
X003469Y023286D03*
X003469Y023296D03*
X003479Y023306D03*
X003479Y023316D03*
X003489Y023336D03*
X003099Y023586D03*
X003479Y023856D03*
X003679Y024216D03*
D108*
X003674Y023896D03*
X003504Y023456D03*
X003394Y022586D03*
X003374Y022576D03*
X003364Y022566D03*
X002434Y022356D03*
X002004Y022556D03*
X001984Y022566D03*
X001964Y022576D03*
X001904Y023216D03*
X001894Y023226D03*
X001834Y023476D03*
X001834Y023486D03*
X001864Y023856D03*
X001674Y023896D03*
D109*
X001839Y023506D03*
X001839Y023496D03*
X001799Y022886D03*
X002909Y022356D03*
X003319Y022546D03*
X003339Y022556D03*
X003449Y023256D03*
X003459Y023276D03*
X003499Y023466D03*
X003499Y023476D03*
X003099Y023576D03*
X003099Y023246D03*
X003679Y024206D03*
X003039Y025066D03*
X002669Y024826D03*
X002279Y025106D03*
X001689Y024216D03*
D110*
X001774Y024146D03*
X002244Y024776D03*
X001594Y025076D03*
X003094Y024786D03*
X003744Y025076D03*
X002674Y023186D03*
X001624Y022366D03*
X001044Y022946D03*
X003724Y022366D03*
X003734Y022376D03*
D111*
X003279Y022526D03*
X003429Y023226D03*
X003439Y023236D03*
X003499Y023496D03*
X002669Y023456D03*
X001929Y023186D03*
X001919Y023196D03*
X001849Y023526D03*
X001849Y023536D03*
X002049Y022536D03*
X002069Y022526D03*
X002079Y022516D03*
X002409Y022366D03*
X003039Y025056D03*
D112*
X003494Y023486D03*
X003454Y023266D03*
X003444Y023246D03*
X003304Y022536D03*
X002934Y022366D03*
X002244Y023246D03*
X002244Y023576D03*
X001844Y023516D03*
X001914Y023206D03*
X002024Y022546D03*
D113*
X001609Y022376D03*
X001599Y022386D03*
X001039Y022956D03*
X001039Y022966D03*
X002319Y024966D03*
X001579Y025066D03*
X001569Y025056D03*
X002669Y023636D03*
X003579Y024136D03*
X003019Y024926D03*
X003759Y025066D03*
X003749Y022386D03*
D114*
X003264Y022516D03*
X002954Y022376D03*
X002394Y022376D03*
X002104Y022506D03*
X002244Y023256D03*
X002244Y023566D03*
X001854Y023546D03*
X002674Y023486D03*
X002674Y023476D03*
X003424Y023216D03*
X003494Y023506D03*
X003494Y023516D03*
X003494Y023526D03*
X003494Y023536D03*
X003674Y024196D03*
X002284Y025096D03*
D115*
X002284Y025086D03*
X002664Y024836D03*
X001894Y023846D03*
X001684Y023886D03*
X001854Y023566D03*
X001954Y023166D03*
X002244Y023556D03*
X002674Y023496D03*
X002664Y023336D03*
X002664Y023326D03*
X002174Y022476D03*
X002154Y022486D03*
X002374Y022386D03*
X003194Y022486D03*
X003484Y023556D03*
D116*
X003489Y023546D03*
X003449Y023846D03*
X003659Y023886D03*
X003419Y023206D03*
X003409Y023196D03*
X003099Y023256D03*
X003099Y023566D03*
X002669Y023466D03*
X002669Y023346D03*
X002969Y022386D03*
X003219Y022496D03*
X003239Y022506D03*
X002129Y022496D03*
X001939Y023176D03*
X001859Y023556D03*
X001689Y024206D03*
X003039Y025046D03*
D117*
X003024Y024936D03*
X003104Y024796D03*
X003774Y025056D03*
X003784Y025046D03*
X002664Y023626D03*
X002674Y023196D03*
X001584Y022396D03*
X001034Y022976D03*
X002234Y024786D03*
X001554Y025046D03*
X003774Y022406D03*
X003764Y022396D03*
D118*
X003789Y022416D03*
X003799Y022426D03*
X002669Y023616D03*
X002699Y024306D03*
X002659Y024896D03*
X002309Y024976D03*
X001549Y025036D03*
X001759Y024156D03*
X001029Y023006D03*
X001029Y022996D03*
X001029Y022986D03*
X001559Y022416D03*
X001569Y022406D03*
X003819Y025016D03*
X003809Y025026D03*
X003799Y025036D03*
D119*
X004334Y024226D03*
X004344Y024196D03*
X004344Y024186D03*
X004354Y024166D03*
X004354Y024156D03*
X004354Y024146D03*
X004364Y024126D03*
X004364Y024116D03*
X004364Y024106D03*
X004364Y024096D03*
X004374Y024086D03*
X004374Y024076D03*
X004374Y024066D03*
X004374Y024056D03*
X004384Y024026D03*
X004384Y024016D03*
X004384Y024006D03*
X004394Y023956D03*
X004394Y023946D03*
X004394Y023936D03*
X004394Y023926D03*
X004394Y023916D03*
X004404Y023846D03*
X004404Y023836D03*
X004404Y023826D03*
X004404Y023816D03*
X004404Y023806D03*
X004404Y023796D03*
X004404Y023786D03*
X004404Y023776D03*
X004404Y023766D03*
X004404Y023756D03*
X004404Y023746D03*
X004404Y023736D03*
X004404Y023726D03*
X004404Y023716D03*
X004404Y023706D03*
X004404Y023696D03*
X004404Y023686D03*
X004404Y023676D03*
X004404Y023666D03*
X004404Y023656D03*
X004404Y023646D03*
X004404Y023636D03*
X004404Y023626D03*
X004404Y023616D03*
X004394Y023546D03*
X004394Y023536D03*
X004394Y023526D03*
X004394Y023516D03*
X004394Y023506D03*
X004384Y023446D03*
X004384Y023436D03*
X004374Y023396D03*
X004374Y023386D03*
X004374Y023376D03*
X004364Y023366D03*
X004364Y023356D03*
X004364Y023346D03*
X004364Y023336D03*
X004354Y023316D03*
X004354Y023306D03*
X004354Y023296D03*
X004354Y023286D03*
X004344Y023276D03*
X004344Y023266D03*
X004334Y023236D03*
X003474Y023586D03*
X003384Y023166D03*
X003144Y022466D03*
X003004Y022406D03*
X002664Y023306D03*
X002674Y023516D03*
X002674Y023526D03*
X002244Y023546D03*
X001874Y023606D03*
X001864Y023596D03*
X000974Y024076D03*
X000974Y024086D03*
X000974Y024096D03*
X000974Y024106D03*
X000984Y024116D03*
X000984Y024126D03*
X000984Y024136D03*
X000984Y024146D03*
X000994Y024156D03*
X000994Y024166D03*
X000994Y024176D03*
X000994Y024186D03*
X001004Y024196D03*
X001004Y024206D03*
X001014Y024236D03*
X000964Y024046D03*
X000964Y024036D03*
X000964Y024026D03*
X000964Y024016D03*
X000964Y024006D03*
X000954Y023986D03*
X000954Y023976D03*
X000954Y023966D03*
X000954Y023956D03*
X000954Y023946D03*
X000954Y023936D03*
X000944Y023926D03*
X000944Y023916D03*
X000944Y023906D03*
X000944Y023896D03*
X000944Y023886D03*
X000944Y023876D03*
X000944Y023866D03*
X000944Y023856D03*
X000944Y023846D03*
X000944Y023836D03*
X000944Y023626D03*
X000944Y023616D03*
X000944Y023606D03*
X000944Y023596D03*
X000944Y023586D03*
X000944Y023576D03*
X000944Y023566D03*
X000944Y023556D03*
X000944Y023546D03*
X000944Y023536D03*
X000944Y023526D03*
X002204Y022466D03*
X002284Y025076D03*
D120*
X002294Y025066D03*
X002664Y024846D03*
X003044Y025016D03*
X004244Y024466D03*
X004264Y024416D03*
X004274Y024396D03*
X004274Y024386D03*
X004284Y024376D03*
X004284Y024366D03*
X004294Y024356D03*
X004294Y024346D03*
X004304Y024326D03*
X004304Y024316D03*
X004314Y024286D03*
X004324Y024266D03*
X004324Y023196D03*
X004314Y023176D03*
X004314Y023166D03*
X004304Y023146D03*
X004304Y023136D03*
X004294Y023116D03*
X004294Y023106D03*
X004284Y023096D03*
X004284Y023086D03*
X004274Y023076D03*
X004274Y023066D03*
X004264Y023046D03*
X004254Y023016D03*
X003464Y023616D03*
X002674Y023546D03*
X002674Y022626D03*
X002324Y022416D03*
X002304Y022426D03*
X003024Y022416D03*
X003114Y022456D03*
X001034Y024306D03*
X001044Y024326D03*
X001054Y024356D03*
X001064Y024376D03*
X001064Y024386D03*
X001074Y024396D03*
X001074Y024406D03*
X001084Y024416D03*
X001084Y024426D03*
X001094Y024446D03*
X000954Y023456D03*
X000954Y023446D03*
X000954Y023436D03*
X000954Y023426D03*
X000954Y023416D03*
X000954Y023406D03*
X000954Y023396D03*
D121*
X001024Y023026D03*
X001024Y023016D03*
X001534Y022436D03*
X001544Y022426D03*
X002674Y022646D03*
X002674Y023206D03*
X003814Y022436D03*
X003824Y022446D03*
X003104Y024806D03*
X003024Y024946D03*
X002234Y024796D03*
X001534Y025026D03*
X001524Y025016D03*
X001514Y025006D03*
X003834Y025006D03*
X003844Y024996D03*
D122*
X004219Y024516D03*
X004219Y024506D03*
X004229Y024496D03*
X004229Y024486D03*
X004239Y024476D03*
X004249Y024456D03*
X004249Y024446D03*
X004259Y024436D03*
X004259Y024426D03*
X004269Y024406D03*
X003649Y024176D03*
X003119Y024896D03*
X003119Y024906D03*
X002289Y025056D03*
X002209Y024896D03*
X001889Y023626D03*
X002669Y023556D03*
X002669Y023286D03*
X002669Y023276D03*
X002259Y022446D03*
X003039Y022426D03*
X004219Y022946D03*
X004229Y022966D03*
X004239Y022976D03*
X004239Y022986D03*
X004249Y022996D03*
X004249Y023006D03*
X004259Y023026D03*
X004259Y023036D03*
X004269Y023056D03*
X001139Y024536D03*
X001129Y024516D03*
X001119Y024506D03*
X001119Y024496D03*
X001109Y024486D03*
X001109Y024476D03*
X001099Y024466D03*
X001099Y024456D03*
X001089Y024436D03*
X000959Y023386D03*
X000959Y023376D03*
X000959Y023366D03*
X000959Y023356D03*
D123*
X000964Y023346D03*
X000964Y023336D03*
X000964Y023326D03*
X000964Y023316D03*
X001704Y023876D03*
X001894Y023636D03*
X001994Y023146D03*
X002284Y022436D03*
X003054Y022436D03*
X003084Y022446D03*
X003454Y023626D03*
X003414Y023836D03*
X003644Y023876D03*
X004214Y024526D03*
X004204Y024536D03*
X004204Y024546D03*
X004194Y024556D03*
X004184Y024566D03*
X004184Y024576D03*
X004174Y024586D03*
X004174Y024596D03*
X004164Y024606D03*
X003044Y025006D03*
X004224Y022956D03*
X004214Y022936D03*
X004204Y022926D03*
X004204Y022916D03*
X004194Y022906D03*
X004194Y022896D03*
X004184Y022886D03*
X004174Y022866D03*
X004164Y022846D03*
X001174Y024596D03*
X001164Y024586D03*
X001164Y024576D03*
X001154Y024566D03*
X001154Y024556D03*
X001144Y024546D03*
X001134Y024526D03*
D124*
X001479Y024976D03*
X001489Y024986D03*
X001499Y024996D03*
X002229Y024806D03*
X002309Y024986D03*
X002659Y024886D03*
X003109Y024816D03*
X003849Y024986D03*
X003859Y022476D03*
X003849Y022466D03*
X003839Y022456D03*
X001519Y022446D03*
X001509Y022456D03*
X001499Y022466D03*
X001019Y023036D03*
X001019Y023046D03*
D125*
X001014Y023056D03*
X001014Y023066D03*
X001464Y022496D03*
X001474Y022486D03*
X001484Y022476D03*
X002224Y024816D03*
X002304Y024996D03*
X003034Y024956D03*
X003604Y024146D03*
X003874Y024966D03*
X003864Y024976D03*
X001464Y024966D03*
X001454Y024956D03*
X001444Y024946D03*
D126*
X001439Y024936D03*
X001749Y024166D03*
X002669Y023606D03*
X002679Y023216D03*
X003399Y023676D03*
X003109Y024826D03*
X003889Y024956D03*
X003899Y024946D03*
X003909Y024936D03*
X003919Y024926D03*
X003889Y022506D03*
X003879Y022496D03*
X003869Y022486D03*
X001449Y022506D03*
X001009Y023076D03*
X001009Y023086D03*
D127*
X001004Y023096D03*
X001004Y023106D03*
X001404Y022556D03*
X001414Y022546D03*
X001424Y022536D03*
X001434Y022526D03*
X001444Y022516D03*
X001964Y023826D03*
X002224Y024826D03*
X002304Y025006D03*
X002664Y024876D03*
X003034Y024966D03*
X003114Y024836D03*
X003924Y024916D03*
X003934Y024906D03*
X003944Y024896D03*
X003954Y024886D03*
X003384Y023826D03*
X003414Y023666D03*
X003934Y022546D03*
X003924Y022536D03*
X003914Y022526D03*
X003904Y022516D03*
X001424Y024926D03*
X001414Y024916D03*
X001404Y024906D03*
D128*
X001399Y024896D03*
X001389Y024886D03*
X001379Y024876D03*
X001369Y024866D03*
X002219Y024836D03*
X001929Y023676D03*
X001699Y022896D03*
X001389Y022576D03*
X001399Y022566D03*
X000999Y023116D03*
X000999Y023126D03*
X000999Y023136D03*
X002669Y023596D03*
X003619Y024156D03*
X003109Y024846D03*
X003659Y022906D03*
X003649Y022896D03*
X003639Y022886D03*
X003949Y022566D03*
X003939Y022556D03*
X003959Y022576D03*
D129*
X003974Y022586D03*
X003664Y022916D03*
X003624Y023866D03*
X003994Y024846D03*
X003984Y024856D03*
X003974Y024866D03*
X003964Y024876D03*
X003114Y024856D03*
X003034Y024976D03*
X002304Y025016D03*
X001364Y024856D03*
X001354Y024846D03*
X001344Y024836D03*
X001334Y024826D03*
X001724Y023866D03*
X001674Y022916D03*
X001684Y022906D03*
X001364Y022596D03*
X001374Y022586D03*
X000994Y023146D03*
X000994Y023156D03*
X002674Y023226D03*
D130*
X002674Y023236D03*
X002674Y022636D03*
X003434Y023656D03*
X003704Y022956D03*
X004034Y022666D03*
X004044Y022676D03*
X004054Y022686D03*
X004024Y022646D03*
X004014Y022636D03*
X004064Y024756D03*
X004054Y024766D03*
X004034Y024796D03*
X003114Y024866D03*
X002214Y024856D03*
X001304Y024786D03*
X001294Y024776D03*
X001274Y024746D03*
X001264Y024736D03*
X001914Y023666D03*
X001624Y022966D03*
X001634Y022956D03*
X001644Y022946D03*
X000984Y023196D03*
X000984Y023206D03*
X000984Y023216D03*
D131*
X001154Y022656D03*
X001924Y025256D03*
D132*
X002279Y024726D03*
X002679Y023156D03*
X002669Y022666D03*
X003519Y024106D03*
X001099Y022776D03*
D133*
X001144Y022676D03*
X003464Y024086D03*
X003444Y025246D03*
D134*
X003479Y025236D03*
X003039Y024716D03*
X002309Y024716D03*
X001869Y025236D03*
X001869Y024106D03*
X001129Y022706D03*
X002669Y022676D03*
D135*
X002669Y023246D03*
X001909Y023656D03*
X001619Y022976D03*
X000979Y023226D03*
X000979Y023236D03*
X001249Y024716D03*
X001259Y024726D03*
X001279Y024756D03*
X001289Y024766D03*
X003439Y023646D03*
X003729Y022976D03*
X003719Y022966D03*
X004059Y022696D03*
X004069Y022706D03*
X004079Y022716D03*
X004089Y022736D03*
X004099Y022746D03*
X004119Y022776D03*
X004089Y024726D03*
X004079Y024736D03*
X004069Y024746D03*
D136*
X002694Y024326D03*
X002674Y022706D03*
D137*
X002674Y022716D03*
X002674Y023876D03*
X003384Y024066D03*
X003324Y025286D03*
D138*
X003044Y024996D03*
X003114Y024876D03*
X002664Y024856D03*
X002294Y025036D03*
X002214Y024876D03*
X002214Y024866D03*
X001244Y024706D03*
X001234Y024696D03*
X001224Y024686D03*
X001224Y024676D03*
X001214Y024666D03*
X001204Y024646D03*
X001904Y023646D03*
X002664Y023576D03*
X003444Y023636D03*
X003634Y024166D03*
X004144Y024646D03*
X004124Y024676D03*
X004114Y024686D03*
X004114Y024696D03*
X004104Y024706D03*
X004094Y024716D03*
X004154Y022826D03*
X004144Y022816D03*
X004134Y022796D03*
X004124Y022786D03*
X004114Y022766D03*
X004104Y022756D03*
X004084Y022726D03*
X000974Y023246D03*
X000974Y023256D03*
X000974Y023266D03*
D139*
X001109Y022756D03*
X001109Y022746D03*
X001809Y025206D03*
X002669Y025596D03*
D140*
X002684Y024346D03*
X002674Y022746D03*
D141*
X002674Y022756D03*
X002674Y025556D03*
D142*
X002669Y022766D03*
D143*
X002674Y022776D03*
D144*
X002674Y022796D03*
D145*
X002669Y023256D03*
X002669Y023266D03*
X002669Y023566D03*
X001929Y023836D03*
X001719Y024186D03*
X001189Y024616D03*
X001189Y024626D03*
X001199Y024636D03*
X001209Y024656D03*
X001179Y024606D03*
X002209Y024886D03*
X002289Y025046D03*
X003119Y024886D03*
X004129Y024666D03*
X004139Y024656D03*
X004149Y024636D03*
X004159Y024626D03*
X004159Y024616D03*
X004179Y022876D03*
X004169Y022856D03*
X004159Y022836D03*
X004139Y022806D03*
X000969Y023276D03*
X000969Y023286D03*
X000969Y023296D03*
X000969Y023306D03*
D146*
X002674Y022816D03*
D147*
X002244Y023606D03*
X001664Y023036D03*
X001654Y023046D03*
X001644Y023056D03*
X001634Y023066D03*
X001624Y023076D03*
X001594Y022856D03*
X001604Y022846D03*
X001614Y022836D03*
X001624Y022826D03*
X001314Y023376D03*
X001464Y023736D03*
X001474Y023746D03*
X001484Y023756D03*
X001494Y023766D03*
X001504Y023776D03*
X003664Y023026D03*
X003674Y023036D03*
X003684Y023046D03*
X003744Y023096D03*
X003754Y023106D03*
X003764Y022866D03*
X003754Y022856D03*
X003744Y022846D03*
X003734Y022836D03*
X004034Y023376D03*
X003854Y023766D03*
X003844Y023776D03*
D148*
X002674Y022836D03*
D149*
X002674Y022846D03*
X002674Y025516D03*
D150*
X002279Y025136D03*
X001739Y024276D03*
X001309Y023386D03*
X001679Y023026D03*
X001689Y023016D03*
X001709Y023006D03*
X001719Y022996D03*
X001729Y022986D03*
X001569Y022886D03*
X001569Y022876D03*
X001579Y022866D03*
X002329Y023276D03*
X003009Y023276D03*
X003189Y023276D03*
X003099Y023606D03*
X003649Y023016D03*
X003639Y023006D03*
X003629Y022996D03*
X003619Y022986D03*
X003769Y022876D03*
X004039Y023386D03*
X003899Y023716D03*
X003869Y023756D03*
X003629Y024266D03*
D151*
X002674Y022866D03*
D152*
X002674Y022876D03*
X002674Y023906D03*
X002674Y025506D03*
D153*
X002674Y022886D03*
D154*
X002674Y022896D03*
D155*
X002674Y022906D03*
D156*
X002674Y022926D03*
D157*
X002674Y022946D03*
X002674Y023916D03*
X002664Y024416D03*
D158*
X002679Y024636D03*
X002679Y024646D03*
X002679Y024656D03*
X002679Y024666D03*
X002669Y022956D03*
D159*
X002674Y022976D03*
X002684Y024606D03*
D160*
X001434Y022986D03*
X003914Y022986D03*
D161*
X002669Y022996D03*
X002679Y024556D03*
D162*
X002684Y024546D03*
X002684Y024536D03*
X002674Y023006D03*
D163*
X002674Y023026D03*
X002674Y024446D03*
X002684Y024456D03*
X002684Y024466D03*
X002684Y024476D03*
D164*
X002669Y023036D03*
D165*
X002674Y023046D03*
X002674Y025446D03*
D166*
X002669Y023066D03*
D167*
X002669Y023076D03*
D168*
X002669Y023096D03*
D169*
X002674Y023106D03*
X002674Y025426D03*
D170*
X002669Y023116D03*
D171*
X002669Y023136D03*
D172*
X002924Y023146D03*
D173*
X003099Y023206D03*
X002239Y023206D03*
X001929Y023436D03*
D174*
X002134Y023536D03*
X002254Y023416D03*
X002244Y023406D03*
X002244Y023396D03*
X002244Y023386D03*
X002134Y023286D03*
X002244Y023216D03*
X002984Y023536D03*
X003204Y023536D03*
X003214Y023286D03*
X003984Y023586D03*
X003994Y023566D03*
X004004Y023546D03*
X004004Y023536D03*
X004014Y023516D03*
X004014Y023506D03*
X004024Y023496D03*
X004024Y023486D03*
X004024Y023476D03*
X004034Y023466D03*
X004034Y023456D03*
X004044Y023436D03*
X004044Y023426D03*
X004044Y023416D03*
X004044Y023406D03*
X003604Y024286D03*
X001364Y023586D03*
X001354Y023576D03*
X001354Y023566D03*
X001344Y023556D03*
X001344Y023546D03*
X001334Y023526D03*
X001334Y023516D03*
X001324Y023506D03*
X001324Y023496D03*
X001314Y023476D03*
X001314Y023466D03*
X001304Y023446D03*
X001304Y023436D03*
X001304Y023416D03*
D175*
X001649Y023926D03*
X002089Y023496D03*
X002089Y023486D03*
X002099Y023506D03*
X002109Y023516D03*
X002249Y023446D03*
X002389Y023506D03*
X002399Y023496D03*
X002409Y023476D03*
X002409Y023346D03*
X002399Y023336D03*
X002399Y023326D03*
X002389Y023316D03*
X002089Y023336D03*
X002929Y023456D03*
X002939Y023486D03*
X002949Y023496D03*
X003099Y023446D03*
X003099Y023376D03*
X003239Y023316D03*
X003249Y023326D03*
X003259Y023346D03*
X003259Y023486D03*
X003249Y023496D03*
X002949Y023326D03*
X002939Y023336D03*
X003589Y024296D03*
D176*
X003559Y024316D03*
X003709Y023936D03*
X003609Y023446D03*
X002619Y023356D03*
D177*
X002674Y023356D03*
X001814Y024326D03*
X003604Y023366D03*
D178*
X002254Y023456D03*
D179*
X002239Y023616D03*
X001639Y023936D03*
X003099Y023616D03*
X003099Y023466D03*
D180*
X002959Y023686D03*
X002669Y024396D03*
D181*
X002669Y023716D03*
X002669Y023706D03*
X002669Y023696D03*
X002669Y025366D03*
D182*
X002674Y023756D03*
X002674Y023746D03*
X002674Y023736D03*
X002674Y023726D03*
D183*
X002669Y023766D03*
D184*
X002669Y023796D03*
D185*
X002674Y023886D03*
D186*
X002674Y023896D03*
D187*
X002679Y023926D03*
D188*
X002674Y023946D03*
D189*
X002674Y023956D03*
X002674Y025396D03*
D190*
X002674Y023966D03*
D191*
X002679Y023976D03*
D192*
X002674Y024016D03*
D193*
X002674Y024026D03*
D194*
X002674Y024036D03*
D195*
X002674Y024046D03*
D196*
X002679Y024356D03*
X002099Y024056D03*
X002669Y025546D03*
D197*
X003299Y024056D03*
D198*
X002009Y024066D03*
X002669Y025566D03*
D199*
X003419Y024076D03*
D200*
X001924Y024086D03*
D201*
X002674Y024366D03*
D202*
X002669Y024386D03*
D203*
X002669Y024436D03*
X002679Y024516D03*
X002679Y024526D03*
D204*
X002679Y024586D03*
X002679Y024596D03*
D205*
X002679Y024676D03*
X002679Y024686D03*
D206*
X002679Y024706D03*
X002669Y025486D03*
D207*
X001989Y025276D03*
X003359Y025276D03*
D208*
X003274Y025296D03*
X002064Y025296D03*
D209*
X002674Y025306D03*
D210*
X002669Y025316D03*
D211*
X002669Y025336D03*
D212*
X002674Y025386D03*
D213*
X002669Y025406D03*
D214*
X002669Y025416D03*
D215*
X002674Y025436D03*
D216*
X002674Y025476D03*
D217*
X002669Y025496D03*
M02*
