G75*
G70*
%OFA0B0*%
%FSLAX24Y24*%
%IPPOS*%
%LPD*%
%AMOC8*
5,1,8,0,0,1.08239X$1,22.5*
%
%ADD10C,0.0000*%
%ADD11C,0.0110*%
%ADD12C,0.0060*%
%ADD13C,0.0080*%
%ADD14R,0.0020X0.0040*%
%ADD15R,0.0020X0.0180*%
%ADD16R,0.0020X0.0160*%
%ADD17R,0.0020X0.0080*%
%ADD18R,0.0020X0.0240*%
%ADD19R,0.0020X0.0220*%
%ADD20R,0.0020X0.0460*%
%ADD21R,0.0020X0.0280*%
%ADD22R,0.0020X0.0440*%
%ADD23R,0.0020X0.0260*%
%ADD24R,0.0020X0.0500*%
%ADD25R,0.0020X0.0360*%
%ADD26R,0.0020X0.0300*%
%ADD27R,0.0020X0.0320*%
%ADD28R,0.0020X0.0520*%
%ADD29R,0.0020X0.0420*%
%ADD30R,0.0020X0.0340*%
%ADD31R,0.0020X0.0540*%
%ADD32R,0.0020X0.0200*%
%ADD33R,0.0020X0.0140*%
%ADD34R,0.0020X0.0120*%
%ADD35R,0.0020X0.0060*%
%ADD36R,0.0020X0.0480*%
%ADD37R,0.0020X0.1600*%
%ADD38R,0.0020X0.0100*%
%ADD39C,0.0050*%
%ADD40R,0.0320X0.0010*%
%ADD41R,0.0340X0.0010*%
%ADD42R,0.0120X0.0010*%
%ADD43R,0.0420X0.0010*%
%ADD44R,0.0560X0.0010*%
%ADD45R,0.0680X0.0010*%
%ADD46R,0.0780X0.0010*%
%ADD47R,0.0880X0.0010*%
%ADD48R,0.0960X0.0010*%
%ADD49R,0.1020X0.0010*%
%ADD50R,0.1100X0.0010*%
%ADD51R,0.1160X0.0010*%
%ADD52R,0.1220X0.0010*%
%ADD53R,0.1290X0.0010*%
%ADD54R,0.1360X0.0010*%
%ADD55R,0.1410X0.0010*%
%ADD56R,0.1450X0.0010*%
%ADD57R,0.1500X0.0010*%
%ADD58R,0.1530X0.0010*%
%ADD59R,0.1570X0.0010*%
%ADD60R,0.1630X0.0010*%
%ADD61R,0.1670X0.0010*%
%ADD62R,0.1710X0.0010*%
%ADD63R,0.1750X0.0010*%
%ADD64R,0.1790X0.0010*%
%ADD65R,0.1820X0.0010*%
%ADD66R,0.1860X0.0010*%
%ADD67R,0.1890X0.0010*%
%ADD68R,0.1930X0.0010*%
%ADD69R,0.1950X0.0010*%
%ADD70R,0.1990X0.0010*%
%ADD71R,0.2030X0.0010*%
%ADD72R,0.2050X0.0010*%
%ADD73R,0.2090X0.0010*%
%ADD74R,0.2120X0.0010*%
%ADD75R,0.0910X0.0010*%
%ADD76R,0.0860X0.0010*%
%ADD77R,0.0790X0.0010*%
%ADD78R,0.0760X0.0010*%
%ADD79R,0.0770X0.0010*%
%ADD80R,0.0740X0.0010*%
%ADD81R,0.0710X0.0010*%
%ADD82R,0.0720X0.0010*%
%ADD83R,0.0690X0.0010*%
%ADD84R,0.0670X0.0010*%
%ADD85R,0.0650X0.0010*%
%ADD86R,0.0630X0.0010*%
%ADD87R,0.0610X0.0010*%
%ADD88R,0.0050X0.0010*%
%ADD89R,0.0620X0.0010*%
%ADD90R,0.0600X0.0010*%
%ADD91R,0.0090X0.0010*%
%ADD92R,0.0080X0.0010*%
%ADD93R,0.0110X0.0010*%
%ADD94R,0.0590X0.0010*%
%ADD95R,0.0580X0.0010*%
%ADD96R,0.0150X0.0010*%
%ADD97R,0.0140X0.0010*%
%ADD98R,0.0570X0.0010*%
%ADD99R,0.0180X0.0010*%
%ADD100R,0.0190X0.0010*%
%ADD101R,0.0200X0.0010*%
%ADD102R,0.0550X0.0010*%
%ADD103R,0.0210X0.0010*%
%ADD104R,0.0220X0.0010*%
%ADD105R,0.0540X0.0010*%
%ADD106R,0.0230X0.0010*%
%ADD107R,0.0240X0.0010*%
%ADD108R,0.0250X0.0010*%
%ADD109R,0.0260X0.0010*%
%ADD110R,0.0530X0.0010*%
%ADD111R,0.0280X0.0010*%
%ADD112R,0.0270X0.0010*%
%ADD113R,0.0520X0.0010*%
%ADD114R,0.0290X0.0010*%
%ADD115R,0.0310X0.0010*%
%ADD116R,0.0300X0.0010*%
%ADD117R,0.0510X0.0010*%
%ADD118R,0.0500X0.0010*%
%ADD119R,0.0330X0.0010*%
%ADD120R,0.0350X0.0010*%
%ADD121R,0.0490X0.0010*%
%ADD122R,0.0360X0.0010*%
%ADD123R,0.0370X0.0010*%
%ADD124R,0.0480X0.0010*%
%ADD125R,0.0470X0.0010*%
%ADD126R,0.0460X0.0010*%
%ADD127R,0.0450X0.0010*%
%ADD128R,0.0440X0.0010*%
%ADD129R,0.0430X0.0010*%
%ADD130R,0.0410X0.0010*%
%ADD131R,0.0750X0.0010*%
%ADD132R,0.0640X0.0010*%
%ADD133R,0.0730X0.0010*%
%ADD134R,0.0700X0.0010*%
%ADD135R,0.0400X0.0010*%
%ADD136R,0.0830X0.0010*%
%ADD137R,0.0870X0.0010*%
%ADD138R,0.0390X0.0010*%
%ADD139R,0.0660X0.0010*%
%ADD140R,0.0990X0.0010*%
%ADD141R,0.1010X0.0010*%
%ADD142R,0.1040X0.0010*%
%ADD143R,0.1070X0.0010*%
%ADD144R,0.1130X0.0010*%
%ADD145R,0.0380X0.0010*%
%ADD146R,0.1190X0.0010*%
%ADD147R,0.0170X0.0010*%
%ADD148R,0.1250X0.0010*%
%ADD149R,0.1270X0.0010*%
%ADD150R,0.0160X0.0010*%
%ADD151R,0.1310X0.0010*%
%ADD152R,0.1330X0.0010*%
%ADD153R,0.1350X0.0010*%
%ADD154R,0.1370X0.0010*%
%ADD155R,0.1390X0.0010*%
%ADD156R,0.1430X0.0010*%
%ADD157R,0.1470X0.0010*%
%ADD158R,0.1480X0.0010*%
%ADD159R,0.1510X0.0010*%
%ADD160R,0.0030X0.0010*%
%ADD161R,0.1540X0.0010*%
%ADD162R,0.1550X0.0010*%
%ADD163R,0.1590X0.0010*%
%ADD164R,0.1600X0.0010*%
%ADD165R,0.1610X0.0010*%
%ADD166R,0.1640X0.0010*%
%ADD167R,0.1660X0.0010*%
%ADD168R,0.1680X0.0010*%
%ADD169R,0.1690X0.0010*%
%ADD170R,0.1700X0.0010*%
%ADD171R,0.1720X0.0010*%
%ADD172R,0.1230X0.0010*%
%ADD173R,0.0020X0.0010*%
%ADD174R,0.0130X0.0010*%
%ADD175R,0.0100X0.0010*%
%ADD176R,0.0040X0.0010*%
%ADD177R,0.0010X0.0010*%
%ADD178R,0.0070X0.0010*%
%ADD179R,0.0060X0.0010*%
%ADD180R,0.1340X0.0010*%
%ADD181R,0.1920X0.0010*%
%ADD182R,0.1910X0.0010*%
%ADD183R,0.1900X0.0010*%
%ADD184R,0.1880X0.0010*%
%ADD185R,0.1050X0.0010*%
%ADD186R,0.1210X0.0010*%
%ADD187R,0.1580X0.0010*%
%ADD188R,0.1730X0.0010*%
%ADD189R,0.1810X0.0010*%
%ADD190R,0.1870X0.0010*%
%ADD191R,0.1960X0.0010*%
%ADD192R,0.2130X0.0010*%
%ADD193R,0.2170X0.0010*%
%ADD194R,0.2190X0.0010*%
%ADD195R,0.2210X0.0010*%
%ADD196R,0.1080X0.0010*%
%ADD197R,0.1000X0.0010*%
%ADD198R,0.0940X0.0010*%
%ADD199R,0.0800X0.0010*%
%ADD200R,0.0810X0.0010*%
%ADD201R,0.1170X0.0010*%
%ADD202R,0.1280X0.0010*%
%ADD203R,0.1560X0.0010*%
%ADD204R,0.1520X0.0010*%
%ADD205R,0.1460X0.0010*%
%ADD206R,0.1440X0.0010*%
%ADD207R,0.0820X0.0010*%
%ADD208R,0.0930X0.0010*%
%ADD209R,0.2110X0.0010*%
%ADD210R,0.2080X0.0010*%
%ADD211R,0.2020X0.0010*%
%ADD212R,0.1850X0.0010*%
%ADD213R,0.1780X0.0010*%
%ADD214R,0.1740X0.0010*%
%ADD215R,0.1650X0.0010*%
%ADD216R,0.1490X0.0010*%
%ADD217R,0.1380X0.0010*%
D10*
X000206Y000206D02*
X000206Y025803D01*
X019177Y025803D01*
X019177Y000206D01*
X000206Y000206D01*
D11*
X008968Y000761D02*
X009361Y000761D01*
X008968Y001155D01*
X008968Y001254D01*
X009066Y001352D01*
X009263Y001352D01*
X009361Y001254D01*
X009809Y001352D02*
X009809Y000761D01*
X010006Y000761D02*
X009612Y000761D01*
X010006Y001155D02*
X009809Y001352D01*
X010257Y001254D02*
X010257Y000860D01*
X010355Y000761D01*
X010552Y000761D01*
X010651Y000860D01*
X010257Y001254D01*
X010355Y001352D01*
X010552Y001352D01*
X010651Y001254D01*
X010651Y000860D01*
X010901Y000761D02*
X011295Y000761D01*
X010901Y001155D01*
X010901Y001254D01*
X011000Y001352D01*
X011197Y001352D01*
X011295Y001254D01*
X011546Y001155D02*
X011546Y000761D01*
X011546Y001057D02*
X011940Y001057D01*
X011940Y001155D02*
X011743Y001352D01*
X011546Y001155D01*
X011940Y001155D02*
X011940Y000761D01*
X012191Y000761D02*
X012584Y000761D01*
X012191Y001155D01*
X012191Y001254D01*
X012289Y001352D01*
X012486Y001352D01*
X012584Y001254D01*
X012835Y001254D02*
X012933Y001352D01*
X013130Y001352D01*
X013229Y001254D01*
X013480Y001254D02*
X013578Y001352D01*
X013775Y001352D01*
X013873Y001254D01*
X014124Y001155D02*
X014223Y001155D01*
X014518Y001155D01*
X014518Y000958D02*
X014124Y000958D01*
X014223Y000761D02*
X014223Y001352D01*
X014419Y001352D02*
X014419Y000761D01*
X014769Y000761D02*
X014769Y001155D01*
X014966Y001352D01*
X015162Y001155D01*
X015162Y000761D01*
X015413Y000860D02*
X015512Y000761D01*
X015709Y000761D01*
X015807Y000860D01*
X015807Y001254D01*
X015709Y001352D01*
X015512Y001352D01*
X015413Y001254D01*
X015162Y001057D02*
X014769Y001057D01*
X013873Y000761D02*
X013480Y001155D01*
X013480Y001254D01*
X013480Y000761D02*
X013873Y000761D01*
X013229Y000761D02*
X012835Y001155D01*
X012835Y001254D01*
X012835Y000761D02*
X013229Y000761D01*
X016058Y001057D02*
X016156Y000958D01*
X016451Y000958D01*
X016451Y000761D02*
X016451Y001352D01*
X016156Y001352D01*
X016058Y001254D01*
X016058Y001057D01*
X015951Y012961D02*
X015951Y013552D01*
X015656Y013552D01*
X015558Y013454D01*
X015558Y013257D01*
X015656Y013158D01*
X015951Y013158D01*
X015755Y013158D02*
X015558Y012961D01*
X015307Y013060D02*
X015209Y012961D01*
X015012Y012961D01*
X014913Y013158D02*
X015307Y013158D01*
X015307Y013060D02*
X015307Y013257D01*
X015209Y013355D01*
X015012Y013355D01*
X014913Y013257D01*
X014913Y013158D01*
X014662Y013355D02*
X014466Y012961D01*
X014269Y013355D01*
X014018Y013355D02*
X013919Y013355D01*
X013919Y012961D01*
X013821Y012961D02*
X014018Y012961D01*
X013588Y012961D02*
X013293Y012961D01*
X013194Y013060D01*
X013293Y013158D01*
X013490Y013158D01*
X013588Y013257D01*
X013490Y013355D01*
X013194Y013355D01*
X012944Y013355D02*
X012845Y013355D01*
X012845Y012961D01*
X012747Y012961D02*
X012944Y012961D01*
X012514Y013060D02*
X012415Y012961D01*
X012219Y012961D01*
X012120Y013060D01*
X012120Y013257D01*
X012219Y013355D01*
X012415Y013355D01*
X012514Y013257D01*
X012514Y013060D01*
X012845Y013552D02*
X012845Y013650D01*
X011869Y013355D02*
X011869Y012961D01*
X011476Y012961D02*
X011476Y013257D01*
X011574Y013355D01*
X011869Y013355D01*
X010580Y013355D02*
X010383Y013552D01*
X010383Y012961D01*
X010187Y012961D02*
X010580Y012961D01*
X009936Y012961D02*
X009837Y012961D01*
X009837Y013060D01*
X009936Y013060D01*
X009936Y012961D01*
X009613Y012961D02*
X009220Y012961D01*
X009417Y012961D02*
X009417Y013552D01*
X009613Y013355D01*
X013919Y013552D02*
X013919Y013650D01*
X013587Y024961D02*
X013686Y025060D01*
X013686Y025454D01*
X013784Y025355D02*
X013587Y025355D01*
X013354Y025257D02*
X013354Y025060D01*
X013256Y024961D01*
X013059Y024961D01*
X012961Y025060D01*
X012961Y025257D01*
X013059Y025355D01*
X013256Y025355D01*
X013354Y025257D01*
X012065Y024961D02*
X012065Y025552D01*
X011869Y025355D01*
X011672Y025552D01*
X011672Y024961D01*
X011421Y024961D02*
X011224Y024961D01*
X011322Y024961D02*
X011322Y025355D01*
X011421Y025355D01*
X011322Y025552D02*
X011322Y025650D01*
X010991Y025552D02*
X010991Y024961D01*
X010991Y025158D02*
X010696Y025355D01*
X010991Y025158D02*
X010696Y024961D01*
X010454Y024961D02*
X010454Y025355D01*
X010454Y025158D02*
X010257Y025355D01*
X010159Y025355D01*
X009917Y025257D02*
X009917Y025060D01*
X009818Y024961D01*
X009622Y024961D01*
X009523Y025060D01*
X009523Y025257D01*
X009622Y025355D01*
X009818Y025355D01*
X009917Y025257D01*
X009272Y025355D02*
X008977Y025355D01*
X008879Y025257D01*
X008879Y025060D01*
X008977Y024961D01*
X009272Y024961D01*
X009272Y025552D01*
X008628Y025355D02*
X008628Y025060D01*
X008529Y024961D01*
X008234Y024961D01*
X008234Y025355D01*
X007983Y025257D02*
X007885Y025355D01*
X007590Y025355D01*
X007688Y025158D02*
X007885Y025158D01*
X007983Y025257D01*
X007983Y024961D02*
X007688Y024961D01*
X007590Y025060D01*
X007688Y025158D01*
X014680Y025158D02*
X014680Y025060D01*
X014778Y024961D01*
X014975Y024961D01*
X015073Y025060D01*
X014975Y025257D02*
X014778Y025257D01*
X014680Y025158D01*
X014680Y025454D02*
X014778Y025552D01*
X014975Y025552D01*
X015073Y025454D01*
X015073Y025355D01*
X014975Y025257D01*
X015324Y025257D02*
X015718Y025257D01*
X015969Y025552D02*
X015969Y024961D01*
X016362Y024961D02*
X016362Y025552D01*
X016166Y025355D01*
X015969Y025552D01*
X016613Y025454D02*
X016613Y025257D01*
X016712Y025158D01*
X017007Y025158D01*
X017007Y024961D02*
X017007Y025552D01*
X016712Y025552D01*
X016613Y025454D01*
X017258Y025454D02*
X017356Y025552D01*
X017553Y025552D01*
X017651Y025454D01*
X017651Y025060D01*
X017553Y024961D01*
X017356Y024961D01*
X017258Y025060D01*
D12*
X005683Y000820D02*
X005683Y000593D01*
X005626Y000536D01*
X005438Y000593D02*
X005381Y000536D01*
X005438Y000593D02*
X005438Y000820D01*
X005494Y000763D02*
X005381Y000763D01*
X005249Y000707D02*
X005192Y000763D01*
X005079Y000763D01*
X005022Y000707D01*
X005022Y000650D01*
X005249Y000650D01*
X005249Y000593D02*
X005249Y000707D01*
X005249Y000593D02*
X005192Y000536D01*
X005079Y000536D01*
X004880Y000536D02*
X004880Y000763D01*
X004880Y000650D02*
X004767Y000763D01*
X004710Y000763D01*
X004574Y000763D02*
X004403Y000763D01*
X004347Y000707D01*
X004347Y000536D01*
X004205Y000593D02*
X004149Y000650D01*
X003978Y000650D01*
X003978Y000707D02*
X003978Y000536D01*
X004149Y000536D01*
X004205Y000593D01*
X004149Y000763D02*
X004035Y000763D01*
X003978Y000707D01*
X003837Y000707D02*
X003837Y000593D01*
X003780Y000536D01*
X003610Y000536D01*
X003610Y000480D02*
X003610Y000763D01*
X003780Y000763D01*
X003837Y000707D01*
X003723Y000423D02*
X003667Y000423D01*
X003610Y000480D01*
X003469Y000593D02*
X003469Y000707D01*
X003412Y000763D01*
X003298Y000763D01*
X003242Y000707D01*
X003242Y000650D01*
X003469Y000650D01*
X003469Y000593D02*
X003412Y000536D01*
X003298Y000536D01*
X003100Y000536D02*
X003100Y000763D01*
X002930Y000763D01*
X002873Y000707D01*
X002873Y000536D01*
X002675Y000593D02*
X002675Y000820D01*
X002619Y000763D02*
X002732Y000763D01*
X002675Y000593D02*
X002619Y000536D01*
X002486Y000536D02*
X002316Y000536D01*
X002260Y000593D01*
X002316Y000650D01*
X002430Y000650D01*
X002486Y000707D01*
X002430Y000763D01*
X002260Y000763D01*
X002118Y000593D02*
X002061Y000593D01*
X002061Y000536D01*
X002118Y000536D01*
X002118Y000593D01*
X001934Y000593D02*
X001877Y000536D01*
X001707Y000536D01*
X001566Y000593D02*
X001509Y000536D01*
X001395Y000536D01*
X001339Y000593D01*
X001339Y000707D01*
X001395Y000763D01*
X001509Y000763D01*
X001566Y000707D01*
X001566Y000593D01*
X001707Y000763D02*
X001877Y000763D01*
X001934Y000707D01*
X001934Y000593D01*
X001197Y000536D02*
X001197Y000763D01*
X001141Y000763D01*
X001084Y000707D01*
X001027Y000763D01*
X000970Y000707D01*
X000970Y000536D01*
X001084Y000536D02*
X001084Y000707D01*
X004574Y000763D02*
X004574Y000536D01*
X005626Y000763D02*
X005740Y000763D01*
X005881Y000707D02*
X005881Y000536D01*
X006051Y000536D01*
X006108Y000593D01*
X006051Y000650D01*
X005881Y000650D01*
X005881Y000707D02*
X005938Y000763D01*
X006051Y000763D01*
X006250Y000707D02*
X006250Y000593D01*
X006306Y000536D01*
X006476Y000536D01*
X006476Y000423D02*
X006476Y000763D01*
X006306Y000763D01*
X006250Y000707D01*
D13*
X008706Y002206D02*
X007706Y003206D01*
X007706Y012206D01*
X008706Y012206D01*
X008706Y011206D01*
X015706Y011206D01*
X015706Y012206D01*
X008706Y012206D01*
X009067Y010448D02*
X009347Y010448D01*
X009417Y010377D01*
X009417Y010167D01*
X008996Y010167D01*
X008996Y010377D01*
X009067Y010448D01*
X008996Y009987D02*
X009417Y009987D01*
X009417Y009707D02*
X008996Y009987D01*
X008996Y009707D02*
X009417Y009707D01*
X009347Y009527D02*
X009417Y009457D01*
X009417Y009317D01*
X009347Y009246D01*
X009067Y009246D01*
X008996Y009317D01*
X008996Y009457D01*
X009067Y009527D01*
X009207Y009527D01*
X009207Y009387D01*
X010067Y009387D02*
X010347Y009387D01*
X010207Y009527D02*
X010207Y009246D01*
X010347Y009707D02*
X010417Y009777D01*
X010417Y009917D01*
X010347Y009987D01*
X010277Y009987D01*
X010207Y009917D01*
X010137Y009987D01*
X010067Y009987D01*
X009996Y009917D01*
X009996Y009777D01*
X010067Y009707D01*
X010207Y009847D02*
X010207Y009917D01*
X010067Y010167D02*
X010067Y010237D01*
X009996Y010237D01*
X009996Y010167D01*
X010067Y010167D01*
X010067Y010397D02*
X009996Y010468D01*
X009996Y010608D01*
X010067Y010678D01*
X010137Y010678D01*
X010207Y010608D01*
X010207Y010538D01*
X010207Y010608D02*
X010277Y010678D01*
X010347Y010678D01*
X010417Y010608D01*
X010417Y010468D01*
X010347Y010397D01*
X010417Y010858D02*
X010137Y010858D01*
X009996Y010998D01*
X010137Y011138D01*
X010417Y011138D01*
X010996Y010768D02*
X010996Y010628D01*
X010996Y010698D02*
X011417Y010698D01*
X011417Y010628D02*
X011417Y010768D01*
X011347Y010448D02*
X011417Y010377D01*
X011417Y010237D01*
X011347Y010167D01*
X011277Y010167D01*
X011207Y010237D01*
X011207Y010377D01*
X011137Y010448D01*
X011067Y010448D01*
X010996Y010377D01*
X010996Y010237D01*
X011067Y010167D01*
X011067Y009987D02*
X010996Y009917D01*
X010996Y009777D01*
X011067Y009707D01*
X011347Y009707D01*
X011417Y009777D01*
X011417Y009917D01*
X011347Y009987D01*
X011067Y009987D01*
X010996Y009527D02*
X011417Y009527D01*
X011277Y009387D01*
X011417Y009246D01*
X010996Y009246D01*
X011996Y009246D02*
X012417Y009246D01*
X012277Y009387D01*
X012417Y009527D01*
X011996Y009527D01*
X011996Y009707D02*
X011996Y009847D01*
X011996Y009777D02*
X012417Y009777D01*
X012417Y009707D02*
X012417Y009847D01*
X012347Y010014D02*
X012277Y010014D01*
X012207Y010084D01*
X012207Y010224D01*
X012137Y010294D01*
X012067Y010294D01*
X011996Y010224D01*
X011996Y010084D01*
X012067Y010014D01*
X012347Y010014D02*
X012417Y010084D01*
X012417Y010224D01*
X012347Y010294D01*
X012347Y010474D02*
X012067Y010474D01*
X011996Y010544D01*
X011996Y010684D01*
X012067Y010754D01*
X012347Y010754D01*
X012417Y010684D01*
X012417Y010544D01*
X012347Y010474D01*
X012996Y010448D02*
X013207Y010237D01*
X013137Y010167D02*
X013417Y010448D01*
X013417Y010167D02*
X012996Y010167D01*
X013067Y009987D02*
X012996Y009917D01*
X012996Y009777D01*
X013067Y009707D01*
X013347Y009707D01*
X013417Y009777D01*
X013417Y009917D01*
X013347Y009987D01*
X013347Y009527D02*
X013417Y009457D01*
X013417Y009317D01*
X013347Y009246D01*
X013277Y009246D01*
X013207Y009317D01*
X013207Y009457D01*
X013137Y009527D01*
X013067Y009527D01*
X012996Y009457D01*
X012996Y009317D01*
X013067Y009246D01*
X013996Y009317D02*
X013996Y009457D01*
X014067Y009527D01*
X014067Y009707D02*
X013996Y009777D01*
X013996Y009917D01*
X014067Y009987D01*
X014137Y009987D01*
X014207Y009917D01*
X014207Y009777D01*
X014277Y009707D01*
X014347Y009707D01*
X014417Y009777D01*
X014417Y009917D01*
X014347Y009987D01*
X014347Y009527D02*
X014417Y009457D01*
X014417Y009317D01*
X014347Y009246D01*
X014067Y009246D01*
X013996Y009317D01*
X014996Y009246D02*
X015417Y009246D01*
X015417Y009457D01*
X015347Y009527D01*
X015207Y009527D01*
X015137Y009457D01*
X015137Y009246D01*
X015137Y009387D02*
X014996Y009527D01*
X015067Y009707D02*
X014996Y009777D01*
X014996Y009917D01*
X015067Y009987D01*
X015137Y009987D01*
X015207Y009917D01*
X015207Y009777D01*
X015277Y009707D01*
X015347Y009707D01*
X015417Y009777D01*
X015417Y009917D01*
X015347Y009987D01*
X015417Y010167D02*
X015417Y010448D01*
X015417Y010307D02*
X014996Y010307D01*
X015706Y011206D02*
X016706Y011206D01*
X016706Y012206D01*
X015706Y012206D01*
X015706Y014206D02*
X015706Y015206D01*
X008706Y015206D01*
X008706Y014206D01*
X007706Y015206D01*
X007706Y024206D01*
X008706Y024206D01*
X008706Y023206D01*
X015706Y023206D01*
X015706Y024206D01*
X008706Y024206D01*
X009996Y022998D02*
X010137Y023138D01*
X010417Y023138D01*
X010417Y022858D02*
X010137Y022858D01*
X009996Y022998D01*
X010067Y022678D02*
X009996Y022608D01*
X009996Y022468D01*
X010067Y022397D01*
X010067Y022237D02*
X009996Y022237D01*
X009996Y022167D01*
X010067Y022167D01*
X010067Y022237D01*
X010067Y021987D02*
X009996Y021917D01*
X009996Y021777D01*
X010067Y021707D01*
X010207Y021847D02*
X010207Y021917D01*
X010137Y021987D01*
X010067Y021987D01*
X010207Y021917D02*
X010277Y021987D01*
X010347Y021987D01*
X010417Y021917D01*
X010417Y021777D01*
X010347Y021707D01*
X010207Y021527D02*
X010207Y021246D01*
X010347Y021387D02*
X010067Y021387D01*
X009417Y021457D02*
X009417Y021317D01*
X009347Y021246D01*
X009067Y021246D01*
X008996Y021317D01*
X008996Y021457D01*
X009067Y021527D01*
X009207Y021527D01*
X009207Y021387D01*
X009347Y021527D02*
X009417Y021457D01*
X009417Y021707D02*
X008996Y021987D01*
X009417Y021987D01*
X009417Y022167D02*
X009417Y022377D01*
X009347Y022448D01*
X009067Y022448D01*
X008996Y022377D01*
X008996Y022167D01*
X009417Y022167D01*
X009417Y021707D02*
X008996Y021707D01*
X010067Y022678D02*
X010137Y022678D01*
X010207Y022608D01*
X010207Y022538D01*
X010207Y022608D02*
X010277Y022678D01*
X010347Y022678D01*
X010417Y022608D01*
X010417Y022468D01*
X010347Y022397D01*
X010996Y022377D02*
X010996Y022237D01*
X011067Y022167D01*
X011207Y022237D02*
X011207Y022377D01*
X011137Y022448D01*
X011067Y022448D01*
X010996Y022377D01*
X010996Y022628D02*
X010996Y022768D01*
X010996Y022698D02*
X011417Y022698D01*
X011417Y022628D02*
X011417Y022768D01*
X011347Y022448D02*
X011417Y022377D01*
X011417Y022237D01*
X011347Y022167D01*
X011277Y022167D01*
X011207Y022237D01*
X011067Y021987D02*
X011347Y021987D01*
X011417Y021917D01*
X011417Y021777D01*
X011347Y021707D01*
X011067Y021707D01*
X010996Y021777D01*
X010996Y021917D01*
X011067Y021987D01*
X010996Y021527D02*
X011417Y021527D01*
X011277Y021387D01*
X011417Y021246D01*
X010996Y021246D01*
X011996Y021246D02*
X012417Y021246D01*
X012277Y021387D01*
X012417Y021527D01*
X011996Y021527D01*
X011996Y021707D02*
X011996Y021847D01*
X011996Y021777D02*
X012417Y021777D01*
X012417Y021707D02*
X012417Y021847D01*
X012347Y022014D02*
X012277Y022014D01*
X012207Y022084D01*
X012207Y022224D01*
X012137Y022294D01*
X012067Y022294D01*
X011996Y022224D01*
X011996Y022084D01*
X012067Y022014D01*
X012347Y022014D02*
X012417Y022084D01*
X012417Y022224D01*
X012347Y022294D01*
X012347Y022474D02*
X012067Y022474D01*
X011996Y022544D01*
X011996Y022684D01*
X012067Y022754D01*
X012347Y022754D01*
X012417Y022684D01*
X012417Y022544D01*
X012347Y022474D01*
X012996Y022448D02*
X013207Y022237D01*
X013137Y022167D02*
X013417Y022448D01*
X013417Y022167D02*
X012996Y022167D01*
X013067Y021987D02*
X012996Y021917D01*
X012996Y021777D01*
X013067Y021707D01*
X013347Y021707D01*
X013417Y021777D01*
X013417Y021917D01*
X013347Y021987D01*
X013347Y021527D02*
X013417Y021457D01*
X013417Y021317D01*
X013347Y021246D01*
X013277Y021246D01*
X013207Y021317D01*
X013207Y021457D01*
X013137Y021527D01*
X013067Y021527D01*
X012996Y021457D01*
X012996Y021317D01*
X013067Y021246D01*
X013996Y021317D02*
X013996Y021457D01*
X014067Y021527D01*
X014067Y021707D02*
X013996Y021777D01*
X013996Y021917D01*
X014067Y021987D01*
X014137Y021987D01*
X014207Y021917D01*
X014207Y021777D01*
X014277Y021707D01*
X014347Y021707D01*
X014417Y021777D01*
X014417Y021917D01*
X014347Y021987D01*
X014347Y021527D02*
X014417Y021457D01*
X014417Y021317D01*
X014347Y021246D01*
X014067Y021246D01*
X013996Y021317D01*
X014996Y021246D02*
X015417Y021246D01*
X015417Y021457D01*
X015347Y021527D01*
X015207Y021527D01*
X015137Y021457D01*
X015137Y021246D01*
X015137Y021387D02*
X014996Y021527D01*
X015067Y021707D02*
X014996Y021777D01*
X014996Y021917D01*
X015067Y021987D01*
X015137Y021987D01*
X015207Y021917D01*
X015207Y021777D01*
X015277Y021707D01*
X015347Y021707D01*
X015417Y021777D01*
X015417Y021917D01*
X015347Y021987D01*
X015417Y022167D02*
X015417Y022448D01*
X015417Y022307D02*
X014996Y022307D01*
X015706Y023206D02*
X016706Y023206D01*
X016706Y024206D01*
X015706Y024206D01*
X015996Y021987D02*
X016417Y021987D01*
X016417Y021707D02*
X015996Y021987D01*
X015996Y021707D02*
X016417Y021707D01*
X016277Y021527D02*
X015996Y021527D01*
X016207Y021527D02*
X016207Y021246D01*
X016277Y021246D02*
X016417Y021387D01*
X016277Y021527D01*
X016277Y021246D02*
X015996Y021246D01*
X015996Y016948D02*
X016417Y016948D01*
X016277Y016807D01*
X016417Y016667D01*
X015996Y016667D01*
X015996Y016487D02*
X016417Y016487D01*
X016417Y016207D02*
X015996Y016207D01*
X016137Y016347D01*
X015996Y016487D01*
X016207Y016027D02*
X016137Y015957D01*
X016137Y015746D01*
X015996Y015746D02*
X016417Y015746D01*
X016417Y015957D01*
X016347Y016027D01*
X016207Y016027D01*
X016706Y015206D02*
X015706Y015206D01*
X015417Y015746D02*
X015417Y015887D01*
X015417Y015817D02*
X014996Y015817D01*
X014996Y015887D02*
X014996Y015746D01*
X014996Y016053D02*
X015417Y016053D01*
X014996Y016334D01*
X015417Y016334D01*
X015417Y016514D02*
X015417Y016794D01*
X015417Y016654D02*
X014996Y016654D01*
X014417Y016487D02*
X013996Y016207D01*
X013996Y016027D02*
X014137Y015887D01*
X014137Y015957D02*
X014137Y015746D01*
X013996Y015746D02*
X014417Y015746D01*
X014417Y015957D01*
X014347Y016027D01*
X014207Y016027D01*
X014137Y015957D01*
X014417Y016207D02*
X013996Y016487D01*
X013417Y016487D02*
X012996Y016207D01*
X012996Y016487D02*
X013417Y016207D01*
X013417Y016027D02*
X013417Y015746D01*
X013417Y015887D02*
X012996Y015887D01*
X012417Y015957D02*
X012417Y015817D01*
X012347Y015746D01*
X012277Y015746D01*
X012207Y015817D01*
X012207Y015957D01*
X012137Y016027D01*
X012067Y016027D01*
X011996Y015957D01*
X011996Y015817D01*
X012067Y015746D01*
X012347Y016027D02*
X012417Y015957D01*
X012347Y016207D02*
X012067Y016207D01*
X011996Y016277D01*
X011996Y016417D01*
X012067Y016487D01*
X011996Y016667D02*
X011996Y016948D01*
X011996Y016667D02*
X012417Y016667D01*
X012347Y016487D02*
X012417Y016417D01*
X012417Y016277D01*
X012347Y016207D01*
X011417Y016207D02*
X011417Y016417D01*
X011347Y016487D01*
X011067Y016487D01*
X010996Y016417D01*
X010996Y016207D01*
X011417Y016207D01*
X011347Y016027D02*
X011417Y015957D01*
X011417Y015817D01*
X011347Y015746D01*
X011277Y015746D01*
X011207Y015817D01*
X011207Y015957D01*
X011137Y016027D01*
X011067Y016027D01*
X010996Y015957D01*
X010996Y015817D01*
X011067Y015746D01*
X010347Y015887D02*
X010067Y015887D01*
X010207Y016027D02*
X010207Y015746D01*
X010207Y016207D02*
X010277Y016347D01*
X010277Y016417D01*
X010207Y016487D01*
X010067Y016487D01*
X009996Y016417D01*
X009996Y016277D01*
X010067Y016207D01*
X010207Y016207D02*
X010417Y016207D01*
X010417Y016487D01*
X010417Y016667D02*
X010137Y016667D01*
X009996Y016807D01*
X010137Y016948D01*
X010417Y016948D01*
X010996Y016948D02*
X011277Y016948D01*
X011417Y016807D01*
X011277Y016667D01*
X010996Y016667D01*
X011207Y016667D02*
X011207Y016948D01*
X009417Y016877D02*
X009417Y016667D01*
X008996Y016667D01*
X008996Y016877D01*
X009067Y016948D01*
X009347Y016948D01*
X009417Y016877D01*
X009417Y016487D02*
X008996Y016487D01*
X009417Y016207D01*
X008996Y016207D01*
X009067Y016027D02*
X009207Y016027D01*
X009207Y015887D01*
X009347Y016027D02*
X009417Y015957D01*
X009417Y015817D01*
X009347Y015746D01*
X009067Y015746D01*
X008996Y015817D01*
X008996Y015957D01*
X009067Y016027D01*
X008706Y014206D02*
X015706Y014206D01*
X016706Y014206D01*
X016706Y015206D01*
X016417Y009987D02*
X015996Y009987D01*
X016417Y009707D01*
X015996Y009707D01*
X015996Y009527D02*
X016277Y009527D01*
X016417Y009387D01*
X016277Y009246D01*
X015996Y009246D01*
X016207Y009246D02*
X016207Y009527D01*
X016417Y004948D02*
X015996Y004948D01*
X016277Y004807D02*
X016417Y004948D01*
X016277Y004807D02*
X016417Y004667D01*
X015996Y004667D01*
X015996Y004487D02*
X016417Y004487D01*
X016417Y004207D02*
X015996Y004207D01*
X016137Y004347D01*
X015996Y004487D01*
X016207Y004027D02*
X016137Y003957D01*
X016137Y003746D01*
X015996Y003746D02*
X016417Y003746D01*
X016417Y003957D01*
X016347Y004027D01*
X016207Y004027D01*
X016706Y003206D02*
X015706Y003206D01*
X015706Y002206D01*
X016706Y002206D01*
X016706Y003206D01*
X015706Y003206D02*
X008706Y003206D01*
X008706Y002206D01*
X015706Y002206D01*
X015417Y003746D02*
X015417Y003887D01*
X015417Y003817D02*
X014996Y003817D01*
X014996Y003887D02*
X014996Y003746D01*
X014996Y004053D02*
X015417Y004053D01*
X014996Y004334D01*
X015417Y004334D01*
X015417Y004514D02*
X015417Y004794D01*
X015417Y004654D02*
X014996Y004654D01*
X014417Y004487D02*
X013996Y004207D01*
X013996Y004027D02*
X014137Y003887D01*
X014137Y003957D02*
X014137Y003746D01*
X013996Y003746D02*
X014417Y003746D01*
X014417Y003957D01*
X014347Y004027D01*
X014207Y004027D01*
X014137Y003957D01*
X014417Y004207D02*
X013996Y004487D01*
X013417Y004487D02*
X012996Y004207D01*
X012996Y004487D02*
X013417Y004207D01*
X013417Y004027D02*
X013417Y003746D01*
X013417Y003887D02*
X012996Y003887D01*
X012417Y003957D02*
X012417Y003817D01*
X012347Y003746D01*
X012277Y003746D01*
X012207Y003817D01*
X012207Y003957D01*
X012137Y004027D01*
X012067Y004027D01*
X011996Y003957D01*
X011996Y003817D01*
X012067Y003746D01*
X012347Y004027D02*
X012417Y003957D01*
X012347Y004207D02*
X012067Y004207D01*
X011996Y004277D01*
X011996Y004417D01*
X012067Y004487D01*
X011996Y004667D02*
X011996Y004948D01*
X011996Y004667D02*
X012417Y004667D01*
X012347Y004487D02*
X012417Y004417D01*
X012417Y004277D01*
X012347Y004207D01*
X011417Y004207D02*
X011417Y004417D01*
X011347Y004487D01*
X011067Y004487D01*
X010996Y004417D01*
X010996Y004207D01*
X011417Y004207D01*
X011347Y004027D02*
X011417Y003957D01*
X011417Y003817D01*
X011347Y003746D01*
X011277Y003746D01*
X011207Y003817D01*
X011207Y003957D01*
X011137Y004027D01*
X011067Y004027D01*
X010996Y003957D01*
X010996Y003817D01*
X011067Y003746D01*
X010996Y004667D02*
X011277Y004667D01*
X011417Y004807D01*
X011277Y004948D01*
X010996Y004948D01*
X011207Y004948D02*
X011207Y004667D01*
X010417Y004667D02*
X010137Y004667D01*
X009996Y004807D01*
X010137Y004948D01*
X010417Y004948D01*
X010417Y004487D02*
X010417Y004207D01*
X010207Y004207D01*
X010277Y004347D01*
X010277Y004417D01*
X010207Y004487D01*
X010067Y004487D01*
X009996Y004417D01*
X009996Y004277D01*
X010067Y004207D01*
X010207Y004027D02*
X010207Y003746D01*
X010347Y003887D02*
X010067Y003887D01*
X009417Y003957D02*
X009417Y003817D01*
X009347Y003746D01*
X009067Y003746D01*
X008996Y003817D01*
X008996Y003957D01*
X009067Y004027D01*
X009207Y004027D01*
X009207Y003887D01*
X009347Y004027D02*
X009417Y003957D01*
X009417Y004207D02*
X008996Y004487D01*
X009417Y004487D01*
X009417Y004667D02*
X009417Y004877D01*
X009347Y004948D01*
X009067Y004948D01*
X008996Y004877D01*
X008996Y004667D01*
X009417Y004667D01*
X009417Y004207D02*
X008996Y004207D01*
D14*
X016961Y004986D03*
X016961Y005766D03*
X016961Y006546D03*
X018321Y006146D03*
X018321Y005386D03*
X016961Y016986D03*
X016961Y017766D03*
X016961Y018546D03*
X018321Y018146D03*
X018321Y017386D03*
D15*
X018301Y017376D03*
X017981Y017376D03*
X018301Y018156D03*
X017301Y018536D03*
X016981Y018536D03*
X017241Y019016D03*
X017101Y019376D03*
X016981Y016996D03*
X017101Y007376D03*
X017241Y007016D03*
X017301Y006536D03*
X016981Y006536D03*
X017981Y005376D03*
X018301Y005376D03*
X018301Y006156D03*
X016981Y004996D03*
D16*
X017301Y004986D03*
X017301Y005766D03*
X016981Y005766D03*
X017981Y006146D03*
X017481Y007386D03*
X017221Y007386D03*
X017101Y007666D03*
X017361Y008286D03*
X017481Y008286D03*
X017821Y008606D03*
X017881Y008686D03*
X018161Y008606D03*
X017221Y008706D03*
X017121Y008706D03*
X017101Y008686D03*
X017301Y016986D03*
X017301Y017766D03*
X016981Y017766D03*
X017981Y018146D03*
X017481Y019386D03*
X017221Y019386D03*
X017101Y019666D03*
X017361Y020286D03*
X017481Y020286D03*
X017821Y020606D03*
X017881Y020686D03*
X018161Y020606D03*
X017221Y020706D03*
X017121Y020706D03*
X017101Y020686D03*
D17*
X016981Y019846D03*
X017821Y020166D03*
X017841Y020166D03*
X017861Y020166D03*
X017881Y020166D03*
X017901Y020166D03*
X017921Y020166D03*
X017941Y020166D03*
X017961Y020166D03*
X017981Y020166D03*
X018001Y020166D03*
X018021Y020166D03*
X018041Y020166D03*
X018061Y020166D03*
X018081Y020166D03*
X018041Y020326D03*
X018041Y019186D03*
X018021Y019186D03*
X018001Y019186D03*
X017981Y019186D03*
X017961Y019186D03*
X017941Y019186D03*
X017921Y019186D03*
X017901Y019186D03*
X017881Y019186D03*
X017861Y019186D03*
X017841Y019186D03*
X017821Y019186D03*
X018061Y019186D03*
X018081Y019186D03*
X017961Y018146D03*
X017321Y017766D03*
X017321Y016986D03*
X018041Y008326D03*
X018041Y008166D03*
X018021Y008166D03*
X018001Y008166D03*
X017981Y008166D03*
X017961Y008166D03*
X017941Y008166D03*
X017921Y008166D03*
X017901Y008166D03*
X017881Y008166D03*
X017861Y008166D03*
X017841Y008166D03*
X017821Y008166D03*
X018061Y008166D03*
X018081Y008166D03*
X018081Y007186D03*
X018061Y007186D03*
X018041Y007186D03*
X018021Y007186D03*
X018001Y007186D03*
X017981Y007186D03*
X017961Y007186D03*
X017941Y007186D03*
X017921Y007186D03*
X017901Y007186D03*
X017881Y007186D03*
X017861Y007186D03*
X017841Y007186D03*
X017821Y007186D03*
X017961Y006146D03*
X017321Y005766D03*
X017321Y004986D03*
X016981Y007846D03*
D18*
X017841Y008606D03*
X018141Y008606D03*
X018141Y008246D03*
X018121Y008246D03*
X018281Y006146D03*
X017281Y005766D03*
X017001Y005766D03*
X017001Y004986D03*
X017001Y016986D03*
X017001Y017766D03*
X017281Y017766D03*
X018281Y018146D03*
X018141Y020246D03*
X018121Y020246D03*
X018141Y020606D03*
X017841Y020606D03*
D19*
X018161Y020236D03*
X018001Y019816D03*
X017981Y019816D03*
X017281Y018536D03*
X017001Y018536D03*
X018001Y018156D03*
X018001Y017376D03*
X018281Y017376D03*
X017281Y016996D03*
X018161Y008236D03*
X018001Y007816D03*
X017981Y007816D03*
X017281Y006536D03*
X017001Y006536D03*
X018001Y006156D03*
X018001Y005376D03*
X018281Y005376D03*
X017281Y004996D03*
D20*
X017301Y007156D03*
X017581Y007156D03*
X017001Y007156D03*
X017061Y007836D03*
X017581Y008516D03*
X017581Y019156D03*
X017301Y019156D03*
X017001Y019156D03*
X017061Y019836D03*
X017581Y020516D03*
D21*
X017861Y020606D03*
X018121Y020606D03*
X017001Y019846D03*
X018021Y018146D03*
X018261Y018146D03*
X017261Y017766D03*
X017021Y017766D03*
X017021Y016986D03*
X017861Y008606D03*
X018121Y008606D03*
X017001Y007846D03*
X018021Y006146D03*
X018261Y006146D03*
X017261Y005766D03*
X017021Y005766D03*
X017021Y004986D03*
D22*
X018161Y007146D03*
X017341Y008426D03*
X017001Y008446D03*
X018161Y019146D03*
X017341Y020426D03*
X017001Y020446D03*
D23*
X017021Y018536D03*
X017261Y018536D03*
X018021Y017376D03*
X018261Y017376D03*
X017261Y016996D03*
X017261Y006536D03*
X017021Y006536D03*
X018021Y005376D03*
X018261Y005376D03*
X017261Y004996D03*
D24*
X017261Y007176D03*
X017321Y007176D03*
X017561Y007176D03*
X017021Y007176D03*
X017021Y008476D03*
X017541Y008496D03*
X018101Y007176D03*
X018121Y007176D03*
X018121Y019176D03*
X018101Y019176D03*
X017561Y019176D03*
X017321Y019176D03*
X017261Y019176D03*
X017021Y019176D03*
X017021Y020476D03*
X017541Y020496D03*
D25*
X017601Y020566D03*
X017021Y019846D03*
X017141Y018546D03*
X017161Y018546D03*
X017161Y017766D03*
X017141Y017766D03*
X017121Y017766D03*
X017101Y017766D03*
X017181Y017766D03*
X017181Y016986D03*
X017161Y016986D03*
X017141Y016986D03*
X017121Y016986D03*
X017101Y016986D03*
X018141Y017386D03*
X018161Y017386D03*
X018161Y018146D03*
X018141Y018146D03*
X018121Y018146D03*
X018101Y018146D03*
X018181Y018146D03*
X017601Y008566D03*
X017021Y007846D03*
X017141Y006546D03*
X017161Y006546D03*
X017161Y005766D03*
X017141Y005766D03*
X017121Y005766D03*
X017101Y005766D03*
X017181Y005766D03*
X017181Y004986D03*
X017161Y004986D03*
X017141Y004986D03*
X017121Y004986D03*
X017101Y004986D03*
X018141Y005386D03*
X018161Y005386D03*
X018161Y006146D03*
X018141Y006146D03*
X018121Y006146D03*
X018101Y006146D03*
X018181Y006146D03*
D26*
X018241Y006156D03*
X018041Y006156D03*
X018041Y005376D03*
X018241Y005376D03*
X017241Y004996D03*
X017041Y004996D03*
X017041Y006536D03*
X017241Y006536D03*
X017241Y016996D03*
X017041Y016996D03*
X018041Y017376D03*
X018241Y017376D03*
X018241Y018156D03*
X018041Y018156D03*
X017241Y018536D03*
X017041Y018536D03*
D27*
X017041Y017766D03*
X017061Y017766D03*
X017201Y017766D03*
X017221Y017766D03*
X017241Y017766D03*
X017221Y016986D03*
X017061Y016986D03*
X018061Y017386D03*
X018061Y018146D03*
X018221Y018146D03*
X017241Y019286D03*
X017241Y007286D03*
X018061Y006146D03*
X018221Y006146D03*
X018061Y005386D03*
X017241Y005766D03*
X017221Y005766D03*
X017201Y005766D03*
X017061Y005766D03*
X017041Y005766D03*
X017061Y004986D03*
X017221Y004986D03*
D28*
X017341Y007186D03*
X017521Y007186D03*
X017541Y007186D03*
X017061Y007186D03*
X017041Y007186D03*
X017041Y008486D03*
X017281Y008506D03*
X017301Y008486D03*
X017521Y008486D03*
X017521Y019186D03*
X017541Y019186D03*
X017341Y019186D03*
X017061Y019186D03*
X017041Y019186D03*
X017041Y020486D03*
X017281Y020506D03*
X017301Y020486D03*
X017521Y020486D03*
D29*
X017041Y019836D03*
X017041Y007836D03*
D30*
X017241Y008596D03*
X017601Y007096D03*
X017221Y006536D03*
X017201Y006536D03*
X017181Y006536D03*
X017121Y006536D03*
X017101Y006536D03*
X017081Y006536D03*
X017061Y006536D03*
X017081Y005756D03*
X017081Y004996D03*
X017201Y004996D03*
X018081Y005376D03*
X018101Y005376D03*
X018121Y005376D03*
X018181Y005376D03*
X018201Y005376D03*
X018221Y005376D03*
X018201Y006156D03*
X018081Y006156D03*
X017201Y016996D03*
X017081Y016996D03*
X017081Y017756D03*
X017081Y018536D03*
X017061Y018536D03*
X017101Y018536D03*
X017121Y018536D03*
X017181Y018536D03*
X017201Y018536D03*
X017221Y018536D03*
X017601Y019096D03*
X018081Y018156D03*
X018201Y018156D03*
X018201Y017376D03*
X018181Y017376D03*
X018221Y017376D03*
X018121Y017376D03*
X018101Y017376D03*
X018081Y017376D03*
X017241Y020596D03*
D31*
X017081Y020496D03*
X017061Y020496D03*
X017501Y020476D03*
X017501Y019196D03*
X017081Y019196D03*
X017081Y008496D03*
X017061Y008496D03*
X017501Y008476D03*
X017501Y007196D03*
X017081Y007196D03*
D32*
X017081Y007706D03*
X017081Y007986D03*
X017081Y019706D03*
X017081Y019986D03*
D33*
X017101Y020016D03*
X017121Y020036D03*
X017141Y020036D03*
X017161Y020036D03*
X017381Y020276D03*
X017441Y020276D03*
X017461Y020276D03*
X017201Y020716D03*
X017181Y020716D03*
X017161Y020716D03*
X017141Y020716D03*
X017881Y020516D03*
X018101Y020316D03*
X017881Y019956D03*
X017581Y019636D03*
X017561Y019636D03*
X017541Y019636D03*
X017521Y019636D03*
X017501Y019636D03*
X017481Y019636D03*
X017461Y019636D03*
X017441Y019636D03*
X017421Y019636D03*
X017401Y019636D03*
X017381Y019636D03*
X017361Y019636D03*
X017341Y019636D03*
X017321Y019636D03*
X017301Y019636D03*
X017281Y019636D03*
X017261Y019636D03*
X017241Y019636D03*
X017221Y019636D03*
X017141Y019656D03*
X017121Y019656D03*
X017121Y019396D03*
X017141Y019396D03*
X017161Y019396D03*
X017181Y019396D03*
X017201Y019396D03*
X017361Y019376D03*
X017381Y019396D03*
X017401Y019396D03*
X017421Y019396D03*
X017441Y019396D03*
X017461Y019396D03*
X017461Y018996D03*
X017441Y018996D03*
X017421Y018996D03*
X017401Y018996D03*
X017381Y018996D03*
X017361Y018996D03*
X017221Y018996D03*
X017201Y018996D03*
X017181Y018996D03*
X017161Y018996D03*
X017141Y018996D03*
X017121Y018996D03*
X017101Y018996D03*
X017141Y008716D03*
X017161Y008716D03*
X017181Y008716D03*
X017201Y008716D03*
X017381Y008276D03*
X017441Y008276D03*
X017461Y008276D03*
X017161Y008036D03*
X017141Y008036D03*
X017121Y008036D03*
X017101Y008016D03*
X017121Y007656D03*
X017141Y007656D03*
X017221Y007636D03*
X017241Y007636D03*
X017261Y007636D03*
X017281Y007636D03*
X017301Y007636D03*
X017321Y007636D03*
X017341Y007636D03*
X017361Y007636D03*
X017381Y007636D03*
X017401Y007636D03*
X017421Y007636D03*
X017441Y007636D03*
X017461Y007636D03*
X017481Y007636D03*
X017501Y007636D03*
X017521Y007636D03*
X017541Y007636D03*
X017561Y007636D03*
X017581Y007636D03*
X017461Y007396D03*
X017441Y007396D03*
X017421Y007396D03*
X017401Y007396D03*
X017381Y007396D03*
X017361Y007376D03*
X017201Y007396D03*
X017181Y007396D03*
X017161Y007396D03*
X017141Y007396D03*
X017121Y007396D03*
X017121Y006996D03*
X017101Y006996D03*
X017141Y006996D03*
X017161Y006996D03*
X017181Y006996D03*
X017201Y006996D03*
X017221Y006996D03*
X017361Y006996D03*
X017381Y006996D03*
X017401Y006996D03*
X017421Y006996D03*
X017441Y006996D03*
X017461Y006996D03*
X017881Y007956D03*
X018101Y008316D03*
X017881Y008516D03*
D34*
X017901Y008506D03*
X017921Y008486D03*
X018061Y008486D03*
X018081Y008726D03*
X017901Y008726D03*
X017421Y008266D03*
X017401Y008266D03*
X017401Y008046D03*
X017381Y008046D03*
X017361Y008046D03*
X017341Y008046D03*
X017321Y008046D03*
X017301Y008046D03*
X017281Y008046D03*
X017261Y008046D03*
X017241Y008046D03*
X017221Y008046D03*
X017201Y008046D03*
X017181Y008046D03*
X017421Y008046D03*
X017441Y008046D03*
X017461Y008046D03*
X017481Y008046D03*
X017501Y008046D03*
X017521Y008046D03*
X017541Y008046D03*
X017561Y008046D03*
X017581Y008046D03*
X017601Y008046D03*
X017821Y008006D03*
X017841Y007986D03*
X017861Y007966D03*
X017901Y007946D03*
X017921Y007926D03*
X017941Y007906D03*
X017961Y007886D03*
X018021Y007886D03*
X018041Y007906D03*
X018121Y007966D03*
X018141Y007986D03*
X018161Y008006D03*
X018081Y007386D03*
X017601Y007646D03*
X017201Y007646D03*
X017181Y007646D03*
X017161Y007646D03*
X017481Y006986D03*
X017481Y018986D03*
X017601Y019646D03*
X017841Y019986D03*
X017821Y020006D03*
X017861Y019966D03*
X017901Y019946D03*
X017921Y019926D03*
X017941Y019906D03*
X017961Y019886D03*
X018021Y019886D03*
X018041Y019906D03*
X018121Y019966D03*
X018141Y019986D03*
X018161Y020006D03*
X018061Y020486D03*
X017921Y020486D03*
X017901Y020506D03*
X017901Y020726D03*
X018081Y020726D03*
X017601Y020046D03*
X017581Y020046D03*
X017561Y020046D03*
X017541Y020046D03*
X017521Y020046D03*
X017501Y020046D03*
X017481Y020046D03*
X017461Y020046D03*
X017441Y020046D03*
X017421Y020046D03*
X017401Y020046D03*
X017381Y020046D03*
X017361Y020046D03*
X017341Y020046D03*
X017321Y020046D03*
X017301Y020046D03*
X017281Y020046D03*
X017261Y020046D03*
X017241Y020046D03*
X017221Y020046D03*
X017201Y020046D03*
X017181Y020046D03*
X017401Y020266D03*
X017421Y020266D03*
X017201Y019646D03*
X017181Y019646D03*
X017161Y019646D03*
X018081Y019386D03*
D35*
X017601Y018536D03*
X017581Y018536D03*
X017561Y018536D03*
X017541Y018536D03*
X017521Y018536D03*
X017501Y018536D03*
X017481Y018536D03*
X017461Y018536D03*
X017441Y018536D03*
X017421Y018536D03*
X017401Y018536D03*
X017381Y018536D03*
X017361Y018536D03*
X017341Y018536D03*
X017321Y018536D03*
X017681Y018156D03*
X017701Y018156D03*
X017721Y018156D03*
X017741Y018156D03*
X017761Y018156D03*
X017781Y018156D03*
X017801Y018156D03*
X017821Y018156D03*
X017841Y018156D03*
X017861Y018156D03*
X017881Y018156D03*
X017901Y018156D03*
X017921Y018156D03*
X017941Y018156D03*
X017601Y017756D03*
X017581Y017756D03*
X017561Y017756D03*
X017541Y017756D03*
X017521Y017756D03*
X017501Y017756D03*
X017481Y017756D03*
X017461Y017756D03*
X017441Y017756D03*
X017421Y017756D03*
X017401Y017756D03*
X017381Y017756D03*
X017361Y017756D03*
X017341Y017756D03*
X017681Y017376D03*
X017701Y017376D03*
X017721Y017376D03*
X017741Y017376D03*
X017761Y017376D03*
X017781Y017376D03*
X017801Y017376D03*
X017821Y017376D03*
X017841Y017376D03*
X017861Y017376D03*
X017881Y017376D03*
X017901Y017376D03*
X017921Y017376D03*
X017941Y017376D03*
X017961Y017376D03*
X017601Y016996D03*
X017581Y016996D03*
X017561Y016996D03*
X017541Y016996D03*
X017521Y016996D03*
X017501Y016996D03*
X017481Y016996D03*
X017461Y016996D03*
X017441Y016996D03*
X017421Y016996D03*
X017401Y016996D03*
X017381Y016996D03*
X017361Y016996D03*
X017341Y016996D03*
X017241Y020376D03*
X017241Y008376D03*
X017321Y006536D03*
X017341Y006536D03*
X017361Y006536D03*
X017381Y006536D03*
X017401Y006536D03*
X017421Y006536D03*
X017441Y006536D03*
X017461Y006536D03*
X017481Y006536D03*
X017501Y006536D03*
X017521Y006536D03*
X017541Y006536D03*
X017561Y006536D03*
X017581Y006536D03*
X017601Y006536D03*
X017681Y006156D03*
X017701Y006156D03*
X017721Y006156D03*
X017741Y006156D03*
X017761Y006156D03*
X017781Y006156D03*
X017801Y006156D03*
X017821Y006156D03*
X017841Y006156D03*
X017861Y006156D03*
X017881Y006156D03*
X017901Y006156D03*
X017921Y006156D03*
X017941Y006156D03*
X017601Y005756D03*
X017581Y005756D03*
X017561Y005756D03*
X017541Y005756D03*
X017521Y005756D03*
X017501Y005756D03*
X017481Y005756D03*
X017461Y005756D03*
X017441Y005756D03*
X017421Y005756D03*
X017401Y005756D03*
X017381Y005756D03*
X017361Y005756D03*
X017341Y005756D03*
X017681Y005376D03*
X017701Y005376D03*
X017721Y005376D03*
X017741Y005376D03*
X017761Y005376D03*
X017781Y005376D03*
X017801Y005376D03*
X017821Y005376D03*
X017841Y005376D03*
X017861Y005376D03*
X017881Y005376D03*
X017901Y005376D03*
X017921Y005376D03*
X017941Y005376D03*
X017961Y005376D03*
X017601Y004996D03*
X017581Y004996D03*
X017561Y004996D03*
X017541Y004996D03*
X017521Y004996D03*
X017501Y004996D03*
X017481Y004996D03*
X017461Y004996D03*
X017441Y004996D03*
X017421Y004996D03*
X017401Y004996D03*
X017381Y004996D03*
X017361Y004996D03*
X017341Y004996D03*
D36*
X017281Y007166D03*
X018141Y007166D03*
X017561Y008506D03*
X017321Y008466D03*
X017261Y008526D03*
X017281Y019166D03*
X018141Y019166D03*
X017561Y020506D03*
X017321Y020466D03*
X017261Y020526D03*
D37*
X017621Y017766D03*
X017641Y017766D03*
X017661Y017766D03*
X017661Y005766D03*
X017641Y005766D03*
X017621Y005766D03*
D38*
X017821Y006976D03*
X017841Y006976D03*
X017861Y006976D03*
X017881Y006976D03*
X017901Y006976D03*
X017921Y006976D03*
X017941Y006976D03*
X017961Y006976D03*
X017981Y006976D03*
X018001Y006976D03*
X018021Y006976D03*
X018041Y006976D03*
X018061Y006976D03*
X018081Y006976D03*
X018061Y007396D03*
X018041Y007396D03*
X018021Y007396D03*
X018001Y007396D03*
X017981Y007396D03*
X017961Y007396D03*
X017941Y007396D03*
X017921Y007396D03*
X017901Y007396D03*
X017881Y007396D03*
X017861Y007396D03*
X017841Y007396D03*
X017821Y007396D03*
X017821Y007576D03*
X017841Y007576D03*
X017861Y007576D03*
X017881Y007576D03*
X017901Y007576D03*
X017921Y007576D03*
X017941Y007576D03*
X017961Y007576D03*
X017981Y007576D03*
X018001Y007576D03*
X018021Y007576D03*
X018041Y007576D03*
X018061Y007576D03*
X018081Y007576D03*
X018101Y007576D03*
X018121Y007576D03*
X018141Y007576D03*
X018161Y007576D03*
X018261Y007576D03*
X018281Y007576D03*
X018301Y007576D03*
X018321Y007576D03*
X018321Y007756D03*
X018301Y007756D03*
X018281Y007756D03*
X018261Y007756D03*
X018241Y007756D03*
X018221Y007756D03*
X018201Y007756D03*
X018181Y007756D03*
X018161Y007756D03*
X018141Y007756D03*
X018121Y007756D03*
X018101Y007756D03*
X018081Y007756D03*
X018061Y007756D03*
X018041Y007756D03*
X018021Y007756D03*
X017961Y007756D03*
X017941Y007756D03*
X017921Y007756D03*
X017901Y007756D03*
X017881Y007756D03*
X017861Y007756D03*
X017841Y007756D03*
X017821Y007756D03*
X018061Y007916D03*
X018081Y007936D03*
X018101Y007956D03*
X018101Y008176D03*
X018081Y008336D03*
X018061Y008336D03*
X018041Y008476D03*
X018021Y008476D03*
X018001Y008476D03*
X017981Y008476D03*
X017961Y008476D03*
X017941Y008476D03*
X018081Y008496D03*
X018061Y008736D03*
X018041Y008736D03*
X018021Y008756D03*
X018001Y008756D03*
X017981Y008756D03*
X017961Y008756D03*
X017941Y008736D03*
X017921Y008736D03*
X017921Y018976D03*
X017901Y018976D03*
X017881Y018976D03*
X017861Y018976D03*
X017841Y018976D03*
X017821Y018976D03*
X017941Y018976D03*
X017961Y018976D03*
X017981Y018976D03*
X018001Y018976D03*
X018021Y018976D03*
X018041Y018976D03*
X018061Y018976D03*
X018081Y018976D03*
X018061Y019396D03*
X018041Y019396D03*
X018021Y019396D03*
X018001Y019396D03*
X017981Y019396D03*
X017961Y019396D03*
X017941Y019396D03*
X017921Y019396D03*
X017901Y019396D03*
X017881Y019396D03*
X017861Y019396D03*
X017841Y019396D03*
X017821Y019396D03*
X017821Y019576D03*
X017841Y019576D03*
X017861Y019576D03*
X017881Y019576D03*
X017901Y019576D03*
X017921Y019576D03*
X017941Y019576D03*
X017961Y019576D03*
X017981Y019576D03*
X018001Y019576D03*
X018021Y019576D03*
X018041Y019576D03*
X018061Y019576D03*
X018081Y019576D03*
X018101Y019576D03*
X018121Y019576D03*
X018141Y019576D03*
X018161Y019576D03*
X018261Y019576D03*
X018281Y019576D03*
X018301Y019576D03*
X018321Y019576D03*
X018321Y019756D03*
X018301Y019756D03*
X018281Y019756D03*
X018261Y019756D03*
X018241Y019756D03*
X018221Y019756D03*
X018201Y019756D03*
X018181Y019756D03*
X018161Y019756D03*
X018141Y019756D03*
X018121Y019756D03*
X018101Y019756D03*
X018081Y019756D03*
X018061Y019756D03*
X018041Y019756D03*
X018021Y019756D03*
X017961Y019756D03*
X017941Y019756D03*
X017921Y019756D03*
X017901Y019756D03*
X017881Y019756D03*
X017861Y019756D03*
X017841Y019756D03*
X017821Y019756D03*
X018061Y019916D03*
X018081Y019936D03*
X018101Y019956D03*
X018101Y020176D03*
X018081Y020336D03*
X018061Y020336D03*
X018041Y020476D03*
X018021Y020476D03*
X018001Y020476D03*
X017981Y020476D03*
X017961Y020476D03*
X017941Y020476D03*
X018081Y020496D03*
X018061Y020736D03*
X018041Y020736D03*
X018021Y020756D03*
X018001Y020756D03*
X017981Y020756D03*
X017961Y020756D03*
X017941Y020736D03*
X017921Y020736D03*
D39*
X018106Y020281D02*
X018106Y020206D01*
X017256Y020381D02*
X017256Y020431D01*
X017256Y019131D02*
X017256Y019081D01*
X017256Y008431D02*
X017256Y008381D01*
X018106Y008281D02*
X018106Y008206D01*
X017256Y007131D02*
X017256Y007081D01*
D40*
X004363Y021676D03*
X002953Y022396D03*
X003063Y023266D03*
X002643Y023316D03*
X002633Y023506D03*
X002213Y023556D03*
X002213Y023266D03*
X001923Y023176D03*
X001913Y023186D03*
X001833Y023566D03*
X001833Y023576D03*
X001653Y024186D03*
X000933Y024046D03*
X000933Y024036D03*
X000923Y023996D03*
X000923Y023986D03*
X000923Y023976D03*
X000923Y023966D03*
X000913Y023906D03*
X000913Y023896D03*
X000913Y023886D03*
X000913Y023876D03*
X000913Y023866D03*
X000913Y023856D03*
X000913Y023606D03*
X000913Y023596D03*
X000913Y023586D03*
X000913Y023576D03*
X000913Y023566D03*
X000913Y023556D03*
X000923Y023496D03*
X000923Y023486D03*
X000923Y023476D03*
X000923Y023466D03*
X000923Y023456D03*
X000933Y023426D03*
X000933Y023416D03*
X000933Y023406D03*
X002143Y022476D03*
X002323Y022396D03*
X003453Y023576D03*
X003453Y023586D03*
X004373Y023636D03*
X004373Y023646D03*
X004373Y023656D03*
X004373Y023666D03*
X004373Y023676D03*
X004373Y023686D03*
X004373Y023696D03*
X004373Y023706D03*
X004373Y023716D03*
X004373Y023726D03*
X004373Y023736D03*
X004373Y023746D03*
X004373Y023756D03*
X004373Y023766D03*
X004373Y023776D03*
X004373Y023786D03*
X004373Y023796D03*
X004373Y023806D03*
X004373Y023816D03*
X004373Y023826D03*
X004353Y023996D03*
X004343Y024056D03*
X004343Y024066D03*
X002273Y025036D03*
D41*
X002273Y025026D03*
X001013Y024336D03*
X001003Y024306D03*
X001003Y024296D03*
X000993Y024276D03*
X000983Y024256D03*
X000983Y024246D03*
X000983Y024236D03*
X000973Y024216D03*
X000973Y024206D03*
X000963Y024176D03*
X000953Y024136D03*
X000953Y023326D03*
X000973Y023256D03*
X000973Y023246D03*
X000983Y023226D03*
X000983Y023216D03*
X000983Y023206D03*
X000993Y023186D03*
X001003Y023156D03*
X001013Y023126D03*
X001843Y023596D03*
X001843Y023606D03*
X001943Y023156D03*
X002213Y023546D03*
X002643Y023536D03*
X002643Y023296D03*
X003083Y022456D03*
X002973Y022406D03*
X003343Y023156D03*
X003433Y023616D03*
X003613Y024196D03*
X004253Y024366D03*
X004263Y024346D03*
X004263Y024336D03*
X004273Y024316D03*
X004283Y024296D03*
X004283Y024286D03*
X004283Y024276D03*
X004293Y024266D03*
X004293Y024256D03*
X004293Y024246D03*
X004303Y024226D03*
X004303Y024216D03*
X004363Y023516D03*
X004363Y023506D03*
X004363Y023496D03*
X004363Y023486D03*
X004363Y023476D03*
X004363Y023466D03*
X004363Y022616D03*
X004363Y022606D03*
X004363Y022596D03*
X004363Y022586D03*
X004363Y022576D03*
X004363Y022566D03*
X004363Y022556D03*
X004363Y022546D03*
X004363Y022536D03*
X004363Y022526D03*
X004363Y022516D03*
X004363Y022506D03*
X004363Y022496D03*
X004363Y022486D03*
X004363Y022476D03*
X004363Y022466D03*
X004363Y022456D03*
X004363Y022446D03*
X004363Y022436D03*
X004363Y022426D03*
X004363Y022416D03*
X004363Y022406D03*
X004363Y022396D03*
X004363Y022386D03*
X004363Y022376D03*
X004363Y022366D03*
X004363Y022356D03*
X004363Y022346D03*
X004363Y022336D03*
X004363Y022326D03*
X004363Y022316D03*
X004363Y022306D03*
X004363Y022296D03*
X004363Y022286D03*
X004363Y022276D03*
X004363Y022266D03*
X004363Y022256D03*
X004363Y022246D03*
X004363Y022236D03*
X004363Y022226D03*
X004363Y022216D03*
X004363Y022206D03*
X004363Y022196D03*
X004363Y022186D03*
X004363Y022176D03*
X004363Y022166D03*
X004363Y022156D03*
X004363Y022146D03*
X004363Y022136D03*
X004363Y022126D03*
X004363Y022116D03*
X004363Y022106D03*
X004363Y022096D03*
X004363Y022086D03*
X004363Y022076D03*
X004363Y022066D03*
X004363Y022056D03*
X004363Y022046D03*
X004363Y022036D03*
X004363Y022026D03*
X004363Y022016D03*
X004363Y022006D03*
X004363Y021996D03*
X004363Y021986D03*
X004363Y021976D03*
X004363Y021966D03*
X004363Y021956D03*
X004363Y021946D03*
X004363Y021936D03*
X004363Y021926D03*
X004363Y021916D03*
X004363Y021906D03*
X004363Y021896D03*
X004363Y021886D03*
X004363Y021876D03*
X004363Y021866D03*
X004363Y021856D03*
X004363Y021846D03*
X004363Y021836D03*
X004363Y021826D03*
X004363Y021816D03*
X004363Y021806D03*
X004363Y021796D03*
X004363Y021786D03*
X004363Y021776D03*
X004363Y021766D03*
X004363Y021756D03*
X004363Y021746D03*
X004363Y021736D03*
X004363Y021726D03*
X004363Y021716D03*
X004363Y021706D03*
X004363Y021696D03*
X004363Y021686D03*
D42*
X003193Y023296D03*
X003063Y023376D03*
X003063Y023426D03*
X003063Y023436D03*
X002953Y023536D03*
X002943Y023296D03*
X002953Y023286D03*
X003193Y023526D03*
X002563Y023356D03*
X002333Y023296D03*
X002213Y023216D03*
X002213Y023396D03*
X002213Y023406D03*
X002213Y023416D03*
X002213Y023426D03*
X002333Y023526D03*
X002743Y022296D03*
X002633Y021836D03*
X004013Y023426D03*
X004003Y023456D03*
X003993Y023486D03*
X003543Y024296D03*
X001273Y023446D03*
D43*
X001613Y022946D03*
X001623Y022936D03*
X001633Y022926D03*
X001283Y022656D03*
X001303Y022626D03*
X001313Y022616D03*
X001323Y022606D03*
X001333Y022596D03*
X002633Y021846D03*
X003643Y022926D03*
X003653Y022936D03*
X003963Y022616D03*
X003953Y022606D03*
X004323Y023166D03*
X004323Y023176D03*
X004323Y023186D03*
X003583Y024176D03*
X004003Y024796D03*
X003993Y024806D03*
X003983Y024816D03*
X003093Y024846D03*
X003013Y025026D03*
X002643Y024866D03*
X002273Y024986D03*
X002643Y025616D03*
X001313Y024836D03*
X001303Y024826D03*
X001293Y024816D03*
X001283Y024806D03*
X001273Y024786D03*
X001263Y024776D03*
X002653Y023586D03*
D44*
X002643Y023176D03*
X002643Y022656D03*
X002643Y021856D03*
X003633Y022326D03*
X004253Y022896D03*
X003643Y025126D03*
X001623Y025116D03*
X001633Y022336D03*
D45*
X002633Y021866D03*
X002043Y023806D03*
X001823Y024096D03*
X001813Y025226D03*
X003463Y025226D03*
X004193Y022726D03*
D46*
X002643Y022696D03*
X002633Y021876D03*
X003363Y025266D03*
D47*
X003343Y024076D03*
X002633Y021886D03*
D48*
X002643Y021896D03*
X002643Y022736D03*
D49*
X002643Y021906D03*
D50*
X002633Y021916D03*
X002643Y022786D03*
D51*
X002643Y022806D03*
X002633Y021926D03*
X002643Y025536D03*
D52*
X002643Y025526D03*
X002633Y024376D03*
X002643Y022826D03*
X002633Y021936D03*
D53*
X002638Y021946D03*
X002638Y022856D03*
D54*
X002643Y021956D03*
D55*
X002638Y021966D03*
X002638Y022916D03*
X002648Y024406D03*
D56*
X002638Y024696D03*
X002638Y022936D03*
X002638Y021976D03*
D57*
X002633Y021986D03*
X002643Y022966D03*
X002633Y024616D03*
X002633Y024626D03*
D58*
X002628Y024576D03*
X002628Y024566D03*
X002658Y024426D03*
X002638Y025466D03*
X002638Y022986D03*
X002638Y021996D03*
D59*
X002638Y022006D03*
X002638Y023016D03*
X002628Y024486D03*
X002628Y024496D03*
X002628Y024506D03*
X002638Y025456D03*
D60*
X002638Y023056D03*
X002638Y022016D03*
D61*
X002638Y022026D03*
X002638Y023086D03*
X002638Y023936D03*
D62*
X002638Y023126D03*
X002638Y022036D03*
D63*
X002638Y022046D03*
D64*
X002638Y022056D03*
D65*
X002643Y022066D03*
D66*
X002633Y022076D03*
D67*
X002638Y022086D03*
X002638Y023776D03*
X002638Y023786D03*
X002638Y025376D03*
D68*
X002638Y022096D03*
D69*
X002638Y022106D03*
X002638Y025356D03*
D70*
X002638Y025346D03*
X002638Y023986D03*
X002638Y022116D03*
D71*
X002638Y022126D03*
X002638Y023996D03*
D72*
X002638Y025326D03*
X002638Y022136D03*
D73*
X002638Y022146D03*
X002638Y024006D03*
D74*
X002643Y022156D03*
D75*
X002638Y022726D03*
X002018Y022166D03*
X003258Y022166D03*
X002628Y024336D03*
D76*
X003293Y025286D03*
X002643Y025576D03*
X001983Y022176D03*
X003303Y022176D03*
D77*
X003348Y022186D03*
X001928Y022186D03*
X001918Y025266D03*
X002638Y025586D03*
D78*
X001893Y025256D03*
X003373Y022196D03*
X004153Y022636D03*
X004153Y022646D03*
D79*
X004148Y022626D03*
X001908Y022196D03*
D80*
X001883Y022206D03*
X002643Y022686D03*
X003403Y022206D03*
X004163Y022666D03*
X003423Y024096D03*
D81*
X004178Y022696D03*
X003428Y022216D03*
D82*
X004173Y022686D03*
X002633Y023676D03*
X002623Y024316D03*
X003413Y025246D03*
X001853Y022216D03*
D83*
X001828Y022226D03*
X003238Y023806D03*
X004188Y022716D03*
X003448Y022226D03*
D84*
X003468Y022236D03*
X004198Y022736D03*
X003468Y024116D03*
X003488Y025216D03*
X002258Y024726D03*
X001798Y025216D03*
X001788Y022246D03*
X001808Y022236D03*
D85*
X001768Y022256D03*
X003488Y022246D03*
X003508Y022256D03*
X004208Y022766D03*
X001768Y025206D03*
D86*
X001748Y025196D03*
X002238Y024736D03*
X002968Y024906D03*
X003528Y025196D03*
X003548Y025186D03*
X002638Y023666D03*
X001748Y022266D03*
X003528Y022266D03*
X004218Y022786D03*
X004218Y022796D03*
D87*
X004228Y022816D03*
X003548Y022276D03*
X002638Y023866D03*
X003038Y024736D03*
X003578Y025166D03*
X002238Y024746D03*
X001718Y025176D03*
D88*
X003068Y023356D03*
X003508Y024316D03*
X002698Y022276D03*
X002588Y022276D03*
D89*
X001733Y022276D03*
X003493Y024126D03*
X003563Y025176D03*
X004223Y022806D03*
X001733Y025186D03*
D90*
X001703Y025166D03*
X001773Y024116D03*
X002973Y024916D03*
X003593Y025156D03*
X004233Y022836D03*
X004233Y022826D03*
X003583Y022296D03*
X003563Y022286D03*
X001713Y022286D03*
D91*
X002058Y023336D03*
X002048Y023356D03*
X002048Y023366D03*
X002038Y023396D03*
X002038Y023406D03*
X002038Y023416D03*
X002038Y023426D03*
X002038Y023436D03*
X002048Y023466D03*
X002048Y023476D03*
X002208Y023456D03*
X002378Y023466D03*
X002378Y023476D03*
X002388Y023446D03*
X002388Y023436D03*
X002388Y023426D03*
X002388Y023416D03*
X002388Y023406D03*
X002388Y023396D03*
X002388Y023386D03*
X002388Y023376D03*
X002388Y023366D03*
X002378Y023356D03*
X002378Y023346D03*
X002218Y023676D03*
X001608Y023926D03*
X002268Y025116D03*
X002908Y023486D03*
X002898Y023466D03*
X002898Y023456D03*
X002888Y023426D03*
X002888Y023416D03*
X002888Y023406D03*
X002888Y023396D03*
X002898Y023376D03*
X002898Y023366D03*
X002898Y023356D03*
X003228Y023356D03*
X003228Y023346D03*
X003238Y023366D03*
X003238Y023376D03*
X003238Y023446D03*
X003238Y023456D03*
X003228Y023476D03*
X003528Y024306D03*
X002718Y022286D03*
D92*
X002563Y022286D03*
X002213Y023366D03*
X002043Y023376D03*
X002043Y023386D03*
X002043Y023446D03*
X002043Y023456D03*
X001743Y024306D03*
X002633Y024806D03*
X002893Y023446D03*
X002893Y023436D03*
X002893Y023386D03*
X003063Y023366D03*
X003243Y023386D03*
X003243Y023396D03*
X003243Y023406D03*
X003243Y023416D03*
X003243Y023426D03*
X003243Y023436D03*
X003233Y023466D03*
D93*
X003218Y023326D03*
X003208Y023316D03*
X003198Y023306D03*
X002928Y023306D03*
X002928Y023516D03*
X002938Y023526D03*
X002638Y023856D03*
X002348Y023516D03*
X002358Y023506D03*
X002208Y023436D03*
X002218Y023386D03*
X002348Y023306D03*
X002358Y023316D03*
X002088Y023296D03*
X002078Y023306D03*
X002068Y023506D03*
X002078Y023516D03*
X002088Y023526D03*
X002538Y022296D03*
X003038Y025146D03*
X002638Y025626D03*
D94*
X002978Y024926D03*
X003048Y024746D03*
X003608Y025146D03*
X002228Y024756D03*
X001688Y025156D03*
X002648Y023166D03*
X001698Y022296D03*
X001678Y022306D03*
X004238Y022846D03*
D95*
X004243Y022856D03*
X004243Y022866D03*
X003603Y022306D03*
X002643Y023656D03*
X003513Y024136D03*
X002983Y024936D03*
X001673Y025146D03*
X001663Y022316D03*
D96*
X001358Y023636D03*
X001368Y023656D03*
X001378Y023666D03*
X001388Y023686D03*
X001398Y023696D03*
X001408Y023706D03*
X001418Y023726D03*
X001428Y023736D03*
X001438Y023746D03*
X002768Y022306D03*
X003458Y022866D03*
X003158Y023276D03*
X003658Y023916D03*
X003858Y023726D03*
X003868Y023716D03*
X003878Y023706D03*
X003888Y023686D03*
X003898Y023676D03*
X003908Y023656D03*
X003918Y023646D03*
X003928Y023626D03*
X004008Y023396D03*
D97*
X004013Y023406D03*
X003973Y023536D03*
X003943Y023596D03*
X003943Y023606D03*
X003933Y023616D03*
X003923Y023636D03*
X003903Y023666D03*
X003883Y023696D03*
X003563Y024286D03*
X002263Y025106D03*
X001693Y024276D03*
X001613Y023916D03*
X001383Y023676D03*
X001363Y023646D03*
X001353Y023626D03*
X001343Y023616D03*
X001343Y023606D03*
X001333Y023596D03*
X001323Y023576D03*
X001313Y023556D03*
X001303Y023526D03*
X001273Y023396D03*
X001823Y022866D03*
X002323Y023286D03*
X002643Y022616D03*
X002513Y022306D03*
D98*
X001648Y022326D03*
X003318Y023686D03*
X003058Y024756D03*
X003628Y025136D03*
X002228Y024766D03*
X001648Y025136D03*
X001638Y025126D03*
X003618Y022316D03*
X004248Y022876D03*
X004248Y022886D03*
D99*
X003763Y023146D03*
X003753Y023136D03*
X003743Y023126D03*
X003733Y023116D03*
X003723Y023106D03*
X003713Y023096D03*
X003703Y023086D03*
X003673Y022816D03*
X003663Y022806D03*
X003653Y022796D03*
X002793Y022316D03*
X002483Y022316D03*
X001613Y022806D03*
X001603Y022816D03*
X001593Y022826D03*
X001613Y023056D03*
X001603Y023066D03*
X001593Y023076D03*
X001583Y023086D03*
X001543Y023116D03*
X001533Y023126D03*
X001523Y023136D03*
X001513Y023146D03*
X001503Y023156D03*
X001493Y023166D03*
X001483Y023176D03*
X001473Y023186D03*
X001283Y023366D03*
X001483Y023786D03*
X001493Y023796D03*
X001503Y023806D03*
X001513Y023816D03*
X001673Y024256D03*
X002263Y025096D03*
X003583Y024266D03*
X003783Y023806D03*
X003793Y023796D03*
X003803Y023786D03*
X001843Y023366D03*
D100*
X001458Y023196D03*
X001448Y023206D03*
X001438Y023216D03*
X001428Y023226D03*
X001418Y023236D03*
X001408Y023246D03*
X001628Y022796D03*
X001638Y022786D03*
X001648Y022776D03*
X001658Y022766D03*
X001528Y023826D03*
X002818Y022326D03*
X003608Y022756D03*
X003618Y022766D03*
X003628Y022776D03*
X003638Y022786D03*
X003778Y023156D03*
X003788Y023166D03*
X003798Y023176D03*
X003808Y023186D03*
X003818Y023196D03*
X003828Y023206D03*
X003838Y023216D03*
X003848Y023226D03*
X003858Y023236D03*
X003998Y023366D03*
X003768Y023816D03*
D101*
X003753Y023826D03*
X003653Y023906D03*
X003593Y024256D03*
X003033Y025126D03*
X002643Y024816D03*
X002483Y024906D03*
X001623Y023906D03*
X001543Y023836D03*
X001373Y023276D03*
X001383Y023266D03*
X001393Y023256D03*
X001673Y022756D03*
X001683Y022746D03*
X001693Y022736D03*
X001723Y022716D03*
X002213Y023226D03*
X002213Y023596D03*
X003063Y023226D03*
X003573Y022726D03*
X003583Y022736D03*
X003593Y022746D03*
X003873Y023246D03*
X003883Y023256D03*
X003893Y023266D03*
X003993Y023356D03*
X002463Y022326D03*
D102*
X001618Y022346D03*
X002638Y023646D03*
X001978Y023816D03*
X001748Y024126D03*
X002218Y024776D03*
X001608Y025106D03*
X002638Y025606D03*
X002988Y024946D03*
X003658Y025116D03*
X003298Y023816D03*
X004258Y022916D03*
X004258Y022906D03*
X003648Y022336D03*
D103*
X003528Y022696D03*
X003558Y022716D03*
X003488Y022876D03*
X003908Y023276D03*
X003918Y023286D03*
X003948Y023306D03*
X003958Y023316D03*
X003968Y023326D03*
X003978Y023336D03*
X003988Y023346D03*
X003738Y023836D03*
X003068Y023596D03*
X002838Y022336D03*
X001738Y022706D03*
X001708Y022726D03*
X001358Y023286D03*
X001348Y023296D03*
X001338Y023306D03*
X001288Y023356D03*
X001558Y023846D03*
X001648Y024236D03*
X001658Y024246D03*
X002268Y025086D03*
D104*
X001643Y024226D03*
X001573Y023856D03*
X001293Y023346D03*
X001303Y023336D03*
X001313Y023326D03*
X001323Y023316D03*
X001793Y022876D03*
X001753Y022696D03*
X001763Y022686D03*
X001783Y022676D03*
X001793Y022666D03*
X002443Y022336D03*
X003473Y022656D03*
X003503Y022676D03*
X003513Y022686D03*
X003543Y022706D03*
X003453Y023306D03*
X003463Y023346D03*
X003473Y023356D03*
X003723Y023846D03*
X003703Y023856D03*
X003933Y023296D03*
D105*
X004263Y022936D03*
X004263Y022926D03*
X003673Y022356D03*
X003663Y022346D03*
X001603Y022356D03*
X002293Y024916D03*
X001593Y025096D03*
X001583Y025086D03*
X002993Y024956D03*
X003063Y024766D03*
X003673Y025106D03*
X003683Y025096D03*
X003703Y025086D03*
D106*
X003608Y024246D03*
X003618Y024236D03*
X003068Y023586D03*
X003068Y023236D03*
X003438Y023266D03*
X003438Y023276D03*
X003448Y023286D03*
X003448Y023296D03*
X003458Y023316D03*
X003458Y023326D03*
X003458Y023336D03*
X003488Y022666D03*
X003458Y022646D03*
X003448Y022636D03*
X003428Y022626D03*
X003398Y022606D03*
X002858Y022346D03*
X002218Y023236D03*
X001828Y023326D03*
X001818Y023346D03*
X001818Y023356D03*
X001808Y022656D03*
X001818Y022646D03*
X001838Y022636D03*
X001848Y022626D03*
X002608Y024296D03*
X002268Y025076D03*
X003038Y025116D03*
D107*
X003623Y024226D03*
X003483Y023466D03*
X003483Y023456D03*
X003483Y023446D03*
X003433Y023256D03*
X003423Y023246D03*
X003423Y023236D03*
X003413Y022616D03*
X003383Y022596D03*
X003363Y022586D03*
X002423Y022346D03*
X001903Y022596D03*
X001883Y022606D03*
X001863Y022616D03*
X001843Y023286D03*
X001843Y023296D03*
X001833Y023306D03*
X001833Y023316D03*
X001823Y023336D03*
X002213Y023586D03*
X001833Y023856D03*
X001633Y024216D03*
D108*
X001638Y023896D03*
X001808Y023456D03*
X001918Y022586D03*
X001938Y022576D03*
X001948Y022566D03*
X002878Y022356D03*
X003308Y022556D03*
X003328Y022566D03*
X003348Y022576D03*
X003408Y023216D03*
X003418Y023226D03*
X003478Y023476D03*
X003478Y023486D03*
X003448Y023856D03*
X003638Y023896D03*
D109*
X003473Y023506D03*
X003473Y023496D03*
X003513Y022886D03*
X002403Y022356D03*
X001993Y022546D03*
X001973Y022556D03*
X001863Y023256D03*
X001853Y023276D03*
X001813Y023466D03*
X001813Y023476D03*
X002213Y023576D03*
X002213Y023246D03*
X001633Y024206D03*
X002273Y025066D03*
X002643Y024826D03*
X003033Y025106D03*
X003623Y024216D03*
D110*
X003538Y024146D03*
X003068Y024776D03*
X003718Y025076D03*
X002638Y023186D03*
X001588Y022366D03*
X001578Y022376D03*
X002218Y024786D03*
X001568Y025076D03*
X003688Y022366D03*
X004268Y022946D03*
D111*
X003393Y023196D03*
X003383Y023186D03*
X003463Y023526D03*
X003463Y023536D03*
X002643Y023456D03*
X001883Y023226D03*
X001873Y023236D03*
X001813Y023496D03*
X002033Y022526D03*
X002903Y022366D03*
X003233Y022516D03*
X003243Y022526D03*
X003263Y022536D03*
X002273Y025056D03*
D112*
X001818Y023486D03*
X001858Y023266D03*
X001868Y023246D03*
X002008Y022536D03*
X002378Y022366D03*
X003288Y022546D03*
X003398Y023206D03*
X003468Y023516D03*
X003068Y023576D03*
X003068Y023246D03*
D113*
X002643Y023636D03*
X001733Y024136D03*
X002293Y024926D03*
X001553Y025066D03*
X002993Y024966D03*
X003733Y025066D03*
X003743Y025056D03*
X004273Y022966D03*
X004273Y022956D03*
X003713Y022386D03*
X003703Y022376D03*
X001563Y022386D03*
D114*
X002048Y022516D03*
X002358Y022376D03*
X002918Y022376D03*
X003208Y022506D03*
X003068Y023256D03*
X003068Y023566D03*
X003458Y023546D03*
X002638Y023486D03*
X002638Y023476D03*
X001888Y023216D03*
X001818Y023506D03*
X001818Y023516D03*
X001818Y023526D03*
X001818Y023536D03*
X001638Y024196D03*
X003028Y025096D03*
D115*
X003028Y025086D03*
X002648Y024836D03*
X003418Y023846D03*
X003628Y023886D03*
X003458Y023566D03*
X003358Y023166D03*
X003068Y023556D03*
X002638Y023496D03*
X002648Y023336D03*
X002648Y023326D03*
X003138Y022476D03*
X003158Y022486D03*
X002938Y022386D03*
X002118Y022486D03*
X001828Y023556D03*
D116*
X001823Y023546D03*
X001863Y023846D03*
X001653Y023886D03*
X001893Y023206D03*
X001903Y023196D03*
X002213Y023256D03*
X002213Y023566D03*
X002643Y023466D03*
X002643Y023346D03*
X002343Y022386D03*
X002093Y022496D03*
X002073Y022506D03*
X003183Y022496D03*
X003373Y023176D03*
X003453Y023556D03*
X003623Y024206D03*
X002273Y025046D03*
D117*
X002288Y024936D03*
X002208Y024796D03*
X001538Y025056D03*
X001528Y025046D03*
X002648Y023626D03*
X002638Y023196D03*
X001548Y022396D03*
X001538Y022406D03*
X003078Y024786D03*
X003758Y025046D03*
X004278Y022976D03*
X003728Y022396D03*
D118*
X003743Y022406D03*
X003753Y022416D03*
X004283Y022986D03*
X004283Y022996D03*
X004283Y023006D03*
X003553Y024156D03*
X003763Y025036D03*
X003003Y024976D03*
X002653Y024896D03*
X002613Y024306D03*
X002643Y023616D03*
X001513Y022426D03*
X001523Y022416D03*
X001493Y025016D03*
X001503Y025026D03*
X001513Y025036D03*
D119*
X000978Y024226D03*
X000968Y024196D03*
X000968Y024186D03*
X000958Y024166D03*
X000958Y024156D03*
X000958Y024146D03*
X000948Y024126D03*
X000948Y024116D03*
X000948Y024106D03*
X000948Y024096D03*
X000938Y024086D03*
X000938Y024076D03*
X000938Y024066D03*
X000938Y024056D03*
X000928Y024026D03*
X000928Y024016D03*
X000928Y024006D03*
X000918Y023956D03*
X000918Y023946D03*
X000918Y023936D03*
X000918Y023926D03*
X000918Y023916D03*
X000908Y023846D03*
X000908Y023836D03*
X000908Y023826D03*
X000908Y023816D03*
X000908Y023806D03*
X000908Y023796D03*
X000908Y023786D03*
X000908Y023776D03*
X000908Y023766D03*
X000908Y023756D03*
X000908Y023746D03*
X000908Y023736D03*
X000908Y023726D03*
X000908Y023716D03*
X000908Y023706D03*
X000908Y023696D03*
X000908Y023686D03*
X000908Y023676D03*
X000908Y023666D03*
X000908Y023656D03*
X000908Y023646D03*
X000908Y023636D03*
X000908Y023626D03*
X000908Y023616D03*
X000918Y023546D03*
X000918Y023536D03*
X000918Y023526D03*
X000918Y023516D03*
X000918Y023506D03*
X000928Y023446D03*
X000928Y023436D03*
X000938Y023396D03*
X000938Y023386D03*
X000938Y023376D03*
X000948Y023366D03*
X000948Y023356D03*
X000948Y023346D03*
X000948Y023336D03*
X000958Y023316D03*
X000958Y023306D03*
X000958Y023296D03*
X000958Y023286D03*
X000968Y023276D03*
X000968Y023266D03*
X000978Y023236D03*
X001838Y023586D03*
X001928Y023166D03*
X002168Y022466D03*
X002308Y022406D03*
X002648Y023306D03*
X002638Y023516D03*
X002638Y023526D03*
X003068Y023546D03*
X003438Y023606D03*
X003448Y023596D03*
X003108Y022466D03*
X004368Y023526D03*
X004368Y023536D03*
X004368Y023546D03*
X004368Y023556D03*
X004368Y023566D03*
X004368Y023576D03*
X004368Y023586D03*
X004368Y023596D03*
X004368Y023606D03*
X004368Y023616D03*
X004368Y023626D03*
X004368Y023836D03*
X004368Y023846D03*
X004368Y023856D03*
X004368Y023866D03*
X004368Y023876D03*
X004368Y023886D03*
X004368Y023896D03*
X004368Y023906D03*
X004368Y023916D03*
X004368Y023926D03*
X004358Y023936D03*
X004358Y023946D03*
X004358Y023956D03*
X004358Y023966D03*
X004358Y023976D03*
X004358Y023986D03*
X004348Y024006D03*
X004348Y024016D03*
X004348Y024026D03*
X004348Y024036D03*
X004348Y024046D03*
X004338Y024076D03*
X004338Y024086D03*
X004338Y024096D03*
X004338Y024106D03*
X004328Y024116D03*
X004328Y024126D03*
X004328Y024136D03*
X004328Y024146D03*
X004318Y024156D03*
X004318Y024166D03*
X004318Y024176D03*
X004318Y024186D03*
X004308Y024196D03*
X004308Y024206D03*
X004298Y024236D03*
X003028Y025076D03*
D120*
X003018Y025066D03*
X002648Y024846D03*
X002268Y025016D03*
X001068Y024466D03*
X001048Y024416D03*
X001038Y024396D03*
X001038Y024386D03*
X001028Y024376D03*
X001028Y024366D03*
X001018Y024356D03*
X001018Y024346D03*
X001008Y024326D03*
X001008Y024316D03*
X000998Y024286D03*
X000988Y024266D03*
X000988Y023196D03*
X000998Y023176D03*
X000998Y023166D03*
X001008Y023146D03*
X001008Y023136D03*
X001018Y023116D03*
X001018Y023106D03*
X001028Y023096D03*
X001028Y023086D03*
X001038Y023076D03*
X001038Y023066D03*
X001048Y023046D03*
X001058Y023016D03*
X001848Y023616D03*
X002638Y023546D03*
X002638Y022626D03*
X002288Y022416D03*
X002198Y022456D03*
X002988Y022416D03*
X003008Y022426D03*
X004358Y023396D03*
X004358Y023406D03*
X004358Y023416D03*
X004358Y023426D03*
X004358Y023436D03*
X004358Y023446D03*
X004358Y023456D03*
X004278Y024306D03*
X004268Y024326D03*
X004258Y024356D03*
X004248Y024376D03*
X004248Y024386D03*
X004238Y024396D03*
X004238Y024406D03*
X004228Y024416D03*
X004228Y024426D03*
X004218Y024446D03*
D121*
X003798Y025006D03*
X003788Y025016D03*
X003778Y025026D03*
X003078Y024796D03*
X002288Y024946D03*
X002208Y024806D03*
X001478Y025006D03*
X001468Y024996D03*
X002638Y023206D03*
X002638Y022646D03*
X003768Y022426D03*
X003778Y022436D03*
X004288Y023016D03*
X004288Y023026D03*
X001498Y022436D03*
X001488Y022446D03*
D122*
X001093Y022946D03*
X001083Y022966D03*
X001073Y022976D03*
X001073Y022986D03*
X001063Y022996D03*
X001063Y023006D03*
X001053Y023026D03*
X001053Y023036D03*
X001043Y023056D03*
X001663Y024176D03*
X001083Y024486D03*
X001083Y024496D03*
X001093Y024506D03*
X001093Y024516D03*
X001073Y024476D03*
X001063Y024456D03*
X001063Y024446D03*
X001053Y024436D03*
X001053Y024426D03*
X001043Y024406D03*
X002193Y024896D03*
X002193Y024906D03*
X003023Y025056D03*
X003103Y024896D03*
X003423Y023626D03*
X002643Y023556D03*
X002643Y023286D03*
X002643Y023276D03*
X003053Y022446D03*
X002273Y022426D03*
X004223Y024436D03*
X004213Y024456D03*
X004213Y024466D03*
X004203Y024476D03*
X004203Y024486D03*
X004193Y024496D03*
X004193Y024506D03*
X004183Y024516D03*
X004173Y024536D03*
X004353Y023386D03*
X004353Y023376D03*
X004353Y023366D03*
X004353Y023356D03*
D123*
X004348Y023346D03*
X004348Y023336D03*
X004348Y023326D03*
X004348Y023316D03*
X003608Y023876D03*
X003418Y023636D03*
X003318Y023146D03*
X003028Y022436D03*
X002258Y022436D03*
X002228Y022446D03*
X001858Y023626D03*
X001898Y023836D03*
X001668Y023876D03*
X001098Y024526D03*
X001108Y024536D03*
X001108Y024546D03*
X001118Y024556D03*
X001128Y024566D03*
X001128Y024576D03*
X001138Y024586D03*
X001138Y024596D03*
X001148Y024606D03*
X002268Y025006D03*
X001088Y022956D03*
X001098Y022936D03*
X001108Y022926D03*
X001108Y022916D03*
X001118Y022906D03*
X001118Y022896D03*
X001128Y022886D03*
X001138Y022866D03*
X001148Y022846D03*
X004158Y024556D03*
X004158Y024566D03*
X004148Y024576D03*
X004148Y024586D03*
X004138Y024596D03*
X004168Y024546D03*
X004178Y024526D03*
D124*
X003833Y024976D03*
X003823Y024986D03*
X003813Y024996D03*
X003083Y024806D03*
X003003Y024986D03*
X002653Y024886D03*
X002203Y024816D03*
X001463Y024986D03*
X001453Y022476D03*
X001463Y022466D03*
X001473Y022456D03*
X003793Y022446D03*
X003803Y022456D03*
X003813Y022466D03*
X004293Y023036D03*
X004293Y023046D03*
D125*
X004298Y023056D03*
X004298Y023066D03*
X003848Y022496D03*
X003838Y022486D03*
X003828Y022476D03*
X003088Y024816D03*
X003008Y024996D03*
X002278Y024956D03*
X001708Y024146D03*
X001438Y024966D03*
X001448Y024976D03*
X003848Y024966D03*
X003858Y024956D03*
X003868Y024946D03*
D126*
X003873Y024936D03*
X003563Y024166D03*
X004303Y023086D03*
X004303Y023076D03*
X003863Y022506D03*
X002633Y023216D03*
X002643Y023606D03*
X001913Y023676D03*
X002203Y024826D03*
X001423Y024956D03*
X001413Y024946D03*
X001403Y024936D03*
X001393Y024926D03*
X001423Y022506D03*
X001433Y022496D03*
X001443Y022486D03*
D127*
X001408Y022516D03*
X001398Y022526D03*
X001388Y022536D03*
X001378Y022546D03*
X001898Y023666D03*
X001928Y023826D03*
X002198Y024836D03*
X002278Y024966D03*
X002648Y024876D03*
X003008Y025006D03*
X003088Y024826D03*
X003348Y023826D03*
X003908Y024906D03*
X003898Y024916D03*
X003888Y024926D03*
X004308Y023106D03*
X004308Y023096D03*
X003908Y022556D03*
X003898Y022546D03*
X003888Y022536D03*
X003878Y022526D03*
X003868Y022516D03*
X001388Y024916D03*
X001378Y024906D03*
X001368Y024896D03*
X001358Y024886D03*
D128*
X001693Y024156D03*
X002203Y024846D03*
X003093Y024836D03*
X003383Y023676D03*
X003613Y022896D03*
X003923Y022576D03*
X003913Y022566D03*
X004313Y023116D03*
X004313Y023126D03*
X004313Y023136D03*
X003943Y024866D03*
X003933Y024876D03*
X003923Y024886D03*
X003913Y024896D03*
X002643Y023596D03*
X001673Y022886D03*
X001663Y022896D03*
X001653Y022906D03*
X001353Y022576D03*
X001363Y022566D03*
X001373Y022556D03*
D129*
X001338Y022586D03*
X001648Y022916D03*
X001688Y023866D03*
X001318Y024846D03*
X001328Y024856D03*
X001338Y024866D03*
X001348Y024876D03*
X002198Y024856D03*
X002278Y024976D03*
X003008Y025016D03*
X003948Y024856D03*
X003958Y024846D03*
X003968Y024836D03*
X003978Y024826D03*
X003588Y023866D03*
X003638Y022916D03*
X003628Y022906D03*
X003938Y022586D03*
X003948Y022596D03*
X004318Y023146D03*
X004318Y023156D03*
X002638Y023226D03*
D130*
X002638Y023236D03*
X002638Y022636D03*
X001878Y023656D03*
X001608Y022956D03*
X001278Y022666D03*
X001268Y022676D03*
X001258Y022686D03*
X001288Y022646D03*
X001298Y022636D03*
X001248Y024756D03*
X001258Y024766D03*
X001278Y024796D03*
X002198Y024866D03*
X003098Y024856D03*
X004008Y024786D03*
X004018Y024776D03*
X004038Y024746D03*
X004048Y024736D03*
X003398Y023666D03*
X003688Y022966D03*
X003678Y022956D03*
X003668Y022946D03*
X004328Y023196D03*
X004328Y023206D03*
X004328Y023216D03*
D131*
X004158Y022656D03*
X003388Y025256D03*
D132*
X003033Y024726D03*
X001793Y024106D03*
X002633Y023156D03*
X002643Y022666D03*
X004213Y022776D03*
D133*
X004168Y022676D03*
X001848Y024086D03*
X001868Y025246D03*
D134*
X001833Y025236D03*
X002273Y024716D03*
X003003Y024716D03*
X003443Y025236D03*
X003443Y024106D03*
X004183Y022706D03*
X002643Y022676D03*
D135*
X002643Y023246D03*
X003403Y023656D03*
X003693Y022976D03*
X004333Y023226D03*
X004333Y023236D03*
X004063Y024716D03*
X004053Y024726D03*
X004033Y024756D03*
X004023Y024766D03*
X001873Y023646D03*
X001583Y022976D03*
X001593Y022966D03*
X001253Y022696D03*
X001243Y022706D03*
X001233Y022716D03*
X001223Y022736D03*
X001213Y022746D03*
X001193Y022776D03*
X001223Y024726D03*
X001233Y024736D03*
X001243Y024746D03*
D136*
X002618Y024326D03*
X002638Y022706D03*
D137*
X002638Y022716D03*
X002638Y023876D03*
X001928Y024066D03*
X001988Y025286D03*
D138*
X002268Y024996D03*
X002198Y024876D03*
X002648Y024856D03*
X003018Y025036D03*
X003098Y024876D03*
X003098Y024866D03*
X004068Y024706D03*
X004078Y024696D03*
X004088Y024686D03*
X004088Y024676D03*
X004098Y024666D03*
X004108Y024646D03*
X003408Y023646D03*
X002648Y023576D03*
X001868Y023636D03*
X001678Y024166D03*
X001168Y024646D03*
X001188Y024676D03*
X001198Y024686D03*
X001198Y024696D03*
X001208Y024706D03*
X001218Y024716D03*
X001158Y022826D03*
X001168Y022816D03*
X001178Y022796D03*
X001188Y022786D03*
X001198Y022766D03*
X001208Y022756D03*
X001228Y022726D03*
X004338Y023246D03*
X004338Y023256D03*
X004338Y023266D03*
D139*
X004203Y022756D03*
X004203Y022746D03*
X003503Y025206D03*
X002643Y025596D03*
D140*
X002628Y024346D03*
X002638Y022746D03*
D141*
X002638Y022756D03*
X002638Y025556D03*
D142*
X002643Y022766D03*
D143*
X002638Y022776D03*
D144*
X002638Y022796D03*
D145*
X002643Y023256D03*
X002643Y023266D03*
X002643Y023566D03*
X003383Y023836D03*
X003593Y024186D03*
X004123Y024616D03*
X004123Y024626D03*
X004113Y024636D03*
X004103Y024656D03*
X004133Y024606D03*
X004343Y023306D03*
X004343Y023296D03*
X004343Y023286D03*
X004343Y023276D03*
X003103Y024886D03*
X003023Y025046D03*
X002193Y024886D03*
X001183Y024666D03*
X001173Y024656D03*
X001163Y024636D03*
X001153Y024626D03*
X001153Y024616D03*
X001133Y022876D03*
X001143Y022856D03*
X001153Y022836D03*
X001173Y022806D03*
D146*
X002638Y022816D03*
D147*
X003068Y023606D03*
X003648Y023036D03*
X003658Y023046D03*
X003668Y023056D03*
X003678Y023066D03*
X003688Y023076D03*
X003718Y022856D03*
X003708Y022846D03*
X003698Y022836D03*
X003688Y022826D03*
X003998Y023376D03*
X003848Y023736D03*
X003838Y023746D03*
X003828Y023756D03*
X003818Y023766D03*
X003808Y023776D03*
X001648Y023026D03*
X001638Y023036D03*
X001628Y023046D03*
X001568Y023096D03*
X001558Y023106D03*
X001548Y022866D03*
X001558Y022856D03*
X001568Y022846D03*
X001578Y022836D03*
X001278Y023376D03*
X001458Y023766D03*
X001468Y023776D03*
D148*
X002638Y022836D03*
D149*
X002638Y022846D03*
X002638Y025516D03*
D150*
X003033Y025136D03*
X003573Y024276D03*
X004003Y023386D03*
X003633Y023026D03*
X003623Y023016D03*
X003603Y023006D03*
X003593Y022996D03*
X003583Y022986D03*
X003743Y022886D03*
X003743Y022876D03*
X003733Y022866D03*
X002983Y023276D03*
X002303Y023276D03*
X002123Y023276D03*
X002213Y023606D03*
X001663Y023016D03*
X001673Y023006D03*
X001683Y022996D03*
X001693Y022986D03*
X001543Y022876D03*
X001273Y023386D03*
X001413Y023716D03*
X001443Y023756D03*
X001683Y024266D03*
D151*
X002638Y022866D03*
D152*
X002638Y022876D03*
X002638Y023906D03*
X002638Y025506D03*
D153*
X002638Y022886D03*
D154*
X002638Y022896D03*
D155*
X002638Y022906D03*
D156*
X002638Y022926D03*
D157*
X002638Y022946D03*
X002638Y023916D03*
X002648Y024416D03*
D158*
X002633Y024636D03*
X002633Y024646D03*
X002633Y024656D03*
X002633Y024666D03*
X002643Y022956D03*
D159*
X002638Y022976D03*
X002628Y024606D03*
D160*
X001398Y022986D03*
X003878Y022986D03*
D161*
X002643Y022996D03*
X002633Y024556D03*
D162*
X002628Y024546D03*
X002628Y024536D03*
X002638Y023006D03*
D163*
X002638Y023026D03*
X002638Y024446D03*
X002628Y024456D03*
X002628Y024466D03*
X002628Y024476D03*
D164*
X002643Y023036D03*
D165*
X002638Y023046D03*
X002638Y025446D03*
D166*
X002643Y023066D03*
D167*
X002643Y023076D03*
D168*
X002643Y023096D03*
D169*
X002638Y023106D03*
X002638Y025426D03*
D170*
X002643Y023116D03*
D171*
X002643Y023136D03*
D172*
X002388Y023146D03*
D173*
X002213Y023206D03*
X003073Y023206D03*
X003383Y023436D03*
D174*
X003178Y023536D03*
X003058Y023416D03*
X003068Y023406D03*
X003068Y023396D03*
X003068Y023386D03*
X003178Y023286D03*
X003068Y023216D03*
X002328Y023536D03*
X002108Y023536D03*
X002098Y023286D03*
X001328Y023586D03*
X001318Y023566D03*
X001308Y023546D03*
X001308Y023536D03*
X001298Y023516D03*
X001298Y023506D03*
X001288Y023496D03*
X001288Y023486D03*
X001288Y023476D03*
X001278Y023466D03*
X001278Y023456D03*
X001268Y023436D03*
X001268Y023426D03*
X001268Y023416D03*
X001268Y023406D03*
X001708Y024286D03*
X003948Y023586D03*
X003958Y023576D03*
X003958Y023566D03*
X003968Y023556D03*
X003968Y023546D03*
X003978Y023526D03*
X003978Y023516D03*
X003988Y023506D03*
X003988Y023496D03*
X003998Y023476D03*
X003998Y023466D03*
X004008Y023446D03*
X004008Y023436D03*
X004008Y023416D03*
D175*
X003663Y023926D03*
X003223Y023496D03*
X003223Y023486D03*
X003213Y023506D03*
X003203Y023516D03*
X003063Y023446D03*
X002923Y023506D03*
X002913Y023496D03*
X002903Y023476D03*
X002903Y023346D03*
X002913Y023336D03*
X002913Y023326D03*
X002923Y023316D03*
X003223Y023336D03*
X002383Y023456D03*
X002373Y023486D03*
X002363Y023496D03*
X002213Y023446D03*
X002213Y023376D03*
X002073Y023316D03*
X002063Y023326D03*
X002053Y023346D03*
X002053Y023486D03*
X002063Y023496D03*
X002363Y023326D03*
X002373Y023336D03*
X001723Y024296D03*
D176*
X001753Y024316D03*
X001603Y023936D03*
X001703Y023446D03*
X002693Y023356D03*
D177*
X002638Y023356D03*
X001708Y023366D03*
X003498Y024326D03*
D178*
X003058Y023456D03*
D179*
X003073Y023616D03*
X003673Y023936D03*
X002213Y023616D03*
X002213Y023466D03*
D180*
X002353Y023686D03*
X002643Y024396D03*
D181*
X002643Y023716D03*
X002643Y023706D03*
X002643Y023696D03*
X002643Y025366D03*
D182*
X002638Y023756D03*
X002638Y023746D03*
X002638Y023736D03*
X002638Y023726D03*
D183*
X002643Y023766D03*
D184*
X002643Y023796D03*
D185*
X002638Y023886D03*
D186*
X002638Y023896D03*
D187*
X002633Y023926D03*
D188*
X002638Y023946D03*
D189*
X002638Y023956D03*
X002638Y025396D03*
D190*
X002638Y023966D03*
D191*
X002633Y023976D03*
D192*
X002638Y024016D03*
D193*
X002638Y024026D03*
D194*
X002638Y024036D03*
D195*
X002638Y024046D03*
D196*
X002633Y024356D03*
X003213Y024056D03*
X002643Y025546D03*
D197*
X002013Y024056D03*
D198*
X002643Y025566D03*
X003303Y024066D03*
D199*
X001893Y024076D03*
D200*
X003388Y024086D03*
D201*
X002638Y024366D03*
D202*
X002643Y024386D03*
D203*
X002643Y024436D03*
X002633Y024516D03*
X002633Y024526D03*
D204*
X002633Y024586D03*
X002633Y024596D03*
D205*
X002633Y024676D03*
X002633Y024686D03*
D206*
X002633Y024706D03*
X002643Y025486D03*
D207*
X001953Y025276D03*
X003323Y025276D03*
D208*
X003248Y025296D03*
X002038Y025296D03*
D209*
X002638Y025306D03*
D210*
X002643Y025316D03*
D211*
X002643Y025336D03*
D212*
X002638Y025386D03*
D213*
X002643Y025406D03*
D214*
X002643Y025416D03*
D215*
X002638Y025436D03*
D216*
X002638Y025476D03*
D217*
X002643Y025496D03*
M02*
